# MagicaVoxel @ Ephtracy

# group
o 

# material
mtllib Zed_6-2.mtl
usemtl palette

# normals
vn 0 -1 0
vn 0 1 0
vn 0 0 1
vn 0 0 -1
vn -1 0 0
vn 1 0 0

# texcoords
vt 0.931641 0.5
vt 0.955078 0.5
vt 0.958984 0.5
vt 0.982422 0.5
vt 0.986328 0.5

# verts
v 0.7 2.2 -0.1
v 0.7 2.2 -0.2
v 0.7 2.2 -0.3
v 0.8 2.2 -0.1
v 0.8 2.2 -0.2
v 0.8 2.2 -0.3
v 0.6 2.4 -0.1
v 0.6 2.4 -0.2
v 0.6 2.4 -0.3
v 0.7 2.4 0
v 0.7 2.4 -0.1
v 0.7 2.4 -0.2
v 0.7 2.4 -0.3
v 0.8 2.4 0
v 0.8 2.4 -0.1
v 0.6 2.6 0
v 0.6 2.6 -0.1
v 0.7 2.6 0
v 0.7 2.6 -0.1
v 0.6 3.6 -0.1
v 0.6 3.6 -0.2
v 0.7 3.6 -0.1
v 0.7 3.6 -0.2
v 0.7 3.6 -0.3
v 0.8 3.6 -0.2
v 0.8 3.6 -0.3
v 0.6 4.7 -0.1
v 0.6 4.7 -0.2
v 0.7 4.7 -0.1
v 0.7 4.7 -0.2
v 0.7 4.8 -0.1
v 0.7 4.8 -0.2
v 0.7 4.8 -0.3
v 0.8 4.8 -0.1
v 0.8 4.8 -0.2
v 0.8 4.8 -0.3
v 0.6 2.7 0
v 0.6 2.7 -0.1
v 0.7 2.7 0
v 0.7 2.7 -0.1
v 0.8 2.7 0
v 0.8 2.7 -0.1
v 0.6 3.5 -0.1
v 0.6 3.5 -0.2
v 0.7 3.5 -0.2
v 0.7 3.5 -0.3
v 0.8 3.5 -0.1
v 0.8 3.5 -0.3
v 0.6 3.7 -0.1
v 0.6 3.7 -0.2
v 0.7 3.7 -0.1
v 0.7 3.7 -0.2
v 0.7 3.7 -0.3
v 0.8 3.7 -0.2
v 0.8 3.7 -0.3
v 0.6 4.9 -0.1
v 0.6 4.9 -0.2
v 0.6 4.9 -0.3
v 0.7 4.9 -0.1
v 0.7 4.9 -0.2
v 0.7 4.9 -0.3
v 0.8 4.9 -0.1
v 0.8 4.9 -0.2
v 0.8 4.9 -0.3
v 0.7 2.4 0
v 0.8 2.4 0
v 0.6 2.6 0
v 0.7 2.6 0
v 0.6 2.7 0
v 0.7 2.7 0
v 0.8 2.7 0
v 0.7 2.2 -0.1
v 0.8 2.2 -0.1
v 0.6 2.4 -0.1
v 0.7 2.4 -0.1
v 0.8 2.4 -0.1
v 0.6 2.6 -0.1
v 0.7 2.6 -0.1
v 0.6 2.7 -0.1
v 0.7 2.7 -0.1
v 0.8 2.7 -0.1
v 0.6 2.8 -0.1
v 0.7 2.8 -0.1
v 0.7 3 -0.1
v 0.8 3 -0.1
v 0.7 3.2 -0.1
v 0.8 3.2 -0.1
v 0.6 3.4 -0.1
v 0.7 3.4 -0.1
v 0.8 3.4 -0.1
v 0.6 3.5 -0.1
v 0.8 3.5 -0.1
v 0.6 3.6 -0.1
v 0.7 3.6 -0.1
v 0.6 3.7 -0.1
v 0.7 3.7 -0.1
v 0.6 4.7 -0.1
v 0.7 4.7 -0.1
v 0.7 4.8 -0.1
v 0.8 4.8 -0.1
v 0.6 4.9 -0.1
v 0.7 4.9 -0.1
v 0.8 4.9 -0.1
v 0.6 3.5 -0.2
v 0.7 3.5 -0.2
v 0.6 3.6 -0.2
v 0.7 3.6 -0.2
v 0.8 3.6 -0.2
v 0.6 3.7 -0.2
v 0.7 3.7 -0.2
v 0.8 3.7 -0.2
v 0.6 4 -0.2
v 0.7 4 -0.2
v 0.6 4.2 -0.2
v 0.7 4.2 -0.2
v 0.6 4.3 -0.2
v 0.7 4.3 -0.2
v 0.6 4.4 -0.2
v 0.7 4.4 -0.2
v 0.6 4.5 -0.2
v 0.7 4.5 -0.2
v 0.6 4.7 -0.2
v 0.7 4.7 -0.2
v 0.7 2.2 -0.3
v 0.8 2.2 -0.3
v 0.7 2.3 -0.3
v 0.8 2.3 -0.3
v 0.6 2.4 -0.3
v 0.7 2.4 -0.3
v 0.8 2.4 -0.3
v 0.6 2.6 -0.3
v 0.7 2.6 -0.3
v 0.8 2.6 -0.3
v 0.7 2.7 -0.3
v 0.8 2.7 -0.3
v 0.7 2.8 -0.3
v 0.8 2.8 -0.3
v 0.6 3.1 -0.3
v 0.7 3.1 -0.3
v 0.8 3.1 -0.3
v 0.6 3.2 -0.3
v 0.7 3.2 -0.3
v 0.8 3.2 -0.3
v 0.7 3.3 -0.3
v 0.8 3.3 -0.3
v 0.7 3.4 -0.3
v 0.8 3.4 -0.3
v 0.6 3.5 -0.3
v 0.7 3.5 -0.3
v 0.8 3.5 -0.3
v 0.6 3.6 -0.3
v 0.7 3.6 -0.3
v 0.8 3.6 -0.3
v 0.6 3.7 -0.3
v 0.7 3.7 -0.3
v 0.8 3.7 -0.3
v 0.6 4 -0.3
v 0.7 4 -0.3
v 0.6 4.2 -0.3
v 0.7 4.2 -0.3
v 0.6 4.3 -0.3
v 0.7 4.3 -0.3
v 0.6 4.4 -0.3
v 0.7 4.4 -0.3
v 0.6 4.5 -0.3
v 0.7 4.5 -0.3
v 0.7 4.8 -0.3
v 0.8 4.8 -0.3
v 0.6 4.9 -0.3
v 0.7 4.9 -0.3
v 0.8 4.9 -0.3
v 0.6 2.6 0
v 0.6 2.7 0
v 0.6 2.4 -0.1
v 0.6 2.6 -0.1
v 0.6 2.7 -0.1
v 0.6 2.8 -0.1
v 0.6 3.4 -0.1
v 0.6 3.5 -0.1
v 0.6 3.6 -0.1
v 0.6 3.7 -0.1
v 0.6 4.7 -0.1
v 0.6 4.9 -0.1
v 0.6 2.4 -0.2
v 0.6 2.6 -0.2
v 0.6 2.8 -0.2
v 0.6 3.1 -0.2
v 0.6 3.2 -0.2
v 0.6 3.4 -0.2
v 0.6 3.5 -0.2
v 0.6 3.6 -0.2
v 0.6 3.7 -0.2
v 0.6 4 -0.2
v 0.6 4.2 -0.2
v 0.6 4.3 -0.2
v 0.6 4.4 -0.2
v 0.6 4.5 -0.2
v 0.6 4.7 -0.2
v 0.6 4.9 -0.2
v 0.6 2.4 -0.3
v 0.6 2.6 -0.3
v 0.6 3.1 -0.3
v 0.6 3.2 -0.3
v 0.6 3.5 -0.3
v 0.6 3.6 -0.3
v 0.6 3.7 -0.3
v 0.6 4 -0.3
v 0.6 4.2 -0.3
v 0.6 4.3 -0.3
v 0.6 4.4 -0.3
v 0.6 4.5 -0.3
v 0.6 4.9 -0.3
v 0.7 2.4 0
v 0.7 2.6 0
v 0.7 2.2 -0.1
v 0.7 2.4 -0.1
v 0.7 2.6 -0.1
v 0.7 2.2 -0.2
v 0.7 2.3 -0.2
v 0.7 2.4 -0.2
v 0.7 2.2 -0.3
v 0.7 2.3 -0.3
v 0.7 2.4 -0.3
v 0.7 3.6 -0.1
v 0.7 3.7 -0.1
v 0.7 4.7 -0.1
v 0.7 4.8 -0.1
v 0.7 3.5 -0.2
v 0.7 3.6 -0.2
v 0.7 3.7 -0.2
v 0.7 4 -0.2
v 0.7 4.2 -0.2
v 0.7 4.3 -0.2
v 0.7 4.4 -0.2
v 0.7 4.5 -0.2
v 0.7 4.7 -0.2
v 0.7 4.8 -0.2
v 0.7 3.5 -0.3
v 0.7 3.6 -0.3
v 0.7 3.7 -0.3
v 0.7 4 -0.3
v 0.7 4.2 -0.3
v 0.7 4.3 -0.3
v 0.7 4.4 -0.3
v 0.7 4.5 -0.3
v 0.7 4.8 -0.3
v 0.8 2.4 0
v 0.8 2.7 0
v 0.8 2.2 -0.1
v 0.8 2.4 -0.1
v 0.8 2.5 -0.1
v 0.8 2.6 -0.1
v 0.8 2.7 -0.1
v 0.8 3 -0.1
v 0.8 3.2 -0.1
v 0.8 3.4 -0.1
v 0.8 3.5 -0.1
v 0.8 4.8 -0.1
v 0.8 4.9 -0.1
v 0.8 2.2 -0.2
v 0.8 2.3 -0.2
v 0.8 2.5 -0.2
v 0.8 2.6 -0.2
v 0.8 2.7 -0.2
v 0.8 2.8 -0.2
v 0.8 3 -0.2
v 0.8 3.1 -0.2
v 0.8 3.2 -0.2
v 0.8 3.3 -0.2
v 0.8 3.4 -0.2
v 0.8 3.6 -0.2
v 0.8 3.7 -0.2
v 0.8 4.8 -0.2
v 0.8 4.9 -0.2
v 0.8 2.2 -0.3
v 0.8 2.3 -0.3
v 0.8 2.4 -0.3
v 0.8 2.6 -0.3
v 0.8 2.7 -0.3
v 0.8 2.8 -0.3
v 0.8 3.1 -0.3
v 0.8 3.2 -0.3
v 0.8 3.3 -0.3
v 0.8 3.4 -0.3
v 0.8 3.5 -0.3
v 0.8 3.6 -0.3
v 0.8 3.7 -0.3
v 0.8 4.8 -0.3
v 0.8 4.9 -0.3

# faces
f 1/3/1 2/3/1 4/3/1
f 2/2/1 3/2/1 5/2/1
f 4/3/1 2/3/1 5/3/1
f 5/2/1 3/2/1 6/2/1
f 7/2/1 8/2/1 11/2/1
f 8/3/1 9/3/1 12/3/1
f 11/2/1 8/2/1 12/2/1
f 12/3/1 9/3/1 13/3/1
f 10/3/1 11/3/1 14/3/1
f 14/3/1 11/3/1 15/3/1
f 16/2/1 17/2/1 18/2/1
f 18/2/1 17/2/1 19/2/1
f 20/4/1 21/4/1 22/4/1
f 22/4/1 21/4/1 23/4/1
f 23/5/1 24/5/1 25/5/1
f 25/5/1 24/5/1 26/5/1
f 27/1/1 28/1/1 29/1/1
f 29/1/1 28/1/1 30/1/1
f 31/3/1 32/3/1 34/3/1
f 32/2/1 33/2/1 35/2/1
f 34/3/1 32/3/1 35/3/1
f 35/2/1 33/2/1 36/2/1
f 39/2/2 38/2/2 37/2/2
f 40/2/2 38/2/2 39/2/2
f 41/3/2 40/3/2 39/3/2
f 42/3/2 40/3/2 41/3/2
f 45/3/2 44/3/2 43/3/2
f 47/3/2 45/3/2 43/3/2
f 47/3/2 46/3/2 45/3/2
f 48/3/2 46/3/2 47/3/2
f 51/4/2 50/4/2 49/4/2
f 52/4/2 50/4/2 51/4/2
f 54/5/2 53/5/2 52/5/2
f 55/5/2 53/5/2 54/5/2
f 59/1/2 57/1/2 56/1/2
f 60/3/2 58/3/2 57/3/2
f 60/1/2 57/1/2 59/1/2
f 61/3/2 58/3/2 60/3/2
f 62/3/2 60/3/2 59/3/2
f 63/2/2 61/2/2 60/2/2
f 63/3/2 60/3/2 62/3/2
f 64/2/2 61/2/2 63/2/2
f 65/3/3 66/3/3 68/3/3
f 67/2/3 68/2/3 69/2/3
f 68/3/3 66/3/3 70/3/3
f 69/2/3 68/2/3 70/2/3
f 70/3/3 66/3/3 71/3/3
f 72/3/3 73/3/3 75/3/3
f 75/3/3 73/3/3 76/3/3
f 74/2/3 75/2/3 77/2/3
f 77/2/3 75/2/3 78/2/3
f 79/2/3 80/2/3 82/2/3
f 80/2/3 81/2/3 82/2/3
f 82/2/3 81/2/3 83/2/3
f 82/1/3 83/1/3 84/1/3
f 83/2/3 81/2/3 84/2/3
f 84/2/3 81/2/3 85/2/3
f 82/1/3 84/1/3 86/1/3
f 84/1/3 85/1/3 86/1/3
f 86/1/3 85/1/3 87/1/3
f 82/1/3 86/1/3 88/1/3
f 86/2/3 87/2/3 89/2/3
f 88/1/3 86/1/3 89/1/3
f 89/2/3 87/2/3 90/2/3
f 88/3/3 89/3/3 91/3/3
f 89/3/3 90/3/3 91/3/3
f 91/3/3 90/3/3 92/3/3
f 93/4/3 94/4/3 95/4/3
f 95/4/3 94/4/3 96/4/3
f 97/1/3 98/1/3 99/1/3
f 97/1/3 99/1/3 101/1/3
f 99/3/3 100/3/3 102/3/3
f 101/1/3 99/1/3 102/1/3
f 102/3/3 100/3/3 103/3/3
f 104/2/3 105/2/3 106/2/3
f 106/2/3 105/2/3 107/2/3
f 107/5/3 108/5/3 110/5/3
f 110/5/3 108/5/3 111/5/3
f 109/4/3 110/4/3 112/4/3
f 112/4/3 110/4/3 113/4/3
f 112/2/3 113/2/3 114/2/3
f 114/2/3 113/2/3 115/2/3
f 114/4/3 115/4/3 116/4/3
f 116/4/3 115/4/3 117/4/3
f 116/2/3 117/2/3 118/2/3
f 118/2/3 117/2/3 119/2/3
f 118/4/3 119/4/3 120/4/3
f 120/4/3 119/4/3 121/4/3
f 120/3/3 121/3/3 122/3/3
f 122/3/3 121/3/3 123/3/3
f 126/2/4 125/2/4 124/2/4
f 127/2/4 125/2/4 126/2/4
f 129/3/4 127/3/4 126/3/4
f 130/3/4 127/3/4 129/3/4
f 131/3/4 129/3/4 128/3/4
f 132/2/4 130/2/4 129/2/4
f 132/3/4 129/3/4 131/3/4
f 133/2/4 130/2/4 132/2/4
f 134/1/4 132/1/4 131/1/4
f 134/1/4 133/1/4 132/1/4
f 135/1/4 133/1/4 134/1/4
f 136/1/4 134/1/4 131/1/4
f 136/2/4 135/2/4 134/2/4
f 137/2/4 135/2/4 136/2/4
f 138/1/4 136/1/4 131/1/4
f 138/1/4 137/1/4 136/1/4
f 139/1/4 137/1/4 138/1/4
f 140/1/4 137/1/4 139/1/4
f 141/2/4 139/2/4 138/2/4
f 142/3/4 140/3/4 139/3/4
f 142/2/4 139/2/4 141/2/4
f 143/3/4 140/3/4 142/3/4
f 144/1/4 142/1/4 141/1/4
f 144/2/4 143/2/4 142/2/4
f 145/2/4 143/2/4 144/2/4
f 146/1/4 144/1/4 141/1/4
f 146/1/4 145/1/4 144/1/4
f 147/1/4 145/1/4 146/1/4
f 148/1/4 146/1/4 141/1/4
f 149/3/4 147/3/4 146/3/4
f 149/1/4 146/1/4 148/1/4
f 150/3/4 147/3/4 149/3/4
f 151/2/4 149/2/4 148/2/4
f 152/2/4 149/2/4 151/2/4
f 154/5/4 152/5/4 151/5/4
f 154/5/4 153/5/4 152/5/4
f 155/5/4 153/5/4 154/5/4
f 156/5/4 153/5/4 155/5/4
f 157/4/4 155/4/4 154/4/4
f 158/4/4 155/4/4 157/4/4
f 159/2/4 158/2/4 157/2/4
f 160/2/4 158/2/4 159/2/4
f 161/4/4 160/4/4 159/4/4
f 162/4/4 160/4/4 161/4/4
f 163/2/4 162/2/4 161/2/4
f 164/2/4 162/2/4 163/2/4
f 165/4/4 164/4/4 163/4/4
f 166/4/4 164/4/4 165/4/4
f 167/3/4 166/3/4 165/3/4
f 169/3/4 167/3/4 165/3/4
f 170/2/4 168/2/4 167/2/4
f 170/3/4 167/3/4 169/3/4
f 171/2/4 168/2/4 170/2/4
f 172/2/5 173/2/5 175/2/5
f 175/2/5 173/2/5 176/2/5
f 174/2/5 175/2/5 184/2/5
f 175/2/5 176/2/5 184/2/5
f 176/2/5 177/2/5 184/2/5
f 184/2/5 177/2/5 185/2/5
f 177/1/5 178/1/5 186/1/5
f 185/2/5 177/2/5 186/2/5
f 186/1/5 178/1/5 187/1/5
f 187/1/5 178/1/5 188/1/5
f 178/3/5 179/3/5 189/3/5
f 188/1/5 178/1/5 189/1/5
f 189/3/5 179/3/5 190/3/5
f 180/4/5 181/4/5 191/4/5
f 191/4/5 181/4/5 192/4/5
f 182/1/5 183/1/5 198/1/5
f 198/1/5 183/1/5 199/1/5
f 184/3/5 185/3/5 200/3/5
f 185/1/5 186/1/5 201/1/5
f 200/3/5 185/3/5 201/3/5
f 186/1/5 187/1/5 201/1/5
f 187/2/5 188/2/5 202/2/5
f 201/1/5 187/1/5 202/1/5
f 189/1/5 190/1/5 203/1/5
f 202/2/5 188/2/5 203/2/5
f 188/1/5 189/1/5 203/1/5
f 190/2/5 191/2/5 204/2/5
f 203/1/5 190/1/5 204/1/5
f 191/5/5 192/5/5 205/5/5
f 204/2/5 191/2/5 205/2/5
f 192/4/5 193/4/5 206/4/5
f 205/5/5 192/5/5 206/5/5
f 193/2/5 194/2/5 207/2/5
f 206/4/5 193/4/5 207/4/5
f 194/4/5 195/4/5 208/4/5
f 207/2/5 194/2/5 208/2/5
f 195/2/5 196/2/5 209/2/5
f 208/4/5 195/4/5 209/4/5
f 196/4/5 197/4/5 210/4/5
f 209/2/5 196/2/5 210/2/5
f 198/3/5 199/3/5 211/3/5
f 210/4/5 197/4/5 211/4/5
f 197/3/5 198/3/5 211/3/5
f 211/3/5 199/3/5 212/3/5
f 213/3/5 214/3/5 216/3/5
f 216/3/5 214/3/5 217/3/5
f 215/3/5 216/3/5 218/3/5
f 218/3/5 216/3/5 219/3/5
f 219/3/5 216/3/5 220/3/5
f 218/2/5 219/2/5 221/2/5
f 219/3/5 220/3/5 222/3/5
f 221/2/5 219/2/5 222/2/5
f 222/3/5 220/3/5 223/3/5
f 229/4/6 225/4/6 224/4/6
f 230/4/6 225/4/6 229/4/6
f 236/1/6 227/1/6 226/1/6
f 237/1/6 227/1/6 236/1/6
f 238/2/6 229/2/6 228/2/6
f 239/2/6 229/2/6 238/2/6
f 240/4/6 231/4/6 230/4/6
f 241/2/6 232/2/6 231/2/6
f 241/4/6 231/4/6 240/4/6
f 242/4/6 233/4/6 232/4/6
f 242/2/6 232/2/6 241/2/6
f 243/2/6 234/2/6 233/2/6
f 243/4/6 233/4/6 242/4/6
f 244/4/6 235/4/6 234/4/6
f 244/2/6 234/2/6 243/2/6
f 245/3/6 237/3/6 236/3/6
f 245/4/6 235/4/6 244/4/6
f 245/3/6 236/3/6 235/3/6
f 246/3/6 237/3/6 245/3/6
f 250/3/6 248/3/6 247/3/6
f 251/3/6 248/3/6 250/3/6
f 252/3/6 248/3/6 251/3/6
f 253/3/6 248/3/6 252/3/6
f 260/3/6 250/3/6 249/3/6
f 261/3/6 250/3/6 260/3/6
f 262/2/6 251/2/6 250/2/6
f 262/1/6 252/1/6 251/1/6
f 263/3/6 253/3/6 252/3/6
f 263/1/6 252/1/6 262/1/6
f 264/2/6 254/2/6 253/2/6
f 264/3/6 253/3/6 263/3/6
f 265/2/6 254/2/6 264/2/6
f 266/1/6 255/1/6 254/1/6
f 266/2/6 254/2/6 265/2/6
f 267/1/6 255/1/6 266/1/6
f 268/2/6 256/2/6 255/2/6
f 268/1/6 255/1/6 267/1/6
f 269/2/6 256/2/6 268/2/6
f 270/3/6 257/3/6 256/3/6
f 270/2/6 256/2/6 269/2/6
f 273/3/6 259/3/6 258/3/6
f 274/3/6 259/3/6 273/3/6
f 275/2/6 261/2/6 260/2/6
f 276/3/6 250/3/6 261/3/6
f 276/2/6 261/2/6 275/2/6
f 277/2/6 262/2/6 250/2/6
f 277/3/6 250/3/6 276/3/6
f 277/2/6 263/2/6 262/2/6
f 278/1/6 264/1/6 263/1/6
f 278/2/6 263/2/6 277/2/6
f 279/2/6 265/2/6 264/2/6
f 279/1/6 264/1/6 278/1/6
f 280/1/6 267/1/6 266/1/6
f 280/2/6 265/2/6 279/2/6
f 280/1/6 266/1/6 265/1/6
f 281/3/6 268/3/6 267/3/6
f 281/1/6 267/1/6 280/1/6
f 282/2/6 269/2/6 268/2/6
f 282/3/6 268/3/6 281/3/6
f 283/1/6 270/1/6 269/1/6
f 283/2/6 269/2/6 282/2/6
f 284/3/6 257/3/6 270/3/6
f 284/1/6 270/1/6 283/1/6
f 285/3/6 257/3/6 284/3/6
f 286/5/6 272/5/6 271/5/6
f 287/5/6 272/5/6 286/5/6
f 288/2/6 274/2/6 273/2/6
f 289/2/6 274/2/6 288/2/6
