# MagicaVoxel @ Ephtracy

# group
o 

# material
mtllib Zed_2-4.mtl
usemtl palette

# normals
vn -1 0 0
vn 1 0 0
vn 0 0 1
vn 0 0 -1
vn 0 -1 0
vn 0 1 0

# texcoords
vt 0.310547 0.5
vt 0.341797 0.5
vt 0.357422 0.5
vt 0.361328 0.5
vt 0.365234 0.5
vt 0.373047 0.5
vt 0.955078 0.5
vt 0.958984 0.5

# verts
v -0.7 2.2 -0.1
v -0.7 2.2 -0.2
v -0.7 2.2 -0.3
v -0.7 2.3 -0.1
v -0.7 2.3 -0.2
v -0.7 2.4 0
v -0.7 2.4 -0.1
v -0.7 2.4 -0.2
v -0.7 2.4 -0.3
v -0.7 2.5 0
v -0.7 2.5 -0.1
v -0.7 2.5 -0.2
v -0.7 2.5 -0.3
v -0.7 2.6 -0.1
v -0.7 2.6 -0.2
v -0.7 2.7 0
v -0.7 2.7 -0.1
v -0.7 2.7 -0.2
v -0.7 2.7 -0.3
v -0.7 2.8 -0.2
v -0.7 2.8 -0.3
v -0.7 2.9 -0.1
v -0.7 2.9 -0.2
v -0.7 3 -0.2
v -0.7 3 -0.3
v -0.7 3.1 -0.1
v -0.7 3.1 -0.2
v -0.7 3.1 -0.3
v -0.7 3.2 -0.1
v -0.7 3.2 -0.2
v -0.7 3.5 -0.2
v -0.7 3.5 -0.3
v -0.7 3.6 -0.1
v -0.7 3.6 -0.2
v -0.7 3.6 -0.3
v -0.7 3.7 -0.1
v -0.7 3.7 -0.2
v -0.7 3.7 -0.3
v -0.7 3.8 -0.2
v -0.7 3.8 -0.3
v -0.7 4.1 -0.1
v -0.7 4.1 -0.3
v -0.7 4.2 -0.2
v -0.7 4.2 -0.3
v -0.7 4.3 -0.2
v -0.7 4.3 -0.3
v -0.7 4.4 -0.1
v -0.7 4.4 -0.2
v -0.7 4.5 -0.1
v -0.7 4.5 -0.2
v -0.7 4.5 -0.3
v -0.7 4.6 -0.2
v -0.7 4.6 -0.3
v -0.7 4.9 -0.1
v -0.7 4.9 -0.3
v -0.6 2.2 -0.1
v -0.6 2.2 -0.2
v -0.6 2.2 -0.3
v -0.6 2.3 -0.1
v -0.6 2.3 -0.2
v -0.6 2.4 0
v -0.6 2.4 -0.1
v -0.6 2.4 -0.2
v -0.6 2.4 -0.3
v -0.6 2.5 0
v -0.6 2.5 -0.1
v -0.6 2.6 0
v -0.6 2.6 -0.1
v -0.5 2.4 -0.1
v -0.5 2.4 -0.3
v -0.5 2.5 -0.1
v -0.5 2.5 -0.2
v -0.5 2.6 0
v -0.5 2.6 -0.1
v -0.5 2.6 -0.2
v -0.5 2.6 -0.3
v -0.5 2.7 0
v -0.5 2.7 -0.1
v -0.5 2.7 -0.2
v -0.5 2.7 -0.3
v -0.5 2.8 -0.1
v -0.5 2.8 -0.2
v -0.5 2.8 -0.3
v -0.5 2.9 -0.2
v -0.5 2.9 -0.3
v -0.5 3.5 -0.1
v -0.5 3.5 -0.2
v -0.5 3.6 -0.1
v -0.5 3.6 -0.2
v -0.5 3.6 -0.3
v -0.5 3.7 -0.1
v -0.5 3.7 -0.2
v -0.5 3.7 -0.3
v -0.5 3.8 -0.1
v -0.5 3.8 -0.2
v -0.5 4 -0.1
v -0.5 4 -0.2
v -0.5 4.1 -0.1
v -0.5 4.1 -0.2
v -0.5 4.3 -0.1
v -0.5 4.3 -0.2
v -0.5 4.4 -0.1
v -0.5 4.4 -0.2
v -0.5 4.5 -0.1
v -0.5 4.5 -0.2
v -0.5 4.5 -0.3
v -0.5 4.6 -0.1
v -0.5 4.6 -0.2
v -0.5 4.6 -0.3
v -0.5 4.7 -0.1
v -0.5 4.7 -0.2
v -0.5 4.7 -0.3
v -0.5 4.8 -0.1
v -0.5 4.8 -0.3
v -0.5 4.9 -0.1
v -0.5 4.9 -0.3
v -0.7 2.4 0
v -0.7 2.5 0
v -0.7 2.7 0
v -0.6 2.4 0
v -0.6 2.5 0
v -0.6 2.6 0
v -0.6 2.7 0
v -0.5 2.6 0
v -0.5 2.7 0
v -0.7 2.2 -0.1
v -0.7 2.3 -0.1
v -0.7 2.4 -0.1
v -0.7 2.7 -0.1
v -0.7 2.9 -0.1
v -0.7 3.1 -0.1
v -0.7 3.2 -0.1
v -0.7 3.6 -0.1
v -0.7 3.7 -0.1
v -0.7 4.1 -0.1
v -0.7 4.4 -0.1
v -0.7 4.5 -0.1
v -0.7 4.9 -0.1
v -0.6 2.2 -0.1
v -0.6 2.3 -0.1
v -0.6 2.4 -0.1
v -0.6 2.5 -0.1
v -0.6 2.6 -0.1
v -0.6 2.7 -0.1
v -0.6 2.8 -0.1
v -0.6 2.9 -0.1
v -0.6 3.1 -0.1
v -0.6 3.2 -0.1
v -0.6 3.5 -0.1
v -0.6 3.6 -0.1
v -0.6 3.7 -0.1
v -0.6 3.8 -0.1
v -0.6 4 -0.1
v -0.6 4.1 -0.1
v -0.6 4.3 -0.1
v -0.6 4.4 -0.1
v -0.6 4.5 -0.1
v -0.6 4.6 -0.1
v -0.6 4.7 -0.1
v -0.6 4.8 -0.1
v -0.6 4.9 -0.1
v -0.5 2.4 -0.1
v -0.5 2.5 -0.1
v -0.5 2.6 -0.1
v -0.5 2.7 -0.1
v -0.5 2.8 -0.1
v -0.5 3.5 -0.1
v -0.5 3.6 -0.1
v -0.5 3.7 -0.1
v -0.5 3.8 -0.1
v -0.5 4 -0.1
v -0.5 4.1 -0.1
v -0.5 4.3 -0.1
v -0.5 4.4 -0.1
v -0.5 4.5 -0.1
v -0.5 4.6 -0.1
v -0.5 4.7 -0.1
v -0.5 4.8 -0.1
v -0.5 4.9 -0.1
v -0.7 2.2 -0.3
v -0.7 2.4 -0.3
v -0.7 2.5 -0.3
v -0.7 2.7 -0.3
v -0.7 2.8 -0.3
v -0.7 3 -0.3
v -0.7 3.1 -0.3
v -0.7 3.5 -0.3
v -0.7 3.6 -0.3
v -0.7 3.7 -0.3
v -0.7 3.8 -0.3
v -0.7 4.1 -0.3
v -0.7 4.2 -0.3
v -0.7 4.3 -0.3
v -0.7 4.5 -0.3
v -0.7 4.6 -0.3
v -0.7 4.9 -0.3
v -0.6 2.2 -0.3
v -0.6 2.4 -0.3
v -0.6 2.5 -0.3
v -0.6 2.6 -0.3
v -0.6 2.7 -0.3
v -0.6 2.8 -0.3
v -0.6 2.9 -0.3
v -0.6 3 -0.3
v -0.6 3.1 -0.3
v -0.6 3.5 -0.3
v -0.6 3.6 -0.3
v -0.6 3.7 -0.3
v -0.6 3.8 -0.3
v -0.6 4.1 -0.3
v -0.6 4.2 -0.3
v -0.6 4.3 -0.3
v -0.6 4.5 -0.3
v -0.6 4.6 -0.3
v -0.6 4.7 -0.3
v -0.6 4.8 -0.3
v -0.6 4.9 -0.3
v -0.5 2.4 -0.3
v -0.5 2.6 -0.3
v -0.5 2.7 -0.3
v -0.5 2.8 -0.3
v -0.5 2.9 -0.3
v -0.5 3.6 -0.3
v -0.5 3.7 -0.3
v -0.5 4.5 -0.3
v -0.5 4.6 -0.3
v -0.5 4.7 -0.3
v -0.5 4.8 -0.3
v -0.5 4.9 -0.3
v -0.7 2.2 -0.1
v -0.6 2.2 -0.1
v -0.7 2.2 -0.2
v -0.6 2.2 -0.2
v -0.7 2.2 -0.3
v -0.6 2.2 -0.3
v -0.7 2.4 0
v -0.6 2.4 0
v -0.7 2.4 -0.1
v -0.6 2.4 -0.1
v -0.5 2.4 -0.1
v -0.6 2.4 -0.2
v -0.6 2.4 -0.3
v -0.5 2.4 -0.3
v -0.6 2.6 0
v -0.5 2.6 0
v -0.6 2.6 -0.1
v -0.5 2.6 -0.1
v -0.7 2.7 0
v -0.6 2.7 0
v -0.5 2.7 0
v -0.7 2.7 -0.1
v -0.6 2.7 -0.1
v -0.5 2.7 -0.1
v -0.7 4.9 -0.1
v -0.6 4.9 -0.1
v -0.5 4.9 -0.1
v -0.7 4.9 -0.3
v -0.6 4.9 -0.3
v -0.5 4.9 -0.3

# faces
f 4/7/1 2/7/1 1/7/1
f 5/8/1 3/8/1 2/8/1
f 5/7/1 2/7/1 4/7/1
f 7/4/1 5/4/1 4/4/1
f 8/8/1 3/8/1 5/8/1
f 8/4/1 5/4/1 7/4/1
f 9/8/1 3/8/1 8/8/1
f 10/8/1 7/8/1 6/8/1
f 11/5/1 8/5/1 7/5/1
f 11/8/1 7/8/1 10/8/1
f 12/7/1 9/7/1 8/7/1
f 12/5/1 8/5/1 11/5/1
f 13/7/1 9/7/1 12/7/1
f 14/7/1 11/7/1 10/7/1
f 14/3/1 12/3/1 11/3/1
f 14/3/1 13/3/1 12/3/1
f 15/3/1 13/3/1 14/3/1
f 16/7/1 14/7/1 10/7/1
f 17/5/1 15/5/1 14/5/1
f 17/7/1 14/7/1 16/7/1
f 18/3/1 13/3/1 15/3/1
f 18/5/1 15/5/1 17/5/1
f 19/3/1 13/3/1 18/3/1
f 20/7/1 18/7/1 17/7/1
f 20/4/1 19/4/1 18/4/1
f 21/4/1 19/4/1 20/4/1
f 22/7/1 20/7/1 17/7/1
f 23/3/1 21/3/1 20/3/1
f 23/7/1 20/7/1 22/7/1
f 24/3/1 23/3/1 22/3/1
f 24/3/1 21/3/1 23/3/1
f 25/3/1 21/3/1 24/3/1
f 26/3/1 24/3/1 22/3/1
f 27/7/1 25/7/1 24/7/1
f 27/3/1 24/3/1 26/3/1
f 28/7/1 25/7/1 27/7/1
f 29/7/1 27/7/1 26/7/1
f 30/3/1 28/3/1 27/3/1
f 30/7/1 27/7/1 29/7/1
f 31/3/1 30/3/1 29/3/1
f 31/3/1 28/3/1 30/3/1
f 32/3/1 28/3/1 31/3/1
f 33/3/1 31/3/1 29/3/1
f 34/4/1 32/4/1 31/4/1
f 34/3/1 31/3/1 33/3/1
f 35/4/1 32/4/1 34/4/1
f 36/4/1 34/4/1 33/4/1
f 37/5/1 35/5/1 34/5/1
f 37/4/1 34/4/1 36/4/1
f 38/5/1 35/5/1 37/5/1
f 39/3/1 37/3/1 36/3/1
f 39/4/1 38/4/1 37/4/1
f 40/4/1 38/4/1 39/4/1
f 41/3/1 39/3/1 36/3/1
f 41/3/1 40/3/1 39/3/1
f 42/3/1 40/3/1 41/3/1
f 43/5/1 42/5/1 41/5/1
f 44/5/1 42/5/1 43/5/1
f 45/5/1 43/5/1 41/5/1
f 45/4/1 44/4/1 43/4/1
f 46/4/1 44/4/1 45/4/1
f 47/5/1 45/5/1 41/5/1
f 47/5/1 46/5/1 45/5/1
f 48/5/1 46/5/1 47/5/1
f 49/6/1 48/6/1 47/6/1
f 50/5/1 46/5/1 48/5/1
f 50/6/1 48/6/1 49/6/1
f 51/5/1 46/5/1 50/5/1
f 52/1/1 50/1/1 49/1/1
f 52/6/1 51/6/1 50/6/1
f 53/6/1 51/6/1 52/6/1
f 54/1/1 52/1/1 49/1/1
f 54/1/1 53/1/1 52/1/1
f 55/1/1 53/1/1 54/1/1
f 56/7/2 57/7/2 59/7/2
f 57/8/2 58/8/2 60/8/2
f 59/7/2 57/7/2 60/7/2
f 59/4/2 60/4/2 62/4/2
f 60/8/2 58/8/2 63/8/2
f 62/4/2 60/4/2 63/4/2
f 63/8/2 58/8/2 64/8/2
f 61/8/2 62/8/2 65/8/2
f 65/8/2 62/8/2 66/8/2
f 65/7/2 66/7/2 67/7/2
f 67/7/2 66/7/2 68/7/2
f 69/8/2 70/8/2 71/8/2
f 71/8/2 70/8/2 72/8/2
f 71/4/2 72/4/2 74/4/2
f 72/8/2 70/8/2 75/8/2
f 74/4/2 72/4/2 75/4/2
f 75/8/2 70/8/2 76/8/2
f 73/3/2 74/3/2 77/3/2
f 74/4/2 75/4/2 78/4/2
f 77/3/2 74/3/2 78/3/2
f 75/4/2 76/4/2 78/4/2
f 78/4/2 76/4/2 79/4/2
f 79/4/2 76/4/2 80/4/2
f 78/4/2 79/4/2 81/4/2
f 79/5/2 80/5/2 82/5/2
f 81/4/2 79/4/2 82/4/2
f 82/5/2 80/5/2 83/5/2
f 81/3/2 82/3/2 84/3/2
f 82/4/2 83/4/2 84/4/2
f 84/4/2 83/4/2 85/4/2
f 81/3/2 84/3/2 86/3/2
f 84/3/2 85/3/2 86/3/2
f 86/3/2 85/3/2 87/3/2
f 86/4/2 87/4/2 88/4/2
f 87/3/2 85/3/2 89/3/2
f 88/4/2 87/4/2 89/4/2
f 89/3/2 85/3/2 90/3/2
f 88/5/2 89/5/2 91/5/2
f 89/4/2 90/4/2 92/4/2
f 91/5/2 89/5/2 92/5/2
f 92/4/2 90/4/2 93/4/2
f 91/4/2 92/4/2 94/4/2
f 92/3/2 93/3/2 95/3/2
f 94/4/2 92/4/2 95/4/2
f 94/3/2 95/3/2 96/3/2
f 95/3/2 93/3/2 97/3/2
f 96/3/2 95/3/2 97/3/2
f 96/4/2 97/4/2 98/4/2
f 97/3/2 93/3/2 99/3/2
f 98/4/2 97/4/2 99/4/2
f 98/3/2 99/3/2 100/3/2
f 99/3/2 93/3/2 101/3/2
f 100/3/2 99/3/2 101/3/2
f 100/4/2 101/4/2 102/4/2
f 101/3/2 93/3/2 103/3/2
f 102/4/2 101/4/2 103/4/2
f 102/5/2 103/5/2 104/5/2
f 103/3/2 93/3/2 105/3/2
f 104/5/2 103/5/2 105/5/2
f 105/3/2 93/3/2 106/3/2
f 104/6/2 105/6/2 107/6/2
f 105/4/2 106/4/2 108/4/2
f 107/6/2 105/6/2 108/6/2
f 108/4/2 106/4/2 109/4/2
f 107/4/2 108/4/2 110/4/2
f 108/6/2 109/6/2 111/6/2
f 110/4/2 108/4/2 111/4/2
f 111/6/2 109/6/2 112/6/2
f 110/2/2 111/2/2 113/2/2
f 111/2/2 112/2/2 113/2/2
f 113/2/2 112/2/2 114/2/2
f 113/6/2 114/6/2 115/6/2
f 115/6/2 114/6/2 116/6/2
f 120/8/3 118/8/3 117/8/3
f 121/7/3 119/7/3 118/7/3
f 121/8/3 118/8/3 120/8/3
f 122/7/3 119/7/3 121/7/3
f 123/7/3 119/7/3 122/7/3
f 124/3/3 123/3/3 122/3/3
f 125/3/3 123/3/3 124/3/3
f 139/7/3 127/7/3 126/7/3
f 140/4/3 128/4/3 127/4/3
f 140/7/3 127/7/3 139/7/3
f 141/4/3 128/4/3 140/4/3
f 144/7/3 130/7/3 129/7/3
f 145/7/3 130/7/3 144/7/3
f 146/3/3 131/3/3 130/3/3
f 146/7/3 130/7/3 145/7/3
f 147/7/3 132/7/3 131/7/3
f 147/3/3 131/3/3 146/3/3
f 148/3/3 133/3/3 132/3/3
f 148/7/3 132/7/3 147/7/3
f 149/3/3 133/3/3 148/3/3
f 150/4/3 134/4/3 133/4/3
f 150/3/3 133/3/3 149/3/3
f 151/3/3 135/3/3 134/3/3
f 151/4/3 134/4/3 150/4/3
f 152/3/3 135/3/3 151/3/3
f 153/3/3 135/3/3 152/3/3
f 154/5/3 136/5/3 135/5/3
f 154/3/3 135/3/3 153/3/3
f 155/5/3 136/5/3 154/5/3
f 156/6/3 137/6/3 136/6/3
f 156/5/3 136/5/3 155/5/3
f 157/1/3 138/1/3 137/1/3
f 157/6/3 137/6/3 156/6/3
f 158/1/3 138/1/3 157/1/3
f 159/1/3 138/1/3 158/1/3
f 160/1/3 138/1/3 159/1/3
f 161/1/3 138/1/3 160/1/3
f 162/8/3 142/8/3 141/8/3
f 163/4/3 143/4/3 142/4/3
f 163/8/3 142/8/3 162/8/3
f 164/4/3 143/4/3 163/4/3
f 165/4/3 145/4/3 144/4/3
f 166/3/3 146/3/3 145/3/3
f 166/4/3 145/4/3 165/4/3
f 166/3/3 147/3/3 146/3/3
f 166/3/3 149/3/3 148/3/3
f 166/3/3 148/3/3 147/3/3
f 167/4/3 150/4/3 149/4/3
f 167/3/3 149/3/3 166/3/3
f 168/5/3 151/5/3 150/5/3
f 168/4/3 150/4/3 167/4/3
f 169/4/3 152/4/3 151/4/3
f 169/5/3 151/5/3 168/5/3
f 170/3/3 153/3/3 152/3/3
f 170/4/3 152/4/3 169/4/3
f 171/4/3 154/4/3 153/4/3
f 171/3/3 153/3/3 170/3/3
f 172/3/3 155/3/3 154/3/3
f 172/4/3 154/4/3 171/4/3
f 173/4/3 156/4/3 155/4/3
f 173/3/3 155/3/3 172/3/3
f 174/5/3 157/5/3 156/5/3
f 174/4/3 156/4/3 173/4/3
f 175/6/3 158/6/3 157/6/3
f 175/5/3 157/5/3 174/5/3
f 176/4/3 159/4/3 158/4/3
f 176/6/3 158/6/3 175/6/3
f 177/2/3 160/2/3 159/2/3
f 177/4/3 159/4/3 176/4/3
f 178/6/3 161/6/3 160/6/3
f 178/2/3 160/2/3 177/2/3
f 179/6/3 161/6/3 178/6/3
f 180/8/4 181/8/4 197/8/4
f 181/7/4 182/7/4 198/7/4
f 197/8/4 181/8/4 198/8/4
f 182/3/4 183/3/4 199/3/4
f 198/7/4 182/7/4 199/7/4
f 199/3/4 183/3/4 200/3/4
f 183/4/4 184/4/4 201/4/4
f 200/3/4 183/3/4 201/3/4
f 184/3/4 185/3/4 202/3/4
f 201/4/4 184/4/4 202/4/4
f 202/3/4 185/3/4 203/3/4
f 185/7/4 186/7/4 204/7/4
f 203/3/4 185/3/4 204/3/4
f 186/3/4 187/3/4 205/3/4
f 204/7/4 186/7/4 205/7/4
f 187/4/4 188/4/4 206/4/4
f 205/3/4 187/3/4 206/3/4
f 188/5/4 189/5/4 207/5/4
f 206/4/4 188/4/4 207/4/4
f 189/4/4 190/4/4 208/4/4
f 207/5/4 189/5/4 208/5/4
f 190/3/4 191/3/4 209/3/4
f 208/4/4 190/4/4 209/4/4
f 191/5/4 192/5/4 210/5/4
f 209/3/4 191/3/4 210/3/4
f 192/4/4 193/4/4 211/4/4
f 210/5/4 192/5/4 211/5/4
f 193/5/4 194/5/4 212/5/4
f 211/4/4 193/4/4 212/4/4
f 194/6/4 195/6/4 213/6/4
f 212/5/4 194/5/4 213/5/4
f 195/1/4 196/1/4 214/1/4
f 213/6/4 195/6/4 214/6/4
f 214/1/4 196/1/4 215/1/4
f 215/1/4 196/1/4 216/1/4
f 216/1/4 196/1/4 217/1/4
f 199/8/4 200/8/4 218/8/4
f 198/8/4 199/8/4 218/8/4
f 200/4/4 201/4/4 219/4/4
f 218/8/4 200/8/4 219/8/4
f 201/5/4 202/5/4 220/5/4
f 219/4/4 201/4/4 220/4/4
f 202/4/4 203/4/4 221/4/4
f 220/5/4 202/5/4 221/5/4
f 203/3/4 204/3/4 222/3/4
f 221/4/4 203/4/4 222/4/4
f 204/3/4 205/3/4 222/3/4
f 205/3/4 206/3/4 222/3/4
f 206/3/4 207/3/4 222/3/4
f 207/4/4 208/4/4 223/4/4
f 222/3/4 207/3/4 223/3/4
f 212/3/4 213/3/4 224/3/4
f 223/4/4 208/4/4 224/4/4
f 208/3/4 209/3/4 224/3/4
f 209/3/4 210/3/4 224/3/4
f 211/3/4 212/3/4 224/3/4
f 210/3/4 211/3/4 224/3/4
f 213/4/4 214/4/4 225/4/4
f 224/3/4 213/3/4 225/3/4
f 214/6/4 215/6/4 226/6/4
f 225/4/4 214/4/4 226/4/4
f 215/2/4 216/2/4 227/2/4
f 226/6/4 215/6/4 227/6/4
f 216/6/4 217/6/4 228/6/4
f 227/2/4 216/2/4 228/2/4
f 228/6/4 217/6/4 229/6/4
f 232/7/5 231/7/5 230/7/5
f 233/7/5 231/7/5 232/7/5
f 234/8/5 233/8/5 232/8/5
f 235/8/5 233/8/5 234/8/5
f 238/8/5 237/8/5 236/8/5
f 239/8/5 237/8/5 238/8/5
f 241/8/5 240/8/5 239/8/5
f 242/8/5 240/8/5 241/8/5
f 243/8/5 240/8/5 242/8/5
f 246/3/5 245/3/5 244/3/5
f 247/3/5 245/3/5 246/3/5
f 248/7/6 249/7/6 251/7/6
f 249/3/6 250/3/6 252/3/6
f 251/7/6 249/7/6 252/7/6
f 252/3/6 250/3/6 253/3/6
f 254/1/6 255/1/6 257/1/6
f 255/6/6 256/6/6 258/6/6
f 257/1/6 255/1/6 258/1/6
f 258/6/6 256/6/6 259/6/6
