# MagicaVoxel @ Ephtracy

# group
o 

# material
mtllib sword.mtl
usemtl palette

# normals
vn -1 0 0
vn 1 0 0
vn 0 0 1
vn 0 0 -1
vn 0 -1 0
vn 0 1 0

# texcoords
vt 0.00195313 0.5
vt 0.0214844 0.5
vt 0.0996094 0.5
vt 0.150391 0.5

# verts
v -0.3 0.5 0
v -0.3 0.5 -0.1
v -0.3 0.6 0
v -0.3 0.6 -0.1
v -0.2 0.4 0
v -0.2 0.4 -0.1
v -0.2 0.5 0
v -0.2 0.5 -0.1
v -0.1 0 0
v -0.1 0 -0.1
v -0.1 0.1 0
v -0.1 0.1 -0.1
v -0.1 0.6 0
v -0.1 0.6 -0.1
v -0.1 1.5 0
v -0.1 1.5 -0.1
v 0 0 0.1
v 0 0 0
v 0 0 -0.1
v 0 0 -0.2
v 0 0.1 0.1
v 0 0.1 0
v 0 0.1 -0.1
v 0 0.1 -0.2
v 0 0.2 0
v 0 0.2 -0.1
v 0 0.3 0
v 0 0.3 -0.1
v 0 0.4 0.1
v 0 0.4 0
v 0 0.4 -0.1
v 0 0.4 -0.2
v 0 0.5 0
v 0 0.5 -0.1
v 0 0.6 0.1
v 0 0.6 0
v 0 0.6 -0.1
v 0 0.6 -0.2
v 0 1.5 0
v 0 1.5 -0.1
v 0 1.6 0
v 0 1.6 -0.1
v 0.1 0 0.1
v 0.1 0 0
v 0.1 0 -0.1
v 0.1 0 -0.2
v 0.1 0.1 0.1
v 0.1 0.1 0
v 0.1 0.1 -0.1
v 0.1 0.1 -0.2
v 0.1 0.2 0
v 0.1 0.2 -0.1
v 0.1 0.3 0
v 0.1 0.3 -0.1
v 0.1 0.4 0.1
v 0.1 0.4 0
v 0.1 0.4 -0.1
v 0.1 0.4 -0.2
v 0.1 0.5 0
v 0.1 0.5 -0.1
v 0.1 0.6 0.1
v 0.1 0.6 0
v 0.1 0.6 -0.1
v 0.1 0.6 -0.2
v 0.1 1.5 0
v 0.1 1.5 -0.1
v 0.1 1.6 0
v 0.1 1.6 -0.1
v 0.2 0 0
v 0.2 0 -0.1
v 0.2 0.1 0
v 0.2 0.1 -0.1
v 0.2 0.6 0
v 0.2 0.6 -0.1
v 0.2 1.5 0
v 0.2 1.5 -0.1
v 0.3 0.4 0
v 0.3 0.4 -0.1
v 0.3 0.5 0
v 0.3 0.5 -0.1
v 0.4 0.5 0
v 0.4 0.5 -0.1
v 0.4 0.6 0
v 0.4 0.6 -0.1
v 0 0 0.1
v 0 0.1 0.1
v 0 0.4 0.1
v 0 0.6 0.1
v 0.1 0 0.1
v 0.1 0.1 0.1
v 0.1 0.4 0.1
v 0.1 0.6 0.1
v -0.3 0.5 0
v -0.3 0.6 0
v -0.2 0.4 0
v -0.2 0.5 0
v -0.1 0 0
v -0.1 0.1 0
v -0.1 0.5 0
v -0.1 0.6 0
v -0.1 1.5 0
v 0 0 0
v 0 0.1 0
v 0 0.2 0
v 0 0.3 0
v 0 0.4 0
v 0 0.5 0
v 0 0.6 0
v 0 1.5 0
v 0 1.6 0
v 0.1 0 0
v 0.1 0.1 0
v 0.1 0.2 0
v 0.1 0.3 0
v 0.1 0.4 0
v 0.1 0.5 0
v 0.1 0.6 0
v 0.1 1.5 0
v 0.1 1.6 0
v 0.2 0 0
v 0.2 0.1 0
v 0.2 0.5 0
v 0.2 0.6 0
v 0.2 1.5 0
v 0.3 0.4 0
v 0.3 0.5 0
v 0.4 0.5 0
v 0.4 0.6 0
v -0.3 0.5 -0.1
v -0.3 0.6 -0.1
v -0.2 0.4 -0.1
v -0.2 0.5 -0.1
v -0.1 0 -0.1
v -0.1 0.1 -0.1
v -0.1 0.5 -0.1
v -0.1 0.6 -0.1
v -0.1 1.5 -0.1
v 0 0 -0.1
v 0 0.1 -0.1
v 0 0.2 -0.1
v 0 0.3 -0.1
v 0 0.4 -0.1
v 0 0.5 -0.1
v 0 0.6 -0.1
v 0 1.5 -0.1
v 0 1.6 -0.1
v 0.1 0 -0.1
v 0.1 0.1 -0.1
v 0.1 0.2 -0.1
v 0.1 0.3 -0.1
v 0.1 0.4 -0.1
v 0.1 0.5 -0.1
v 0.1 0.6 -0.1
v 0.1 1.5 -0.1
v 0.1 1.6 -0.1
v 0.2 0 -0.1
v 0.2 0.1 -0.1
v 0.2 0.5 -0.1
v 0.2 0.6 -0.1
v 0.2 1.5 -0.1
v 0.3 0.4 -0.1
v 0.3 0.5 -0.1
v 0.4 0.5 -0.1
v 0.4 0.6 -0.1
v 0 0 -0.2
v 0 0.1 -0.2
v 0 0.4 -0.2
v 0 0.6 -0.2
v 0.1 0 -0.2
v 0.1 0.1 -0.2
v 0.1 0.4 -0.2
v 0.1 0.6 -0.2
v 0 0 0.1
v 0.1 0 0.1
v -0.1 0 0
v 0 0 0
v 0.1 0 0
v 0.2 0 0
v -0.1 0 -0.1
v 0 0 -0.1
v 0.1 0 -0.1
v 0.2 0 -0.1
v 0 0 -0.2
v 0.1 0 -0.2
v 0 0.4 0.1
v 0.1 0.4 0.1
v -0.2 0.4 0
v 0 0.4 0
v 0.1 0.4 0
v 0.3 0.4 0
v -0.2 0.4 -0.1
v 0 0.4 -0.1
v 0.1 0.4 -0.1
v 0.3 0.4 -0.1
v 0 0.4 -0.2
v 0.1 0.4 -0.2
v -0.3 0.5 0
v -0.2 0.5 0
v 0.3 0.5 0
v 0.4 0.5 0
v -0.3 0.5 -0.1
v -0.2 0.5 -0.1
v 0.3 0.5 -0.1
v 0.4 0.5 -0.1
v 0 0.1 0.1
v 0.1 0.1 0.1
v -0.1 0.1 0
v 0 0.1 0
v 0.1 0.1 0
v 0.2 0.1 0
v -0.1 0.1 -0.1
v 0 0.1 -0.1
v 0.1 0.1 -0.1
v 0.2 0.1 -0.1
v 0 0.1 -0.2
v 0.1 0.1 -0.2
v 0 0.6 0.1
v 0.1 0.6 0.1
v -0.3 0.6 0
v -0.1 0.6 0
v 0 0.6 0
v 0.1 0.6 0
v 0.2 0.6 0
v 0.4 0.6 0
v -0.3 0.6 -0.1
v -0.1 0.6 -0.1
v 0 0.6 -0.1
v 0.1 0.6 -0.1
v 0.2 0.6 -0.1
v 0.4 0.6 -0.1
v 0 0.6 -0.2
v 0.1 0.6 -0.2
v -0.1 1.5 0
v 0 1.5 0
v 0.1 1.5 0
v 0.2 1.5 0
v -0.1 1.5 -0.1
v 0 1.5 -0.1
v 0.1 1.5 -0.1
v 0.2 1.5 -0.1
v 0 1.6 0
v 0.1 1.6 0
v 0 1.6 -0.1
v 0.1 1.6 -0.1

# faces
f 3/4/1 2/4/1 1/4/1
f 4/4/1 2/4/1 3/4/1
f 7/1/1 6/1/1 5/1/1
f 8/1/1 6/1/1 7/1/1
f 11/4/1 10/4/1 9/4/1
f 12/4/1 10/4/1 11/4/1
f 15/2/1 14/2/1 13/2/1
f 16/2/1 14/2/1 15/2/1
f 21/4/1 18/4/1 17/4/1
f 22/4/1 18/4/1 21/4/1
f 23/4/1 20/4/1 19/4/1
f 24/4/1 20/4/1 23/4/1
f 25/1/1 23/1/1 22/1/1
f 26/1/1 23/1/1 25/1/1
f 27/4/1 26/4/1 25/4/1
f 28/4/1 26/4/1 27/4/1
f 30/1/1 28/1/1 27/1/1
f 31/1/1 28/1/1 30/1/1
f 33/4/1 30/4/1 29/4/1
f 34/4/1 32/4/1 31/4/1
f 35/4/1 33/4/1 29/4/1
f 36/4/1 33/4/1 35/4/1
f 37/4/1 32/4/1 34/4/1
f 38/4/1 32/4/1 37/4/1
f 41/2/1 40/2/1 39/2/1
f 42/2/1 40/2/1 41/2/1
f 43/4/2 44/4/2 47/4/2
f 47/4/2 44/4/2 48/4/2
f 45/4/2 46/4/2 49/4/2
f 49/4/2 46/4/2 50/4/2
f 48/1/2 49/1/2 51/1/2
f 51/1/2 49/1/2 52/1/2
f 51/4/2 52/4/2 53/4/2
f 53/4/2 52/4/2 54/4/2
f 53/1/2 54/1/2 56/1/2
f 56/1/2 54/1/2 57/1/2
f 55/4/2 56/4/2 59/4/2
f 57/4/2 58/4/2 60/4/2
f 55/4/2 59/4/2 61/4/2
f 61/4/2 59/4/2 62/4/2
f 60/4/2 58/4/2 63/4/2
f 63/4/2 58/4/2 64/4/2
f 65/2/2 66/2/2 67/2/2
f 67/2/2 66/2/2 68/2/2
f 69/4/2 70/4/2 71/4/2
f 71/4/2 70/4/2 72/4/2
f 73/2/2 74/2/2 75/2/2
f 75/2/2 74/2/2 76/2/2
f 77/1/2 78/1/2 79/1/2
f 79/1/2 78/1/2 80/1/2
f 81/4/2 82/4/2 83/4/2
f 83/4/2 82/4/2 84/4/2
f 89/4/3 86/4/3 85/4/3
f 90/4/3 86/4/3 89/4/3
f 91/4/3 88/4/3 87/4/3
f 92/4/3 88/4/3 91/4/3
f 96/4/3 94/4/3 93/4/3
f 99/4/3 94/4/3 96/4/3
f 99/1/3 96/1/3 95/1/3
f 100/4/3 94/4/3 99/4/3
f 102/4/3 98/4/3 97/4/3
f 103/4/3 98/4/3 102/4/3
f 106/1/3 99/1/3 95/1/3
f 107/2/3 101/2/3 100/2/3
f 107/2/3 100/2/3 99/2/3
f 107/1/3 99/1/3 106/1/3
f 108/2/3 101/2/3 107/2/3
f 109/2/3 101/2/3 108/2/3
f 112/1/3 104/1/3 103/1/3
f 113/4/3 105/4/3 104/4/3
f 113/1/3 104/1/3 112/1/3
f 114/1/3 106/1/3 105/1/3
f 114/4/3 105/4/3 113/4/3
f 115/1/3 106/1/3 114/1/3
f 117/3/3 109/3/3 108/3/3
f 118/2/3 110/2/3 109/2/3
f 118/3/3 109/3/3 117/3/3
f 119/2/3 110/2/3 118/2/3
f 120/4/3 112/4/3 111/4/3
f 121/4/3 112/4/3 120/4/3
f 122/2/3 118/2/3 117/2/3
f 122/2/3 117/2/3 116/2/3
f 122/1/3 116/1/3 115/1/3
f 123/2/3 118/2/3 122/2/3
f 124/2/3 118/2/3 123/2/3
f 125/1/3 122/1/3 115/1/3
f 126/4/3 123/4/3 122/4/3
f 126/1/3 122/1/3 125/1/3
f 127/4/3 123/4/3 126/4/3
f 128/4/3 123/4/3 127/4/3
f 129/4/4 130/4/4 132/4/4
f 132/4/4 130/4/4 135/4/4
f 131/1/4 132/1/4 135/1/4
f 135/4/4 130/4/4 136/4/4
f 133/4/4 134/4/4 138/4/4
f 138/4/4 134/4/4 139/4/4
f 131/1/4 135/1/4 142/1/4
f 136/2/4 137/2/4 143/2/4
f 135/2/4 136/2/4 143/2/4
f 142/1/4 135/1/4 143/1/4
f 143/2/4 137/2/4 144/2/4
f 144/2/4 137/2/4 145/2/4
f 139/1/4 140/1/4 148/1/4
f 140/4/4 141/4/4 149/4/4
f 148/1/4 140/1/4 149/1/4
f 141/1/4 142/1/4 150/1/4
f 149/4/4 141/4/4 150/4/4
f 150/1/4 142/1/4 151/1/4
f 144/3/4 145/3/4 153/3/4
f 145/2/4 146/2/4 154/2/4
f 153/3/4 145/3/4 154/3/4
f 154/2/4 146/2/4 155/2/4
f 147/4/4 148/4/4 156/4/4
f 156/4/4 148/4/4 157/4/4
f 153/2/4 154/2/4 158/2/4
f 152/2/4 153/2/4 158/2/4
f 151/1/4 152/1/4 158/1/4
f 158/2/4 154/2/4 159/2/4
f 159/2/4 154/2/4 160/2/4
f 151/1/4 158/1/4 161/1/4
f 158/4/4 159/4/4 162/4/4
f 161/1/4 158/1/4 162/1/4
f 162/4/4 159/4/4 163/4/4
f 163/4/4 159/4/4 164/4/4
f 165/4/4 166/4/4 169/4/4
f 169/4/4 166/4/4 170/4/4
f 167/4/4 168/4/4 171/4/4
f 171/4/4 168/4/4 172/4/4
f 176/4/5 174/4/5 173/4/5
f 177/4/5 174/4/5 176/4/5
f 179/4/5 176/4/5 175/4/5
f 180/1/5 177/1/5 176/1/5
f 180/4/5 176/4/5 179/4/5
f 181/4/5 178/4/5 177/4/5
f 181/1/5 177/1/5 180/1/5
f 182/4/5 178/4/5 181/4/5
f 183/4/5 181/4/5 180/4/5
f 184/4/5 181/4/5 183/4/5
f 188/4/5 186/4/5 185/4/5
f 189/4/5 186/4/5 188/4/5
f 191/1/5 188/1/5 187/1/5
f 192/1/5 188/1/5 191/1/5
f 193/1/5 190/1/5 189/1/5
f 194/1/5 190/1/5 193/1/5
f 195/4/5 193/4/5 192/4/5
f 196/4/5 193/4/5 195/4/5
f 201/4/5 198/4/5 197/4/5
f 202/4/5 198/4/5 201/4/5
f 203/4/5 200/4/5 199/4/5
f 204/4/5 200/4/5 203/4/5
f 205/4/6 206/4/6 208/4/6
f 208/4/6 206/4/6 209/4/6
f 207/4/6 208/4/6 211/4/6
f 211/4/6 208/4/6 212/4/6
f 209/4/6 210/4/6 213/4/6
f 213/4/6 210/4/6 214/4/6
f 212/4/6 213/4/6 215/4/6
f 215/4/6 213/4/6 216/4/6
f 217/4/6 218/4/6 221/4/6
f 221/4/6 218/4/6 222/4/6
f 219/4/6 220/4/6 225/4/6
f 225/4/6 220/4/6 226/4/6
f 223/4/6 224/4/6 229/4/6
f 229/4/6 224/4/6 230/4/6
f 227/4/6 228/4/6 231/4/6
f 231/4/6 228/4/6 232/4/6
f 233/2/6 234/2/6 237/2/6
f 237/2/6 234/2/6 238/2/6
f 235/2/6 236/2/6 239/2/6
f 239/2/6 236/2/6 240/2/6
f 241/2/6 242/2/6 243/2/6
f 243/2/6 242/2/6 244/2/6
