<?xml version="1.0" encoding="UTF-8" standalone="no"?>
<!-- Created with Inkscape (http://www.inkscape.org/) -->

<svg
   width="500"
   height="500"
   viewBox="0 0 132.29166 132.29167"
   version="1.1"
   id="svg1"
   xml:space="preserve"
   inkscape:version="1.3.2 (091e20ef0f, 2023-11-25, custom)"
   sodipodi:docname="temp.svg"
   xmlns:inkscape="http://www.inkscape.org/namespaces/inkscape"
   xmlns:sodipodi="http://sodipodi.sourceforge.net/DTD/sodipodi-0.dtd"
   xmlns="http://www.w3.org/2000/svg"
   xmlns:svg="http://www.w3.org/2000/svg"><sodipodi:namedview
     id="namedview1"
     pagecolor="#ffffff"
     bordercolor="#000000"
     borderopacity="0.25"
     inkscape:showpageshadow="2"
     inkscape:pageopacity="0.0"
     inkscape:pagecheckerboard="0"
     inkscape:deskcolor="#d1d1d1"
     inkscape:document-units="mm"
     inkscape:zoom="0.36435887"
     inkscape:cx="456.96706"
     inkscape:cy="661.4358"
     inkscape:window-width="1920"
     inkscape:window-height="1022"
     inkscape:window-x="0"
     inkscape:window-y="30"
     inkscape:window-maximized="1"
     inkscape:current-layer="layer1"
     showgrid="false" /><defs
     id="defs1"><linearGradient
       id="swatch13"
       inkscape:swatch="solid"><stop
         style="stop-color:#000000;stop-opacity:1;"
         offset="0"
         id="stop13" /></linearGradient></defs><g
     inkscape:label="Layer 1"
     inkscape:groupmode="layer"
     id="layer1"><g
       inkscape:label="Layer 1"
       id="layer1-6"
       transform="translate(-1.9518538,-12.746417)"
       style="fill:#ce8fd3;fill-opacity:1;stroke:#ce8fd3;stroke-opacity:1"><rect
         style="fill:none;fill-opacity:1;stroke:#ce8fd3;stroke-width:9.88283;stroke-linejoin:bevel;stroke-dasharray:none;stroke-dashoffset:0;stroke-opacity:1;paint-order:normal"
         id="rect9"
         width="51.605099"
         height="35.114483"
         x="73.683769"
         y="53.747448"
         ry="0.89181119"
         rx="0" /><rect
         style="fill:#ce8fd3;fill-opacity:1;stroke:#ce8fd3;stroke-width:3.82544;stroke-linejoin:bevel;stroke-dasharray:none;stroke-dashoffset:0;stroke-opacity:1;paint-order:normal"
         id="rect20"
         width="57.852451"
         height="21.601574"
         x="70.411957"
         y="17.123108"
         ry="1.9270607" /><rect
         style="fill:#ce8fd3;fill-opacity:1;stroke:#ce8fd3;stroke-width:4.90774;stroke-linejoin:bevel;stroke-dasharray:none;stroke-dashoffset:0;stroke-opacity:1;paint-order:normal"
         id="rect1"
         width="56.770153"
         height="36.231567"
         x="70.95311"
         y="103.72672"
         ry="3.2321918" /></g><path
       d="M 25.830815,0.01602133 V 53.429408 l -7.847085,-7.84709 c -1.160157,-1.154413 -2.737394,-1.791312 -4.373854,-1.76619 -1.579013,0.01886 -3.088497,0.652428 -4.2079484,1.76619 -2.369591,2.369974 -2.369591,6.212056 0,8.58203 L 27.608639,72.371063 c 0.0076,0.0077 0.01527,0.01529 0.02294,0.0229 0.09965,0.09437 0.202466,0.185332 0.308281,0.27273 0.06231,0.05636 0.125785,0.111424 0.190382,0.16515 0.09662,0.07406 0.195452,0.145202 0.296354,0.21332 0.04696,0.032 0.09437,0.06333 0.142213,0.094 0.149967,0.09768 0.304182,0.18868 0.462192,0.27273 0.01144,0.0077 0.02291,0.01531 0.03441,0.0229 0.0274,0.01628 0.05492,0.03235 0.08257,0.0482 0.154921,0.07785 0.313106,0.149018 0.47412,0.21332 0.148097,0.0571 0.298377,0.108364 0.450494,0.15368 0.05096,0.02056 0.102187,0.04043 0.153682,0.0596 0.07857,0.02145 0.157571,0.04133 0.236945,0.0596 0.137312,0.03235 0.275709,0.0599 0.414941,0.0826 0.196283,0.03341 0.394091,0.05714 0.592707,0.0711 0.01606,6.4e-5 0.03211,6.4e-5 0.04817,0 0.126193,0.01159 0.252717,0.01923 0.379388,0.0229 0.03138,-0.0037 0.06273,-0.0077 0.09404,-0.0119 0.170137,-4.87e-4 0.340178,-0.0081 0.509673,-0.0229 0.03138,-0.0037 0.06273,-0.0076 0.09404,-0.0118 0.170986,-0.02029 0.341031,-0.04785 0.509673,-0.0826 0.10739,-0.02462 0.214089,-0.05217 0.31998,-0.0826 0.119434,-0.02777 0.237999,-0.05915 0.355532,-0.0941 0.160459,-0.05301 0.318635,-0.112699 0.474113,-0.17891 0.02762,-0.01126 0.05515,-0.02273 0.0826,-0.0344 0.157168,-0.06837 0.31137,-0.143368 0.46219,-0.22479 0.02766,-0.01585 0.05519,-0.03192 0.0826,-0.0482 0.14999,-0.08465 0.296309,-0.175639 0.43856,-0.27273 0.02381,-0.0159 0.04751,-0.03197 0.0711,-0.0482 0.142855,-0.100637 0.281297,-0.207397 0.41494,-0.31998 0.02385,-0.01968 0.04755,-0.03955 0.0711,-0.0596 0.106006,-0.09123 0.208828,-0.18609 0.30828,-0.28442 l 0.0596,-0.0711 18.14723,-18.135715 c 2.369591,-2.369974 2.369591,-6.212056 0,-8.58203 -2.369974,-2.369591 -6.212056,-2.369591 -8.58203,0 l -7.84702,7.84761 V 0.01590633 Z"
       fill="#5fb2ff"
       fill-rule="evenodd"
       id="path1"
       style="stroke-width:6.06889;fill:#ce8fd3;fill-opacity:1"
       sodipodi:nodetypes="ccccccccccccccccccccccccccccccccccccccccccccc" /><path
       d="m 12.937399,85.439852 a 3.7437465,3.7437465 0 0 0 -2.610141,6.426626 l 16.070294,16.070292 -16.070294,16.07029 a 3.7437465,3.7437465 0 1 0 5.293499,5.2935 l 16.070293,-16.07029 16.070307,16.07029 a 3.7437465,3.7437465 0 1 0 5.293499,-5.2935 L 36.984563,107.93677 53.054856,91.866478 a 3.7437465,3.7437465 0 0 0 -2.719789,-6.419142 3.7437465,3.7437465 0 0 0 -2.573568,1.125912 L 31.691206,102.64355 15.620912,86.573248 a 3.7437465,3.7437465 0 0 0 -2.683258,-1.133269 z"
       fill="#ff5f5f"
       fill-rule="evenodd"
       id="path1-2"
       style="stroke-width:3.74337;stroke:#ff5f5f;stroke-opacity:1;fill:#ff5f5f;fill-opacity:1" /></g></svg>