# MagicaVoxel @ Ephtracy

# group
o 

# material
mtllib Zed_2-1.mtl
usemtl palette

# normals
vn -1 0 0
vn 1 0 0
vn 0 0 1
vn 0 0 -1
vn 0 -1 0
vn 0 1 0

# texcoords
vt 0.248047 0.5
vt 0.357422 0.5
vt 0.361328 0.5
vt 0.365234 0.5
vt 0.931641 0.5
vt 0.955078 0.5
vt 0.958984 0.5
vt 0.994141 0.5

# verts
v -0.3 5.7 -0.1
v -0.3 5.7 -0.2
v -0.3 5.8 -0.1
v -0.3 5.8 -0.2
v -0.3 5.9 -0.1
v -0.3 5.9 -0.2
v -0.2 5.4 0.1
v -0.2 5.4 0
v -0.2 5.4 -0.2
v -0.2 5.5 -0.1
v -0.2 5.5 -0.2
v -0.2 5.5 -0.3
v -0.2 5.6 0.1
v -0.2 5.6 0
v -0.2 5.6 -0.1
v -0.2 5.6 -0.2
v -0.2 5.7 0.2
v -0.2 5.7 0.1
v -0.2 5.7 -0.1
v -0.2 5.7 -0.2
v -0.2 5.7 -0.3
v -0.2 5.8 0.2
v -0.2 5.8 0.1
v -0.2 5.8 -0.1
v -0.2 5.8 -0.2
v -0.2 5.9 0.2
v -0.2 5.9 0.1
v -0.2 5.9 -0.1
v -0.2 5.9 -0.2
v -0.2 5.9 -0.3
v -0.2 6 0.2
v -0.2 6 0.1
v -0.2 6 -0.1
v -0.2 6 -0.2
v -0.2 6.1 0.2
v -0.2 6.1 0.1
v -0.2 6.1 -0.2
v -0.2 6.1 -0.3
v -0.2 6.2 0.2
v -0.2 6.2 0.1
v -0.2 6.2 0
v -0.2 6.2 -0.2
v -0.2 6.2 -0.3
v -0.2 6.3 0.2
v -0.2 6.3 0.1
v -0.2 6.3 0
v -0.2 6.3 -0.3
v -0.1 5.3 0.2
v -0.1 5.3 0
v -0.1 5.3 -0.3
v -0.1 5.4 0.2
v -0.1 5.4 0.1
v -0.1 5.4 0
v -0.1 5.4 -0.2
v -0.1 5.5 0.2
v -0.1 5.5 0.1
v -0.1 5.5 -0.2
v -0.1 5.5 -0.3
v -0.1 5.6 0.2
v -0.1 5.6 0.1
v -0.1 5.7 0.2
v -0.1 5.7 0.1
v -0.1 5.7 -0.3
v -0.1 5.7 -0.4
v -0.1 5.9 -0.3
v -0.1 6 -0.3
v -0.1 6 -0.4
v -0.1 6.1 -0.3
v -0.1 6.1 -0.4
v -0.1 6.2 -0.3
v -0.1 6.2 -0.4
v -0.1 6.3 0.2
v -0.1 6.3 0.1
v -0.1 6.3 0
v -0.1 6.3 -0.1
v -0.1 6.3 -0.3
v -0.1 6.3 -0.4
v -0.1 6.4 0.2
v -0.1 6.4 0.1
v -0.1 6.4 0
v -0.1 6.4 -0.1
v -0.1 6.4 -0.3
v 0 6.3 0.2
v 0 6.3 0.1
v 0 6.3 0
v 0 6.4 0.2
v 0 6.4 0.1
v 0 6.4 0
v 0.1 6.2 0.2
v 0.1 6.2 0.1
v 0.1 6.3 0.2
v 0.1 6.3 0.1
v 0.2 5.3 0.2
v 0.2 5.3 -0.3
v 0.2 5.4 0.1
v 0.2 5.4 0
v 0.2 5.4 -0.1
v 0.2 5.4 -0.2
v 0.2 5.4 -0.3
v 0.2 5.5 -0.2
v 0.2 5.5 -0.3
v 0.2 5.6 0.2
v 0.2 5.6 0.1
v 0.2 5.7 0.2
v 0.2 5.7 0.1
v 0.2 5.7 -0.3
v 0.2 5.7 -0.4
v 0.2 5.8 -0.3
v 0.2 5.8 -0.4
v 0.2 5.9 -0.3
v 0.2 5.9 -0.4
v 0.2 6.1 0.2
v 0.2 6.1 0.1
v 0.2 6.1 0
v 0.2 6.1 -0.3
v 0.2 6.2 0.2
v 0.2 6.2 0.1
v 0.2 6.2 0
v 0.2 6.2 -0.3
v 0.2 6.3 0.1
v 0.2 6.3 0
v 0.2 6.3 -0.1
v 0.2 6.3 -0.2
v 0.2 6.3 -0.3
v 0.2 6.3 -0.4
v 0.2 6.4 0
v 0.2 6.4 -0.1
v 0.2 6.4 -0.2
v 0.2 6.4 -0.3
v 0.3 5.4 0.1
v 0.3 5.4 0
v 0.3 5.4 -0.1
v 0.3 5.4 -0.2
v 0.3 5.5 0
v 0.3 5.5 -0.1
v 0.3 5.5 -0.2
v 0.3 5.5 -0.3
v 0.3 5.6 0.1
v 0.3 5.6 0
v 0.3 5.6 -0.1
v 0.3 5.6 -0.2
v 0.3 5.6 -0.3
v 0.3 5.7 0.2
v 0.3 5.7 0.1
v 0.3 5.7 0
v 0.3 5.7 -0.1
v 0.3 5.7 -0.2
v 0.3 5.8 0.2
v 0.3 5.8 0.1
v 0.3 5.8 0
v 0.3 5.8 -0.1
v 0.3 5.9 0.2
v 0.3 5.9 0.1
v 0.3 5.9 0
v 0.3 5.9 -0.1
v 0.3 5.9 -0.2
v 0.3 5.9 -0.3
v 0.3 6 0.2
v 0.3 6 0.1
v 0.3 6 0
v 0.3 6 -0.1
v 0.3 6 -0.2
v 0.3 6.1 0.2
v 0.3 6.1 0.1
v 0.3 6.1 0
v 0.3 6.1 -0.1
v 0.3 6.1 -0.2
v 0.3 6.1 -0.3
v 0.3 6.2 0
v 0.3 6.2 -0.1
v 0.3 6.2 -0.2
v 0.3 6.2 -0.3
v 0.3 6.3 0
v 0.3 6.3 -0.2
v 0.3 6.3 -0.3
v 0.4 5.7 -0.1
v 0.4 5.7 -0.2
v 0.4 5.9 -0.1
v 0.4 5.9 -0.2
v -0.2 5.7 0.2
v -0.2 5.8 0.2
v -0.2 5.9 0.2
v -0.2 6 0.2
v -0.2 6.1 0.2
v -0.2 6.2 0.2
v -0.2 6.3 0.2
v -0.1 5.3 0.2
v -0.1 5.4 0.2
v -0.1 5.5 0.2
v -0.1 5.6 0.2
v -0.1 5.7 0.2
v -0.1 5.8 0.2
v -0.1 5.9 0.2
v -0.1 6 0.2
v -0.1 6.1 0.2
v -0.1 6.2 0.2
v -0.1 6.3 0.2
v -0.1 6.4 0.2
v 0 5.4 0.2
v 0 5.5 0.2
v 0 5.6 0.2
v 0 5.7 0.2
v 0 5.8 0.2
v 0 5.9 0.2
v 0 6 0.2
v 0 6.1 0.2
v 0 6.2 0.2
v 0 6.3 0.2
v 0 6.4 0.2
v 0.1 5.6 0.2
v 0.1 5.7 0.2
v 0.1 5.8 0.2
v 0.1 5.9 0.2
v 0.1 6 0.2
v 0.1 6.1 0.2
v 0.1 6.2 0.2
v 0.1 6.3 0.2
v 0.2 5.3 0.2
v 0.2 5.6 0.2
v 0.2 5.7 0.2
v 0.2 5.8 0.2
v 0.2 5.9 0.2
v 0.2 6 0.2
v 0.2 6.1 0.2
v 0.2 6.2 0.2
v 0.3 5.7 0.2
v 0.3 5.8 0.2
v 0.3 5.9 0.2
v 0.3 6 0.2
v 0.3 6.1 0.2
v -0.2 5.4 0.1
v -0.2 5.6 0.1
v -0.2 5.7 0.1
v -0.1 5.4 0.1
v -0.1 5.5 0.1
v -0.1 5.6 0.1
v -0.1 5.7 0.1
v 0.1 6.2 0.1
v 0.1 6.3 0.1
v 0.2 5.4 0.1
v 0.2 5.6 0.1
v 0.2 5.7 0.1
v 0.2 6.2 0.1
v 0.2 6.3 0.1
v 0.3 5.4 0.1
v 0.3 5.6 0.1
v 0.3 5.7 0.1
v 0 6.3 0
v 0 6.4 0
v 0.1 6.3 0
v 0.1 6.4 0
v 0.2 6.1 0
v 0.2 6.2 0
v 0.2 6.3 0
v 0.2 6.4 0
v 0.3 6.1 0
v 0.3 6.2 0
v 0.3 6.3 0
v -0.3 5.7 -0.1
v -0.3 5.8 -0.1
v -0.3 5.9 -0.1
v -0.2 5.7 -0.1
v -0.2 5.8 -0.1
v -0.2 5.9 -0.1
v 0.3 5.7 -0.1
v 0.3 5.8 -0.1
v 0.3 5.9 -0.1
v 0.4 5.7 -0.1
v 0.4 5.9 -0.1
v -0.3 5.7 -0.2
v -0.3 5.8 -0.2
v -0.3 5.9 -0.2
v -0.2 5.4 -0.2
v -0.2 5.5 -0.2
v -0.2 5.7 -0.2
v -0.2 5.8 -0.2
v -0.2 5.9 -0.2
v -0.1 5.4 -0.2
v -0.1 5.5 -0.2
v 0.2 5.4 -0.2
v 0.2 5.5 -0.2
v 0.3 5.4 -0.2
v 0.3 5.5 -0.2
v 0.3 5.7 -0.2
v 0.3 5.9 -0.2
v 0.4 5.7 -0.2
v 0.4 5.9 -0.2
v -0.2 5.5 -0.3
v -0.2 5.7 -0.3
v -0.2 5.9 -0.3
v -0.2 6.1 -0.3
v -0.2 6.2 -0.3
v -0.2 6.3 -0.3
v -0.1 5.3 -0.3
v -0.1 5.5 -0.3
v -0.1 5.6 -0.3
v -0.1 5.7 -0.3
v -0.1 5.9 -0.3
v -0.1 6 -0.3
v -0.1 6.1 -0.3
v -0.1 6.2 -0.3
v -0.1 6.3 -0.3
v -0.1 6.4 -0.3
v 0 5.3 -0.3
v 0 5.4 -0.3
v 0 5.5 -0.3
v 0 5.6 -0.3
v 0 5.7 -0.3
v 0 6.3 -0.3
v 0.1 5.5 -0.3
v 0.1 5.6 -0.3
v 0.1 5.7 -0.3
v 0.2 5.3 -0.3
v 0.2 5.4 -0.3
v 0.2 5.5 -0.3
v 0.2 5.7 -0.3
v 0.2 5.8 -0.3
v 0.2 5.9 -0.3
v 0.2 6.1 -0.3
v 0.2 6.2 -0.3
v 0.2 6.3 -0.3
v 0.2 6.4 -0.3
v 0.3 5.5 -0.3
v 0.3 5.6 -0.3
v 0.3 5.9 -0.3
v 0.3 6.1 -0.3
v 0.3 6.2 -0.3
v 0.3 6.3 -0.3
v -0.1 5.7 -0.4
v -0.1 6 -0.4
v -0.1 6.1 -0.4
v -0.1 6.2 -0.4
v -0.1 6.3 -0.4
v 0 6 -0.4
v 0 6.1 -0.4
v 0 6.2 -0.4
v 0 6.3 -0.4
v 0.1 5.8 -0.4
v 0.1 5.9 -0.4
v 0.1 6.1 -0.4
v 0.1 6.2 -0.4
v 0.2 5.7 -0.4
v 0.2 5.8 -0.4
v 0.2 5.9 -0.4
v 0.2 6.3 -0.4
v -0.1 5.3 0.2
v 0.2 5.3 0.2
v -0.1 5.3 0
v 0 5.3 0
v -0.1 5.3 -0.3
v 0 5.3 -0.3
v 0.2 5.3 -0.3
v -0.2 5.4 0.1
v -0.1 5.4 0.1
v 0.2 5.4 0.1
v 0.3 5.4 0.1
v -0.2 5.4 0
v -0.1 5.4 0
v 0.2 5.4 0
v 0.3 5.4 0
v 0.2 5.4 -0.1
v 0.3 5.4 -0.1
v -0.2 5.4 -0.2
v -0.1 5.4 -0.2
v 0.2 5.4 -0.2
v 0.3 5.4 -0.2
v -0.2 5.5 -0.2
v -0.1 5.5 -0.2
v 0.2 5.5 -0.2
v 0.3 5.5 -0.2
v -0.2 5.5 -0.3
v -0.1 5.5 -0.3
v 0.2 5.5 -0.3
v 0.3 5.5 -0.3
v -0.2 5.7 0.2
v -0.1 5.7 0.2
v 0.2 5.7 0.2
v 0.3 5.7 0.2
v -0.2 5.7 0.1
v -0.1 5.7 0.1
v 0.2 5.7 0.1
v 0.3 5.7 0.1
v -0.3 5.7 -0.1
v -0.2 5.7 -0.1
v 0.3 5.7 -0.1
v 0.4 5.7 -0.1
v -0.3 5.7 -0.2
v -0.2 5.7 -0.2
v 0.3 5.7 -0.2
v 0.4 5.7 -0.2
v -0.1 5.7 -0.3
v 0 5.7 -0.3
v 0.1 5.7 -0.3
v 0.2 5.7 -0.3
v -0.1 5.7 -0.4
v 0.2 5.7 -0.4
v -0.3 5.9 -0.1
v -0.2 5.9 -0.1
v 0.3 5.9 -0.1
v 0.4 5.9 -0.1
v -0.3 5.9 -0.2
v -0.2 5.9 -0.2
v 0.3 5.9 -0.2
v 0.4 5.9 -0.2
v 0.2 6.1 0.2
v 0.3 6.1 0.2
v 0.2 6.1 0.1
v 0.3 6.1 0.1
v 0.2 6.1 0
v 0.3 6.1 0
v 0.1 6.2 0.2
v 0.2 6.2 0.2
v 0.1 6.2 0.1
v 0.2 6.2 0.1
v -0.2 6.3 0.2
v -0.1 6.3 0.2
v 0 6.3 0.2
v 0.1 6.3 0.2
v -0.2 6.3 0.1
v -0.1 6.3 0.1
v 0 6.3 0.1
v 0.1 6.3 0.1
v 0.2 6.3 0.1
v -0.2 6.3 0
v -0.1 6.3 0
v 0 6.3 0
v 0.1 6.3 0
v 0.2 6.3 0
v 0.3 6.3 0
v -0.1 6.3 -0.1
v 0.2 6.3 -0.1
v 0.2 6.3 -0.2
v 0.3 6.3 -0.2
v -0.2 6.3 -0.3
v -0.1 6.3 -0.3
v 0 6.3 -0.3
v 0.2 6.3 -0.3
v 0.3 6.3 -0.3
v -0.1 6.3 -0.4
v 0 6.3 -0.4
v 0.2 6.3 -0.4
v -0.1 6.4 0.2
v 0 6.4 0.2
v -0.1 6.4 0.1
v 0 6.4 0.1
v -0.1 6.4 0
v 0 6.4 0
v 0.1 6.4 0
v 0.2 6.4 0
v -0.1 6.4 -0.1
v 0 6.4 -0.1
v 0.1 6.4 -0.1
v 0.2 6.4 -0.1
v 0 6.4 -0.2
v 0.2 6.4 -0.2
v -0.1 6.4 -0.3
v 0.2 6.4 -0.3

# faces
f 3/3/1 2/3/1 1/3/1
f 4/3/1 2/3/1 3/3/1
f 5/2/1 4/2/1 3/2/1
f 6/2/1 4/2/1 5/2/1
f 10/2/1 9/2/1 8/2/1
f 11/2/1 9/2/1 10/2/1
f 13/3/1 8/3/1 7/3/1
f 14/2/1 10/2/1 8/2/1
f 14/3/1 8/3/1 13/3/1
f 15/3/1 11/3/1 10/3/1
f 15/2/1 10/2/1 14/2/1
f 16/2/1 12/2/1 11/2/1
f 16/3/1 11/3/1 15/3/1
f 18/2/1 15/2/1 14/2/1
f 18/2/1 14/2/1 13/2/1
f 19/4/1 16/4/1 15/4/1
f 19/2/1 15/2/1 18/2/1
f 20/2/1 12/2/1 16/2/1
f 20/4/1 16/4/1 19/4/1
f 21/2/1 12/2/1 20/2/1
f 22/3/1 18/3/1 17/3/1
f 23/2/1 19/2/1 18/2/1
f 23/3/1 18/3/1 22/3/1
f 24/2/1 19/2/1 23/2/1
f 25/3/1 21/3/1 20/3/1
f 26/4/1 23/4/1 22/4/1
f 27/2/1 24/2/1 23/2/1
f 27/4/1 23/4/1 26/4/1
f 28/2/1 24/2/1 27/2/1
f 29/3/1 21/3/1 25/3/1
f 30/3/1 21/3/1 29/3/1
f 31/1/1 27/1/1 26/1/1
f 32/2/1 28/2/1 27/2/1
f 32/1/1 27/1/1 31/1/1
f 33/3/1 29/3/1 28/3/1
f 33/2/1 28/2/1 32/2/1
f 34/2/1 30/2/1 29/2/1
f 34/3/1 29/3/1 33/3/1
f 35/3/1 32/3/1 31/3/1
f 36/2/1 33/2/1 32/2/1
f 36/3/1 32/3/1 35/3/1
f 36/2/1 34/2/1 33/2/1
f 37/2/1 30/2/1 34/2/1
f 37/2/1 34/2/1 36/2/1
f 38/2/1 30/2/1 37/2/1
f 39/4/1 36/4/1 35/4/1
f 40/2/1 37/2/1 36/2/1
f 40/4/1 36/4/1 39/4/1
f 41/2/1 37/2/1 40/2/1
f 42/3/1 38/3/1 37/3/1
f 42/2/1 37/2/1 41/2/1
f 43/3/1 38/3/1 42/3/1
f 44/6/1 40/6/1 39/6/1
f 45/3/1 41/3/1 40/3/1
f 45/6/1 40/6/1 44/6/1
f 46/2/1 42/2/1 41/2/1
f 46/3/1 41/3/1 45/3/1
f 46/2/1 43/2/1 42/2/1
f 47/2/1 43/2/1 46/2/1
f 51/3/1 49/3/1 48/3/1
f 52/3/1 49/3/1 51/3/1
f 53/2/1 50/2/1 49/2/1
f 53/3/1 49/3/1 52/3/1
f 54/2/1 50/2/1 53/2/1
f 55/6/1 52/6/1 51/6/1
f 56/6/1 52/6/1 55/6/1
f 57/2/1 50/2/1 54/2/1
f 58/2/1 50/2/1 57/2/1
f 59/3/1 56/3/1 55/3/1
f 60/3/1 56/3/1 59/3/1
f 61/2/1 60/2/1 59/2/1
f 62/2/1 60/2/1 61/2/1
f 65/2/1 64/2/1 63/2/1
f 66/2/1 64/2/1 65/2/1
f 67/2/1 64/2/1 66/2/1
f 68/3/1 67/3/1 66/3/1
f 69/3/1 67/3/1 68/3/1
f 70/4/1 69/4/1 68/4/1
f 71/4/1 69/4/1 70/4/1
f 76/3/1 71/3/1 70/3/1
f 77/3/1 71/3/1 76/3/1
f 78/6/1 73/6/1 72/6/1
f 79/7/1 74/7/1 73/7/1
f 79/6/1 73/6/1 78/6/1
f 80/3/1 75/3/1 74/3/1
f 80/7/1 74/7/1 79/7/1
f 81/2/1 76/2/1 75/2/1
f 81/3/1 75/3/1 80/3/1
f 82/2/1 76/2/1 81/2/1
f 83/6/2 84/6/2 86/6/2
f 84/7/2 85/7/2 87/7/2
f 86/6/2 84/6/2 87/6/2
f 87/7/2 85/7/2 88/7/2
f 89/6/2 90/6/2 91/6/2
f 91/6/2 90/6/2 92/6/2
f 93/3/2 94/3/2 95/3/2
f 95/3/2 94/3/2 96/3/2
f 96/3/2 94/3/2 97/3/2
f 97/3/2 94/3/2 98/3/2
f 98/3/2 94/3/2 99/3/2
f 98/2/2 99/2/2 100/2/2
f 100/2/2 99/2/2 101/2/2
f 93/3/2 95/3/2 102/3/2
f 102/3/2 95/3/2 103/3/2
f 102/6/2 103/6/2 104/6/2
f 104/6/2 103/6/2 105/6/2
f 106/2/2 107/2/2 108/2/2
f 108/2/2 107/2/2 109/2/2
f 108/4/2 109/4/2 110/4/2
f 110/4/2 109/4/2 111/4/2
f 110/2/2 111/2/2 115/2/2
f 112/7/2 113/7/2 116/7/2
f 113/5/2 114/5/2 117/5/2
f 116/7/2 113/7/2 117/7/2
f 117/5/2 114/5/2 118/5/2
f 115/2/2 111/2/2 119/2/2
f 117/5/2 118/5/2 120/5/2
f 120/5/2 118/5/2 121/5/2
f 119/2/2 111/2/2 124/2/2
f 124/2/2 111/2/2 125/2/2
f 121/6/2 122/6/2 126/6/2
f 122/3/2 123/3/2 127/3/2
f 126/6/2 122/6/2 127/6/2
f 123/2/2 124/2/2 128/2/2
f 127/3/2 123/3/2 128/3/2
f 128/2/2 124/2/2 129/2/2
f 130/3/2 131/3/2 134/3/2
f 131/6/2 132/6/2 134/6/2
f 132/2/2 133/2/2 135/2/2
f 134/6/2 132/6/2 135/6/2
f 135/2/2 133/2/2 136/2/2
f 130/3/2 134/3/2 138/3/2
f 134/4/2 135/4/2 139/4/2
f 138/3/2 134/3/2 139/3/2
f 136/2/2 137/2/2 140/2/2
f 139/4/2 135/4/2 140/4/2
f 135/2/2 136/2/2 140/2/2
f 140/2/2 137/2/2 141/2/2
f 141/2/2 137/2/2 142/2/2
f 138/4/2 139/4/2 144/4/2
f 139/6/2 140/6/2 145/6/2
f 144/4/2 139/4/2 145/4/2
f 140/4/2 141/4/2 146/4/2
f 145/6/2 140/6/2 146/6/2
f 141/3/2 142/3/2 147/3/2
f 146/4/2 141/4/2 147/4/2
f 143/3/2 144/3/2 148/3/2
f 144/2/2 145/2/2 149/2/2
f 148/3/2 144/3/2 149/3/2
f 145/6/2 146/6/2 150/6/2
f 149/2/2 145/2/2 150/2/2
f 150/6/2 146/6/2 151/6/2
f 148/4/2 149/4/2 152/4/2
f 149/3/2 150/3/2 153/3/2
f 152/4/2 149/4/2 153/4/2
f 150/7/2 151/7/2 154/7/2
f 153/3/2 150/3/2 154/3/2
f 154/7/2 151/7/2 155/7/2
f 147/3/2 142/3/2 156/3/2
f 156/3/2 142/3/2 157/3/2
f 152/1/2 153/1/2 158/1/2
f 153/4/2 154/4/2 159/4/2
f 158/1/2 153/1/2 159/1/2
f 154/7/2 155/7/2 160/7/2
f 159/4/2 154/4/2 160/4/2
f 155/2/2 156/2/2 161/2/2
f 160/7/2 155/7/2 161/7/2
f 156/2/2 157/2/2 161/2/2
f 161/2/2 157/2/2 162/2/2
f 158/6/2 159/6/2 163/6/2
f 159/7/2 160/7/2 164/7/2
f 163/6/2 159/6/2 164/6/2
f 160/7/2 161/7/2 164/7/2
f 164/7/2 161/7/2 165/7/2
f 161/3/2 162/3/2 166/3/2
f 165/7/2 161/7/2 166/7/2
f 162/2/2 157/2/2 167/2/2
f 166/3/2 162/3/2 167/3/2
f 167/2/2 157/2/2 168/2/2
f 165/5/2 166/5/2 169/5/2
f 166/7/2 167/7/2 170/7/2
f 169/5/2 166/5/2 170/5/2
f 167/3/2 168/3/2 171/3/2
f 170/7/2 167/7/2 171/7/2
f 171/3/2 168/3/2 172/3/2
f 169/7/2 170/7/2 173/7/2
f 170/7/2 171/7/2 173/7/2
f 171/4/2 172/4/2 174/4/2
f 173/7/2 171/7/2 174/7/2
f 174/4/2 172/4/2 175/4/2
f 176/2/2 177/2/2 178/2/2
f 178/2/2 177/2/2 179/2/2
f 191/3/3 181/3/3 180/3/3
f 192/4/3 182/4/3 181/4/3
f 192/3/3 181/3/3 191/3/3
f 193/1/3 183/1/3 182/1/3
f 193/4/3 182/4/3 192/4/3
f 194/3/3 184/3/3 183/3/3
f 194/1/3 183/1/3 193/1/3
f 195/4/3 185/4/3 184/4/3
f 195/3/3 184/3/3 194/3/3
f 196/6/3 186/6/3 185/6/3
f 196/4/3 185/4/3 195/4/3
f 197/6/3 186/6/3 196/6/3
f 199/3/3 188/3/3 187/3/3
f 199/6/3 189/6/3 188/6/3
f 200/3/3 190/3/3 189/3/3
f 200/6/3 189/6/3 199/6/3
f 201/2/3 191/2/3 190/2/3
f 201/3/3 190/3/3 200/3/3
f 201/2/3 192/2/3 191/2/3
f 202/2/3 192/2/3 201/2/3
f 203/3/3 193/3/3 192/3/3
f 203/2/3 192/2/3 202/2/3
f 204/4/3 194/4/3 193/4/3
f 204/3/3 193/3/3 203/3/3
f 205/2/3 195/2/3 194/2/3
f 205/4/3 194/4/3 204/4/3
f 206/3/3 196/3/3 195/3/3
f 206/2/3 195/2/3 205/2/3
f 207/4/3 197/4/3 196/4/3
f 207/3/3 196/3/3 206/3/3
f 208/6/3 198/6/3 197/6/3
f 208/4/3 197/4/3 207/4/3
f 209/6/3 198/6/3 208/6/3
f 210/3/3 200/3/3 199/3/3
f 210/3/3 202/3/3 201/3/3
f 210/3/3 201/3/3 200/3/3
f 211/2/3 205/2/3 204/2/3
f 211/3/3 202/3/3 210/3/3
f 211/2/3 203/2/3 202/2/3
f 211/2/3 204/2/3 203/2/3
f 212/2/3 205/2/3 211/2/3
f 213/2/3 205/2/3 212/2/3
f 214/3/3 206/3/3 205/3/3
f 214/2/3 205/2/3 213/2/3
f 215/4/3 207/4/3 206/4/3
f 215/3/3 206/3/3 214/3/3
f 216/6/3 208/6/3 207/6/3
f 216/4/3 207/4/3 215/4/3
f 217/6/3 208/6/3 216/6/3
f 218/3/3 199/3/3 187/3/3
f 218/3/3 210/3/3 199/3/3
f 219/6/3 211/6/3 210/6/3
f 219/3/3 210/3/3 218/3/3
f 220/4/3 212/4/3 211/4/3
f 220/6/3 211/6/3 219/6/3
f 221/6/3 213/6/3 212/6/3
f 221/4/3 212/4/3 220/4/3
f 222/7/3 216/7/3 215/7/3
f 222/6/3 213/6/3 221/6/3
f 222/7/3 215/7/3 214/7/3
f 222/7/3 214/7/3 213/7/3
f 223/7/3 216/7/3 222/7/3
f 224/7/3 216/7/3 223/7/3
f 225/7/3 216/7/3 224/7/3
f 226/3/3 221/3/3 220/3/3
f 227/4/3 222/4/3 221/4/3
f 227/3/3 221/3/3 226/3/3
f 228/1/3 223/1/3 222/1/3
f 228/4/3 222/4/3 227/4/3
f 229/6/3 224/6/3 223/6/3
f 229/1/3 223/1/3 228/1/3
f 230/6/3 224/6/3 229/6/3
f 234/3/3 232/3/3 231/3/3
f 235/3/3 232/3/3 234/3/3
f 236/2/3 233/2/3 232/2/3
f 236/3/3 232/3/3 235/3/3
f 237/2/3 233/2/3 236/2/3
f 243/5/3 239/5/3 238/5/3
f 244/5/3 239/5/3 243/5/3
f 245/3/3 241/3/3 240/3/3
f 246/4/3 242/4/3 241/4/3
f 246/3/3 241/3/3 245/3/3
f 247/4/3 242/4/3 246/4/3
f 250/7/3 249/7/3 248/7/3
f 251/7/3 249/7/3 250/7/3
f 254/6/3 251/6/3 250/6/3
f 255/6/3 251/6/3 254/6/3
f 256/5/3 253/5/3 252/5/3
f 257/7/3 254/7/3 253/7/3
f 257/5/3 253/5/3 256/5/3
f 258/7/3 254/7/3 257/7/3
f 262/3/3 260/3/3 259/3/3
f 263/2/3 261/2/3 260/2/3
f 263/3/3 260/3/3 262/3/3
f 264/2/3 261/2/3 263/2/3
f 268/2/3 266/2/3 265/2/3
f 268/2/3 267/2/3 266/2/3
f 269/2/3 267/2/3 268/2/3
f 270/3/4 271/3/4 275/3/4
f 271/2/4 272/2/4 276/2/4
f 275/3/4 271/3/4 276/3/4
f 276/2/4 272/2/4 277/2/4
f 273/2/4 274/2/4 278/2/4
f 278/2/4 274/2/4 279/2/4
f 280/2/4 281/2/4 282/2/4
f 282/2/4 281/2/4 283/2/4
f 284/2/4 285/2/4 286/2/4
f 286/2/4 285/2/4 287/2/4
f 288/2/4 289/2/4 295/2/4
f 295/2/4 289/2/4 296/2/4
f 289/3/4 290/3/4 297/3/4
f 296/2/4 289/2/4 297/2/4
f 290/2/4 291/2/4 298/2/4
f 297/3/4 290/3/4 298/3/4
f 298/2/4 291/2/4 299/2/4
f 291/3/4 292/3/4 300/3/4
f 299/2/4 291/2/4 300/2/4
f 292/2/4 293/2/4 301/2/4
f 300/3/4 292/3/4 301/3/4
f 301/2/4 293/2/4 302/2/4
f 295/2/4 296/2/4 304/2/4
f 294/2/4 295/2/4 304/2/4
f 304/2/4 296/2/4 305/2/4
f 305/2/4 296/2/4 306/2/4
f 296/3/4 297/3/4 307/3/4
f 306/2/4 296/2/4 307/2/4
f 307/3/4 297/3/4 308/3/4
f 302/2/4 303/2/4 309/2/4
f 305/2/4 306/2/4 310/2/4
f 306/3/4 307/3/4 310/3/4
f 307/4/4 308/4/4 311/4/4
f 310/3/4 307/3/4 311/3/4
f 311/4/4 308/4/4 312/4/4
f 304/3/4 305/3/4 313/3/4
f 305/2/4 310/2/4 314/2/4
f 313/3/4 305/3/4 314/3/4
f 310/2/4 311/2/4 314/2/4
f 314/2/4 311/2/4 315/2/4
f 311/3/4 312/3/4 316/3/4
f 309/2/4 303/2/4 321/2/4
f 321/2/4 303/2/4 322/2/4
f 315/2/4 311/2/4 323/2/4
f 311/3/4 316/3/4 324/3/4
f 323/2/4 311/2/4 324/2/4
f 316/3/4 317/3/4 324/3/4
f 317/3/4 318/3/4 324/3/4
f 318/2/4 319/2/4 325/2/4
f 324/3/4 318/3/4 325/3/4
f 319/3/4 320/3/4 326/3/4
f 325/2/4 319/2/4 326/2/4
f 320/4/4 321/4/4 327/4/4
f 326/3/4 320/3/4 327/3/4
f 327/4/4 321/4/4 328/4/4
f 329/2/4 330/2/4 334/2/4
f 330/3/4 331/3/4 334/3/4
f 331/4/4 332/4/4 335/4/4
f 334/3/4 331/3/4 335/3/4
f 332/3/4 333/3/4 336/3/4
f 335/4/4 332/4/4 336/4/4
f 336/3/4 333/3/4 337/3/4
f 334/2/4 335/2/4 338/2/4
f 329/2/4 334/2/4 338/2/4
f 338/2/4 335/2/4 339/2/4
f 335/3/4 336/3/4 340/3/4
f 339/2/4 335/2/4 340/2/4
f 336/2/4 337/2/4 341/2/4
f 340/3/4 336/3/4 341/3/4
f 329/2/4 338/2/4 342/2/4
f 338/4/4 339/4/4 343/4/4
f 342/2/4 338/2/4 343/2/4
f 339/2/4 340/2/4 344/2/4
f 343/4/4 339/4/4 344/4/4
f 340/2/4 341/2/4 344/2/4
f 341/2/4 337/2/4 345/2/4
f 344/2/4 341/2/4 345/2/4
f 348/3/5 347/3/5 346/3/5
f 349/3/5 347/3/5 348/3/5
f 350/2/5 349/2/5 348/2/5
f 351/3/5 347/3/5 349/3/5
f 351/2/5 349/2/5 350/2/5
f 352/3/5 347/3/5 351/3/5
f 357/3/5 354/3/5 353/3/5
f 358/3/5 354/3/5 357/3/5
f 359/3/5 356/3/5 355/3/5
f 360/3/5 356/3/5 359/3/5
f 361/6/5 360/6/5 359/6/5
f 362/6/5 360/6/5 361/6/5
f 363/2/5 358/2/5 357/2/5
f 364/2/5 358/2/5 363/2/5
f 365/2/5 362/2/5 361/2/5
f 366/2/5 362/2/5 365/2/5
f 371/2/5 368/2/5 367/2/5
f 372/2/5 368/2/5 371/2/5
f 373/2/5 370/2/5 369/2/5
f 374/2/5 370/2/5 373/2/5
f 379/3/5 376/3/5 375/3/5
f 380/3/5 376/3/5 379/3/5
f 381/3/5 378/3/5 377/3/5
f 382/3/5 378/3/5 381/3/5
f 387/3/5 384/3/5 383/3/5
f 388/3/5 384/3/5 387/3/5
f 389/2/5 386/2/5 385/2/5
f 390/2/5 386/2/5 389/2/5
f 395/2/5 392/2/5 391/2/5
f 395/2/5 394/2/5 393/2/5
f 395/2/5 393/2/5 392/2/5
f 396/2/5 394/2/5 395/2/5
f 397/2/6 398/2/6 401/2/6
f 401/2/6 398/2/6 402/2/6
f 399/2/6 400/2/6 403/2/6
f 403/2/6 400/2/6 404/2/6
f 405/6/6 406/6/6 407/6/6
f 407/6/6 406/6/6 408/6/6
f 407/7/6 408/7/6 409/7/6
f 409/7/6 408/7/6 410/7/6
f 411/7/6 412/7/6 413/7/6
f 413/7/6 412/7/6 414/7/6
f 415/6/6 416/6/6 419/6/6
f 419/6/6 416/6/6 420/6/6
f 417/6/6 418/6/6 421/6/6
f 421/6/6 418/6/6 422/6/6
f 419/3/6 420/3/6 424/3/6
f 424/3/6 420/3/6 425/3/6
f 422/5/6 423/5/6 426/5/6
f 421/5/6 422/5/6 426/5/6
f 426/5/6 423/5/6 427/5/6
f 427/5/6 423/5/6 428/5/6
f 424/2/6 425/2/6 430/2/6
f 428/7/6 429/7/6 431/7/6
f 431/7/6 429/7/6 432/7/6
f 432/7/6 429/7/6 433/7/6
f 424/2/6 430/2/6 434/2/6
f 434/2/6 430/2/6 435/2/6
f 432/4/6 433/4/6 437/4/6
f 437/4/6 433/4/6 438/4/6
f 435/3/6 436/3/6 439/3/6
f 436/2/6 437/2/6 440/2/6
f 439/3/6 436/3/6 440/3/6
f 440/2/6 437/2/6 441/2/6
f 442/6/6 443/6/6 444/6/6
f 444/6/6 443/6/6 445/6/6
f 444/7/6 445/7/6 446/7/6
f 446/7/6 445/7/6 447/7/6
f 446/3/6 447/3/6 450/3/6
f 447/7/6 448/7/6 451/7/6
f 450/3/6 447/3/6 451/3/6
f 448/6/6 449/6/6 452/6/6
f 451/7/6 448/7/6 452/7/6
f 452/6/6 449/6/6 453/6/6
f 450/2/6 451/2/6 454/2/6
f 451/3/6 452/3/6 454/3/6
f 452/3/6 453/3/6 454/3/6
f 454/3/6 453/3/6 455/3/6
f 450/2/6 454/2/6 456/2/6
f 454/2/6 455/2/6 456/2/6
f 456/2/6 455/2/6 457/2/6
