# MagicaVoxel @ Ephtracy

# group
o 

# material
mtllib Zed_1-1.mtl
usemtl palette

# normals
vn -1 0 0
vn 1 0 0
vn 0 0 1
vn 0 0 -1
vn 0 -1 0
vn 0 1 0

# texcoords
vt 0.248047 0.5
vt 0.357422 0.5
vt 0.361328 0.5
vt 0.365234 0.5
vt 0.931641 0.5
vt 0.955078 0.5
vt 0.958984 0.5
vt 0.994141 0.5

# verts
v -0.3 5.7 -0.1
v -0.3 5.7 -0.2
v -0.3 5.9 -0.1
v -0.3 5.9 -0.2
v -0.2 5.4 0.1
v -0.2 5.4 0
v -0.2 5.4 -0.2
v -0.2 5.5 -0.1
v -0.2 5.5 -0.2
v -0.2 5.5 -0.3
v -0.2 5.6 0.1
v -0.2 5.6 0
v -0.2 5.6 -0.1
v -0.2 5.6 -0.2
v -0.2 5.7 0.2
v -0.2 5.7 0.1
v -0.2 5.7 0
v -0.2 5.7 -0.1
v -0.2 5.7 -0.2
v -0.2 5.7 -0.3
v -0.2 5.8 0.2
v -0.2 5.8 0.1
v -0.2 5.9 0.2
v -0.2 5.9 0.1
v -0.2 5.9 -0.1
v -0.2 5.9 -0.2
v -0.2 5.9 -0.3
v -0.2 6 0.2
v -0.2 6 0.1
v -0.2 6 0
v -0.2 6 -0.1
v -0.2 6 -0.2
v -0.2 6.1 0.2
v -0.2 6.1 0.1
v -0.2 6.3 0.2
v -0.2 6.3 -0.3
v -0.1 5.3 0.2
v -0.1 5.3 0.1
v -0.1 5.3 0
v -0.1 5.3 -0.3
v -0.1 5.4 0.1
v -0.1 5.4 0
v -0.1 5.4 -0.2
v -0.1 5.5 0.2
v -0.1 5.5 0.1
v -0.1 5.5 -0.2
v -0.1 5.5 -0.3
v -0.1 5.6 0.2
v -0.1 5.6 0.1
v -0.1 5.7 0.2
v -0.1 5.7 0.1
v -0.1 5.7 -0.3
v -0.1 5.7 -0.4
v -0.1 5.9 -0.3
v -0.1 6.2 -0.3
v -0.1 6.2 -0.4
v -0.1 6.3 0.2
v -0.1 6.3 -0.1
v -0.1 6.3 -0.2
v -0.1 6.3 -0.3
v -0.1 6.3 -0.4
v -0.1 6.4 0.2
v -0.1 6.4 -0.1
v -0.1 6.4 -0.2
v -0.1 6.4 -0.3
v 0.2 6.2 0.2
v 0.2 6.2 0.1
v 0.2 6.3 0.2
v 0.2 6.3 0.1
v 0.1 6.2 0.2
v 0.1 6.2 0.1
v 0.1 6.3 0.2
v 0.1 6.3 0.1
v 0.2 5.3 0.2
v 0.2 5.3 -0.3
v 0.2 5.4 0.1
v 0.2 5.4 0
v 0.2 5.4 -0.2
v 0.2 5.4 -0.3
v 0.2 5.5 -0.2
v 0.2 5.5 -0.3
v 0.2 5.6 0.2
v 0.2 5.6 0.1
v 0.2 5.7 0.2
v 0.2 5.7 0.1
v 0.2 5.7 -0.3
v 0.2 5.7 -0.4
v 0.2 5.9 -0.3
v 0.2 5.9 -0.4
v 0.2 6 -0.3
v 0.2 6 -0.4
v 0.2 6.2 0.1
v 0.2 6.2 0
v 0.2 6.3 0.2
v 0.2 6.3 0.1
v 0.2 6.3 0
v 0.2 6.3 -0.1
v 0.2 6.3 -0.3
v 0.2 6.3 -0.4
v 0.2 6.4 0.2
v 0.2 6.4 0
v 0.2 6.4 -0.1
v 0.2 6.4 -0.3
v 0.3 5.4 0.1
v 0.3 5.4 0
v 0.3 5.4 -0.2
v 0.3 5.5 -0.2
v 0.3 5.5 -0.3
v 0.3 5.6 0.1
v 0.3 5.6 0
v 0.3 5.6 -0.1
v 0.3 5.6 -0.2
v 0.3 5.7 0.2
v 0.3 5.7 0.1
v 0.3 5.7 -0.1
v 0.3 5.7 -0.2
v 0.3 5.7 -0.3
v 0.3 5.8 0.2
v 0.3 5.8 0.1
v 0.3 5.8 -0.1
v 0.3 5.8 -0.2
v 0.3 5.9 0.2
v 0.3 5.9 0.1
v 0.3 5.9 -0.1
v 0.3 5.9 -0.2
v 0.3 5.9 -0.3
v 0.3 6 0.2
v 0.3 6 0.1
v 0.3 6 0
v 0.3 6 -0.1
v 0.3 6.1 0.2
v 0.3 6.1 0.1
v 0.3 6.1 0
v 0.3 6.1 -0.1
v 0.3 6.2 0.2
v 0.3 6.2 0.1
v 0.3 6.2 0
v 0.3 6.2 -0.1
v 0.3 6.3 0.2
v 0.3 6.3 0.1
v 0.3 6.3 0
v 0.3 6.3 -0.1
v 0.3 6.3 -0.3
v 0.4 5.7 -0.1
v 0.4 5.7 -0.2
v 0.4 5.8 -0.1
v 0.4 5.8 -0.2
v 0.4 5.9 -0.1
v 0.4 5.9 -0.2
v -0.2 5.7 0.2
v -0.2 5.8 0.2
v -0.2 5.9 0.2
v -0.2 6 0.2
v -0.2 6.1 0.2
v -0.2 6.3 0.2
v -0.1 5.3 0.2
v -0.1 5.5 0.2
v -0.1 5.6 0.2
v -0.1 5.7 0.2
v -0.1 5.8 0.2
v -0.1 5.9 0.2
v -0.1 6 0.2
v -0.1 6.1 0.2
v -0.1 6.3 0.2
v -0.1 6.4 0.2
v 0 5.3 0.2
v 0 5.4 0.2
v 0 5.6 0.2
v 0 5.7 0.2
v 0 5.8 0.2
v 0 5.9 0.2
v 0 6 0.2
v 0 6.2 0.2
v 0 6.3 0.2
v 0 6.4 0.2
v 0.1 5.4 0.2
v 0.1 5.5 0.2
v 0.1 5.6 0.2
v 0.1 5.7 0.2
v 0.1 5.9 0.2
v 0.1 6 0.2
v 0.1 6.1 0.2
v 0.1 6.2 0.2
v 0.1 6.3 0.2
v 0.1 6.4 0.2
v 0.2 5.3 0.2
v 0.2 5.6 0.2
v 0.2 5.7 0.2
v 0.2 5.8 0.2
v 0.2 5.9 0.2
v 0.2 6 0.2
v 0.2 6.1 0.2
v 0.2 6.2 0.2
v 0.2 6.3 0.2
v 0.2 6.4 0.2
v 0.3 5.7 0.2
v 0.3 5.8 0.2
v 0.3 5.9 0.2
v 0.3 6 0.2
v 0.3 6.1 0.2
v 0.3 6.2 0.2
v 0.3 6.3 0.2
v -0.2 5.4 0.1
v -0.2 5.6 0.1
v -0.2 5.7 0.1
v -0.1 5.4 0.1
v -0.1 5.5 0.1
v -0.1 5.6 0.1
v -0.1 5.7 0.1
v 0.1 6.2 0.1
v 0.1 6.3 0.1
v 0.2 5.4 0.1
v 0.2 5.6 0.1
v 0.2 5.7 0.1
v 0.2 6.2 0.1
v 0.2 6.3 0.1
v 0.3 5.4 0.1
v 0.3 5.6 0.1
v 0.3 5.7 0.1
v 0.2 6.2 0
v 0.2 6.3 0
v 0.3 6.2 0
v 0.3 6.3 0
v -0.3 5.7 -0.1
v -0.3 5.9 -0.1
v -0.2 5.7 -0.1
v -0.2 5.9 -0.1
v 0.3 5.7 -0.1
v 0.3 5.8 -0.1
v 0.3 5.9 -0.1
v 0.4 5.7 -0.1
v 0.4 5.8 -0.1
v 0.4 5.9 -0.1
v 0.2 6.2 0.1
v 0.2 6.3 0.1
v 0.3 6.2 0.1
v 0.3 6.3 0.1
v -0.3 5.7 -0.2
v -0.3 5.9 -0.2
v -0.2 5.4 -0.2
v -0.2 5.5 -0.2
v -0.2 5.7 -0.2
v -0.2 5.9 -0.2
v -0.1 5.4 -0.2
v -0.1 5.5 -0.2
v 0.2 5.4 -0.2
v 0.2 5.5 -0.2
v 0.3 5.4 -0.2
v 0.3 5.5 -0.2
v 0.3 5.7 -0.2
v 0.3 5.8 -0.2
v 0.3 5.9 -0.2
v 0.4 5.7 -0.2
v 0.4 5.8 -0.2
v 0.4 5.9 -0.2
v -0.2 5.5 -0.3
v -0.2 5.7 -0.3
v -0.2 5.9 -0.3
v -0.2 6.3 -0.3
v -0.1 5.3 -0.3
v -0.1 5.5 -0.3
v -0.1 5.6 -0.3
v -0.1 5.7 -0.3
v -0.1 5.9 -0.3
v -0.1 6.2 -0.3
v -0.1 6.3 -0.3
v -0.1 6.4 -0.3
v 0 5.3 -0.3
v 0 5.4 -0.3
v 0 5.5 -0.3
v 0 5.6 -0.3
v 0 5.7 -0.3
v 0 6.3 -0.3
v 0.1 5.5 -0.3
v 0.1 5.6 -0.3
v 0.1 5.7 -0.3
v 0.2 5.3 -0.3
v 0.2 5.4 -0.3
v 0.2 5.5 -0.3
v 0.2 5.6 -0.3
v 0.2 5.7 -0.3
v 0.2 5.9 -0.3
v 0.2 6 -0.3
v 0.2 6.3 -0.3
v 0.2 6.4 -0.3
v 0.3 5.5 -0.3
v 0.3 5.7 -0.3
v 0.3 5.9 -0.3
v 0.3 6.3 -0.3
v -0.1 5.7 -0.4
v -0.1 6.2 -0.4
v -0.1 6.3 -0.4
v 0 6.2 -0.4
v 0 6.3 -0.4
v 0.1 5.9 -0.4
v 0.1 6 -0.4
v 0.2 5.7 -0.4
v 0.2 5.9 -0.4
v 0.2 6 -0.4
v 0.2 6.3 -0.4
v -0.1 5.3 0.2
v 0 5.3 0.2
v 0.2 5.3 0.2
v -0.1 5.3 0.1
v 0 5.3 0.1
v -0.1 5.3 0
v 0 5.3 0
v -0.1 5.3 -0.3
v 0 5.3 -0.3
v 0.2 5.3 -0.3
v -0.2 5.4 0.1
v -0.1 5.4 0.1
v 0.2 5.4 0.1
v 0.3 5.4 0.1
v -0.2 5.4 0
v -0.1 5.4 0
v 0.2 5.4 0
v 0.3 5.4 0
v -0.2 5.4 -0.2
v -0.1 5.4 -0.2
v 0.2 5.4 -0.2
v 0.3 5.4 -0.2
v -0.2 5.5 -0.2
v -0.1 5.5 -0.2
v 0.2 5.5 -0.2
v 0.3 5.5 -0.2
v -0.2 5.5 -0.3
v -0.1 5.5 -0.3
v 0.2 5.5 -0.3
v 0.3 5.5 -0.3
v -0.2 5.7 0.2
v -0.1 5.7 0.2
v 0.2 5.7 0.2
v 0.3 5.7 0.2
v -0.2 5.7 0.1
v -0.1 5.7 0.1
v 0.2 5.7 0.1
v 0.3 5.7 0.1
v -0.3 5.7 -0.1
v -0.2 5.7 -0.1
v 0.3 5.7 -0.1
v 0.4 5.7 -0.1
v -0.3 5.7 -0.2
v -0.2 5.7 -0.2
v 0.3 5.7 -0.2
v 0.4 5.7 -0.2
v -0.1 5.7 -0.3
v 0 5.7 -0.3
v 0.1 5.7 -0.3
v 0.2 5.7 -0.3
v -0.1 5.7 -0.4
v 0.2 5.7 -0.4
v 0.1 6.3 0.2
v 0.2 6.3 0.2
v 0.1 6.3 0.1
v 0.2 6.3 0.1
v -0.3 5.9 -0.1
v -0.2 5.9 -0.1
v 0.3 5.9 -0.1
v 0.4 5.9 -0.1
v -0.3 5.9 -0.2
v -0.2 5.9 -0.2
v 0.3 5.9 -0.2
v 0.4 5.9 -0.2
v 0.1 6.2 0.2
v 0.2 6.2 0.2
v 0.1 6.2 0.1
v 0.2 6.2 0.1
v 0.3 6.2 0.1
v 0.2 6.2 0
v 0.3 6.2 0
v -0.2 6.3 0.2
v -0.1 6.3 0.2
v 0.2 6.3 0.2
v 0.3 6.3 0.2
v 0.2 6.3 0.1
v 0.3 6.3 0.1
v 0.2 6.3 0
v 0.3 6.3 0
v -0.1 6.3 -0.1
v 0.2 6.3 -0.1
v 0.3 6.3 -0.1
v -0.1 6.3 -0.2
v -0.2 6.3 -0.3
v -0.1 6.3 -0.3
v 0 6.3 -0.3
v 0.2 6.3 -0.3
v 0.3 6.3 -0.3
v -0.1 6.3 -0.4
v 0 6.3 -0.4
v 0.2 6.3 -0.4
v -0.1 6.4 0.2
v 0 6.4 0.2
v 0.1 6.4 0.2
v 0.2 6.4 0.2
v 0 6.4 0.1
v 0.1 6.4 0.1
v 0 6.4 0
v 0.1 6.4 0
v 0.2 6.4 0
v -0.1 6.4 -0.1
v 0 6.4 -0.1
v 0.2 6.4 -0.1
v -0.1 6.4 -0.2
v 0 6.4 -0.2
v -0.1 6.4 -0.3
v 0.2 6.4 -0.3

# faces
f 3/2/1 2/2/1 1/2/1
f 4/2/1 2/2/1 3/2/1
f 8/2/1 7/2/1 6/2/1
f 9/2/1 7/2/1 8/2/1
f 11/3/1 6/3/1 5/3/1
f 12/2/1 8/2/1 6/2/1
f 12/3/1 6/3/1 11/3/1
f 13/3/1 9/3/1 8/3/1
f 13/2/1 8/2/1 12/2/1
f 14/2/1 10/2/1 9/2/1
f 14/3/1 9/3/1 13/3/1
f 16/2/1 12/2/1 11/2/1
f 17/3/1 13/3/1 12/3/1
f 17/2/1 12/2/1 16/2/1
f 18/4/1 14/4/1 13/4/1
f 18/3/1 13/3/1 17/3/1
f 19/2/1 10/2/1 14/2/1
f 19/4/1 14/4/1 18/4/1
f 20/2/1 10/2/1 19/2/1
f 21/3/1 16/3/1 15/3/1
f 21/3/1 17/3/1 16/3/1
f 22/3/1 17/3/1 21/3/1
f 23/4/1 22/4/1 21/4/1
f 24/3/1 17/3/1 22/3/1
f 24/4/1 22/4/1 23/4/1
f 25/2/1 18/2/1 17/2/1
f 26/3/1 20/3/1 19/3/1
f 27/3/1 20/3/1 26/3/1
f 28/1/1 24/1/1 23/1/1
f 29/3/1 17/3/1 24/3/1
f 29/1/1 24/1/1 28/1/1
f 30/2/1 25/2/1 17/2/1
f 30/3/1 17/3/1 29/3/1
f 31/3/1 26/3/1 25/3/1
f 31/2/1 25/2/1 30/2/1
f 32/2/1 27/2/1 26/2/1
f 32/3/1 26/3/1 31/3/1
f 33/3/1 29/3/1 28/3/1
f 34/2/1 30/2/1 29/2/1
f 34/3/1 29/3/1 33/3/1
f 34/2/1 31/2/1 30/2/1
f 34/2/1 32/2/1 31/2/1
f 35/2/1 34/2/1 33/2/1
f 36/2/1 27/2/1 32/2/1
f 36/2/1 34/2/1 35/2/1
f 36/2/1 32/2/1 34/2/1
f 41/6/1 38/6/1 37/6/1
f 41/3/1 39/3/1 38/3/1
f 42/2/1 40/2/1 39/2/1
f 42/3/1 39/3/1 41/3/1
f 43/2/1 40/2/1 42/2/1
f 44/6/1 41/6/1 37/6/1
f 45/6/1 41/6/1 44/6/1
f 46/2/1 40/2/1 43/2/1
f 47/2/1 40/2/1 46/2/1
f 48/3/1 45/3/1 44/3/1
f 49/3/1 45/3/1 48/3/1
f 50/2/1 49/2/1 48/2/1
f 51/2/1 49/2/1 50/2/1
f 54/2/1 53/2/1 52/2/1
f 55/2/1 53/2/1 54/2/1
f 56/2/1 53/2/1 55/2/1
f 60/3/1 56/3/1 55/3/1
f 61/3/1 56/3/1 60/3/1
f 62/2/1 58/2/1 57/2/1
f 63/3/1 59/3/1 58/3/1
f 63/2/1 58/2/1 62/2/1
f 64/2/1 60/2/1 59/2/1
f 64/3/1 59/3/1 63/3/1
f 65/2/1 60/2/1 64/2/1
f 68/7/1 67/7/1 66/7/1
f 69/7/1 67/7/1 68/7/1
f 70/6/2 71/6/2 72/6/2
f 72/6/2 71/6/2 73/6/2
f 74/3/2 75/3/2 76/3/2
f 76/3/2 75/3/2 77/3/2
f 77/3/2 75/3/2 78/3/2
f 78/3/2 75/3/2 79/3/2
f 78/2/2 79/2/2 80/2/2
f 80/2/2 79/2/2 81/2/2
f 74/3/2 76/3/2 82/3/2
f 82/3/2 76/3/2 83/3/2
f 82/6/2 83/6/2 84/6/2
f 84/6/2 83/6/2 85/6/2
f 86/2/2 87/2/2 88/2/2
f 88/2/2 87/2/2 89/2/2
f 88/3/2 89/3/2 90/3/2
f 90/3/2 89/3/2 91/3/2
f 92/5/2 93/5/2 95/5/2
f 95/5/2 93/5/2 96/5/2
f 90/2/2 91/2/2 98/2/2
f 98/2/2 91/2/2 99/2/2
f 94/6/2 95/6/2 100/6/2
f 95/6/2 96/6/2 100/6/2
f 96/3/2 97/3/2 101/3/2
f 100/6/2 96/6/2 101/6/2
f 97/2/2 98/2/2 102/2/2
f 101/3/2 97/3/2 102/3/2
f 102/2/2 98/2/2 103/2/2
f 105/2/2 106/2/2 107/2/2
f 104/3/2 105/3/2 109/3/2
f 107/2/2 108/2/2 110/2/2
f 109/3/2 105/3/2 110/3/2
f 105/2/2 107/2/2 110/2/2
f 110/2/2 108/2/2 111/2/2
f 111/2/2 108/2/2 112/2/2
f 109/2/2 110/2/2 114/2/2
f 110/2/2 111/2/2 114/2/2
f 111/3/2 112/3/2 115/3/2
f 114/2/2 111/2/2 115/2/2
f 112/2/2 108/2/2 116/2/2
f 115/3/2 112/3/2 116/3/2
f 116/2/2 108/2/2 117/2/2
f 114/2/2 115/2/2 118/2/2
f 113/2/2 114/2/2 118/2/2
f 118/2/2 115/2/2 119/2/2
f 119/2/2 115/2/2 120/2/2
f 116/3/2 117/3/2 121/3/2
f 118/3/2 119/3/2 122/3/2
f 119/2/2 120/2/2 123/2/2
f 122/3/2 119/3/2 123/3/2
f 123/2/2 120/2/2 124/2/2
f 121/3/2 117/3/2 125/3/2
f 125/3/2 117/3/2 126/3/2
f 122/1/2 123/1/2 127/1/2
f 123/2/2 124/2/2 128/2/2
f 127/1/2 123/1/2 128/1/2
f 124/2/2 125/2/2 128/2/2
f 125/2/2 126/2/2 128/2/2
f 128/2/2 126/2/2 129/2/2
f 129/2/2 126/2/2 130/2/2
f 127/3/2 128/3/2 131/3/2
f 128/2/2 129/2/2 132/2/2
f 131/3/2 128/3/2 132/3/2
f 129/6/2 130/6/2 133/6/2
f 132/2/2 129/2/2 133/2/2
f 130/2/2 126/2/2 134/2/2
f 133/6/2 130/6/2 134/6/2
f 132/6/2 133/6/2 135/6/2
f 131/6/2 132/6/2 135/6/2
f 135/6/2 133/6/2 136/6/2
f 133/3/2 134/3/2 137/3/2
f 136/6/2 133/6/2 137/6/2
f 134/2/2 126/2/2 138/2/2
f 137/3/2 134/3/2 138/3/2
f 135/7/2 136/7/2 139/7/2
f 139/7/2 136/7/2 140/7/2
f 137/6/2 138/6/2 141/6/2
f 138/2/2 126/2/2 142/2/2
f 141/6/2 138/6/2 142/6/2
f 142/2/2 126/2/2 143/2/2
f 144/3/2 145/3/2 146/3/2
f 146/3/2 145/3/2 147/3/2
f 146/2/2 147/2/2 148/2/2
f 148/2/2 147/2/2 149/2/2
f 159/3/3 151/3/3 150/3/3
f 160/4/3 152/4/3 151/4/3
f 160/3/3 151/3/3 159/3/3
f 161/1/3 153/1/3 152/1/3
f 161/4/3 152/4/3 160/4/3
f 162/3/3 154/3/3 153/3/3
f 162/1/3 153/1/3 161/1/3
f 163/2/3 155/2/3 154/2/3
f 163/3/3 154/3/3 162/3/3
f 164/2/3 155/2/3 163/2/3
f 166/6/3 157/6/3 156/6/3
f 167/6/3 157/6/3 166/6/3
f 168/3/3 158/3/3 157/3/3
f 168/2/3 159/2/3 158/2/3
f 168/2/3 160/2/3 159/2/3
f 169/2/3 160/2/3 168/2/3
f 170/3/3 161/3/3 160/3/3
f 170/2/3 160/2/3 169/2/3
f 171/4/3 162/4/3 161/4/3
f 171/3/3 161/3/3 170/3/3
f 172/2/3 165/2/3 164/2/3
f 172/4/3 162/4/3 171/4/3
f 172/2/3 163/2/3 162/2/3
f 172/2/3 164/2/3 163/2/3
f 173/2/3 165/2/3 172/2/3
f 174/2/3 165/2/3 173/2/3
f 175/2/3 165/2/3 174/2/3
f 176/6/3 157/6/3 167/6/3
f 176/3/3 167/3/3 166/3/3
f 177/3/3 169/3/3 168/3/3
f 177/6/3 157/6/3 176/6/3
f 177/3/3 168/3/3 157/3/3
f 178/3/3 169/3/3 177/3/3
f 179/2/3 170/2/3 169/2/3
f 179/3/3 169/3/3 178/3/3
f 179/2/3 171/2/3 170/2/3
f 180/3/3 172/3/3 171/3/3
f 180/2/3 171/2/3 179/2/3
f 181/2/3 173/2/3 172/2/3
f 181/3/3 172/3/3 180/3/3
f 182/2/3 173/2/3 181/2/3
f 183/6/3 174/6/3 173/6/3
f 183/2/3 173/2/3 182/2/3
f 184/3/3 175/3/3 174/3/3
f 184/6/3 174/6/3 183/6/3
f 185/3/3 175/3/3 184/3/3
f 186/3/3 176/3/3 166/3/3
f 186/3/3 178/3/3 177/3/3
f 186/3/3 177/3/3 176/3/3
f 187/6/3 179/6/3 178/6/3
f 187/3/3 178/3/3 186/3/3
f 188/2/3 181/2/3 180/2/3
f 188/6/3 179/6/3 187/6/3
f 188/2/3 180/2/3 179/2/3
f 189/2/3 181/2/3 188/2/3
f 190/2/3 181/2/3 189/2/3
f 191/6/3 182/6/3 181/6/3
f 191/2/3 181/2/3 190/2/3
f 192/7/3 183/7/3 182/7/3
f 192/6/3 182/6/3 191/6/3
f 193/7/3 183/7/3 192/7/3
f 194/6/3 185/6/3 184/6/3
f 195/6/3 185/6/3 194/6/3
f 196/2/3 189/2/3 188/2/3
f 197/3/3 190/3/3 189/3/3
f 197/2/3 189/2/3 196/2/3
f 198/1/3 191/1/3 190/1/3
f 198/3/3 190/3/3 197/3/3
f 199/3/3 192/3/3 191/3/3
f 199/1/3 191/1/3 198/1/3
f 200/6/3 193/6/3 192/6/3
f 200/3/3 192/3/3 199/3/3
f 201/7/3 194/7/3 193/7/3
f 201/6/3 193/6/3 200/6/3
f 202/7/3 194/7/3 201/7/3
f 206/3/3 204/3/3 203/3/3
f 207/3/3 204/3/3 206/3/3
f 208/2/3 205/2/3 204/2/3
f 208/3/3 204/3/3 207/3/3
f 209/2/3 205/2/3 208/2/3
f 215/5/3 211/5/3 210/5/3
f 216/5/3 211/5/3 215/5/3
f 217/3/3 213/3/3 212/3/3
f 218/2/3 214/2/3 213/2/3
f 218/3/3 213/3/3 217/3/3
f 219/2/3 214/2/3 218/2/3
f 222/6/3 221/6/3 220/6/3
f 223/6/3 221/6/3 222/6/3
f 226/2/3 225/2/3 224/2/3
f 227/2/3 225/2/3 226/2/3
f 231/3/3 229/3/3 228/3/3
f 232/2/3 230/2/3 229/2/3
f 232/3/3 229/3/3 231/3/3
f 233/2/3 230/2/3 232/2/3
f 234/7/4 235/7/4 236/7/4
f 236/7/4 235/7/4 237/7/4
f 238/2/4 239/2/4 242/2/4
f 242/2/4 239/2/4 243/2/4
f 240/2/4 241/2/4 244/2/4
f 244/2/4 241/2/4 245/2/4
f 246/2/4 247/2/4 248/2/4
f 248/2/4 247/2/4 249/2/4
f 250/3/4 251/3/4 253/3/4
f 251/2/4 252/2/4 254/2/4
f 253/3/4 251/3/4 254/3/4
f 254/2/4 252/2/4 255/2/4
f 256/2/4 257/2/4 261/2/4
f 261/2/4 257/2/4 262/2/4
f 257/3/4 258/3/4 263/3/4
f 262/2/4 257/2/4 263/2/4
f 258/2/4 259/2/4 264/2/4
f 263/3/4 258/3/4 264/3/4
f 264/2/4 259/2/4 265/2/4
f 265/2/4 259/2/4 266/2/4
f 261/2/4 262/2/4 268/2/4
f 260/2/4 261/2/4 268/2/4
f 268/2/4 262/2/4 269/2/4
f 269/2/4 262/2/4 270/2/4
f 262/3/4 263/3/4 271/3/4
f 270/2/4 262/2/4 271/2/4
f 271/3/4 263/3/4 272/3/4
f 266/2/4 267/2/4 273/2/4
f 269/2/4 270/2/4 274/2/4
f 270/3/4 271/3/4 274/3/4
f 271/4/4 272/4/4 275/4/4
f 274/3/4 271/3/4 275/3/4
f 275/4/4 272/4/4 276/4/4
f 268/3/4 269/3/4 277/3/4
f 269/2/4 274/2/4 278/2/4
f 277/3/4 269/3/4 278/3/4
f 274/2/4 275/2/4 278/2/4
f 278/2/4 275/2/4 279/2/4
f 275/3/4 276/3/4 280/3/4
f 279/2/4 275/2/4 280/2/4
f 280/3/4 276/3/4 281/3/4
f 273/2/4 267/2/4 284/2/4
f 284/2/4 267/2/4 285/2/4
f 280/2/4 281/2/4 286/2/4
f 279/2/4 280/2/4 286/2/4
f 281/3/4 282/3/4 287/3/4
f 286/2/4 281/2/4 287/2/4
f 282/2/4 283/2/4 288/2/4
f 287/3/4 282/3/4 288/3/4
f 283/2/4 284/2/4 288/2/4
f 288/2/4 284/2/4 289/2/4
f 290/2/4 291/2/4 293/2/4
f 291/3/4 292/3/4 293/3/4
f 293/3/4 292/3/4 294/3/4
f 290/2/4 293/2/4 295/2/4
f 293/2/4 294/2/4 295/2/4
f 295/2/4 294/2/4 296/2/4
f 290/2/4 295/2/4 297/2/4
f 295/3/4 296/3/4 298/3/4
f 297/2/4 295/2/4 298/2/4
f 296/2/4 294/2/4 299/2/4
f 298/3/4 296/3/4 299/3/4
f 299/2/4 294/2/4 300/2/4
f 304/6/5 302/6/5 301/6/5
f 305/3/5 303/3/5 302/3/5
f 305/6/5 302/6/5 304/6/5
f 306/3/5 305/3/5 304/3/5
f 307/3/5 303/3/5 305/3/5
f 307/3/5 305/3/5 306/3/5
f 308/2/5 307/2/5 306/2/5
f 309/3/5 303/3/5 307/3/5
f 309/2/5 307/2/5 308/2/5
f 310/3/5 303/3/5 309/3/5
f 315/3/5 312/3/5 311/3/5
f 316/3/5 312/3/5 315/3/5
f 317/3/5 314/3/5 313/3/5
f 318/3/5 314/3/5 317/3/5
f 319/2/5 316/2/5 315/2/5
f 320/2/5 316/2/5 319/2/5
f 321/2/5 318/2/5 317/2/5
f 322/2/5 318/2/5 321/2/5
f 327/2/5 324/2/5 323/2/5
f 328/2/5 324/2/5 327/2/5
f 329/2/5 326/2/5 325/2/5
f 330/2/5 326/2/5 329/2/5
f 335/3/5 332/3/5 331/3/5
f 336/3/5 332/3/5 335/3/5
f 337/2/5 334/2/5 333/2/5
f 338/2/5 334/2/5 337/2/5
f 343/2/5 340/2/5 339/2/5
f 344/2/5 340/2/5 343/2/5
f 345/3/5 342/3/5 341/3/5
f 346/3/5 342/3/5 345/3/5
f 351/2/5 348/2/5 347/2/5
f 351/2/5 350/2/5 349/2/5
f 351/2/5 349/2/5 348/2/5
f 352/2/5 350/2/5 351/2/5
f 355/6/5 354/6/5 353/6/5
f 356/6/5 354/6/5 355/6/5
f 357/2/6 358/2/6 361/2/6
f 361/2/6 358/2/6 362/2/6
f 359/2/6 360/2/6 363/2/6
f 363/2/6 360/2/6 364/2/6
f 365/7/6 366/7/6 367/7/6
f 367/7/6 366/7/6 368/7/6
f 368/6/6 369/6/6 370/6/6
f 370/6/6 369/6/6 371/6/6
f 374/7/6 375/7/6 376/7/6
f 376/7/6 375/7/6 377/7/6
f 372/2/6 373/2/6 380/2/6
f 378/6/6 379/6/6 381/6/6
f 381/6/6 379/6/6 382/6/6
f 372/2/6 380/2/6 383/2/6
f 372/2/6 383/2/6 384/2/6
f 384/2/6 383/2/6 385/2/6
f 381/2/6 382/2/6 387/2/6
f 387/2/6 382/2/6 388/2/6
f 385/3/6 386/3/6 389/3/6
f 386/2/6 387/2/6 390/2/6
f 389/3/6 386/3/6 390/3/6
f 390/2/6 387/2/6 391/2/6
f 392/2/6 393/2/6 396/2/6
f 393/3/6 394/3/6 396/3/6
f 394/6/6 395/6/6 397/6/6
f 396/3/6 394/3/6 397/3/6
f 392/2/6 396/2/6 398/2/6
f 396/2/6 397/2/6 398/2/6
f 397/6/6 395/6/6 399/6/6
f 398/2/6 397/2/6 399/2/6
f 399/6/6 395/6/6 400/6/6
f 392/2/6 398/2/6 401/2/6
f 398/3/6 399/3/6 402/3/6
f 401/2/6 398/2/6 402/2/6
f 399/3/6 400/3/6 402/3/6
f 402/3/6 400/3/6 403/3/6
f 401/3/6 402/3/6 404/3/6
f 402/2/6 403/2/6 405/2/6
f 404/3/6 402/3/6 405/3/6
f 404/2/6 405/2/6 406/2/6
f 405/2/6 403/2/6 407/2/6
f 406/2/6 405/2/6 407/2/6
