# MagicaVoxel @ Ephtracy

# group
o 

# material
mtllib Zed_1-4.mtl
usemtl palette

# normals
vn -1 0 0
vn 1 0 0
vn 0 0 1
vn 0 0 -1
vn 0 -1 0
vn 0 1 0

# texcoords
vt 0.310547 0.5
vt 0.341797 0.5
vt 0.357422 0.5
vt 0.361328 0.5
vt 0.365234 0.5
vt 0.373047 0.5
vt 0.955078 0.5
vt 0.958984 0.5

# verts
v -0.7 2.2 -0.1
v -0.7 2.2 -0.2
v -0.7 2.2 -0.3
v -0.7 2.3 -0.2
v -0.7 2.3 -0.3
v -0.7 2.4 0
v -0.7 2.4 -0.1
v -0.7 2.4 -0.2
v -0.7 2.4 -0.3
v -0.7 2.5 0
v -0.7 2.5 -0.1
v -0.7 2.5 -0.2
v -0.7 2.5 -0.3
v -0.7 2.6 0
v -0.7 2.6 -0.1
v -0.7 2.6 -0.2
v -0.7 2.6 -0.3
v -0.7 2.7 0
v -0.7 2.7 -0.1
v -0.7 2.7 -0.2
v -0.7 2.7 -0.3
v -0.7 2.8 -0.1
v -0.7 2.8 -0.2
v -0.7 2.8 -0.3
v -0.7 3 -0.1
v -0.7 3 -0.2
v -0.7 3.1 -0.2
v -0.7 3.1 -0.3
v -0.7 3.2 -0.2
v -0.7 3.2 -0.3
v -0.7 3.3 -0.2
v -0.7 3.3 -0.3
v -0.7 3.5 -0.2
v -0.7 3.5 -0.3
v -0.7 3.6 -0.1
v -0.7 3.6 -0.2
v -0.7 3.6 -0.3
v -0.7 3.7 -0.1
v -0.7 3.7 -0.2
v -0.7 3.7 -0.3
v -0.7 3.8 -0.2
v -0.7 3.8 -0.3
v -0.7 4.1 -0.1
v -0.7 4.1 -0.3
v -0.7 4.2 -0.2
v -0.7 4.2 -0.3
v -0.7 4.3 -0.2
v -0.7 4.3 -0.3
v -0.7 4.4 -0.1
v -0.7 4.4 -0.2
v -0.7 4.5 -0.1
v -0.7 4.5 -0.2
v -0.7 4.5 -0.3
v -0.7 4.6 -0.2
v -0.7 4.6 -0.3
v -0.7 4.9 -0.1
v -0.7 4.9 -0.3
v -0.6 2.2 -0.1
v -0.6 2.2 -0.2
v -0.6 2.2 -0.3
v -0.6 2.3 -0.2
v -0.6 2.3 -0.3
v -0.6 2.4 0
v -0.6 2.4 -0.1
v -0.6 2.4 -0.2
v -0.6 2.4 -0.3
v -0.6 2.5 0
v -0.6 2.5 -0.1
v -0.6 2.6 0
v -0.6 2.6 -0.1
v -0.5 2.4 -0.1
v -0.5 2.4 -0.2
v -0.5 2.4 -0.3
v -0.5 2.5 -0.1
v -0.5 2.5 -0.2
v -0.5 2.6 0
v -0.5 2.6 -0.1
v -0.5 2.6 -0.2
v -0.5 2.6 -0.3
v -0.5 2.7 0
v -0.5 2.7 -0.1
v -0.5 2.7 -0.2
v -0.5 2.7 -0.3
v -0.5 2.8 -0.1
v -0.5 2.8 -0.2
v -0.5 2.8 -0.3
v -0.5 2.9 -0.2
v -0.5 2.9 -0.3
v -0.5 3.1 -0.2
v -0.5 3.1 -0.3
v -0.5 3.2 -0.2
v -0.5 3.2 -0.3
v -0.5 3.5 -0.1
v -0.5 3.5 -0.2
v -0.5 3.6 -0.1
v -0.5 3.6 -0.2
v -0.5 3.6 -0.3
v -0.5 3.7 -0.1
v -0.5 3.7 -0.2
v -0.5 3.7 -0.3
v -0.5 3.8 -0.1
v -0.5 3.8 -0.2
v -0.5 4 -0.1
v -0.5 4 -0.2
v -0.5 4.1 -0.1
v -0.5 4.1 -0.2
v -0.5 4.3 -0.1
v -0.5 4.3 -0.2
v -0.5 4.4 -0.1
v -0.5 4.4 -0.2
v -0.5 4.5 -0.1
v -0.5 4.5 -0.2
v -0.5 4.5 -0.3
v -0.5 4.6 -0.1
v -0.5 4.6 -0.2
v -0.5 4.6 -0.3
v -0.5 4.7 -0.1
v -0.5 4.7 -0.2
v -0.5 4.7 -0.3
v -0.5 4.8 -0.1
v -0.5 4.8 -0.3
v -0.5 4.9 -0.1
v -0.5 4.9 -0.3
v -0.7 2.4 0
v -0.7 2.5 0
v -0.7 2.6 0
v -0.7 2.7 0
v -0.6 2.4 0
v -0.6 2.5 0
v -0.6 2.6 0
v -0.6 2.7 0
v -0.5 2.6 0
v -0.5 2.7 0
v -0.7 2.2 -0.1
v -0.7 2.4 -0.1
v -0.7 2.7 -0.1
v -0.7 2.8 -0.1
v -0.7 3 -0.1
v -0.7 3.6 -0.1
v -0.7 3.7 -0.1
v -0.7 4.1 -0.1
v -0.7 4.4 -0.1
v -0.7 4.5 -0.1
v -0.7 4.9 -0.1
v -0.6 2.2 -0.1
v -0.6 2.4 -0.1
v -0.6 2.5 -0.1
v -0.6 2.6 -0.1
v -0.6 2.7 -0.1
v -0.6 2.8 -0.1
v -0.6 3 -0.1
v -0.6 3.5 -0.1
v -0.6 3.6 -0.1
v -0.6 3.7 -0.1
v -0.6 3.8 -0.1
v -0.6 4 -0.1
v -0.6 4.1 -0.1
v -0.6 4.3 -0.1
v -0.6 4.4 -0.1
v -0.6 4.5 -0.1
v -0.6 4.6 -0.1
v -0.6 4.7 -0.1
v -0.6 4.8 -0.1
v -0.6 4.9 -0.1
v -0.5 2.4 -0.1
v -0.5 2.5 -0.1
v -0.5 2.6 -0.1
v -0.5 2.7 -0.1
v -0.5 2.8 -0.1
v -0.5 3.5 -0.1
v -0.5 3.6 -0.1
v -0.5 3.7 -0.1
v -0.5 3.8 -0.1
v -0.5 4 -0.1
v -0.5 4.1 -0.1
v -0.5 4.3 -0.1
v -0.5 4.4 -0.1
v -0.5 4.5 -0.1
v -0.5 4.6 -0.1
v -0.5 4.7 -0.1
v -0.5 4.8 -0.1
v -0.5 4.9 -0.1
v -0.7 2.2 -0.3
v -0.7 2.3 -0.3
v -0.7 2.4 -0.3
v -0.7 2.5 -0.3
v -0.7 2.6 -0.3
v -0.7 2.7 -0.3
v -0.7 2.8 -0.3
v -0.7 3.1 -0.3
v -0.7 3.2 -0.3
v -0.7 3.3 -0.3
v -0.7 3.5 -0.3
v -0.7 3.6 -0.3
v -0.7 3.7 -0.3
v -0.7 3.8 -0.3
v -0.7 4.1 -0.3
v -0.7 4.2 -0.3
v -0.7 4.3 -0.3
v -0.7 4.5 -0.3
v -0.7 4.6 -0.3
v -0.7 4.9 -0.3
v -0.6 2.2 -0.3
v -0.6 2.3 -0.3
v -0.6 2.4 -0.3
v -0.6 2.5 -0.3
v -0.6 2.6 -0.3
v -0.6 2.7 -0.3
v -0.6 2.8 -0.3
v -0.6 2.9 -0.3
v -0.6 3.1 -0.3
v -0.6 3.2 -0.3
v -0.6 3.3 -0.3
v -0.6 3.5 -0.3
v -0.6 3.6 -0.3
v -0.6 3.7 -0.3
v -0.6 3.8 -0.3
v -0.6 4.1 -0.3
v -0.6 4.2 -0.3
v -0.6 4.3 -0.3
v -0.6 4.5 -0.3
v -0.6 4.6 -0.3
v -0.6 4.7 -0.3
v -0.6 4.8 -0.3
v -0.6 4.9 -0.3
v -0.5 2.4 -0.3
v -0.5 2.6 -0.3
v -0.5 2.7 -0.3
v -0.5 2.8 -0.3
v -0.5 2.9 -0.3
v -0.5 3.1 -0.3
v -0.5 3.2 -0.3
v -0.5 3.6 -0.3
v -0.5 3.7 -0.3
v -0.5 4.5 -0.3
v -0.5 4.6 -0.3
v -0.5 4.7 -0.3
v -0.5 4.8 -0.3
v -0.5 4.9 -0.3
v -0.7 2.2 -0.1
v -0.6 2.2 -0.1
v -0.7 2.2 -0.2
v -0.6 2.2 -0.2
v -0.7 2.2 -0.3
v -0.6 2.2 -0.3
v -0.7 2.4 0
v -0.6 2.4 0
v -0.7 2.4 -0.1
v -0.6 2.4 -0.1
v -0.5 2.4 -0.1
v -0.6 2.4 -0.2
v -0.5 2.4 -0.2
v -0.6 2.4 -0.3
v -0.5 2.4 -0.3
v -0.6 2.6 0
v -0.5 2.6 0
v -0.6 2.6 -0.1
v -0.5 2.6 -0.1
v -0.7 2.7 0
v -0.6 2.7 0
v -0.5 2.7 0
v -0.7 2.7 -0.1
v -0.6 2.7 -0.1
v -0.5 2.7 -0.1
v -0.7 4.9 -0.1
v -0.6 4.9 -0.1
v -0.5 4.9 -0.1
v -0.7 4.9 -0.3
v -0.6 4.9 -0.3
v -0.5 4.9 -0.3

# faces
f 4/8/1 2/8/1 1/8/1
f 4/7/1 3/7/1 2/7/1
f 5/7/1 3/7/1 4/7/1
f 7/8/1 4/8/1 1/8/1
f 8/4/1 5/4/1 4/4/1
f 8/8/1 4/8/1 7/8/1
f 9/4/1 5/4/1 8/4/1
f 10/8/1 7/8/1 6/8/1
f 11/7/1 8/7/1 7/7/1
f 11/8/1 7/8/1 10/8/1
f 12/3/1 9/3/1 8/3/1
f 12/7/1 8/7/1 11/7/1
f 13/3/1 9/3/1 12/3/1
f 14/7/1 11/7/1 10/7/1
f 15/3/1 12/3/1 11/3/1
f 15/7/1 11/7/1 14/7/1
f 16/7/1 13/7/1 12/7/1
f 16/3/1 12/3/1 15/3/1
f 17/7/1 13/7/1 16/7/1
f 18/5/1 15/5/1 14/5/1
f 18/5/1 16/5/1 15/5/1
f 19/5/1 16/5/1 18/5/1
f 20/3/1 17/3/1 16/3/1
f 20/5/1 16/5/1 19/5/1
f 21/3/1 17/3/1 20/3/1
f 22/4/1 20/4/1 19/4/1
f 22/4/1 21/4/1 20/4/1
f 23/4/1 21/4/1 22/4/1
f 24/4/1 21/4/1 23/4/1
f 25/7/1 23/7/1 22/7/1
f 26/3/1 24/3/1 23/3/1
f 26/7/1 23/7/1 25/7/1
f 27/3/1 26/3/1 25/3/1
f 27/3/1 24/3/1 26/3/1
f 28/3/1 24/3/1 27/3/1
f 29/3/1 27/3/1 25/3/1
f 29/8/1 28/8/1 27/8/1
f 30/8/1 28/8/1 29/8/1
f 31/3/1 29/3/1 25/3/1
f 31/7/1 30/7/1 29/7/1
f 32/7/1 30/7/1 31/7/1
f 33/3/1 31/3/1 25/3/1
f 33/3/1 32/3/1 31/3/1
f 34/3/1 32/3/1 33/3/1
f 35/3/1 33/3/1 25/3/1
f 36/4/1 34/4/1 33/4/1
f 36/3/1 33/3/1 35/3/1
f 37/4/1 34/4/1 36/4/1
f 38/4/1 36/4/1 35/4/1
f 39/5/1 37/5/1 36/5/1
f 39/4/1 36/4/1 38/4/1
f 40/5/1 37/5/1 39/5/1
f 41/3/1 39/3/1 38/3/1
f 41/4/1 40/4/1 39/4/1
f 42/4/1 40/4/1 41/4/1
f 43/3/1 41/3/1 38/3/1
f 43/3/1 42/3/1 41/3/1
f 44/3/1 42/3/1 43/3/1
f 45/5/1 44/5/1 43/5/1
f 46/5/1 44/5/1 45/5/1
f 47/5/1 45/5/1 43/5/1
f 47/4/1 46/4/1 45/4/1
f 48/4/1 46/4/1 47/4/1
f 49/5/1 47/5/1 43/5/1
f 49/5/1 48/5/1 47/5/1
f 50/5/1 48/5/1 49/5/1
f 51/6/1 50/6/1 49/6/1
f 52/5/1 48/5/1 50/5/1
f 52/6/1 50/6/1 51/6/1
f 53/5/1 48/5/1 52/5/1
f 54/1/1 52/1/1 51/1/1
f 54/6/1 53/6/1 52/6/1
f 55/6/1 53/6/1 54/6/1
f 56/1/1 54/1/1 51/1/1
f 56/1/1 55/1/1 54/1/1
f 57/1/1 55/1/1 56/1/1
f 58/8/2 59/8/2 61/8/2
f 59/7/2 60/7/2 61/7/2
f 61/7/2 60/7/2 62/7/2
f 58/8/2 61/8/2 64/8/2
f 61/4/2 62/4/2 65/4/2
f 64/8/2 61/8/2 65/8/2
f 65/4/2 62/4/2 66/4/2
f 63/8/2 64/8/2 67/8/2
f 67/8/2 64/8/2 68/8/2
f 67/7/2 68/7/2 69/7/2
f 69/7/2 68/7/2 70/7/2
f 71/5/2 72/5/2 74/5/2
f 72/8/2 73/8/2 75/8/2
f 74/5/2 72/5/2 75/5/2
f 74/7/2 75/7/2 77/7/2
f 75/8/2 73/8/2 78/8/2
f 77/7/2 75/7/2 78/7/2
f 78/8/2 73/8/2 79/8/2
f 76/3/2 77/3/2 80/3/2
f 77/7/2 78/7/2 81/7/2
f 80/3/2 77/3/2 81/3/2
f 78/4/2 79/4/2 82/4/2
f 81/7/2 78/7/2 82/7/2
f 82/4/2 79/4/2 83/4/2
f 81/4/2 82/4/2 84/4/2
f 82/5/2 83/5/2 85/5/2
f 84/4/2 82/4/2 85/4/2
f 85/5/2 83/5/2 86/5/2
f 84/3/2 85/3/2 87/3/2
f 85/4/2 86/4/2 87/4/2
f 87/4/2 86/4/2 88/4/2
f 84/3/2 87/3/2 89/3/2
f 87/3/2 88/3/2 89/3/2
f 89/3/2 88/3/2 90/3/2
f 84/3/2 89/3/2 91/3/2
f 89/7/2 90/7/2 91/7/2
f 91/7/2 90/7/2 92/7/2
f 84/3/2 91/3/2 93/3/2
f 91/3/2 92/3/2 93/3/2
f 93/3/2 92/3/2 94/3/2
f 93/4/2 94/4/2 95/4/2
f 94/3/2 92/3/2 96/3/2
f 95/4/2 94/4/2 96/4/2
f 96/3/2 92/3/2 97/3/2
f 95/5/2 96/5/2 98/5/2
f 96/4/2 97/4/2 99/4/2
f 98/5/2 96/5/2 99/5/2
f 99/4/2 97/4/2 100/4/2
f 98/4/2 99/4/2 101/4/2
f 99/3/2 100/3/2 102/3/2
f 101/4/2 99/4/2 102/4/2
f 101/3/2 102/3/2 103/3/2
f 102/3/2 100/3/2 104/3/2
f 103/3/2 102/3/2 104/3/2
f 103/4/2 104/4/2 105/4/2
f 104/3/2 100/3/2 106/3/2
f 105/4/2 104/4/2 106/4/2
f 105/3/2 106/3/2 107/3/2
f 106/3/2 100/3/2 108/3/2
f 107/3/2 106/3/2 108/3/2
f 107/4/2 108/4/2 109/4/2
f 108/3/2 100/3/2 110/3/2
f 109/4/2 108/4/2 110/4/2
f 109/5/2 110/5/2 111/5/2
f 110/3/2 100/3/2 112/3/2
f 111/5/2 110/5/2 112/5/2
f 112/3/2 100/3/2 113/3/2
f 111/6/2 112/6/2 114/6/2
f 112/4/2 113/4/2 115/4/2
f 114/6/2 112/6/2 115/6/2
f 115/4/2 113/4/2 116/4/2
f 114/4/2 115/4/2 117/4/2
f 115/6/2 116/6/2 118/6/2
f 117/4/2 115/4/2 118/4/2
f 118/6/2 116/6/2 119/6/2
f 117/2/2 118/2/2 120/2/2
f 118/2/2 119/2/2 120/2/2
f 120/2/2 119/2/2 121/2/2
f 120/6/2 121/6/2 122/6/2
f 122/6/2 121/6/2 123/6/2
f 128/8/3 125/8/3 124/8/3
f 129/7/3 126/7/3 125/7/3
f 129/8/3 125/8/3 128/8/3
f 130/5/3 127/5/3 126/5/3
f 130/7/3 126/7/3 129/7/3
f 131/5/3 127/5/3 130/5/3
f 132/3/3 131/3/3 130/3/3
f 133/3/3 131/3/3 132/3/3
f 145/8/3 135/8/3 134/8/3
f 146/8/3 135/8/3 145/8/3
f 149/4/3 137/4/3 136/4/3
f 150/7/3 138/7/3 137/7/3
f 150/4/3 137/4/3 149/4/3
f 151/3/3 139/3/3 138/3/3
f 151/7/3 138/7/3 150/7/3
f 152/3/3 139/3/3 151/3/3
f 153/4/3 140/4/3 139/4/3
f 153/3/3 139/3/3 152/3/3
f 154/3/3 141/3/3 140/3/3
f 154/4/3 140/4/3 153/4/3
f 155/3/3 141/3/3 154/3/3
f 156/3/3 141/3/3 155/3/3
f 157/5/3 142/5/3 141/5/3
f 157/3/3 141/3/3 156/3/3
f 158/5/3 142/5/3 157/5/3
f 159/6/3 143/6/3 142/6/3
f 159/5/3 142/5/3 158/5/3
f 160/1/3 144/1/3 143/1/3
f 160/6/3 143/6/3 159/6/3
f 161/1/3 144/1/3 160/1/3
f 162/1/3 144/1/3 161/1/3
f 163/1/3 144/1/3 162/1/3
f 164/1/3 144/1/3 163/1/3
f 165/5/3 147/5/3 146/5/3
f 166/7/3 148/7/3 147/7/3
f 166/5/3 147/5/3 165/5/3
f 167/7/3 148/7/3 166/7/3
f 168/4/3 150/4/3 149/4/3
f 169/3/3 152/3/3 151/3/3
f 169/4/3 150/4/3 168/4/3
f 169/3/3 151/3/3 150/3/3
f 170/4/3 153/4/3 152/4/3
f 170/3/3 152/3/3 169/3/3
f 171/5/3 154/5/3 153/5/3
f 171/4/3 153/4/3 170/4/3
f 172/4/3 155/4/3 154/4/3
f 172/5/3 154/5/3 171/5/3
f 173/3/3 156/3/3 155/3/3
f 173/4/3 155/4/3 172/4/3
f 174/4/3 157/4/3 156/4/3
f 174/3/3 156/3/3 173/3/3
f 175/3/3 158/3/3 157/3/3
f 175/4/3 157/4/3 174/4/3
f 176/4/3 159/4/3 158/4/3
f 176/3/3 158/3/3 175/3/3
f 177/5/3 160/5/3 159/5/3
f 177/4/3 159/4/3 176/4/3
f 178/6/3 161/6/3 160/6/3
f 178/5/3 160/5/3 177/5/3
f 179/4/3 162/4/3 161/4/3
f 179/6/3 161/6/3 178/6/3
f 180/2/3 163/2/3 162/2/3
f 180/4/3 162/4/3 179/4/3
f 181/6/3 164/6/3 163/6/3
f 181/2/3 163/2/3 180/2/3
f 182/6/3 164/6/3 181/6/3
f 183/7/4 184/7/4 203/7/4
f 184/4/4 185/4/4 204/4/4
f 203/7/4 184/7/4 204/7/4
f 185/3/4 186/3/4 205/3/4
f 204/4/4 185/4/4 205/4/4
f 186/7/4 187/7/4 206/7/4
f 205/3/4 186/3/4 206/3/4
f 187/3/4 188/3/4 207/3/4
f 206/7/4 187/7/4 207/7/4
f 188/4/4 189/4/4 208/4/4
f 207/3/4 188/3/4 208/3/4
f 189/3/4 190/3/4 209/3/4
f 208/4/4 189/4/4 209/4/4
f 209/3/4 190/3/4 210/3/4
f 190/8/4 191/8/4 211/8/4
f 210/3/4 190/3/4 211/3/4
f 191/7/4 192/7/4 212/7/4
f 211/8/4 191/8/4 212/8/4
f 192/3/4 193/3/4 213/3/4
f 212/7/4 192/7/4 213/7/4
f 193/4/4 194/4/4 214/4/4
f 213/3/4 193/3/4 214/3/4
f 194/5/4 195/5/4 215/5/4
f 214/4/4 194/4/4 215/4/4
f 195/4/4 196/4/4 216/4/4
f 215/5/4 195/5/4 216/5/4
f 196/3/4 197/3/4 217/3/4
f 216/4/4 196/4/4 217/4/4
f 197/5/4 198/5/4 218/5/4
f 217/3/4 197/3/4 218/3/4
f 198/4/4 199/4/4 219/4/4
f 218/5/4 198/5/4 219/5/4
f 199/5/4 200/5/4 220/5/4
f 219/4/4 199/4/4 220/4/4
f 200/6/4 201/6/4 221/6/4
f 220/5/4 200/5/4 221/5/4
f 201/1/4 202/1/4 222/1/4
f 221/6/4 201/6/4 222/6/4
f 222/1/4 202/1/4 223/1/4
f 223/1/4 202/1/4 224/1/4
f 224/1/4 202/1/4 225/1/4
f 205/8/4 206/8/4 226/8/4
f 206/8/4 207/8/4 226/8/4
f 207/4/4 208/4/4 227/4/4
f 226/8/4 207/8/4 227/8/4
f 208/5/4 209/5/4 228/5/4
f 227/4/4 208/4/4 228/4/4
f 209/4/4 210/4/4 229/4/4
f 228/5/4 209/5/4 229/5/4
f 210/3/4 211/3/4 230/3/4
f 229/4/4 210/4/4 230/4/4
f 211/7/4 212/7/4 231/7/4
f 230/3/4 211/3/4 231/3/4
f 212/3/4 213/3/4 232/3/4
f 231/7/4 212/7/4 232/7/4
f 213/3/4 214/3/4 232/3/4
f 214/3/4 215/3/4 232/3/4
f 215/4/4 216/4/4 233/4/4
f 232/3/4 215/3/4 233/3/4
f 220/3/4 221/3/4 234/3/4
f 233/4/4 216/4/4 234/4/4
f 216/3/4 217/3/4 234/3/4
f 219/3/4 220/3/4 234/3/4
f 218/3/4 219/3/4 234/3/4
f 217/3/4 218/3/4 234/3/4
f 221/4/4 222/4/4 235/4/4
f 234/3/4 221/3/4 235/3/4
f 222/6/4 223/6/4 236/6/4
f 235/4/4 222/4/4 236/4/4
f 223/2/4 224/2/4 237/2/4
f 236/6/4 223/6/4 237/6/4
f 224/6/4 225/6/4 238/6/4
f 237/2/4 224/2/4 238/2/4
f 238/6/4 225/6/4 239/6/4
f 242/8/5 241/8/5 240/8/5
f 243/8/5 241/8/5 242/8/5
f 244/7/5 243/7/5 242/7/5
f 245/7/5 243/7/5 244/7/5
f 248/8/5 247/8/5 246/8/5
f 249/8/5 247/8/5 248/8/5
f 251/5/5 250/5/5 249/5/5
f 252/5/5 250/5/5 251/5/5
f 253/8/5 252/8/5 251/8/5
f 254/8/5 252/8/5 253/8/5
f 257/3/5 256/3/5 255/3/5
f 258/3/5 256/3/5 257/3/5
f 259/5/6 260/5/6 262/5/6
f 260/3/6 261/3/6 263/3/6
f 262/5/6 260/5/6 263/5/6
f 263/3/6 261/3/6 264/3/6
f 265/1/6 266/1/6 268/1/6
f 266/6/6 267/6/6 269/6/6
f 268/1/6 266/1/6 269/1/6
f 269/6/6 267/6/6 270/6/6
