# MagicaVoxel @ Ephtracy

# group
o 

# material
mtllib Zed_5-3.mtl
usemtl palette

# normals
vn 0 -1 0
vn 0 1 0
vn 0 0 1
vn 0 0 -1
vn -1 0 0
vn 1 0 0

# texcoords
vt 0.357422 0.5
vt 0.361328 0.5
vt 0.365234 0.5
vt 0.955078 0.5
vt 0.958984 0.5
vt 0.982422 0.5
vt 0.986328 0.5

# verts
v 0.7 2.2 -0.1
v 0.7 2.2 -0.2
v 0.7 2.2 -0.3
v 0.8 2.2 -0.1
v 0.8 2.2 -0.2
v 0.8 2.2 -0.3
v 0.6 2.4 -0.1
v 0.6 2.4 -0.2
v 0.6 2.4 -0.3
v 0.7 2.4 0
v 0.7 2.4 -0.1
v 0.7 2.4 -0.2
v 0.7 2.4 -0.3
v 0.8 2.4 0
v 0.8 2.4 -0.1
v 0.6 2.6 0
v 0.6 2.6 -0.1
v 0.7 2.6 0
v 0.7 2.6 -0.1
v 0.6 3.6 -0.1
v 0.6 3.6 -0.2
v 0.7 3.6 -0.1
v 0.7 3.6 -0.2
v 0.7 3.6 -0.3
v 0.8 3.6 -0.2
v 0.8 3.6 -0.3
v 0.6 4.7 -0.1
v 0.6 4.7 -0.2
v 0.7 4.7 -0.1
v 0.7 4.7 -0.2
v 0.7 4.8 -0.1
v 0.7 4.8 -0.2
v 0.7 4.8 -0.3
v 0.8 4.8 -0.1
v 0.8 4.8 -0.2
v 0.8 4.8 -0.3
v 0.6 2.7 0
v 0.6 2.7 -0.1
v 0.7 2.7 0
v 0.7 2.7 -0.1
v 0.8 2.7 0
v 0.8 2.7 -0.1
v 0.6 3.5 -0.1
v 0.6 3.5 -0.2
v 0.7 3.5 -0.2
v 0.7 3.5 -0.3
v 0.8 3.5 -0.1
v 0.8 3.5 -0.3
v 0.6 3.7 -0.1
v 0.6 3.7 -0.2
v 0.7 3.7 -0.1
v 0.7 3.7 -0.2
v 0.7 3.7 -0.3
v 0.8 3.7 -0.2
v 0.8 3.7 -0.3
v 0.6 4.9 -0.1
v 0.6 4.9 -0.3
v 0.7 4.9 -0.1
v 0.7 4.9 -0.2
v 0.7 4.9 -0.3
v 0.8 4.9 -0.1
v 0.8 4.9 -0.2
v 0.8 4.9 -0.3
v 0.7 2.4 0
v 0.8 2.4 0
v 0.7 2.5 0
v 0.8 2.5 0
v 0.6 2.6 0
v 0.7 2.6 0
v 0.8 2.6 0
v 0.6 2.7 0
v 0.7 2.7 0
v 0.8 2.7 0
v 0.7 2.2 -0.1
v 0.8 2.2 -0.1
v 0.6 2.4 -0.1
v 0.7 2.4 -0.1
v 0.8 2.4 -0.1
v 0.6 2.5 -0.1
v 0.7 2.5 -0.1
v 0.6 2.6 -0.1
v 0.7 2.6 -0.1
v 0.6 2.7 -0.1
v 0.7 2.7 -0.1
v 0.8 2.7 -0.1
v 0.6 2.8 -0.1
v 0.7 2.8 -0.1
v 0.8 2.8 -0.1
v 0.7 3 -0.1
v 0.8 3 -0.1
v 0.7 3.2 -0.1
v 0.8 3.2 -0.1
v 0.6 3.4 -0.1
v 0.7 3.4 -0.1
v 0.8 3.4 -0.1
v 0.6 3.5 -0.1
v 0.8 3.5 -0.1
v 0.6 3.6 -0.1
v 0.7 3.6 -0.1
v 0.6 3.7 -0.1
v 0.7 3.7 -0.1
v 0.6 4.7 -0.1
v 0.7 4.7 -0.1
v 0.7 4.8 -0.1
v 0.8 4.8 -0.1
v 0.6 4.9 -0.1
v 0.7 4.9 -0.1
v 0.8 4.9 -0.1
v 0.6 3.5 -0.2
v 0.7 3.5 -0.2
v 0.6 3.6 -0.2
v 0.7 3.6 -0.2
v 0.8 3.6 -0.2
v 0.6 3.7 -0.2
v 0.7 3.7 -0.2
v 0.8 3.7 -0.2
v 0.6 4 -0.2
v 0.7 4 -0.2
v 0.6 4.2 -0.2
v 0.7 4.2 -0.2
v 0.6 4.3 -0.2
v 0.7 4.3 -0.2
v 0.6 4.4 -0.2
v 0.7 4.4 -0.2
v 0.6 4.5 -0.2
v 0.7 4.5 -0.2
v 0.6 4.7 -0.2
v 0.7 4.7 -0.2
v 0.7 2.2 -0.3
v 0.8 2.2 -0.3
v 0.7 2.3 -0.3
v 0.8 2.3 -0.3
v 0.6 2.4 -0.3
v 0.7 2.4 -0.3
v 0.8 2.4 -0.3
v 0.7 2.5 -0.3
v 0.8 2.5 -0.3
v 0.6 2.6 -0.3
v 0.7 2.6 -0.3
v 0.8 2.6 -0.3
v 0.6 2.7 -0.3
v 0.7 2.7 -0.3
v 0.8 2.7 -0.3
v 0.6 2.8 -0.3
v 0.7 2.8 -0.3
v 0.8 2.8 -0.3
v 0.6 2.9 -0.3
v 0.7 2.9 -0.3
v 0.6 3.1 -0.3
v 0.7 3.1 -0.3
v 0.8 3.1 -0.3
v 0.6 3.2 -0.3
v 0.7 3.2 -0.3
v 0.8 3.2 -0.3
v 0.7 3.3 -0.3
v 0.8 3.3 -0.3
v 0.7 3.4 -0.3
v 0.8 3.4 -0.3
v 0.6 3.5 -0.3
v 0.7 3.5 -0.3
v 0.8 3.5 -0.3
v 0.6 3.6 -0.3
v 0.7 3.6 -0.3
v 0.8 3.6 -0.3
v 0.6 3.7 -0.3
v 0.7 3.7 -0.3
v 0.8 3.7 -0.3
v 0.6 4 -0.3
v 0.7 4 -0.3
v 0.6 4.2 -0.3
v 0.7 4.2 -0.3
v 0.6 4.3 -0.3
v 0.7 4.3 -0.3
v 0.6 4.4 -0.3
v 0.7 4.4 -0.3
v 0.6 4.5 -0.3
v 0.7 4.5 -0.3
v 0.6 4.8 -0.3
v 0.7 4.8 -0.3
v 0.8 4.8 -0.3
v 0.6 4.9 -0.3
v 0.7 4.9 -0.3
v 0.8 4.9 -0.3
v 0.6 2.6 0
v 0.6 2.7 0
v 0.6 2.4 -0.1
v 0.6 2.5 -0.1
v 0.6 2.6 -0.1
v 0.6 2.7 -0.1
v 0.6 2.8 -0.1
v 0.6 3.4 -0.1
v 0.6 3.5 -0.1
v 0.6 3.6 -0.1
v 0.6 3.7 -0.1
v 0.6 4.7 -0.1
v 0.6 4.9 -0.1
v 0.6 2.4 -0.2
v 0.6 2.5 -0.2
v 0.6 2.6 -0.2
v 0.6 2.7 -0.2
v 0.6 2.8 -0.2
v 0.6 2.9 -0.2
v 0.6 3.1 -0.2
v 0.6 3.2 -0.2
v 0.6 3.4 -0.2
v 0.6 3.5 -0.2
v 0.6 3.6 -0.2
v 0.6 3.7 -0.2
v 0.6 4 -0.2
v 0.6 4.2 -0.2
v 0.6 4.3 -0.2
v 0.6 4.4 -0.2
v 0.6 4.5 -0.2
v 0.6 4.7 -0.2
v 0.6 4.8 -0.2
v 0.6 2.4 -0.3
v 0.6 2.6 -0.3
v 0.6 2.7 -0.3
v 0.6 2.8 -0.3
v 0.6 2.9 -0.3
v 0.6 3.1 -0.3
v 0.6 3.2 -0.3
v 0.6 3.5 -0.3
v 0.6 3.6 -0.3
v 0.6 3.7 -0.3
v 0.6 4 -0.3
v 0.6 4.2 -0.3
v 0.6 4.3 -0.3
v 0.6 4.4 -0.3
v 0.6 4.5 -0.3
v 0.6 4.8 -0.3
v 0.6 4.9 -0.3
v 0.7 2.4 0
v 0.7 2.5 0
v 0.7 2.6 0
v 0.7 2.2 -0.1
v 0.7 2.4 -0.1
v 0.7 2.5 -0.1
v 0.7 2.6 -0.1
v 0.7 2.2 -0.2
v 0.7 2.3 -0.2
v 0.7 2.4 -0.2
v 0.7 2.2 -0.3
v 0.7 2.3 -0.3
v 0.7 2.4 -0.3
v 0.7 3.6 -0.1
v 0.7 3.7 -0.1
v 0.7 4.7 -0.1
v 0.7 4.8 -0.1
v 0.7 3.5 -0.2
v 0.7 3.6 -0.2
v 0.7 3.7 -0.2
v 0.7 4 -0.2
v 0.7 4.2 -0.2
v 0.7 4.3 -0.2
v 0.7 4.4 -0.2
v 0.7 4.5 -0.2
v 0.7 4.7 -0.2
v 0.7 4.8 -0.2
v 0.7 3.5 -0.3
v 0.7 3.6 -0.3
v 0.7 3.7 -0.3
v 0.7 4 -0.3
v 0.7 4.2 -0.3
v 0.7 4.3 -0.3
v 0.7 4.4 -0.3
v 0.7 4.5 -0.3
v 0.7 4.8 -0.3
v 0.8 2.4 0
v 0.8 2.5 0
v 0.8 2.6 0
v 0.8 2.7 0
v 0.8 2.2 -0.1
v 0.8 2.4 -0.1
v 0.8 2.5 -0.1
v 0.8 2.6 -0.1
v 0.8 2.7 -0.1
v 0.8 2.8 -0.1
v 0.8 3 -0.1
v 0.8 3.2 -0.1
v 0.8 3.4 -0.1
v 0.8 3.5 -0.1
v 0.8 4.8 -0.1
v 0.8 4.9 -0.1
v 0.8 2.2 -0.2
v 0.8 2.3 -0.2
v 0.8 2.4 -0.2
v 0.8 2.5 -0.2
v 0.8 2.6 -0.2
v 0.8 2.7 -0.2
v 0.8 2.8 -0.2
v 0.8 3 -0.2
v 0.8 3.1 -0.2
v 0.8 3.2 -0.2
v 0.8 3.3 -0.2
v 0.8 3.4 -0.2
v 0.8 3.6 -0.2
v 0.8 3.7 -0.2
v 0.8 4.8 -0.2
v 0.8 4.9 -0.2
v 0.8 2.2 -0.3
v 0.8 2.3 -0.3
v 0.8 2.4 -0.3
v 0.8 2.5 -0.3
v 0.8 2.6 -0.3
v 0.8 2.7 -0.3
v 0.8 2.8 -0.3
v 0.8 3.1 -0.3
v 0.8 3.2 -0.3
v 0.8 3.3 -0.3
v 0.8 3.4 -0.3
v 0.8 3.5 -0.3
v 0.8 3.6 -0.3
v 0.8 3.7 -0.3
v 0.8 4.8 -0.3
v 0.8 4.9 -0.3

# faces
f 1/5/1 2/5/1 4/5/1
f 2/4/1 3/4/1 5/4/1
f 4/5/1 2/5/1 5/5/1
f 5/4/1 3/4/1 6/4/1
f 7/3/1 8/3/1 11/3/1
f 8/5/1 9/5/1 12/5/1
f 11/3/1 8/3/1 12/3/1
f 12/5/1 9/5/1 13/5/1
f 10/5/1 11/5/1 14/5/1
f 14/5/1 11/5/1 15/5/1
f 16/1/1 17/1/1 18/1/1
f 18/1/1 17/1/1 19/1/1
f 20/6/1 21/6/1 22/6/1
f 22/6/1 21/6/1 23/6/1
f 23/7/1 24/7/1 25/7/1
f 25/7/1 24/7/1 26/7/1
f 27/3/1 28/3/1 29/3/1
f 29/3/1 28/3/1 30/3/1
f 31/2/1 32/2/1 34/2/1
f 32/4/1 33/4/1 35/4/1
f 34/2/1 32/2/1 35/2/1
f 35/4/1 33/4/1 36/4/1
f 39/1/2 38/1/2 37/1/2
f 40/1/2 38/1/2 39/1/2
f 41/3/2 40/3/2 39/3/2
f 42/3/2 40/3/2 41/3/2
f 45/5/2 44/5/2 43/5/2
f 47/5/2 45/5/2 43/5/2
f 47/5/2 46/5/2 45/5/2
f 48/5/2 46/5/2 47/5/2
f 51/6/2 50/6/2 49/6/2
f 52/6/2 50/6/2 51/6/2
f 54/7/2 53/7/2 52/7/2
f 55/7/2 53/7/2 54/7/2
f 58/3/2 57/3/2 56/3/2
f 59/3/2 57/3/2 58/3/2
f 60/3/2 57/3/2 59/3/2
f 61/2/2 59/2/2 58/2/2
f 62/4/2 60/4/2 59/4/2
f 62/2/2 59/2/2 61/2/2
f 63/4/2 60/4/2 62/4/2
f 64/5/3 65/5/3 66/5/3
f 66/5/3 65/5/3 67/5/3
f 66/4/3 67/4/3 69/4/3
f 69/4/3 67/4/3 70/4/3
f 68/1/3 69/1/3 71/1/3
f 69/3/3 70/3/3 72/3/3
f 71/1/3 69/1/3 72/1/3
f 72/3/3 70/3/3 73/3/3
f 74/5/3 75/5/3 77/5/3
f 77/5/3 75/5/3 78/5/3
f 76/3/3 77/3/3 79/3/3
f 79/3/3 77/3/3 80/3/3
f 79/4/3 80/4/3 81/4/3
f 81/4/3 80/4/3 82/4/3
f 83/2/3 84/2/3 86/2/3
f 84/2/3 85/2/3 86/2/3
f 86/2/3 85/2/3 87/2/3
f 87/2/3 85/2/3 88/2/3
f 86/1/3 87/1/3 89/1/3
f 87/4/3 88/4/3 89/4/3
f 89/4/3 88/4/3 90/4/3
f 86/1/3 89/1/3 91/1/3
f 89/1/3 90/1/3 91/1/3
f 91/1/3 90/1/3 92/1/3
f 86/1/3 91/1/3 93/1/3
f 91/4/3 92/4/3 94/4/3
f 93/1/3 91/1/3 94/1/3
f 94/4/3 92/4/3 95/4/3
f 93/5/3 94/5/3 96/5/3
f 94/5/3 95/5/3 96/5/3
f 96/5/3 95/5/3 97/5/3
f 98/6/3 99/6/3 100/6/3
f 100/6/3 99/6/3 101/6/3
f 102/3/3 103/3/3 104/3/3
f 102/3/3 104/3/3 106/3/3
f 104/2/3 105/2/3 107/2/3
f 106/3/3 104/3/3 107/3/3
f 107/2/3 105/2/3 108/2/3
f 109/4/3 110/4/3 111/4/3
f 111/4/3 110/4/3 112/4/3
f 112/7/3 113/7/3 115/7/3
f 115/7/3 113/7/3 116/7/3
f 114/6/3 115/6/3 117/6/3
f 117/6/3 115/6/3 118/6/3
f 117/4/3 118/4/3 119/4/3
f 119/4/3 118/4/3 120/4/3
f 119/6/3 120/6/3 121/6/3
f 121/6/3 120/6/3 122/6/3
f 121/4/3 122/4/3 123/4/3
f 123/4/3 122/4/3 124/4/3
f 123/6/3 124/6/3 125/6/3
f 125/6/3 124/6/3 126/6/3
f 125/5/3 126/5/3 127/5/3
f 127/5/3 126/5/3 128/5/3
f 131/4/4 130/4/4 129/4/4
f 132/4/4 130/4/4 131/4/4
f 134/2/4 132/2/4 131/2/4
f 135/2/4 132/2/4 134/2/4
f 136/5/4 134/5/4 133/5/4
f 136/1/4 135/1/4 134/1/4
f 137/1/4 135/1/4 136/1/4
f 138/5/4 136/5/4 133/5/4
f 139/4/4 137/4/4 136/4/4
f 139/5/4 136/5/4 138/5/4
f 140/4/4 137/4/4 139/4/4
f 141/2/4 139/2/4 138/2/4
f 142/1/4 140/1/4 139/1/4
f 142/2/4 139/2/4 141/2/4
f 143/1/4 140/1/4 142/1/4
f 144/3/4 142/3/4 141/3/4
f 145/2/4 143/2/4 142/2/4
f 145/3/4 142/3/4 144/3/4
f 146/2/4 143/2/4 145/2/4
f 147/2/4 145/2/4 144/2/4
f 148/1/4 146/1/4 145/1/4
f 148/2/4 145/2/4 147/2/4
f 149/1/4 148/1/4 147/1/4
f 150/1/4 146/1/4 148/1/4
f 150/1/4 148/1/4 149/1/4
f 151/1/4 146/1/4 150/1/4
f 152/4/4 150/4/4 149/4/4
f 153/5/4 151/5/4 150/5/4
f 153/4/4 150/4/4 152/4/4
f 154/5/4 151/5/4 153/5/4
f 155/1/4 153/1/4 152/1/4
f 155/4/4 154/4/4 153/4/4
f 156/4/4 154/4/4 155/4/4
f 157/1/4 155/1/4 152/1/4
f 157/1/4 156/1/4 155/1/4
f 158/1/4 156/1/4 157/1/4
f 159/1/4 157/1/4 152/1/4
f 160/5/4 158/5/4 157/5/4
f 160/1/4 157/1/4 159/1/4
f 161/5/4 158/5/4 160/5/4
f 162/4/4 160/4/4 159/4/4
f 163/4/4 160/4/4 162/4/4
f 165/7/4 163/7/4 162/7/4
f 165/7/4 164/7/4 163/7/4
f 166/7/4 164/7/4 165/7/4
f 167/7/4 164/7/4 166/7/4
f 168/6/4 166/6/4 165/6/4
f 169/6/4 166/6/4 168/6/4
f 170/4/4 169/4/4 168/4/4
f 171/4/4 169/4/4 170/4/4
f 172/6/4 171/6/4 170/6/4
f 173/6/4 171/6/4 172/6/4
f 174/4/4 173/4/4 172/4/4
f 175/4/4 173/4/4 174/4/4
f 176/6/4 175/6/4 174/6/4
f 177/6/4 175/6/4 176/6/4
f 178/5/4 177/5/4 176/5/4
f 179/5/4 177/5/4 178/5/4
f 181/3/4 179/3/4 178/3/4
f 182/4/4 180/4/4 179/4/4
f 182/3/4 179/3/4 181/3/4
f 183/4/4 180/4/4 182/4/4
f 184/1/5 185/1/5 188/1/5
f 188/1/5 185/1/5 189/1/5
f 186/3/5 187/3/5 197/3/5
f 187/4/5 188/4/5 198/4/5
f 197/3/5 187/3/5 198/3/5
f 188/4/5 189/4/5 198/4/5
f 198/4/5 189/4/5 199/4/5
f 189/2/5 190/2/5 200/2/5
f 199/4/5 189/4/5 200/4/5
f 190/1/5 191/1/5 201/1/5
f 200/2/5 190/2/5 201/2/5
f 201/1/5 191/1/5 202/1/5
f 202/1/5 191/1/5 203/1/5
f 203/1/5 191/1/5 204/1/5
f 191/5/5 192/5/5 205/5/5
f 204/1/5 191/1/5 205/1/5
f 205/5/5 192/5/5 206/5/5
f 193/6/5 194/6/5 207/6/5
f 207/6/5 194/6/5 208/6/5
f 195/3/5 196/3/5 214/3/5
f 214/3/5 196/3/5 215/3/5
f 198/5/5 199/5/5 216/5/5
f 197/5/5 198/5/5 216/5/5
f 199/2/5 200/2/5 217/2/5
f 216/5/5 199/5/5 217/5/5
f 200/3/5 201/3/5 218/3/5
f 217/2/5 200/2/5 218/2/5
f 201/2/5 202/2/5 219/2/5
f 218/3/5 201/3/5 219/3/5
f 202/1/5 203/1/5 220/1/5
f 219/2/5 202/2/5 220/2/5
f 203/4/5 204/4/5 221/4/5
f 220/1/5 203/1/5 221/1/5
f 205/1/5 206/1/5 222/1/5
f 221/4/5 204/4/5 222/4/5
f 204/1/5 205/1/5 222/1/5
f 206/4/5 207/4/5 223/4/5
f 222/1/5 206/1/5 223/1/5
f 207/7/5 208/7/5 224/7/5
f 223/4/5 207/4/5 224/4/5
f 208/6/5 209/6/5 225/6/5
f 224/7/5 208/7/5 225/7/5
f 209/4/5 210/4/5 226/4/5
f 225/6/5 209/6/5 226/6/5
f 210/6/5 211/6/5 227/6/5
f 226/4/5 210/4/5 227/4/5
f 211/4/5 212/4/5 228/4/5
f 227/6/5 211/6/5 228/6/5
f 212/6/5 213/6/5 229/6/5
f 228/4/5 212/4/5 229/4/5
f 214/5/5 215/5/5 230/5/5
f 229/6/5 213/6/5 230/6/5
f 213/5/5 214/5/5 230/5/5
f 215/3/5 196/3/5 231/3/5
f 230/5/5 215/5/5 231/5/5
f 231/3/5 196/3/5 232/3/5
f 233/5/5 234/5/5 237/5/5
f 234/4/5 235/4/5 238/4/5
f 237/5/5 234/5/5 238/5/5
f 238/4/5 235/4/5 239/4/5
f 236/5/5 237/5/5 240/5/5
f 240/5/5 237/5/5 241/5/5
f 241/5/5 237/5/5 242/5/5
f 240/4/5 241/4/5 243/4/5
f 241/2/5 242/2/5 244/2/5
f 243/4/5 241/4/5 244/4/5
f 244/2/5 242/2/5 245/2/5
f 251/6/6 247/6/6 246/6/6
f 252/6/6 247/6/6 251/6/6
f 258/3/6 249/3/6 248/3/6
f 259/3/6 249/3/6 258/3/6
f 260/4/6 251/4/6 250/4/6
f 261/4/6 251/4/6 260/4/6
f 262/6/6 253/6/6 252/6/6
f 263/4/6 254/4/6 253/4/6
f 263/6/6 253/6/6 262/6/6
f 264/6/6 255/6/6 254/6/6
f 264/4/6 254/4/6 263/4/6
f 265/4/6 256/4/6 255/4/6
f 265/6/6 255/6/6 264/6/6
f 266/6/6 257/6/6 256/6/6
f 266/4/6 256/4/6 265/4/6
f 267/5/6 259/5/6 258/5/6
f 267/6/6 257/6/6 266/6/6
f 267/5/6 258/5/6 257/5/6
f 268/5/6 259/5/6 267/5/6
f 274/5/6 270/5/6 269/5/6
f 275/4/6 271/4/6 270/4/6
f 275/5/6 270/5/6 274/5/6
f 276/3/6 272/3/6 271/3/6
f 276/4/6 271/4/6 275/4/6
f 277/3/6 272/3/6 276/3/6
f 285/5/6 274/5/6 273/5/6
f 286/5/6 274/5/6 285/5/6
f 287/4/6 275/4/6 274/4/6
f 287/5/6 274/5/6 286/5/6
f 288/1/6 276/1/6 275/1/6
f 288/4/6 275/4/6 287/4/6
f 289/3/6 277/3/6 276/3/6
f 289/1/6 276/1/6 288/1/6
f 290/2/6 278/2/6 277/2/6
f 290/3/6 277/3/6 289/3/6
f 291/4/6 279/4/6 278/4/6
f 291/2/6 278/2/6 290/2/6
f 292/1/6 280/1/6 279/1/6
f 292/4/6 279/4/6 291/4/6
f 293/1/6 280/1/6 292/1/6
f 294/4/6 281/4/6 280/4/6
f 294/1/6 280/1/6 293/1/6
f 295/4/6 281/4/6 294/4/6
f 296/5/6 282/5/6 281/5/6
f 296/4/6 281/4/6 295/4/6
f 299/2/6 284/2/6 283/2/6
f 300/2/6 284/2/6 299/2/6
f 301/4/6 286/4/6 285/4/6
f 302/2/6 287/2/6 286/2/6
f 302/4/6 286/4/6 301/4/6
f 303/1/6 288/1/6 287/1/6
f 303/2/6 287/2/6 302/2/6
f 304/4/6 289/4/6 288/4/6
f 304/1/6 288/1/6 303/1/6
f 305/1/6 290/1/6 289/1/6
f 305/4/6 289/4/6 304/4/6
f 306/2/6 291/2/6 290/2/6
f 306/1/6 290/1/6 305/1/6
f 307/1/6 293/1/6 292/1/6
f 307/2/6 291/2/6 306/2/6
f 307/1/6 292/1/6 291/1/6
f 308/5/6 294/5/6 293/5/6
f 308/1/6 293/1/6 307/1/6
f 309/4/6 295/4/6 294/4/6
f 309/5/6 294/5/6 308/5/6
f 310/1/6 296/1/6 295/1/6
f 310/4/6 295/4/6 309/4/6
f 311/5/6 282/5/6 296/5/6
f 311/1/6 296/1/6 310/1/6
f 312/5/6 282/5/6 311/5/6
f 313/7/6 298/7/6 297/7/6
f 314/7/6 298/7/6 313/7/6
f 315/4/6 300/4/6 299/4/6
f 316/4/6 300/4/6 315/4/6
