# MagicaVoxel @ Ephtracy

# group
o Fountain_LavaDrop

# material
mtllib ExtraContent-62-Fountain_LavaDrop.mtl
usemtl palette

# normals
vn -1 0 0
vn 1 0 0
vn 0 0 1
vn 0 0 -1
vn 0 -1 0
vn 0 1 0

# texcoords
vt 0.982422 0.5
vt 0.986328 0.5
vt 0.990234 0.5

# verts
v -0.55 -0.8 0.05
v -0.55 -0.8 -0.05
v -0.55 -0.6 0.05
v -0.55 -0.6 -0.05
v -0.55 -0.4 0.05
v -0.55 -0.4 -0.05
v -0.55 -0.2 0.05
v -0.55 -0.2 -0.05
v -0.55 0.5 0.05
v -0.55 0.5 -0.05
v -0.55 0.8 0.05
v -0.55 0.8 -0.05
v -0.45 -0.8 0.15
v -0.45 -0.8 0.05
v -0.45 -0.8 -0.05
v -0.45 -0.8 -0.15
v -0.45 -0.7 0.15
v -0.45 -0.7 0.05
v -0.45 -0.7 -0.05
v -0.45 -0.7 -0.15
v -0.15 -0.8 0.45
v -0.15 -0.8 0.35
v -0.15 -0.8 -0.35
v -0.15 -0.8 -0.45
v -0.15 -0.7 0.45
v -0.15 -0.7 0.35
v -0.15 -0.7 -0.35
v -0.15 -0.7 -0.45
v -0.05 -0.8 0.55
v -0.05 -0.8 0.45
v -0.05 -0.8 -0.45
v -0.05 -0.8 -0.55
v -0.05 -0.7 0.55
v -0.05 -0.7 0.45
v -0.05 -0.7 -0.45
v -0.05 -0.7 -0.55
v -0.05 -0.6 0.55
v -0.05 -0.6 0.45
v -0.05 -0.6 -0.45
v -0.05 -0.6 -0.55
v -0.05 -0.1 0.55
v -0.05 -0.1 0.45
v -0.05 -0.1 -0.45
v -0.05 -0.1 -0.55
v -0.05 0 0.55
v -0.05 0 0.45
v -0.05 0 -0.45
v -0.05 0 -0.55
v -0.05 0.2 0.55
v -0.05 0.2 0.45
v -0.05 0.5 0.55
v -0.05 0.5 0.45
v -0.05 0.5 -0.45
v -0.05 0.5 -0.55
v -0.05 0.6 -0.45
v -0.05 0.6 -0.55
v -0.05 0.7 0.55
v -0.05 0.7 0.45
v -0.05 0.8 0.55
v -0.05 0.8 0.45
v -0.05 0.8 -0.45
v -0.05 0.8 -0.55
v 0.05 -0.8 0.45
v 0.05 -0.8 0.35
v 0.05 -0.8 -0.35
v 0.05 -0.8 -0.45
v 0.05 -0.7 0.45
v 0.05 -0.7 0.35
v 0.05 -0.7 -0.35
v 0.05 -0.7 -0.45
v 0.35 -0.8 0.15
v 0.35 -0.8 0.05
v 0.35 -0.8 -0.05
v 0.35 -0.8 -0.15
v 0.35 -0.7 0.15
v 0.35 -0.7 0.05
v 0.35 -0.7 -0.05
v 0.35 -0.7 -0.15
v 0.45 -0.8 0.05
v 0.45 -0.8 -0.05
v 0.45 -0.7 0.05
v 0.45 -0.7 -0.05
v 0.45 -0.6 0.05
v 0.45 -0.6 -0.05
v 0.45 -0.5 0.05
v 0.45 -0.5 -0.05
v 0.45 -0.4 0.05
v 0.45 -0.4 -0.05
v 0.45 -0.3 0.05
v 0.45 -0.3 -0.05
v 0.45 0 0.05
v 0.45 0 -0.05
v 0.45 0.6 0.05
v 0.45 0.6 -0.05
v 0.45 0.8 0.05
v 0.45 0.8 -0.05
v -0.45 -0.8 0.05
v -0.45 -0.8 -0.05
v -0.45 -0.7 0.05
v -0.45 -0.7 -0.05
v -0.45 -0.6 0.05
v -0.45 -0.6 -0.05
v -0.45 -0.4 0.05
v -0.45 -0.4 -0.05
v -0.45 -0.2 0.05
v -0.45 -0.2 -0.05
v -0.45 0.5 0.05
v -0.45 0.5 -0.05
v -0.45 0.8 0.05
v -0.45 0.8 -0.05
v -0.35 -0.8 0.15
v -0.35 -0.8 0.05
v -0.35 -0.8 -0.05
v -0.35 -0.8 -0.15
v -0.35 -0.7 0.15
v -0.35 -0.7 0.05
v -0.35 -0.7 -0.05
v -0.35 -0.7 -0.15
v -0.05 -0.8 0.45
v -0.05 -0.8 0.35
v -0.05 -0.8 -0.35
v -0.05 -0.8 -0.45
v -0.05 -0.7 0.45
v -0.05 -0.7 0.35
v -0.05 -0.7 -0.35
v -0.05 -0.7 -0.45
v 0.05 -0.8 0.55
v 0.05 -0.8 0.45
v 0.05 -0.8 -0.45
v 0.05 -0.8 -0.55
v 0.05 -0.7 0.55
v 0.05 -0.7 0.45
v 0.05 -0.7 -0.45
v 0.05 -0.7 -0.55
v 0.05 -0.6 0.55
v 0.05 -0.6 0.45
v 0.05 -0.6 -0.45
v 0.05 -0.6 -0.55
v 0.05 -0.1 0.55
v 0.05 -0.1 0.45
v 0.05 -0.1 -0.45
v 0.05 -0.1 -0.55
v 0.05 0 0.55
v 0.05 0 0.45
v 0.05 0 -0.45
v 0.05 0 -0.55
v 0.05 0.2 0.55
v 0.05 0.2 0.45
v 0.05 0.5 0.55
v 0.05 0.5 0.45
v 0.05 0.5 -0.45
v 0.05 0.5 -0.55
v 0.05 0.6 -0.45
v 0.05 0.6 -0.55
v 0.05 0.7 0.55
v 0.05 0.7 0.45
v 0.05 0.8 0.55
v 0.05 0.8 0.45
v 0.05 0.8 -0.45
v 0.05 0.8 -0.55
v 0.15 -0.8 0.45
v 0.15 -0.8 0.35
v 0.15 -0.8 -0.35
v 0.15 -0.8 -0.45
v 0.15 -0.7 0.45
v 0.15 -0.7 0.35
v 0.15 -0.7 -0.35
v 0.15 -0.7 -0.45
v 0.45 -0.8 0.15
v 0.45 -0.8 0.05
v 0.45 -0.8 -0.05
v 0.45 -0.8 -0.15
v 0.45 -0.7 0.15
v 0.45 -0.7 0.05
v 0.45 -0.7 -0.05
v 0.45 -0.7 -0.15
v 0.55 -0.8 0.05
v 0.55 -0.8 -0.05
v 0.55 -0.6 0.05
v 0.55 -0.6 -0.05
v 0.55 -0.5 0.05
v 0.55 -0.5 -0.05
v 0.55 -0.4 0.05
v 0.55 -0.4 -0.05
v 0.55 -0.3 0.05
v 0.55 -0.3 -0.05
v 0.55 0 0.05
v 0.55 0 -0.05
v 0.55 0.6 0.05
v 0.55 0.6 -0.05
v 0.55 0.8 0.05
v 0.55 0.8 -0.05
v -0.05 -0.8 0.55
v -0.05 -0.7 0.55
v -0.05 -0.6 0.55
v -0.05 -0.1 0.55
v -0.05 0 0.55
v -0.05 0.2 0.55
v -0.05 0.5 0.55
v -0.05 0.7 0.55
v -0.05 0.8 0.55
v 0.05 -0.8 0.55
v 0.05 -0.7 0.55
v 0.05 -0.6 0.55
v 0.05 -0.1 0.55
v 0.05 0 0.55
v 0.05 0.2 0.55
v 0.05 0.5 0.55
v 0.05 0.7 0.55
v 0.05 0.8 0.55
v -0.15 -0.8 0.45
v -0.15 -0.7 0.45
v -0.05 -0.8 0.45
v -0.05 -0.7 0.45
v 0.05 -0.8 0.45
v 0.05 -0.7 0.45
v 0.15 -0.8 0.45
v 0.15 -0.7 0.45
v -0.45 -0.8 0.15
v -0.45 -0.7 0.15
v -0.35 -0.8 0.15
v -0.35 -0.7 0.15
v 0.35 -0.8 0.15
v 0.35 -0.7 0.15
v 0.45 -0.8 0.15
v 0.45 -0.7 0.15
v -0.55 -0.8 0.05
v -0.55 -0.6 0.05
v -0.55 -0.4 0.05
v -0.55 -0.2 0.05
v -0.55 0.5 0.05
v -0.55 0.8 0.05
v -0.45 -0.8 0.05
v -0.45 -0.7 0.05
v -0.45 -0.6 0.05
v -0.45 -0.4 0.05
v -0.45 -0.2 0.05
v -0.45 0.5 0.05
v -0.45 0.8 0.05
v 0.45 -0.8 0.05
v 0.45 -0.7 0.05
v 0.45 -0.6 0.05
v 0.45 -0.5 0.05
v 0.45 -0.4 0.05
v 0.45 -0.3 0.05
v 0.45 0 0.05
v 0.45 0.6 0.05
v 0.45 0.8 0.05
v 0.55 -0.8 0.05
v 0.55 -0.6 0.05
v 0.55 -0.5 0.05
v 0.55 -0.4 0.05
v 0.55 -0.3 0.05
v 0.55 0 0.05
v 0.55 0.6 0.05
v 0.55 0.8 0.05
v -0.45 -0.8 -0.05
v -0.45 -0.7 -0.05
v -0.35 -0.8 -0.05
v -0.35 -0.7 -0.05
v 0.35 -0.8 -0.05
v 0.35 -0.7 -0.05
v 0.45 -0.8 -0.05
v 0.45 -0.7 -0.05
v -0.15 -0.8 -0.35
v -0.15 -0.7 -0.35
v -0.05 -0.8 -0.35
v -0.05 -0.7 -0.35
v 0.05 -0.8 -0.35
v 0.05 -0.7 -0.35
v 0.15 -0.8 -0.35
v 0.15 -0.7 -0.35
v -0.05 -0.8 -0.45
v -0.05 -0.7 -0.45
v -0.05 -0.6 -0.45
v -0.05 -0.1 -0.45
v -0.05 0 -0.45
v -0.05 0.5 -0.45
v -0.05 0.6 -0.45
v -0.05 0.8 -0.45
v 0.05 -0.8 -0.45
v 0.05 -0.7 -0.45
v 0.05 -0.6 -0.45
v 0.05 -0.1 -0.45
v 0.05 0 -0.45
v 0.05 0.5 -0.45
v 0.05 0.6 -0.45
v 0.05 0.8 -0.45
v -0.05 -0.8 0.45
v -0.05 -0.7 0.45
v -0.05 -0.6 0.45
v -0.05 -0.1 0.45
v -0.05 0 0.45
v -0.05 0.2 0.45
v -0.05 0.5 0.45
v -0.05 0.7 0.45
v -0.05 0.8 0.45
v 0.05 -0.8 0.45
v 0.05 -0.7 0.45
v 0.05 -0.6 0.45
v 0.05 -0.1 0.45
v 0.05 0 0.45
v 0.05 0.2 0.45
v 0.05 0.5 0.45
v 0.05 0.7 0.45
v 0.05 0.8 0.45
v -0.15 -0.8 0.35
v -0.15 -0.7 0.35
v -0.05 -0.8 0.35
v -0.05 -0.7 0.35
v 0.05 -0.8 0.35
v 0.05 -0.7 0.35
v 0.15 -0.8 0.35
v 0.15 -0.7 0.35
v -0.45 -0.8 0.05
v -0.45 -0.7 0.05
v -0.35 -0.8 0.05
v -0.35 -0.7 0.05
v 0.35 -0.8 0.05
v 0.35 -0.7 0.05
v 0.45 -0.8 0.05
v 0.45 -0.7 0.05
v -0.55 -0.8 -0.05
v -0.55 -0.6 -0.05
v -0.55 -0.4 -0.05
v -0.55 -0.2 -0.05
v -0.55 0.5 -0.05
v -0.55 0.8 -0.05
v -0.45 -0.8 -0.05
v -0.45 -0.7 -0.05
v -0.45 -0.6 -0.05
v -0.45 -0.4 -0.05
v -0.45 -0.2 -0.05
v -0.45 0.5 -0.05
v -0.45 0.8 -0.05
v 0.45 -0.8 -0.05
v 0.45 -0.7 -0.05
v 0.45 -0.6 -0.05
v 0.45 -0.5 -0.05
v 0.45 -0.4 -0.05
v 0.45 -0.3 -0.05
v 0.45 0 -0.05
v 0.45 0.6 -0.05
v 0.45 0.8 -0.05
v 0.55 -0.8 -0.05
v 0.55 -0.6 -0.05
v 0.55 -0.5 -0.05
v 0.55 -0.4 -0.05
v 0.55 -0.3 -0.05
v 0.55 0 -0.05
v 0.55 0.6 -0.05
v 0.55 0.8 -0.05
v -0.45 -0.8 -0.15
v -0.45 -0.7 -0.15
v -0.35 -0.8 -0.15
v -0.35 -0.7 -0.15
v 0.35 -0.8 -0.15
v 0.35 -0.7 -0.15
v 0.45 -0.8 -0.15
v 0.45 -0.7 -0.15
v -0.15 -0.8 -0.45
v -0.15 -0.7 -0.45
v -0.05 -0.8 -0.45
v -0.05 -0.7 -0.45
v 0.05 -0.8 -0.45
v 0.05 -0.7 -0.45
v 0.15 -0.8 -0.45
v 0.15 -0.7 -0.45
v -0.05 -0.8 -0.55
v -0.05 -0.7 -0.55
v -0.05 -0.6 -0.55
v -0.05 -0.1 -0.55
v -0.05 0 -0.55
v -0.05 0.5 -0.55
v -0.05 0.6 -0.55
v -0.05 0.8 -0.55
v 0.05 -0.8 -0.55
v 0.05 -0.7 -0.55
v 0.05 -0.6 -0.55
v 0.05 -0.1 -0.55
v 0.05 0 -0.55
v 0.05 0.5 -0.55
v 0.05 0.6 -0.55
v 0.05 0.8 -0.55
v -0.05 -0.8 0.55
v 0.05 -0.8 0.55
v -0.15 -0.8 0.45
v -0.05 -0.8 0.45
v 0.05 -0.8 0.45
v 0.15 -0.8 0.45
v -0.15 -0.8 0.35
v -0.05 -0.8 0.35
v 0.05 -0.8 0.35
v 0.15 -0.8 0.35
v -0.45 -0.8 0.15
v -0.35 -0.8 0.15
v 0.35 -0.8 0.15
v 0.45 -0.8 0.15
v -0.55 -0.8 0.05
v -0.45 -0.8 0.05
v -0.35 -0.8 0.05
v 0.35 -0.8 0.05
v 0.45 -0.8 0.05
v 0.55 -0.8 0.05
v -0.55 -0.8 -0.05
v -0.45 -0.8 -0.05
v -0.35 -0.8 -0.05
v 0.35 -0.8 -0.05
v 0.45 -0.8 -0.05
v 0.55 -0.8 -0.05
v -0.45 -0.8 -0.15
v -0.35 -0.8 -0.15
v 0.35 -0.8 -0.15
v 0.45 -0.8 -0.15
v -0.15 -0.8 -0.35
v -0.05 -0.8 -0.35
v 0.05 -0.8 -0.35
v 0.15 -0.8 -0.35
v -0.15 -0.8 -0.45
v -0.05 -0.8 -0.45
v 0.05 -0.8 -0.45
v 0.15 -0.8 -0.45
v -0.05 -0.8 -0.55
v 0.05 -0.8 -0.55
v -0.15 -0.7 0.45
v -0.05 -0.7 0.45
v 0.05 -0.7 0.45
v 0.15 -0.7 0.45
v -0.15 -0.7 0.35
v -0.05 -0.7 0.35
v 0.05 -0.7 0.35
v 0.15 -0.7 0.35
v -0.45 -0.7 0.15
v -0.35 -0.7 0.15
v 0.35 -0.7 0.15
v 0.45 -0.7 0.15
v -0.45 -0.7 0.05
v -0.35 -0.7 0.05
v 0.35 -0.7 0.05
v 0.45 -0.7 0.05
v -0.45 -0.7 -0.05
v -0.35 -0.7 -0.05
v 0.35 -0.7 -0.05
v 0.45 -0.7 -0.05
v -0.45 -0.7 -0.15
v -0.35 -0.7 -0.15
v 0.35 -0.7 -0.15
v 0.45 -0.7 -0.15
v -0.15 -0.7 -0.35
v -0.05 -0.7 -0.35
v 0.05 -0.7 -0.35
v 0.15 -0.7 -0.35
v -0.15 -0.7 -0.45
v -0.05 -0.7 -0.45
v 0.05 -0.7 -0.45
v 0.15 -0.7 -0.45
v -0.05 0.8 0.55
v 0.05 0.8 0.55
v -0.05 0.8 0.45
v 0.05 0.8 0.45
v -0.55 0.8 0.05
v -0.45 0.8 0.05
v 0.45 0.8 0.05
v 0.55 0.8 0.05
v -0.55 0.8 -0.05
v -0.45 0.8 -0.05
v 0.45 0.8 -0.05
v 0.55 0.8 -0.05
v -0.05 0.8 -0.45
v 0.05 0.8 -0.45
v -0.05 0.8 -0.55
v 0.05 0.8 -0.55

# faces
f 3/3/1 2/3/1 1/3/1
f 4/3/1 2/3/1 3/3/1
f 5/2/1 4/2/1 3/2/1
f 6/2/1 4/2/1 5/2/1
f 7/3/1 6/3/1 5/3/1
f 8/3/1 6/3/1 7/3/1
f 9/2/1 8/2/1 7/2/1
f 10/2/1 8/2/1 9/2/1
f 11/1/1 10/1/1 9/1/1
f 12/1/1 10/1/1 11/1/1
f 17/2/1 14/2/1 13/2/1
f 18/2/1 14/2/1 17/2/1
f 19/2/1 16/2/1 15/2/1
f 20/2/1 16/2/1 19/2/1
f 25/2/1 22/2/1 21/2/1
f 26/2/1 22/2/1 25/2/1
f 27/2/1 24/2/1 23/2/1
f 28/2/1 24/2/1 27/2/1
f 33/2/1 30/2/1 29/2/1
f 34/2/1 30/2/1 33/2/1
f 35/2/1 32/2/1 31/2/1
f 36/2/1 32/2/1 35/2/1
f 37/3/1 34/3/1 33/3/1
f 38/3/1 34/3/1 37/3/1
f 39/3/1 36/3/1 35/3/1
f 40/3/1 36/3/1 39/3/1
f 41/2/1 38/2/1 37/2/1
f 42/2/1 38/2/1 41/2/1
f 43/2/1 40/2/1 39/2/1
f 44/2/1 40/2/1 43/2/1
f 45/3/1 42/3/1 41/3/1
f 46/3/1 42/3/1 45/3/1
f 47/3/1 44/3/1 43/3/1
f 48/3/1 44/3/1 47/3/1
f 49/2/1 46/2/1 45/2/1
f 50/2/1 46/2/1 49/2/1
f 51/1/1 50/1/1 49/1/1
f 52/1/1 50/1/1 51/1/1
f 53/2/1 48/2/1 47/2/1
f 54/2/1 48/2/1 53/2/1
f 55/3/1 54/3/1 53/3/1
f 56/3/1 54/3/1 55/3/1
f 57/2/1 52/2/1 51/2/1
f 58/2/1 52/2/1 57/2/1
f 59/1/1 58/1/1 57/1/1
f 60/1/1 58/1/1 59/1/1
f 61/1/1 56/1/1 55/1/1
f 62/1/1 56/1/1 61/1/1
f 67/2/1 64/2/1 63/2/1
f 68/2/1 64/2/1 67/2/1
f 69/2/1 66/2/1 65/2/1
f 70/2/1 66/2/1 69/2/1
f 75/2/1 72/2/1 71/2/1
f 76/2/1 72/2/1 75/2/1
f 77/2/1 74/2/1 73/2/1
f 78/2/1 74/2/1 77/2/1
f 81/3/1 80/3/1 79/3/1
f 82/3/1 80/3/1 81/3/1
f 83/3/1 82/3/1 81/3/1
f 84/3/1 82/3/1 83/3/1
f 85/2/1 84/2/1 83/2/1
f 86/2/1 84/2/1 85/2/1
f 87/3/1 86/3/1 85/3/1
f 88/3/1 86/3/1 87/3/1
f 89/2/1 88/2/1 87/2/1
f 90/2/1 88/2/1 89/2/1
f 91/3/1 90/3/1 89/3/1
f 92/3/1 90/3/1 91/3/1
f 93/2/1 92/2/1 91/2/1
f 94/2/1 92/2/1 93/2/1
f 95/1/1 94/1/1 93/1/1
f 96/1/1 94/1/1 95/1/1
f 97/3/2 98/3/2 99/3/2
f 99/3/2 98/3/2 100/3/2
f 99/3/2 100/3/2 101/3/2
f 101/3/2 100/3/2 102/3/2
f 101/2/2 102/2/2 103/2/2
f 103/2/2 102/2/2 104/2/2
f 103/3/2 104/3/2 105/3/2
f 105/3/2 104/3/2 106/3/2
f 105/2/2 106/2/2 107/2/2
f 107/2/2 106/2/2 108/2/2
f 107/1/2 108/1/2 109/1/2
f 109/1/2 108/1/2 110/1/2
f 111/2/2 112/2/2 115/2/2
f 115/2/2 112/2/2 116/2/2
f 113/2/2 114/2/2 117/2/2
f 117/2/2 114/2/2 118/2/2
f 119/2/2 120/2/2 123/2/2
f 123/2/2 120/2/2 124/2/2
f 121/2/2 122/2/2 125/2/2
f 125/2/2 122/2/2 126/2/2
f 127/2/2 128/2/2 131/2/2
f 131/2/2 128/2/2 132/2/2
f 129/2/2 130/2/2 133/2/2
f 133/2/2 130/2/2 134/2/2
f 131/3/2 132/3/2 135/3/2
f 135/3/2 132/3/2 136/3/2
f 133/3/2 134/3/2 137/3/2
f 137/3/2 134/3/2 138/3/2
f 135/2/2 136/2/2 139/2/2
f 139/2/2 136/2/2 140/2/2
f 137/2/2 138/2/2 141/2/2
f 141/2/2 138/2/2 142/2/2
f 139/3/2 140/3/2 143/3/2
f 143/3/2 140/3/2 144/3/2
f 141/3/2 142/3/2 145/3/2
f 145/3/2 142/3/2 146/3/2
f 143/2/2 144/2/2 147/2/2
f 147/2/2 144/2/2 148/2/2
f 147/1/2 148/1/2 149/1/2
f 149/1/2 148/1/2 150/1/2
f 145/2/2 146/2/2 151/2/2
f 151/2/2 146/2/2 152/2/2
f 151/3/2 152/3/2 153/3/2
f 153/3/2 152/3/2 154/3/2
f 149/2/2 150/2/2 155/2/2
f 155/2/2 150/2/2 156/2/2
f 155/1/2 156/1/2 157/1/2
f 157/1/2 156/1/2 158/1/2
f 153/1/2 154/1/2 159/1/2
f 159/1/2 154/1/2 160/1/2
f 161/2/2 162/2/2 165/2/2
f 165/2/2 162/2/2 166/2/2
f 163/2/2 164/2/2 167/2/2
f 167/2/2 164/2/2 168/2/2
f 169/2/2 170/2/2 173/2/2
f 173/2/2 170/2/2 174/2/2
f 171/2/2 172/2/2 175/2/2
f 175/2/2 172/2/2 176/2/2
f 177/3/2 178/3/2 179/3/2
f 179/3/2 178/3/2 180/3/2
f 179/2/2 180/2/2 181/2/2
f 181/2/2 180/2/2 182/2/2
f 181/3/2 182/3/2 183/3/2
f 183/3/2 182/3/2 184/3/2
f 183/2/2 184/2/2 185/2/2
f 185/2/2 184/2/2 186/2/2
f 185/3/2 186/3/2 187/3/2
f 187/3/2 186/3/2 188/3/2
f 187/2/2 188/2/2 189/2/2
f 189/2/2 188/2/2 190/2/2
f 189/1/2 190/1/2 191/1/2
f 191/1/2 190/1/2 192/1/2
f 202/2/3 194/2/3 193/2/3
f 203/3/3 195/3/3 194/3/3
f 203/2/3 194/2/3 202/2/3
f 204/2/3 196/2/3 195/2/3
f 204/3/3 195/3/3 203/3/3
f 205/3/3 197/3/3 196/3/3
f 205/2/3 196/2/3 204/2/3
f 206/2/3 198/2/3 197/2/3
f 206/3/3 197/3/3 205/3/3
f 207/1/3 199/1/3 198/1/3
f 207/2/3 198/2/3 206/2/3
f 208/2/3 200/2/3 199/2/3
f 208/1/3 199/1/3 207/1/3
f 209/1/3 201/1/3 200/1/3
f 209/2/3 200/2/3 208/2/3
f 210/1/3 201/1/3 209/1/3
f 213/2/3 212/2/3 211/2/3
f 214/2/3 212/2/3 213/2/3
f 217/2/3 216/2/3 215/2/3
f 218/2/3 216/2/3 217/2/3
f 221/2/3 220/2/3 219/2/3
f 222/2/3 220/2/3 221/2/3
f 225/2/3 224/2/3 223/2/3
f 226/2/3 224/2/3 225/2/3
f 233/3/3 228/3/3 227/3/3
f 234/3/3 228/3/3 233/3/3
f 235/2/3 229/2/3 228/2/3
f 235/3/3 228/3/3 234/3/3
f 236/3/3 230/3/3 229/3/3
f 236/2/3 229/2/3 235/2/3
f 237/2/3 231/2/3 230/2/3
f 237/3/3 230/3/3 236/3/3
f 238/1/3 232/1/3 231/1/3
f 238/2/3 231/2/3 237/2/3
f 239/1/3 232/1/3 238/1/3
f 249/3/3 241/3/3 240/3/3
f 249/3/3 242/3/3 241/3/3
f 250/2/3 243/2/3 242/2/3
f 250/3/3 242/3/3 249/3/3
f 251/3/3 244/3/3 243/3/3
f 251/2/3 243/2/3 250/2/3
f 252/2/3 245/2/3 244/2/3
f 252/3/3 244/3/3 251/3/3
f 253/3/3 246/3/3 245/3/3
f 253/2/3 245/2/3 252/2/3
f 254/2/3 247/2/3 246/2/3
f 254/3/3 246/3/3 253/3/3
f 255/1/3 248/1/3 247/1/3
f 255/2/3 247/2/3 254/2/3
f 256/1/3 248/1/3 255/1/3
f 259/2/3 258/2/3 257/2/3
f 260/2/3 258/2/3 259/2/3
f 263/2/3 262/2/3 261/2/3
f 264/2/3 262/2/3 263/2/3
f 267/2/3 266/2/3 265/2/3
f 268/2/3 266/2/3 267/2/3
f 271/2/3 270/2/3 269/2/3
f 272/2/3 270/2/3 271/2/3
f 281/2/3 274/2/3 273/2/3
f 282/3/3 275/3/3 274/3/3
f 282/2/3 274/2/3 281/2/3
f 283/2/3 276/2/3 275/2/3
f 283/3/3 275/3/3 282/3/3
f 284/3/3 277/3/3 276/3/3
f 284/2/3 276/2/3 283/2/3
f 285/2/3 278/2/3 277/2/3
f 285/3/3 277/3/3 284/3/3
f 286/3/3 279/3/3 278/3/3
f 286/2/3 278/2/3 285/2/3
f 287/1/3 280/1/3 279/1/3
f 287/3/3 279/3/3 286/3/3
f 288/1/3 280/1/3 287/1/3
f 289/2/4 290/2/4 298/2/4
f 290/3/4 291/3/4 299/3/4
f 298/2/4 290/2/4 299/2/4
f 291/2/4 292/2/4 300/2/4
f 299/3/4 291/3/4 300/3/4
f 292/3/4 293/3/4 301/3/4
f 300/2/4 292/2/4 301/2/4
f 293/2/4 294/2/4 302/2/4
f 301/3/4 293/3/4 302/3/4
f 294/1/4 295/1/4 303/1/4
f 302/2/4 294/2/4 303/2/4
f 295/2/4 296/2/4 304/2/4
f 303/1/4 295/1/4 304/1/4
f 296/1/4 297/1/4 305/1/4
f 304/2/4 296/2/4 305/2/4
f 305/1/4 297/1/4 306/1/4
f 307/2/4 308/2/4 309/2/4
f 309/2/4 308/2/4 310/2/4
f 311/2/4 312/2/4 313/2/4
f 313/2/4 312/2/4 314/2/4
f 315/2/4 316/2/4 317/2/4
f 317/2/4 316/2/4 318/2/4
f 319/2/4 320/2/4 321/2/4
f 321/2/4 320/2/4 322/2/4
f 323/3/4 324/3/4 329/3/4
f 329/3/4 324/3/4 330/3/4
f 324/2/4 325/2/4 331/2/4
f 330/3/4 324/3/4 331/3/4
f 325/3/4 326/3/4 332/3/4
f 331/2/4 325/2/4 332/2/4
f 326/2/4 327/2/4 333/2/4
f 332/3/4 326/3/4 333/3/4
f 327/1/4 328/1/4 334/1/4
f 333/2/4 327/2/4 334/2/4
f 334/1/4 328/1/4 335/1/4
f 336/3/4 337/3/4 345/3/4
f 337/3/4 338/3/4 345/3/4
f 338/2/4 339/2/4 346/2/4
f 345/3/4 338/3/4 346/3/4
f 339/3/4 340/3/4 347/3/4
f 346/2/4 339/2/4 347/2/4
f 340/2/4 341/2/4 348/2/4
f 347/3/4 340/3/4 348/3/4
f 341/3/4 342/3/4 349/3/4
f 348/2/4 341/2/4 349/2/4
f 342/2/4 343/2/4 350/2/4
f 349/3/4 342/3/4 350/3/4
f 343/1/4 344/1/4 351/1/4
f 350/2/4 343/2/4 351/2/4
f 351/1/4 344/1/4 352/1/4
f 353/2/4 354/2/4 355/2/4
f 355/2/4 354/2/4 356/2/4
f 357/2/4 358/2/4 359/2/4
f 359/2/4 358/2/4 360/2/4
f 361/2/4 362/2/4 363/2/4
f 363/2/4 362/2/4 364/2/4
f 365/2/4 366/2/4 367/2/4
f 367/2/4 366/2/4 368/2/4
f 369/2/4 370/2/4 377/2/4
f 370/3/4 371/3/4 378/3/4
f 377/2/4 370/2/4 378/2/4
f 371/2/4 372/2/4 379/2/4
f 378/3/4 371/3/4 379/3/4
f 372/3/4 373/3/4 380/3/4
f 379/2/4 372/2/4 380/2/4
f 373/2/4 374/2/4 381/2/4
f 380/3/4 373/3/4 381/3/4
f 374/3/4 375/3/4 382/3/4
f 381/2/4 374/2/4 382/2/4
f 375/1/4 376/1/4 383/1/4
f 382/3/4 375/3/4 383/3/4
f 383/1/4 376/1/4 384/1/4
f 388/2/5 386/2/5 385/2/5
f 389/2/5 386/2/5 388/2/5
f 391/2/5 388/2/5 387/2/5
f 392/2/5 388/2/5 391/2/5
f 393/2/5 390/2/5 389/2/5
f 394/2/5 390/2/5 393/2/5
f 400/2/5 396/2/5 395/2/5
f 401/2/5 396/2/5 400/2/5
f 402/2/5 398/2/5 397/2/5
f 403/2/5 398/2/5 402/2/5
f 405/3/5 400/3/5 399/3/5
f 406/3/5 400/3/5 405/3/5
f 409/3/5 404/3/5 403/3/5
f 410/3/5 404/3/5 409/3/5
f 411/2/5 407/2/5 406/2/5
f 412/2/5 407/2/5 411/2/5
f 413/2/5 409/2/5 408/2/5
f 414/2/5 409/2/5 413/2/5
f 419/2/5 416/2/5 415/2/5
f 420/2/5 416/2/5 419/2/5
f 421/2/5 418/2/5 417/2/5
f 422/2/5 418/2/5 421/2/5
f 423/2/5 421/2/5 420/2/5
f 424/2/5 421/2/5 423/2/5
f 425/2/6 426/2/6 429/2/6
f 429/2/6 426/2/6 430/2/6
f 427/2/6 428/2/6 431/2/6
f 431/2/6 428/2/6 432/2/6
f 433/2/6 434/2/6 437/2/6
f 437/2/6 434/2/6 438/2/6
f 435/2/6 436/2/6 439/2/6
f 439/2/6 436/2/6 440/2/6
f 441/2/6 442/2/6 445/2/6
f 445/2/6 442/2/6 446/2/6
f 443/2/6 444/2/6 447/2/6
f 447/2/6 444/2/6 448/2/6
f 449/2/6 450/2/6 453/2/6
f 453/2/6 450/2/6 454/2/6
f 451/2/6 452/2/6 455/2/6
f 455/2/6 452/2/6 456/2/6
f 457/1/6 458/1/6 459/1/6
f 459/1/6 458/1/6 460/1/6
f 461/1/6 462/1/6 465/1/6
f 465/1/6 462/1/6 466/1/6
f 463/1/6 464/1/6 467/1/6
f 467/1/6 464/1/6 468/1/6
f 469/1/6 470/1/6 471/1/6
f 471/1/6 470/1/6 472/1/6
