# MagicaVoxel @ Ephtracy

# group
o Ivy_03

# material
mtllib ExtraContent-16-Ivy_03.mtl
usemtl palette

# normals
vn -1 0 0
vn 1 0 0
vn 0 0 1
vn 0 0 -1
vn 0 -1 0
vn 0 1 0

# texcoords
vt 0.818359 0.5
vt 0.822266 0.5
vt 0.826172 0.5

# verts
v -1.15 -0.25 0.05
v -1.15 -0.25 -0.05
v -1.15 -0.05 0.05
v -1.15 -0.05 -0.05
v -1.15 0.05 0.15
v -1.15 0.05 0.05
v -1.15 0.15 0.15
v -1.15 0.15 0.05
v -1.15 0.25 0.05
v -1.15 0.25 -0.05
v -1.05 -0.55 0.05
v -1.05 -0.55 -0.05
v -1.05 -0.45 0.15
v -1.05 -0.45 0.05
v -1.05 -0.45 -0.05
v -1.05 -0.25 0.15
v -1.05 -0.25 0.05
v -1.05 -0.25 -0.05
v -1.05 -0.15 0.15
v -1.05 -0.15 0.05
v -1.05 0.25 0.05
v -1.05 0.25 -0.05
v -1.05 0.35 0.05
v -1.05 0.35 -0.05
v -1.05 0.45 0.15
v -1.05 0.45 0.05
v -1.05 0.55 0.15
v -1.05 0.55 0.05
v -1.05 0.55 -0.05
v -1.05 0.65 0.15
v -1.05 0.65 0.05
v -1.05 0.65 -0.05
v -1.05 0.65 -0.15
v -1.05 0.75 0.05
v -1.05 0.75 -0.05
v -1.05 0.75 -0.15
v 0.55 -0.25 0.05
v 0.55 -0.25 -0.05
v 0.55 -0.05 0.05
v 0.55 -0.05 -0.05
v 0.55 0.05 0.05
v 0.55 0.05 -0.05
v 0.55 0.45 0.05
v 0.55 0.45 -0.05
v 0.55 0.65 0.05
v 0.55 0.65 -0.05
v 0.55 0.75 0.05
v 0.55 0.75 -0.05
v 0.65 0.05 0.05
v 0.65 0.05 -0.05
v 0.65 0.15 0.15
v 0.65 0.15 0.05
v 0.65 0.25 0.15
v 0.65 0.25 0.05
v 0.65 0.35 0.05
v 0.65 0.35 -0.05
v 0.65 0.45 0.15
v 0.65 0.45 0.05
v 0.65 0.45 -0.05
v 0.65 0.55 0.15
v 0.65 0.55 0.05
v 0.65 0.65 0.05
v 0.65 0.75 0.15
v 0.65 0.75 0.05
v 0.75 -0.35 0.05
v 0.75 -0.35 -0.05
v 0.75 -0.15 0.05
v 0.75 -0.15 -0.05
v 0.75 -0.05 0.05
v 0.75 -0.05 -0.05
v 0.75 0.35 0.15
v 0.75 0.35 0.05
v 0.75 0.45 0.15
v 0.75 0.45 0.05
v 0.85 -0.15 0.15
v 0.85 -0.15 0.05
v 0.85 -0.05 0.15
v 0.85 -0.05 0.05
v 0.85 0.65 -0.05
v 0.85 0.65 -0.15
v 0.85 0.75 -0.05
v 0.85 0.75 -0.15
v 0.95 -0.75 0.05
v 0.95 -0.75 -0.05
v 0.95 -0.45 0.05
v 0.95 -0.45 -0.05
v 0.95 -0.35 0.05
v 0.95 -0.35 -0.05
v 0.95 -0.05 0.05
v 0.95 -0.05 -0.05
v 0.95 0.05 0.05
v 0.95 0.05 -0.05
v 0.95 0.15 0.05
v 0.95 0.15 -0.05
v 0.95 0.45 0.15
v 0.95 0.45 0.05
v 0.95 0.55 0.15
v 0.95 0.55 0.05
v 0.95 0.65 0.15
v 0.95 0.65 0.05
v 1.05 0.15 0.05
v 1.05 0.15 -0.05
v 1.05 0.35 0.15
v 1.05 0.35 0.05
v 1.05 0.35 -0.05
v 1.05 0.45 0.15
v 1.05 0.45 0.05
v -1.05 -0.15 0.05
v -1.05 -0.15 -0.05
v -1.05 -0.05 0.05
v -1.05 -0.05 -0.05
v -1.05 0.05 0.15
v -1.05 0.05 0.05
v -1.05 0.15 0.15
v -1.05 0.15 0.05
v -1.05 0.15 -0.05
v -0.95 -0.55 0.05
v -0.95 -0.55 -0.05
v -0.95 -0.45 0.15
v -0.95 -0.45 0.05
v -0.95 -0.45 -0.05
v -0.95 -0.25 0.15
v -0.95 -0.25 0.05
v -0.95 -0.15 0.15
v -0.95 -0.15 0.05
v -0.95 -0.15 -0.05
v -0.95 0.15 0.05
v -0.95 0.15 -0.05
v -0.95 0.25 0.05
v -0.95 0.25 -0.05
v -0.95 0.35 0.05
v -0.95 0.35 -0.05
v -0.95 0.45 0.15
v -0.95 0.45 0.05
v -0.95 0.55 0.15
v -0.95 0.55 0.05
v -0.95 0.65 0.15
v -0.95 0.65 0.05
v -0.95 0.65 -0.05
v -0.95 0.65 -0.15
v -0.95 0.75 0.05
v -0.95 0.75 -0.05
v -0.95 0.75 -0.15
v -0.85 0.35 0.05
v -0.85 0.35 -0.05
v -0.85 0.55 0.05
v -0.85 0.55 -0.05
v -0.85 0.65 0.05
v -0.85 0.65 -0.05
v 0.65 -0.25 0.05
v 0.65 -0.25 -0.05
v 0.65 -0.05 0.05
v 0.65 -0.05 -0.05
v 0.75 -0.05 0.05
v 0.75 -0.05 -0.05
v 0.75 0.15 0.15
v 0.75 0.15 0.05
v 0.75 0.15 -0.05
v 0.75 0.25 0.15
v 0.75 0.25 0.05
v 0.75 0.55 0.15
v 0.75 0.55 0.05
v 0.75 0.65 0.15
v 0.75 0.65 0.05
v 0.85 -0.25 0.05
v 0.85 -0.25 -0.05
v 0.85 -0.15 0.05
v 0.85 -0.15 -0.05
v 0.85 0.25 0.05
v 0.85 0.25 -0.05
v 0.85 0.35 0.15
v 0.85 0.35 0.05
v 0.85 0.35 -0.05
v 0.85 0.45 0.05
v 0.85 0.55 0.15
v 0.85 0.55 0.05
v 0.85 0.65 0.15
v 0.85 0.65 0.05
v 0.85 0.75 0.15
v 0.85 0.75 0.05
v 0.95 -0.35 0.05
v 0.95 -0.35 -0.05
v 0.95 -0.25 0.05
v 0.95 -0.25 -0.05
v 0.95 -0.15 0.15
v 0.95 -0.15 0.05
v 0.95 -0.05 0.15
v 0.95 -0.05 0.05
v 0.95 0.15 0.05
v 0.95 0.15 -0.05
v 0.95 0.25 0.05
v 0.95 0.25 -0.05
v 0.95 0.65 -0.05
v 0.95 0.65 -0.15
v 0.95 0.75 -0.05
v 0.95 0.75 -0.15
v 1.05 -0.75 0.05
v 1.05 -0.75 -0.05
v 1.05 -0.45 0.05
v 1.05 -0.45 -0.05
v 1.05 -0.35 0.05
v 1.05 -0.35 -0.05
v 1.05 -0.15 0.05
v 1.05 -0.15 -0.05
v 1.05 -0.05 0.05
v 1.05 -0.05 -0.05
v 1.05 0.45 0.15
v 1.05 0.45 -0.05
v 1.05 0.55 0.15
v 1.05 0.55 0.05
v 1.05 0.55 -0.05
v 1.05 0.65 0.15
v 1.05 0.65 0.05
v 1.15 -0.05 0.05
v 1.15 -0.05 -0.05
v 1.15 0.35 0.15
v 1.15 0.35 0.05
v 1.15 0.35 -0.05
v 1.15 0.45 0.15
v 1.15 0.45 -0.05
v 1.15 0.55 0.05
v 1.15 0.55 -0.05
v 1.15 0.65 0.05
v 1.15 0.65 -0.05
v 1.15 0.75 0.05
v 1.15 0.75 -0.05
v -1.15 0.05 0.15
v -1.15 0.15 0.15
v -1.05 -0.45 0.15
v -1.05 -0.25 0.15
v -1.05 -0.15 0.15
v -1.05 0.05 0.15
v -1.05 0.15 0.15
v -1.05 0.45 0.15
v -1.05 0.55 0.15
v -1.05 0.65 0.15
v -0.95 -0.45 0.15
v -0.95 -0.25 0.15
v -0.95 -0.15 0.15
v -0.95 0.45 0.15
v -0.95 0.55 0.15
v -0.95 0.65 0.15
v 0.65 0.15 0.15
v 0.65 0.25 0.15
v 0.65 0.45 0.15
v 0.65 0.55 0.15
v 0.65 0.75 0.15
v 0.75 0.15 0.15
v 0.75 0.25 0.15
v 0.75 0.35 0.15
v 0.75 0.45 0.15
v 0.75 0.55 0.15
v 0.75 0.65 0.15
v 0.85 -0.15 0.15
v 0.85 -0.05 0.15
v 0.85 0.35 0.15
v 0.85 0.55 0.15
v 0.85 0.65 0.15
v 0.85 0.75 0.15
v 0.95 -0.15 0.15
v 0.95 -0.05 0.15
v 0.95 0.45 0.15
v 0.95 0.55 0.15
v 0.95 0.65 0.15
v 1.05 0.35 0.15
v 1.05 0.45 0.15
v 1.05 0.55 0.15
v 1.05 0.65 0.15
v 1.15 0.35 0.15
v 1.15 0.45 0.15
v -1.15 -0.25 0.05
v -1.15 -0.05 0.05
v -1.15 0.05 0.05
v -1.15 0.15 0.05
v -1.15 0.25 0.05
v -1.05 -0.55 0.05
v -1.05 -0.45 0.05
v -1.05 -0.25 0.05
v -1.05 -0.15 0.05
v -1.05 -0.05 0.05
v -1.05 0.05 0.05
v -1.05 0.15 0.05
v -1.05 0.25 0.05
v -1.05 0.35 0.05
v -1.05 0.45 0.05
v -1.05 0.65 0.05
v -1.05 0.75 0.05
v -0.95 -0.55 0.05
v -0.95 -0.45 0.05
v -0.95 0.15 0.05
v -0.95 0.25 0.05
v -0.95 0.35 0.05
v -0.95 0.45 0.05
v -0.95 0.55 0.05
v -0.95 0.65 0.05
v -0.95 0.75 0.05
v -0.85 0.35 0.05
v -0.85 0.55 0.05
v -0.85 0.65 0.05
v 0.55 -0.25 0.05
v 0.55 -0.05 0.05
v 0.55 0.05 0.05
v 0.55 0.45 0.05
v 0.55 0.65 0.05
v 0.55 0.75 0.05
v 0.65 -0.25 0.05
v 0.65 -0.05 0.05
v 0.65 0.05 0.05
v 0.65 0.15 0.05
v 0.65 0.25 0.05
v 0.65 0.35 0.05
v 0.65 0.45 0.05
v 0.65 0.55 0.05
v 0.65 0.65 0.05
v 0.65 0.75 0.05
v 0.75 -0.35 0.05
v 0.75 -0.15 0.05
v 0.75 -0.05 0.05
v 0.75 0.15 0.05
v 0.75 0.25 0.05
v 0.75 0.35 0.05
v 0.75 0.45 0.05
v 0.75 0.55 0.05
v 0.75 0.65 0.05
v 0.85 -0.35 0.05
v 0.85 -0.25 0.05
v 0.85 -0.15 0.05
v 0.85 -0.05 0.05
v 0.85 0.15 0.05
v 0.85 0.25 0.05
v 0.85 0.35 0.05
v 0.85 0.45 0.05
v 0.85 0.55 0.05
v 0.85 0.65 0.05
v 0.85 0.75 0.05
v 0.95 -0.75 0.05
v 0.95 -0.45 0.05
v 0.95 -0.35 0.05
v 0.95 -0.25 0.05
v 0.95 -0.15 0.05
v 0.95 -0.05 0.05
v 0.95 0.05 0.05
v 0.95 0.15 0.05
v 0.95 0.25 0.05
v 0.95 0.45 0.05
v 0.95 0.55 0.05
v 0.95 0.65 0.05
v 1.05 -0.75 0.05
v 1.05 -0.45 0.05
v 1.05 -0.35 0.05
v 1.05 -0.15 0.05
v 1.05 -0.05 0.05
v 1.05 0.05 0.05
v 1.05 0.15 0.05
v 1.05 0.35 0.05
v 1.05 0.45 0.05
v 1.05 0.55 0.05
v 1.05 0.65 0.05
v 1.15 -0.05 0.05
v 1.15 0.35 0.05
v 1.15 0.55 0.05
v 1.15 0.65 0.05
v 1.15 0.75 0.05
v -1.15 -0.25 -0.05
v -1.15 -0.05 -0.05
v -1.15 0.25 -0.05
v -1.05 -0.55 -0.05
v -1.05 -0.45 -0.05
v -1.05 -0.25 -0.05
v -1.05 -0.15 -0.05
v -1.05 -0.05 -0.05
v -1.05 0.15 -0.05
v -1.05 0.25 -0.05
v -1.05 0.35 -0.05
v -1.05 0.55 -0.05
v -1.05 0.65 -0.05
v -0.95 -0.55 -0.05
v -0.95 -0.45 -0.05
v -0.95 -0.15 -0.05
v -0.95 0.15 -0.05
v -0.95 0.25 -0.05
v -0.95 0.35 -0.05
v -0.95 0.65 -0.05
v -0.85 0.35 -0.05
v -0.85 0.55 -0.05
v -0.85 0.65 -0.05
v 0.55 -0.25 -0.05
v 0.55 -0.05 -0.05
v 0.55 0.05 -0.05
v 0.55 0.45 -0.05
v 0.55 0.65 -0.05
v 0.55 0.75 -0.05
v 0.65 -0.25 -0.05
v 0.65 -0.05 -0.05
v 0.65 0.05 -0.05
v 0.65 0.35 -0.05
v 0.65 0.45 -0.05
v 0.75 -0.35 -0.05
v 0.75 -0.15 -0.05
v 0.75 -0.05 -0.05
v 0.75 0.15 -0.05
v 0.75 0.25 -0.05
v 0.75 0.35 -0.05
v 0.75 0.45 -0.05
v 0.75 0.65 -0.05
v 0.85 -0.35 -0.05
v 0.85 -0.25 -0.05
v 0.85 -0.15 -0.05
v 0.85 0.15 -0.05
v 0.85 0.25 -0.05
v 0.85 0.35 -0.05
v 0.85 0.55 -0.05
v 0.85 0.65 -0.05
v 0.85 0.75 -0.05
v 0.95 -0.75 -0.05
v 0.95 -0.45 -0.05
v 0.95 -0.35 -0.05
v 0.95 -0.25 -0.05
v 0.95 -0.15 -0.05
v 0.95 -0.05 -0.05
v 0.95 0.05 -0.05
v 0.95 0.15 -0.05
v 0.95 0.25 -0.05
v 0.95 0.65 -0.05
v 0.95 0.75 -0.05
v 1.05 -0.75 -0.05
v 1.05 -0.45 -0.05
v 1.05 -0.35 -0.05
v 1.05 -0.15 -0.05
v 1.05 -0.05 -0.05
v 1.05 0.05 -0.05
v 1.05 0.15 -0.05
v 1.05 0.35 -0.05
v 1.05 0.45 -0.05
v 1.05 0.55 -0.05
v 1.15 -0.05 -0.05
v 1.15 0.35 -0.05
v 1.15 0.45 -0.05
v 1.15 0.55 -0.05
v 1.15 0.65 -0.05
v 1.15 0.75 -0.05
v -1.05 0.65 -0.15
v -1.05 0.75 -0.15
v -0.95 0.65 -0.15
v -0.95 0.75 -0.15
v 0.85 0.65 -0.15
v 0.85 0.75 -0.15
v 0.95 0.65 -0.15
v 0.95 0.75 -0.15
v 0.95 -0.75 0.05
v 1.05 -0.75 0.05
v 0.95 -0.75 -0.05
v 1.05 -0.75 -0.05
v -1.05 -0.55 0.05
v -0.95 -0.55 0.05
v -1.05 -0.55 -0.05
v -0.95 -0.55 -0.05
v -1.05 -0.45 0.15
v -0.95 -0.45 0.15
v -1.05 -0.45 0.05
v -0.95 -0.45 0.05
v 0.75 -0.35 0.05
v 0.85 -0.35 0.05
v 0.95 -0.35 0.05
v 0.75 -0.35 -0.05
v 0.85 -0.35 -0.05
v 0.95 -0.35 -0.05
v -1.15 -0.25 0.05
v -1.05 -0.25 0.05
v 0.55 -0.25 0.05
v 0.65 -0.25 0.05
v -1.15 -0.25 -0.05
v -1.05 -0.25 -0.05
v 0.55 -0.25 -0.05
v 0.65 -0.25 -0.05
v 0.85 -0.15 0.15
v 0.95 -0.15 0.15
v 0.85 -0.15 0.05
v 0.95 -0.15 0.05
v 1.05 -0.15 0.05
v 0.85 -0.15 -0.05
v 0.95 -0.15 -0.05
v 1.05 -0.15 -0.05
v 0.65 -0.05 0.05
v 0.75 -0.05 0.05
v 1.05 -0.05 0.05
v 1.15 -0.05 0.05
v 0.65 -0.05 -0.05
v 0.75 -0.05 -0.05
v 1.05 -0.05 -0.05
v 1.15 -0.05 -0.05
v -1.15 0.05 0.15
v -1.05 0.05 0.15
v -1.15 0.05 0.05
v -1.05 0.05 0.05
v 0.65 0.15 0.15
v 0.75 0.15 0.15
v -1.05 0.15 0.05
v -0.95 0.15 0.05
v 0.65 0.15 0.05
v 0.75 0.15 0.05
v 0.85 0.15 0.05
v 0.95 0.15 0.05
v -1.05 0.15 -0.05
v -0.95 0.15 -0.05
v 0.75 0.15 -0.05
v 0.85 0.15 -0.05
v 0.95 0.15 -0.05
v 0.75 0.35 0.15
v 0.85 0.35 0.15
v 1.05 0.35 0.15
v 1.15 0.35 0.15
v -0.95 0.35 0.05
v -0.85 0.35 0.05
v 0.75 0.35 0.05
v 0.85 0.35 0.05
v 1.05 0.35 0.05
v 1.15 0.35 0.05
v -0.95 0.35 -0.05
v -0.85 0.35 -0.05
v 0.85 0.35 -0.05
v 1.05 0.35 -0.05
v -1.05 0.45 0.15
v -0.95 0.45 0.15
v 0.65 0.45 0.15
v 0.75 0.45 0.15
v 0.95 0.45 0.15
v 1.05 0.45 0.15
v -1.05 0.45 0.05
v -0.95 0.45 0.05
v 0.55 0.45 0.05
v 0.65 0.45 0.05
v 0.75 0.45 0.05
v 0.95 0.45 0.05
v 1.05 0.45 0.05
v 0.55 0.45 -0.05
v 0.65 0.45 -0.05
v 1.05 0.55 0.05
v 1.15 0.55 0.05
v 1.05 0.55 -0.05
v 1.15 0.55 -0.05
v 0.75 0.65 0.15
v 0.85 0.65 0.15
v 0.75 0.65 0.05
v 0.85 0.65 0.05
v -1.05 0.65 -0.05
v -0.95 0.65 -0.05
v 0.85 0.65 -0.05
v 0.95 0.65 -0.05
v -1.05 0.65 -0.15
v -0.95 0.65 -0.15
v 0.85 0.65 -0.15
v 0.95 0.65 -0.15
v 0.95 -0.35 0.05
v 1.05 -0.35 0.05
v 0.95 -0.35 -0.05
v 1.05 -0.35 -0.05
v 0.85 -0.25 0.05
v 0.95 -0.25 0.05
v 0.85 -0.25 -0.05
v 0.95 -0.25 -0.05
v -1.05 -0.15 0.15
v -0.95 -0.15 0.15
v -1.05 -0.15 0.05
v -0.95 -0.15 0.05
v -1.05 -0.15 -0.05
v -0.95 -0.15 -0.05
v 0.85 -0.05 0.15
v 0.95 -0.05 0.15
v 0.75 -0.05 0.05
v 0.85 -0.05 0.05
v 0.95 -0.05 0.05
v 0.75 -0.05 -0.05
v 0.95 -0.05 -0.05
v 0.55 0.05 0.05
v 0.65 0.05 0.05
v 0.55 0.05 -0.05
v 0.65 0.05 -0.05
v -1.15 0.15 0.15
v -1.05 0.15 0.15
v -1.15 0.15 0.05
v -1.05 0.15 0.05
v 0.95 0.15 0.05
v 1.05 0.15 0.05
v 0.95 0.15 -0.05
v 1.05 0.15 -0.05
v 0.65 0.25 0.15
v 0.75 0.25 0.15
v -1.15 0.25 0.05
v -1.05 0.25 0.05
v 0.65 0.25 0.05
v 0.75 0.25 0.05
v 0.85 0.25 0.05
v 0.95 0.25 0.05
v -1.15 0.25 -0.05
v -1.05 0.25 -0.05
v 0.85 0.25 -0.05
v 0.95 0.25 -0.05
v 1.05 0.45 0.15
v 1.15 0.45 0.15
v 1.05 0.45 -0.05
v 1.15 0.45 -0.05
v 0.75 0.55 0.15
v 0.85 0.55 0.15
v 0.75 0.55 0.05
v 0.85 0.55 0.05
v -1.05 0.65 0.15
v -0.95 0.65 0.15
v 0.95 0.65 0.15
v 1.05 0.65 0.15
v -1.05 0.65 0.05
v -0.95 0.65 0.05
v -0.85 0.65 0.05
v 0.95 0.65 0.05
v 1.05 0.65 0.05
v -0.95 0.65 -0.05
v -0.85 0.65 -0.05
v 0.65 0.75 0.15
v 0.85 0.75 0.15
v -1.05 0.75 0.05
v -0.95 0.75 0.05
v 0.55 0.75 0.05
v 0.65 0.75 0.05
v 0.85 0.75 0.05
v 1.15 0.75 0.05
v -1.05 0.75 -0.05
v -0.95 0.75 -0.05
v 0.55 0.75 -0.05
v 0.85 0.75 -0.05
v 0.95 0.75 -0.05
v 1.15 0.75 -0.05
v -1.05 0.75 -0.15
v -0.95 0.75 -0.15
v 0.85 0.75 -0.15
v 0.95 0.75 -0.15

# faces
f 3/1/1 2/1/1 1/1/1
f 4/1/1 2/1/1 3/1/1
f 6/2/1 4/2/1 3/2/1
f 7/2/1 6/2/1 5/2/1
f 8/2/1 4/2/1 6/2/1
f 8/2/1 6/2/1 7/2/1
f 9/2/1 4/2/1 8/2/1
f 10/2/1 4/2/1 9/2/1
f 14/1/1 12/1/1 11/1/1
f 15/1/1 12/1/1 14/1/1
f 16/2/1 14/2/1 13/2/1
f 16/2/1 15/2/1 14/2/1
f 17/2/1 15/2/1 16/2/1
f 18/2/1 15/2/1 17/2/1
f 19/3/1 17/3/1 16/3/1
f 20/3/1 17/3/1 19/3/1
f 23/1/1 22/1/1 21/1/1
f 24/1/1 22/1/1 23/1/1
f 26/2/1 24/2/1 23/2/1
f 27/1/1 26/1/1 25/1/1
f 28/2/1 24/2/1 26/2/1
f 28/1/1 26/1/1 27/1/1
f 29/2/1 24/2/1 28/2/1
f 30/3/1 28/3/1 27/3/1
f 30/3/1 29/3/1 28/3/1
f 31/3/1 29/3/1 30/3/1
f 32/3/1 29/3/1 31/3/1
f 34/3/1 32/3/1 31/3/1
f 35/2/1 33/2/1 32/2/1
f 35/3/1 32/3/1 34/3/1
f 36/2/1 33/2/1 35/2/1
f 39/1/1 38/1/1 37/1/1
f 40/1/1 38/1/1 39/1/1
f 41/2/1 40/2/1 39/2/1
f 42/2/1 40/2/1 41/2/1
f 45/2/1 44/2/1 43/2/1
f 46/2/1 44/2/1 45/2/1
f 47/3/1 46/3/1 45/3/1
f 48/3/1 46/3/1 47/3/1
f 52/2/1 50/2/1 49/2/1
f 53/3/1 52/3/1 51/3/1
f 54/2/1 50/2/1 52/2/1
f 54/3/1 52/3/1 53/3/1
f 55/2/1 50/2/1 54/2/1
f 56/2/1 50/2/1 55/2/1
f 58/1/1 56/1/1 55/1/1
f 59/1/1 56/1/1 58/1/1
f 60/2/1 58/2/1 57/2/1
f 61/2/1 58/2/1 60/2/1
f 62/3/1 61/3/1 60/3/1
f 63/3/1 62/3/1 60/3/1
f 64/3/1 62/3/1 63/3/1
f 67/1/1 66/1/1 65/1/1
f 68/1/1 66/1/1 67/1/1
f 69/2/1 68/2/1 67/2/1
f 70/2/1 68/2/1 69/2/1
f 73/2/1 72/2/1 71/2/1
f 74/2/1 72/2/1 73/2/1
f 77/2/1 76/2/1 75/2/1
f 78/2/1 76/2/1 77/2/1
f 81/3/1 80/3/1 79/3/1
f 82/3/1 80/3/1 81/3/1
f 85/1/1 84/1/1 83/1/1
f 86/1/1 84/1/1 85/1/1
f 87/2/1 86/2/1 85/2/1
f 88/2/1 86/2/1 87/2/1
f 91/1/1 90/1/1 89/1/1
f 92/1/1 90/1/1 91/1/1
f 93/2/1 92/2/1 91/2/1
f 94/2/1 92/2/1 93/2/1
f 97/1/1 96/1/1 95/1/1
f 98/1/1 96/1/1 97/1/1
f 99/2/1 98/2/1 97/2/1
f 100/2/1 98/2/1 99/2/1
f 104/1/1 102/1/1 101/1/1
f 105/1/1 102/1/1 104/1/1
f 106/2/1 104/2/1 103/2/1
f 107/2/1 104/2/1 106/2/1
f 108/1/2 109/1/2 110/1/2
f 110/1/2 109/1/2 111/1/2
f 110/2/2 111/2/2 113/2/2
f 112/2/2 113/2/2 114/2/2
f 113/2/2 111/2/2 115/2/2
f 114/2/2 113/2/2 115/2/2
f 115/2/2 111/2/2 116/2/2
f 117/1/2 118/1/2 120/1/2
f 120/1/2 118/1/2 121/1/2
f 119/2/2 120/2/2 122/2/2
f 120/2/2 121/2/2 122/2/2
f 122/2/2 121/2/2 123/2/2
f 122/3/2 123/3/2 124/3/2
f 123/2/2 121/2/2 125/2/2
f 124/3/2 123/3/2 125/3/2
f 125/2/2 121/2/2 126/2/2
f 127/2/2 128/2/2 129/2/2
f 129/2/2 128/2/2 130/2/2
f 129/1/2 130/1/2 131/1/2
f 131/1/2 130/1/2 132/1/2
f 133/1/2 134/1/2 135/1/2
f 135/1/2 134/1/2 136/1/2
f 135/3/2 136/3/2 137/3/2
f 137/3/2 136/3/2 138/3/2
f 138/3/2 139/3/2 141/3/2
f 139/2/2 140/2/2 142/2/2
f 141/3/2 139/3/2 142/3/2
f 142/2/2 140/2/2 143/2/2
f 144/2/2 145/2/2 146/2/2
f 146/2/2 145/2/2 147/2/2
f 146/3/2 147/3/2 148/3/2
f 148/3/2 147/3/2 149/3/2
f 150/1/2 151/1/2 152/1/2
f 152/1/2 151/1/2 153/1/2
f 154/2/2 155/2/2 157/2/2
f 157/2/2 155/2/2 158/2/2
f 156/3/2 157/3/2 159/3/2
f 159/3/2 157/3/2 160/3/2
f 161/3/2 162/3/2 163/3/2
f 163/3/2 162/3/2 164/3/2
f 165/1/2 166/1/2 167/1/2
f 167/1/2 166/1/2 168/1/2
f 169/2/2 170/2/2 172/2/2
f 172/2/2 170/2/2 173/2/2
f 171/2/2 172/2/2 174/2/2
f 171/2/2 174/2/2 175/2/2
f 175/2/2 174/2/2 176/2/2
f 177/3/2 178/3/2 179/3/2
f 179/3/2 178/3/2 180/3/2
f 181/2/2 182/2/2 183/2/2
f 183/2/2 182/2/2 184/2/2
f 185/2/2 186/2/2 187/2/2
f 187/2/2 186/2/2 188/2/2
f 189/3/2 190/3/2 191/3/2
f 191/3/2 190/3/2 192/3/2
f 193/3/2 194/3/2 195/3/2
f 195/3/2 194/3/2 196/3/2
f 197/1/2 198/1/2 199/1/2
f 199/1/2 198/1/2 200/1/2
f 199/2/2 200/2/2 201/2/2
f 201/2/2 200/2/2 202/2/2
f 203/1/2 204/1/2 205/1/2
f 205/1/2 204/1/2 206/1/2
f 207/1/2 208/1/2 209/1/2
f 209/1/2 208/1/2 210/1/2
f 210/1/2 208/1/2 211/1/2
f 209/2/2 210/2/2 212/2/2
f 212/2/2 210/2/2 213/2/2
f 214/1/2 215/1/2 217/1/2
f 217/1/2 215/1/2 218/1/2
f 216/2/2 217/2/2 219/2/2
f 217/2/2 218/2/2 219/2/2
f 219/2/2 218/2/2 220/2/2
f 221/2/2 222/2/2 223/2/2
f 223/2/2 222/2/2 224/2/2
f 223/3/2 224/3/2 225/3/2
f 225/3/2 224/3/2 226/3/2
f 232/2/3 228/2/3 227/2/3
f 233/2/3 228/2/3 232/2/3
f 237/2/3 230/2/3 229/2/3
f 238/3/3 231/3/3 230/3/3
f 238/2/3 230/2/3 237/2/3
f 239/3/3 231/3/3 238/3/3
f 240/1/3 235/1/3 234/1/3
f 241/3/3 236/3/3 235/3/3
f 241/1/3 235/1/3 240/1/3
f 242/3/3 236/3/3 241/3/3
f 248/3/3 244/3/3 243/3/3
f 249/3/3 244/3/3 248/3/3
f 251/2/3 246/2/3 245/2/3
f 252/3/3 247/3/3 246/3/3
f 252/2/3 246/2/3 251/2/3
f 253/3/3 247/3/3 252/3/3
f 256/2/3 251/2/3 250/2/3
f 256/2/3 252/2/3 251/2/3
f 257/2/3 252/2/3 256/2/3
f 258/3/3 247/3/3 253/3/3
f 259/3/3 247/3/3 258/3/3
f 260/2/3 255/2/3 254/2/3
f 261/2/3 255/2/3 260/2/3
f 266/1/3 263/1/3 262/1/3
f 267/2/3 264/2/3 263/2/3
f 267/1/3 263/1/3 266/1/3
f 268/2/3 264/2/3 267/2/3
f 269/2/3 266/2/3 265/2/3
f 270/2/3 266/2/3 269/2/3
f 278/1/3 272/1/3 271/1/3
f 279/1/3 272/1/3 278/1/3
f 280/2/3 273/2/3 272/2/3
f 280/1/3 272/1/3 279/1/3
f 281/2/3 273/2/3 280/2/3
f 282/2/3 275/2/3 274/2/3
f 283/2/3 275/2/3 282/2/3
f 288/1/3 277/1/3 276/1/3
f 289/1/3 277/1/3 288/1/3
f 290/2/3 283/2/3 282/2/3
f 291/1/3 284/1/3 283/1/3
f 291/2/3 283/2/3 290/2/3
f 292/2/3 285/2/3 284/2/3
f 292/1/3 284/1/3 291/1/3
f 293/2/3 285/2/3 292/2/3
f 295/3/3 287/3/3 286/3/3
f 296/3/3 287/3/3 295/3/3
f 297/2/3 294/2/3 293/2/3
f 297/2/3 293/2/3 292/2/3
f 298/3/3 295/3/3 294/3/3
f 298/2/3 294/2/3 297/2/3
f 299/3/3 295/3/3 298/3/3
f 306/1/3 301/1/3 300/1/3
f 307/2/3 302/2/3 301/2/3
f 307/1/3 301/1/3 306/1/3
f 308/2/3 302/2/3 307/2/3
f 312/2/3 304/2/3 303/2/3
f 313/2/3 304/2/3 312/2/3
f 314/3/3 305/3/3 304/3/3
f 314/2/3 304/2/3 313/2/3
f 315/3/3 305/3/3 314/3/3
f 318/2/3 308/2/3 307/2/3
f 318/2/3 309/2/3 308/2/3
f 319/2/3 309/2/3 318/2/3
f 320/2/3 311/2/3 310/2/3
f 321/1/3 312/1/3 311/1/3
f 321/2/3 311/2/3 320/2/3
f 322/1/3 312/1/3 321/1/3
f 325/1/3 317/1/3 316/1/3
f 326/1/3 317/1/3 325/1/3
f 327/2/3 318/2/3 317/2/3
f 327/1/3 317/1/3 326/1/3
f 328/2/3 318/2/3 327/2/3
f 329/1/3 320/1/3 319/1/3
f 330/2/3 321/2/3 320/2/3
f 330/1/3 320/1/3 329/1/3
f 331/2/3 321/2/3 330/2/3
f 333/1/3 324/1/3 323/1/3
f 334/1/3 324/1/3 333/1/3
f 338/2/3 326/2/3 325/2/3
f 339/2/3 326/2/3 338/2/3
f 343/3/3 330/3/3 329/3/3
f 344/3/3 330/3/3 343/3/3
f 345/2/3 332/2/3 331/2/3
f 345/1/3 333/1/3 332/1/3
f 346/2/3 334/2/3 333/2/3
f 346/1/3 333/1/3 345/1/3
f 347/3/3 335/3/3 334/3/3
f 347/2/3 334/2/3 346/2/3
f 348/1/3 337/1/3 336/1/3
f 349/2/3 338/2/3 337/2/3
f 349/1/3 337/1/3 348/1/3
f 350/2/3 338/2/3 349/2/3
f 351/1/3 341/1/3 340/1/3
f 351/1/3 342/1/3 341/1/3
f 352/1/3 342/1/3 351/1/3
f 353/2/3 343/2/3 342/2/3
f 353/1/3 342/1/3 352/1/3
f 354/2/3 343/2/3 353/2/3
f 355/2/3 345/2/3 331/2/3
f 356/2/3 345/2/3 355/2/3
f 358/3/3 335/3/3 347/3/3
f 359/1/3 354/1/3 353/1/3
f 359/1/3 355/1/3 354/1/3
f 359/1/3 353/1/3 352/1/3
f 360/1/3 355/1/3 359/1/3
f 361/2/3 358/2/3 357/2/3
f 362/3/3 335/3/3 358/3/3
f 362/2/3 358/2/3 361/2/3
f 363/3/3 335/3/3 362/3/3
f 364/1/4 365/1/4 369/1/4
f 369/1/4 365/1/4 370/1/4
f 365/2/4 366/2/4 371/2/4
f 370/1/4 365/1/4 371/1/4
f 371/2/4 366/2/4 372/2/4
f 372/2/4 366/2/4 373/2/4
f 367/1/4 368/1/4 377/1/4
f 369/2/4 370/2/4 378/2/4
f 377/1/4 368/1/4 378/1/4
f 368/2/4 369/2/4 378/2/4
f 378/2/4 370/2/4 379/2/4
f 372/2/4 373/2/4 380/2/4
f 373/1/4 374/1/4 381/1/4
f 380/2/4 373/2/4 381/2/4
f 374/2/4 375/2/4 382/2/4
f 381/1/4 374/1/4 382/1/4
f 375/3/4 376/3/4 383/3/4
f 382/2/4 375/2/4 384/2/4
f 375/3/4 383/3/4 385/3/4
f 384/2/4 375/2/4 385/2/4
f 385/3/4 383/3/4 386/3/4
f 387/1/4 388/1/4 393/1/4
f 388/2/4 389/2/4 394/2/4
f 393/1/4 388/1/4 394/1/4
f 394/2/4 389/2/4 395/2/4
f 390/2/4 391/2/4 397/2/4
f 395/2/4 396/2/4 400/2/4
f 394/2/4 395/2/4 400/2/4
f 400/2/4 396/2/4 401/2/4
f 401/2/4 396/2/4 402/2/4
f 396/1/4 397/1/4 403/1/4
f 402/2/4 396/2/4 403/2/4
f 397/2/4 391/2/4 404/2/4
f 403/1/4 397/1/4 404/1/4
f 391/3/4 392/3/4 405/3/4
f 404/2/4 391/2/4 405/2/4
f 398/1/4 399/1/4 406/1/4
f 406/1/4 399/1/4 407/1/4
f 399/2/4 400/2/4 408/2/4
f 407/1/4 399/1/4 408/1/4
f 401/1/4 402/1/4 409/1/4
f 403/2/4 404/2/4 410/2/4
f 409/1/4 402/1/4 410/1/4
f 402/2/4 403/2/4 410/2/4
f 410/2/4 404/2/4 411/2/4
f 404/1/4 405/1/4 412/1/4
f 405/3/4 392/3/4 413/3/4
f 412/1/4 405/1/4 413/1/4
f 413/3/4 392/3/4 414/3/4
f 406/2/4 407/2/4 417/2/4
f 417/2/4 407/2/4 418/2/4
f 408/2/4 400/2/4 419/2/4
f 419/2/4 400/2/4 420/2/4
f 409/3/4 410/3/4 422/3/4
f 422/3/4 410/3/4 423/3/4
f 412/2/4 413/2/4 424/2/4
f 415/1/4 416/1/4 426/1/4
f 416/2/4 417/2/4 427/2/4
f 426/1/4 416/1/4 427/1/4
f 427/2/4 417/2/4 428/2/4
f 420/1/4 421/1/4 429/1/4
f 419/1/4 420/1/4 429/1/4
f 429/1/4 421/1/4 430/1/4
f 421/2/4 422/2/4 431/2/4
f 430/1/4 421/1/4 431/1/4
f 431/2/4 422/2/4 432/2/4
f 411/2/4 404/2/4 433/2/4
f 404/1/4 412/1/4 434/1/4
f 433/2/4 404/2/4 434/2/4
f 412/2/4 424/2/4 435/2/4
f 434/1/4 412/1/4 435/1/4
f 432/1/4 433/1/4 436/1/4
f 431/1/4 432/1/4 436/1/4
f 430/1/4 431/1/4 436/1/4
f 433/2/4 434/2/4 437/2/4
f 436/1/4 433/1/4 437/1/4
f 437/2/4 434/2/4 438/2/4
f 435/2/4 424/2/4 439/2/4
f 424/3/4 425/3/4 440/3/4
f 439/2/4 424/2/4 440/2/4
f 440/3/4 425/3/4 441/3/4
f 442/2/4 443/2/4 444/2/4
f 444/2/4 443/2/4 445/2/4
f 446/3/4 447/3/4 448/3/4
f 448/3/4 447/3/4 449/3/4
f 452/1/5 451/1/5 450/1/5
f 453/1/5 451/1/5 452/1/5
f 456/1/5 455/1/5 454/1/5
f 457/1/5 455/1/5 456/1/5
f 460/2/5 459/2/5 458/2/5
f 461/2/5 459/2/5 460/2/5
f 465/1/5 463/1/5 462/1/5
f 466/2/5 464/2/5 463/2/5
f 466/1/5 463/1/5 465/1/5
f 467/2/5 464/2/5 466/2/5
f 472/1/5 469/1/5 468/1/5
f 473/1/5 469/1/5 472/1/5
f 474/1/5 471/1/5 470/1/5
f 475/1/5 471/1/5 474/1/5
f 478/2/5 477/2/5 476/2/5
f 479/2/5 477/2/5 478/2/5
f 481/2/5 479/2/5 478/2/5
f 482/1/5 480/1/5 479/1/5
f 482/2/5 479/2/5 481/2/5
f 483/1/5 480/1/5 482/1/5
f 488/2/5 485/2/5 484/2/5
f 489/2/5 485/2/5 488/2/5
f 490/1/5 487/1/5 486/1/5
f 491/1/5 487/1/5 490/1/5
f 494/2/5 493/2/5 492/2/5
f 495/2/5 493/2/5 494/2/5
f 500/3/5 497/3/5 496/3/5
f 501/3/5 497/3/5 500/3/5
f 504/2/5 499/2/5 498/2/5
f 505/2/5 499/2/5 504/2/5
f 506/1/5 502/1/5 501/1/5
f 507/3/5 503/3/5 502/3/5
f 507/1/5 502/1/5 506/1/5
f 508/3/5 503/3/5 507/3/5
f 515/2/5 510/2/5 509/2/5
f 516/2/5 510/2/5 515/2/5
f 517/2/5 512/2/5 511/2/5
f 518/2/5 512/2/5 517/2/5
f 519/2/5 514/2/5 513/2/5
f 520/2/5 514/2/5 519/2/5
f 521/2/5 517/2/5 516/2/5
f 522/2/5 517/2/5 521/2/5
f 529/1/5 524/1/5 523/1/5
f 530/1/5 524/1/5 529/1/5
f 532/2/5 526/2/5 525/2/5
f 533/2/5 526/2/5 532/2/5
f 534/1/5 528/1/5 527/1/5
f 535/1/5 528/1/5 534/1/5
f 536/2/5 532/2/5 531/2/5
f 537/2/5 532/2/5 536/2/5
f 540/2/5 539/2/5 538/2/5
f 541/2/5 539/2/5 540/2/5
f 544/3/5 543/3/5 542/3/5
f 545/3/5 543/3/5 544/3/5
f 550/2/5 547/2/5 546/2/5
f 551/2/5 547/2/5 550/2/5
f 552/3/5 549/3/5 548/3/5
f 553/3/5 549/3/5 552/3/5
f 554/2/6 555/2/6 556/2/6
f 556/2/6 555/2/6 557/2/6
f 558/2/6 559/2/6 560/2/6
f 560/2/6 559/2/6 561/2/6
f 562/3/6 563/3/6 564/3/6
f 564/3/6 563/3/6 565/3/6
f 564/2/6 565/2/6 566/2/6
f 566/2/6 565/2/6 567/2/6
f 568/2/6 569/2/6 571/2/6
f 571/2/6 569/2/6 572/2/6
f 570/2/6 571/2/6 573/2/6
f 571/2/6 572/2/6 573/2/6
f 573/2/6 572/2/6 574/2/6
f 575/2/6 576/2/6 577/2/6
f 577/2/6 576/2/6 578/2/6
f 579/2/6 580/2/6 581/2/6
f 581/2/6 580/2/6 582/2/6
f 583/2/6 584/2/6 585/2/6
f 585/2/6 584/2/6 586/2/6
f 587/3/6 588/3/6 591/3/6
f 591/3/6 588/3/6 592/3/6
f 589/2/6 590/2/6 595/2/6
f 595/2/6 590/2/6 596/2/6
f 593/3/6 594/3/6 597/3/6
f 597/3/6 594/3/6 598/3/6
f 599/2/6 600/2/6 601/2/6
f 601/2/6 600/2/6 602/2/6
f 603/2/6 604/2/6 605/2/6
f 605/2/6 604/2/6 606/2/6
f 607/3/6 608/3/6 611/3/6
f 611/3/6 608/3/6 612/3/6
f 609/2/6 610/2/6 614/2/6
f 614/2/6 610/2/6 615/2/6
f 612/3/6 613/3/6 616/3/6
f 616/3/6 613/3/6 617/3/6
f 618/3/6 619/3/6 623/3/6
f 623/3/6 619/3/6 624/3/6
f 620/3/6 621/3/6 626/3/6
f 626/3/6 621/3/6 627/3/6
f 624/3/6 625/3/6 628/3/6
f 622/3/6 623/3/6 628/3/6
f 623/3/6 624/3/6 628/3/6
f 628/3/6 625/3/6 629/3/6
f 629/3/6 625/3/6 630/3/6
f 630/3/6 625/3/6 631/3/6
f 626/2/6 627/2/6 632/2/6
f 632/2/6 627/2/6 633/2/6
f 629/3/6 630/3/6 634/3/6
f 634/3/6 630/3/6 635/3/6
