# MagicaVoxel @ Ephtracy

# group
o 

# material
mtllib Zed_4-4.mtl
usemtl palette

# normals
vn 0 -1 0
vn 0 1 0
vn 0 0 1
vn 0 0 -1
vn 1 0 0
vn -1 0 0

# texcoords
vt 0.310547 0.5
vt 0.341797 0.5
vt 0.357422 0.5
vt 0.361328 0.5
vt 0.365234 0.5
vt 0.373047 0.5
vt 0.955078 0.5
vt 0.958984 0.5

# verts
v -0.6 2.2 -0.1
v -0.6 2.2 -0.2
v -0.6 2.2 -0.3
v -0.7 2.2 -0.1
v -0.7 2.2 -0.2
v -0.7 2.2 -0.3
v -0.5 2.4 -0.1
v -0.5 2.4 -0.3
v -0.6 2.4 0
v -0.6 2.4 -0.1
v -0.6 2.4 -0.3
v -0.7 2.4 0
v -0.7 2.4 -0.1
v -0.5 2.6 0
v -0.5 2.6 -0.1
v -0.6 2.6 0
v -0.6 2.6 -0.1
v -0.5 2.9 -0.1
v -0.5 2.9 -0.2
v -0.6 2.9 -0.1
v -0.6 2.9 -0.2
v -0.5 3 -0.2
v -0.5 3 -0.3
v -0.6 3 -0.1
v -0.6 3 -0.2
v -0.6 3 -0.3
v -0.7 3 -0.1
v -0.7 3 -0.2
v -0.6 3.3 -0.2
v -0.6 3.3 -0.3
v -0.7 3.3 -0.2
v -0.7 3.3 -0.3
v -0.5 3.5 -0.1
v -0.5 3.5 -0.2
v -0.6 3.5 -0.1
v -0.6 3.5 -0.2
v -0.5 3.7 -0.2
v -0.5 3.7 -0.3
v -0.6 3.7 -0.2
v -0.6 3.7 -0.3
v -0.6 3.9 -0.1
v -0.6 3.9 -0.2
v -0.7 3.9 -0.1
v -0.7 3.9 -0.2
v -0.5 2.7 0
v -0.5 2.7 -0.1
v -0.6 2.7 0
v -0.6 2.7 -0.1
v -0.7 2.7 0
v -0.7 2.7 -0.1
v -0.5 2.8 -0.1
v -0.5 2.8 -0.2
v -0.6 2.8 -0.1
v -0.6 2.8 -0.2
v -0.5 2.9 -0.2
v -0.5 2.9 -0.3
v -0.6 2.9 -0.1
v -0.6 2.9 -0.2
v -0.6 2.9 -0.3
v -0.7 2.9 -0.1
v -0.7 2.9 -0.2
v -0.6 3.2 -0.2
v -0.6 3.2 -0.3
v -0.7 3.2 -0.2
v -0.7 3.2 -0.3
v -0.5 3.4 -0.1
v -0.5 3.4 -0.2
v -0.6 3.4 -0.1
v -0.6 3.4 -0.2
v -0.5 3.6 -0.2
v -0.5 3.6 -0.3
v -0.6 3.6 -0.2
v -0.6 3.6 -0.3
v -0.6 3.8 -0.1
v -0.6 3.8 -0.2
v -0.7 3.8 -0.1
v -0.7 3.8 -0.2
v -0.5 4.9 -0.1
v -0.5 4.9 -0.3
v -0.6 4.9 -0.1
v -0.6 4.9 -0.3
v -0.7 4.9 -0.1
v -0.7 4.9 -0.3
v -0.6 2.4 0
v -0.7 2.4 0
v -0.5 2.6 0
v -0.6 2.6 0
v -0.7 2.6 0
v -0.5 2.7 0
v -0.6 2.7 0
v -0.7 2.7 0
v -0.6 2.2 -0.1
v -0.7 2.2 -0.1
v -0.5 2.4 -0.1
v -0.6 2.4 -0.1
v -0.7 2.4 -0.1
v -0.5 2.5 -0.1
v -0.6 2.5 -0.1
v -0.5 2.6 -0.1
v -0.6 2.6 -0.1
v -0.5 2.7 -0.1
v -0.6 2.7 -0.1
v -0.7 2.7 -0.1
v -0.5 2.8 -0.1
v -0.6 2.8 -0.1
v -0.7 2.8 -0.1
v -0.5 2.9 -0.1
v -0.6 2.9 -0.1
v -0.7 2.9 -0.1
v -0.6 3 -0.1
v -0.7 3 -0.1
v -0.5 3.1 -0.1
v -0.7 3.1 -0.1
v -0.6 3.2 -0.1
v -0.7 3.2 -0.1
v -0.5 3.3 -0.1
v -0.6 3.3 -0.1
v -0.7 3.3 -0.1
v -0.5 3.4 -0.1
v -0.6 3.4 -0.1
v -0.7 3.4 -0.1
v -0.5 3.5 -0.1
v -0.6 3.5 -0.1
v -0.5 3.6 -0.1
v -0.6 3.6 -0.1
v -0.7 3.6 -0.1
v -0.5 3.7 -0.1
v -0.6 3.7 -0.1
v -0.7 3.7 -0.1
v -0.5 3.8 -0.1
v -0.6 3.8 -0.1
v -0.7 3.8 -0.1
v -0.5 3.9 -0.1
v -0.6 3.9 -0.1
v -0.7 3.9 -0.1
v -0.5 4 -0.1
v -0.6 4 -0.1
v -0.7 4 -0.1
v -0.5 4.2 -0.1
v -0.6 4.2 -0.1
v -0.7 4.2 -0.1
v -0.5 4.3 -0.1
v -0.6 4.3 -0.1
v -0.7 4.3 -0.1
v -0.5 4.4 -0.1
v -0.6 4.4 -0.1
v -0.7 4.4 -0.1
v -0.5 4.6 -0.1
v -0.6 4.6 -0.1
v -0.7 4.6 -0.1
v -0.6 4.8 -0.1
v -0.7 4.8 -0.1
v -0.5 4.9 -0.1
v -0.6 4.9 -0.1
v -0.7 4.9 -0.1
v -0.5 2.8 -0.2
v -0.6 2.8 -0.2
v -0.5 2.9 -0.2
v -0.6 2.9 -0.2
v -0.7 2.9 -0.2
v -0.6 3 -0.2
v -0.7 3 -0.2
v -0.5 3.4 -0.2
v -0.6 3.4 -0.2
v -0.5 3.5 -0.2
v -0.6 3.5 -0.2
v -0.6 3.8 -0.2
v -0.7 3.8 -0.2
v -0.6 3.9 -0.2
v -0.7 3.9 -0.2
v -0.5 2.9 -0.2
v -0.6 2.9 -0.2
v -0.5 3 -0.2
v -0.6 3 -0.2
v -0.6 3.2 -0.2
v -0.7 3.2 -0.2
v -0.6 3.3 -0.2
v -0.7 3.3 -0.2
v -0.5 3.6 -0.2
v -0.6 3.6 -0.2
v -0.5 3.7 -0.2
v -0.6 3.7 -0.2
v -0.6 2.2 -0.3
v -0.7 2.2 -0.3
v -0.6 2.3 -0.3
v -0.7 2.3 -0.3
v -0.5 2.4 -0.3
v -0.6 2.4 -0.3
v -0.7 2.4 -0.3
v -0.5 2.6 -0.3
v -0.6 2.6 -0.3
v -0.7 2.6 -0.3
v -0.5 2.7 -0.3
v -0.6 2.7 -0.3
v -0.7 2.7 -0.3
v -0.5 2.8 -0.3
v -0.6 2.8 -0.3
v -0.7 2.8 -0.3
v -0.5 2.9 -0.3
v -0.6 2.9 -0.3
v -0.7 2.9 -0.3
v -0.5 3 -0.3
v -0.6 3 -0.3
v -0.7 3 -0.3
v -0.6 3.1 -0.3
v -0.7 3.1 -0.3
v -0.5 3.2 -0.3
v -0.6 3.2 -0.3
v -0.7 3.2 -0.3
v -0.5 3.3 -0.3
v -0.6 3.3 -0.3
v -0.7 3.3 -0.3
v -0.5 3.4 -0.3
v -0.6 3.4 -0.3
v -0.5 3.5 -0.3
v -0.6 3.5 -0.3
v -0.7 3.5 -0.3
v -0.5 3.6 -0.3
v -0.6 3.6 -0.3
v -0.7 3.6 -0.3
v -0.5 3.7 -0.3
v -0.6 3.7 -0.3
v -0.7 3.7 -0.3
v -0.6 3.8 -0.3
v -0.7 3.8 -0.3
v -0.6 3.9 -0.3
v -0.7 3.9 -0.3
v -0.5 4.1 -0.3
v -0.6 4.1 -0.3
v -0.7 4.1 -0.3
v -0.5 4.2 -0.3
v -0.6 4.2 -0.3
v -0.7 4.2 -0.3
v -0.5 4.3 -0.3
v -0.7 4.3 -0.3
v -0.5 4.5 -0.3
v -0.6 4.5 -0.3
v -0.6 4.7 -0.3
v -0.7 4.7 -0.3
v -0.6 4.8 -0.3
v -0.7 4.8 -0.3
v -0.5 4.9 -0.3
v -0.6 4.9 -0.3
v -0.7 4.9 -0.3
v -0.5 2.6 0
v -0.5 2.7 0
v -0.5 2.4 -0.1
v -0.5 2.5 -0.1
v -0.5 2.6 -0.1
v -0.5 2.7 -0.1
v -0.5 2.8 -0.1
v -0.5 2.9 -0.1
v -0.5 3.1 -0.1
v -0.5 3.3 -0.1
v -0.5 3.4 -0.1
v -0.5 3.5 -0.1
v -0.5 3.6 -0.1
v -0.5 3.7 -0.1
v -0.5 3.8 -0.1
v -0.5 3.9 -0.1
v -0.5 4 -0.1
v -0.5 4.2 -0.1
v -0.5 4.3 -0.1
v -0.5 4.4 -0.1
v -0.5 4.6 -0.1
v -0.5 4.9 -0.1
v -0.5 2.5 -0.2
v -0.5 2.6 -0.2
v -0.5 2.7 -0.2
v -0.5 2.8 -0.2
v -0.5 2.9 -0.2
v -0.5 3 -0.2
v -0.5 3.1 -0.2
v -0.5 3.2 -0.2
v -0.5 3.3 -0.2
v -0.5 3.4 -0.2
v -0.5 3.5 -0.2
v -0.5 3.6 -0.2
v -0.5 3.7 -0.2
v -0.5 3.8 -0.2
v -0.5 3.9 -0.2
v -0.5 4 -0.2
v -0.5 4.1 -0.2
v -0.5 4.2 -0.2
v -0.5 4.3 -0.2
v -0.5 4.4 -0.2
v -0.5 4.5 -0.2
v -0.5 4.6 -0.2
v -0.5 2.4 -0.3
v -0.5 2.6 -0.3
v -0.5 2.7 -0.3
v -0.5 2.8 -0.3
v -0.5 2.9 -0.3
v -0.5 3 -0.3
v -0.5 3.2 -0.3
v -0.5 3.3 -0.3
v -0.5 3.4 -0.3
v -0.5 3.5 -0.3
v -0.5 3.6 -0.3
v -0.5 3.7 -0.3
v -0.5 4.1 -0.3
v -0.5 4.2 -0.3
v -0.5 4.3 -0.3
v -0.5 4.5 -0.3
v -0.5 4.9 -0.3
v -0.6 2.4 0
v -0.6 2.6 0
v -0.6 2.2 -0.1
v -0.6 2.4 -0.1
v -0.6 2.5 -0.1
v -0.6 2.6 -0.1
v -0.6 2.8 -0.1
v -0.6 2.9 -0.1
v -0.6 3.4 -0.1
v -0.6 3.5 -0.1
v -0.6 2.2 -0.2
v -0.6 2.3 -0.2
v -0.6 2.8 -0.2
v -0.6 2.9 -0.2
v -0.6 3 -0.2
v -0.6 3.4 -0.2
v -0.6 3.5 -0.2
v -0.6 3.6 -0.2
v -0.6 3.7 -0.2
v -0.6 2.2 -0.3
v -0.6 2.3 -0.3
v -0.6 2.4 -0.3
v -0.6 2.9 -0.3
v -0.6 3 -0.3
v -0.6 3.6 -0.3
v -0.6 3.7 -0.3
v -0.6 2.9 -0.1
v -0.6 3 -0.1
v -0.6 3.8 -0.1
v -0.6 3.9 -0.1
v -0.6 2.9 -0.2
v -0.6 3 -0.2
v -0.6 3.2 -0.2
v -0.6 3.3 -0.2
v -0.6 3.8 -0.2
v -0.6 3.9 -0.2
v -0.6 3.2 -0.3
v -0.6 3.3 -0.3
v -0.7 2.4 0
v -0.7 2.6 0
v -0.7 2.7 0
v -0.7 2.2 -0.1
v -0.7 2.4 -0.1
v -0.7 2.5 -0.1
v -0.7 2.6 -0.1
v -0.7 2.7 -0.1
v -0.7 2.8 -0.1
v -0.7 2.9 -0.1
v -0.7 3 -0.1
v -0.7 3.1 -0.1
v -0.7 3.2 -0.1
v -0.7 3.3 -0.1
v -0.7 3.4 -0.1
v -0.7 3.6 -0.1
v -0.7 3.7 -0.1
v -0.7 3.8 -0.1
v -0.7 3.9 -0.1
v -0.7 4 -0.1
v -0.7 4.2 -0.1
v -0.7 4.3 -0.1
v -0.7 4.4 -0.1
v -0.7 4.6 -0.1
v -0.7 4.8 -0.1
v -0.7 4.9 -0.1
v -0.7 2.2 -0.2
v -0.7 2.3 -0.2
v -0.7 2.4 -0.2
v -0.7 2.5 -0.2
v -0.7 2.6 -0.2
v -0.7 2.7 -0.2
v -0.7 2.8 -0.2
v -0.7 2.9 -0.2
v -0.7 3 -0.2
v -0.7 3.1 -0.2
v -0.7 3.2 -0.2
v -0.7 3.3 -0.2
v -0.7 3.4 -0.2
v -0.7 3.5 -0.2
v -0.7 3.6 -0.2
v -0.7 3.7 -0.2
v -0.7 3.8 -0.2
v -0.7 3.9 -0.2
v -0.7 4 -0.2
v -0.7 4.1 -0.2
v -0.7 4.2 -0.2
v -0.7 4.3 -0.2
v -0.7 4.4 -0.2
v -0.7 4.6 -0.2
v -0.7 4.7 -0.2
v -0.7 2.2 -0.3
v -0.7 2.3 -0.3
v -0.7 2.4 -0.3
v -0.7 2.6 -0.3
v -0.7 2.7 -0.3
v -0.7 2.8 -0.3
v -0.7 2.9 -0.3
v -0.7 3 -0.3
v -0.7 3.1 -0.3
v -0.7 3.2 -0.3
v -0.7 3.3 -0.3
v -0.7 3.5 -0.3
v -0.7 3.6 -0.3
v -0.7 3.7 -0.3
v -0.7 3.8 -0.3
v -0.7 3.9 -0.3
v -0.7 4.1 -0.3
v -0.7 4.2 -0.3
v -0.7 4.3 -0.3
v -0.7 4.7 -0.3
v -0.7 4.8 -0.3
v -0.7 4.9 -0.3

# faces
f 4/4/1 2/4/1 1/4/1
f 5/8/1 3/8/1 2/8/1
f 5/4/1 2/4/1 4/4/1
f 6/8/1 3/8/1 5/8/1
f 10/5/1 8/5/1 7/5/1
f 11/5/1 8/5/1 10/5/1
f 12/4/1 10/4/1 9/4/1
f 13/4/1 10/4/1 12/4/1
f 16/3/1 15/3/1 14/3/1
f 17/3/1 15/3/1 16/3/1
f 20/7/1 19/7/1 18/7/1
f 21/7/1 19/7/1 20/7/1
f 25/3/1 23/3/1 22/3/1
f 26/3/1 23/3/1 25/3/1
f 27/7/1 25/7/1 24/7/1
f 28/7/1 25/7/1 27/7/1
f 31/3/1 30/3/1 29/3/1
f 32/3/1 30/3/1 31/3/1
f 35/4/1 34/4/1 33/4/1
f 36/4/1 34/4/1 35/4/1
f 39/3/1 38/3/1 37/3/1
f 40/3/1 38/3/1 39/3/1
f 43/7/1 42/7/1 41/7/1
f 44/7/1 42/7/1 43/7/1
f 45/3/2 46/3/2 47/3/2
f 47/3/2 46/3/2 48/3/2
f 47/7/2 48/7/2 49/7/2
f 49/7/2 48/7/2 50/7/2
f 51/4/2 52/4/2 53/4/2
f 53/4/2 52/4/2 54/4/2
f 55/8/2 56/8/2 58/8/2
f 58/8/2 56/8/2 59/8/2
f 57/7/2 58/7/2 60/7/2
f 60/7/2 58/7/2 61/7/2
f 62/7/2 63/7/2 64/7/2
f 64/7/2 63/7/2 65/7/2
f 66/7/2 67/7/2 68/7/2
f 68/7/2 67/7/2 69/7/2
f 70/3/2 71/3/2 72/3/2
f 72/3/2 71/3/2 73/3/2
f 74/3/2 75/3/2 76/3/2
f 76/3/2 75/3/2 77/3/2
f 78/1/2 79/1/2 80/1/2
f 80/1/2 79/1/2 81/1/2
f 80/6/2 81/6/2 82/6/2
f 82/6/2 81/6/2 83/6/2
f 87/4/3 85/4/3 84/4/3
f 88/4/3 85/4/3 87/4/3
f 89/3/3 87/3/3 86/3/3
f 90/7/3 88/7/3 87/7/3
f 90/3/3 87/3/3 89/3/3
f 91/7/3 88/7/3 90/7/3
f 95/4/3 93/4/3 92/4/3
f 96/4/3 93/4/3 95/4/3
f 97/5/3 95/5/3 94/5/3
f 98/5/3 95/5/3 97/5/3
f 99/4/3 98/4/3 97/4/3
f 100/4/3 98/4/3 99/4/3
f 104/4/3 102/4/3 101/4/3
f 104/4/3 103/4/3 102/4/3
f 105/4/3 103/4/3 104/4/3
f 106/4/3 103/4/3 105/4/3
f 108/7/3 106/7/3 105/7/3
f 109/7/3 106/7/3 108/7/3
f 110/7/3 108/7/3 107/7/3
f 112/7/3 110/7/3 107/7/3
f 112/7/3 111/7/3 110/7/3
f 113/7/3 111/7/3 112/7/3
f 114/3/3 113/3/3 112/3/3
f 115/3/3 113/3/3 114/3/3
f 116/3/3 114/3/3 112/3/3
f 117/8/3 115/8/3 114/8/3
f 117/3/3 114/3/3 116/3/3
f 118/8/3 115/8/3 117/8/3
f 119/7/3 117/7/3 116/7/3
f 119/7/3 118/7/3 117/7/3
f 120/7/3 118/7/3 119/7/3
f 121/7/3 118/7/3 120/7/3
f 123/3/3 121/3/3 120/3/3
f 124/4/3 123/4/3 122/4/3
f 125/3/3 121/3/3 123/3/3
f 125/4/3 123/4/3 124/4/3
f 126/3/3 121/3/3 125/3/3
f 127/8/3 125/8/3 124/8/3
f 128/4/3 126/4/3 125/4/3
f 128/8/3 125/8/3 127/8/3
f 129/4/3 126/4/3 128/4/3
f 130/4/3 128/4/3 127/4/3
f 131/3/3 129/3/3 128/3/3
f 131/4/3 128/4/3 130/4/3
f 132/3/3 129/3/3 131/3/3
f 133/7/3 131/7/3 130/7/3
f 134/7/3 131/7/3 133/7/3
f 136/3/3 134/3/3 133/3/3
f 137/7/3 135/7/3 134/7/3
f 137/3/3 134/3/3 136/3/3
f 138/7/3 135/7/3 137/7/3
f 139/4/3 137/4/3 136/4/3
f 140/3/3 138/3/3 137/3/3
f 140/4/3 137/4/3 139/4/3
f 141/3/3 138/3/3 140/3/3
f 142/2/3 140/2/3 139/2/3
f 143/4/3 141/4/3 140/4/3
f 143/2/3 140/2/3 142/2/3
f 144/4/3 141/4/3 143/4/3
f 145/4/3 143/4/3 142/4/3
f 146/2/3 144/2/3 143/2/3
f 146/4/3 143/4/3 145/4/3
f 147/2/3 144/2/3 146/2/3
f 148/6/3 146/6/3 145/6/3
f 148/6/3 147/6/3 146/6/3
f 149/6/3 147/6/3 148/6/3
f 150/6/3 147/6/3 149/6/3
f 151/1/3 149/1/3 148/1/3
f 151/2/3 150/2/3 149/2/3
f 152/2/3 150/2/3 151/2/3
f 153/1/3 151/1/3 148/1/3
f 154/6/3 152/6/3 151/6/3
f 154/1/3 151/1/3 153/1/3
f 155/6/3 152/6/3 154/6/3
f 158/8/3 157/8/3 156/8/3
f 159/8/3 157/8/3 158/8/3
f 161/8/3 160/8/3 159/8/3
f 162/8/3 160/8/3 161/8/3
f 165/8/3 164/8/3 163/8/3
f 166/8/3 164/8/3 165/8/3
f 169/8/3 168/8/3 167/8/3
f 170/8/3 168/8/3 169/8/3
f 171/7/4 172/7/4 173/7/4
f 173/7/4 172/7/4 174/7/4
f 175/8/4 176/8/4 177/8/4
f 177/8/4 176/8/4 178/8/4
f 179/8/4 180/8/4 181/8/4
f 181/8/4 180/8/4 182/8/4
f 183/8/4 184/8/4 185/8/4
f 185/8/4 184/8/4 186/8/4
f 185/4/4 186/4/4 188/4/4
f 188/4/4 186/4/4 189/4/4
f 187/5/4 188/5/4 190/5/4
f 188/3/4 189/3/4 191/3/4
f 190/5/4 188/5/4 191/5/4
f 191/3/4 189/3/4 192/3/4
f 190/4/4 191/4/4 193/4/4
f 191/7/4 192/7/4 194/7/4
f 193/4/4 191/4/4 194/4/4
f 194/7/4 192/7/4 195/7/4
f 193/5/4 194/5/4 196/5/4
f 194/4/4 195/4/4 197/4/4
f 196/5/4 194/5/4 197/5/4
f 197/4/4 195/4/4 198/4/4
f 196/8/4 197/8/4 199/8/4
f 197/3/4 198/3/4 200/3/4
f 199/8/4 197/8/4 200/8/4
f 200/3/4 198/3/4 201/3/4
f 200/8/4 201/8/4 203/8/4
f 203/8/4 201/8/4 204/8/4
f 202/3/4 203/3/4 205/3/4
f 203/3/4 204/3/4 205/3/4
f 205/3/4 204/3/4 206/3/4
f 202/3/4 205/3/4 207/3/4
f 205/7/4 206/7/4 208/7/4
f 207/3/4 205/3/4 208/3/4
f 208/7/4 206/7/4 209/7/4
f 207/8/4 208/8/4 210/8/4
f 210/8/4 208/8/4 211/8/4
f 210/3/4 211/3/4 213/3/4
f 211/3/4 212/3/4 213/3/4
f 213/3/4 212/3/4 214/3/4
f 213/8/4 214/8/4 215/8/4
f 214/3/4 212/3/4 216/3/4
f 215/8/4 214/8/4 216/8/4
f 216/3/4 212/3/4 217/3/4
f 215/3/4 216/3/4 218/3/4
f 216/7/4 217/7/4 219/7/4
f 218/3/4 216/3/4 219/3/4
f 219/7/4 217/7/4 220/7/4
f 219/8/4 220/8/4 222/8/4
f 222/8/4 220/8/4 223/8/4
f 221/3/4 222/3/4 224/3/4
f 222/4/4 223/4/4 224/4/4
f 224/4/4 223/4/4 225/4/4
f 221/3/4 224/3/4 226/3/4
f 224/8/4 225/8/4 226/8/4
f 226/8/4 225/8/4 227/8/4
f 221/3/4 226/3/4 228/3/4
f 226/3/4 227/3/4 228/3/4
f 228/3/4 227/3/4 229/3/4
f 229/3/4 227/3/4 230/3/4
f 228/1/4 229/1/4 231/1/4
f 229/4/4 230/4/4 232/4/4
f 231/1/4 229/1/4 232/1/4
f 232/4/4 230/4/4 233/4/4
f 231/2/4 232/2/4 234/2/4
f 232/2/4 233/2/4 234/2/4
f 234/2/4 233/2/4 235/2/4
f 234/6/4 235/6/4 236/6/4
f 236/6/4 235/6/4 237/6/4
f 236/1/4 237/1/4 238/1/4
f 237/6/4 235/6/4 238/6/4
f 238/6/4 235/6/4 239/6/4
f 236/1/4 238/1/4 240/1/4
f 238/2/4 239/2/4 240/2/4
f 240/2/4 239/2/4 241/2/4
f 236/1/4 240/1/4 242/1/4
f 240/6/4 241/6/4 243/6/4
f 242/1/4 240/1/4 243/1/4
f 243/6/4 241/6/4 244/6/4
f 249/3/5 246/3/5 245/3/5
f 250/3/5 246/3/5 249/3/5
f 267/5/5 248/5/5 247/5/5
f 267/4/5 249/4/5 248/4/5
f 267/4/5 250/4/5 249/4/5
f 267/4/5 251/4/5 250/4/5
f 268/4/5 251/4/5 267/4/5
f 269/4/5 251/4/5 268/4/5
f 270/4/5 251/4/5 269/4/5
f 271/7/5 253/7/5 252/7/5
f 272/7/5 253/7/5 271/7/5
f 273/3/5 254/3/5 253/3/5
f 273/7/5 253/7/5 272/7/5
f 274/3/5 254/3/5 273/3/5
f 275/7/5 255/7/5 254/7/5
f 275/3/5 254/3/5 274/3/5
f 276/7/5 255/7/5 275/7/5
f 277/4/5 257/4/5 256/4/5
f 278/8/5 258/8/5 257/8/5
f 278/4/5 257/4/5 277/4/5
f 279/4/5 259/4/5 258/4/5
f 279/8/5 258/8/5 278/8/5
f 280/7/5 260/7/5 259/7/5
f 280/4/5 259/4/5 279/4/5
f 281/3/5 261/3/5 260/3/5
f 281/7/5 260/7/5 280/7/5
f 282/4/5 262/4/5 261/4/5
f 282/3/5 261/3/5 281/3/5
f 283/4/5 262/4/5 282/4/5
f 284/2/5 263/2/5 262/2/5
f 284/4/5 262/4/5 283/4/5
f 285/4/5 264/4/5 263/4/5
f 285/2/5 263/2/5 284/2/5
f 286/6/5 265/6/5 264/6/5
f 286/4/5 264/4/5 285/4/5
f 287/6/5 265/6/5 286/6/5
f 288/1/5 266/1/5 265/1/5
f 288/6/5 265/6/5 287/6/5
f 289/5/5 267/5/5 247/5/5
f 289/5/5 268/5/5 267/5/5
f 290/4/5 269/4/5 268/4/5
f 290/5/5 268/5/5 289/5/5
f 291/5/5 270/5/5 269/5/5
f 291/4/5 269/4/5 290/4/5
f 292/8/5 271/8/5 270/8/5
f 292/5/5 270/5/5 291/5/5
f 293/8/5 271/8/5 292/8/5
f 294/3/5 274/3/5 273/3/5
f 294/3/5 273/3/5 272/3/5
f 295/8/5 275/8/5 274/8/5
f 295/3/5 274/3/5 294/3/5
f 296/3/5 276/3/5 275/3/5
f 296/8/5 275/8/5 295/8/5
f 297/8/5 277/8/5 276/8/5
f 297/3/5 276/3/5 296/3/5
f 298/3/5 278/3/5 277/3/5
f 298/8/5 277/8/5 297/8/5
f 299/3/5 278/3/5 298/3/5
f 300/3/5 283/3/5 282/3/5
f 300/3/5 280/3/5 279/3/5
f 300/3/5 281/3/5 280/3/5
f 300/3/5 282/3/5 281/3/5
f 301/1/5 284/1/5 283/1/5
f 301/3/5 283/3/5 300/3/5
f 302/2/5 285/2/5 284/2/5
f 302/1/5 284/1/5 301/1/5
f 303/6/5 287/6/5 286/6/5
f 303/2/5 285/2/5 302/2/5
f 303/6/5 286/6/5 285/6/5
f 304/1/5 288/1/5 287/1/5
f 304/6/5 287/6/5 303/6/5
f 305/1/5 266/1/5 288/1/5
f 305/1/5 288/1/5 304/1/5
f 309/4/5 307/4/5 306/4/5
f 310/4/5 307/4/5 309/4/5
f 311/4/5 307/4/5 310/4/5
f 316/4/5 309/4/5 308/4/5
f 317/4/5 309/4/5 316/4/5
f 318/7/5 313/7/5 312/7/5
f 319/7/5 313/7/5 318/7/5
f 321/3/5 315/3/5 314/3/5
f 322/3/5 315/3/5 321/3/5
f 325/8/5 317/8/5 316/8/5
f 326/4/5 309/4/5 317/4/5
f 326/8/5 317/8/5 325/8/5
f 327/4/5 309/4/5 326/4/5
f 328/8/5 320/8/5 319/8/5
f 329/8/5 320/8/5 328/8/5
f 330/8/5 324/8/5 323/8/5
f 331/8/5 324/8/5 330/8/5
f 332/7/6 333/7/6 336/7/6
f 336/7/6 333/7/6 337/7/6
f 334/7/6 335/7/6 340/7/6
f 340/7/6 335/7/6 341/7/6
f 338/8/6 339/8/6 342/8/6
f 342/8/6 339/8/6 343/8/6
f 344/4/6 345/4/6 348/4/6
f 348/4/6 345/4/6 349/4/6
f 345/7/6 346/7/6 350/7/6
f 349/4/6 345/4/6 350/4/6
f 350/7/6 346/7/6 351/7/6
f 347/4/6 348/4/6 370/4/6
f 370/4/6 348/4/6 371/4/6
f 348/7/6 349/7/6 372/7/6
f 371/4/6 348/4/6 372/4/6
f 349/8/6 350/8/6 373/8/6
f 372/7/6 349/7/6 373/7/6
f 350/5/6 351/5/6 374/5/6
f 373/8/6 350/8/6 374/8/6
f 351/4/6 352/4/6 375/4/6
f 374/5/6 351/5/6 375/5/6
f 352/7/6 353/7/6 376/7/6
f 375/4/6 352/4/6 376/4/6
f 376/7/6 353/7/6 377/7/6
f 354/7/6 355/7/6 378/7/6
f 355/3/6 356/3/6 379/3/6
f 378/7/6 355/7/6 379/7/6
f 356/8/6 357/8/6 380/8/6
f 379/3/6 356/3/6 380/3/6
f 357/7/6 358/7/6 381/7/6
f 380/8/6 357/8/6 381/8/6
f 358/3/6 359/3/6 382/3/6
f 381/7/6 358/7/6 382/7/6
f 382/3/6 359/3/6 383/3/6
f 359/4/6 360/4/6 384/4/6
f 383/3/6 359/3/6 384/3/6
f 360/3/6 361/3/6 385/3/6
f 384/4/6 360/4/6 385/4/6
f 385/3/6 361/3/6 386/3/6
f 362/7/6 363/7/6 387/7/6
f 363/3/6 364/3/6 388/3/6
f 387/7/6 363/7/6 388/7/6
f 388/3/6 364/3/6 389/3/6
f 364/4/6 365/4/6 390/4/6
f 389/3/6 364/3/6 390/3/6
f 365/2/6 366/2/6 391/2/6
f 390/4/6 365/4/6 391/4/6
f 366/6/6 367/6/6 392/6/6
f 391/2/6 366/2/6 392/2/6
f 367/2/6 368/2/6 393/2/6
f 392/6/6 367/6/6 393/6/6
f 393/2/6 368/2/6 394/2/6
f 370/8/6 371/8/6 395/8/6
f 371/4/6 372/4/6 396/4/6
f 395/8/6 371/8/6 396/8/6
f 372/3/6 373/3/6 397/3/6
f 396/4/6 372/4/6 397/4/6
f 373/3/6 374/3/6 397/3/6
f 374/7/6 375/7/6 398/7/6
f 397/3/6 374/3/6 398/3/6
f 375/4/6 376/4/6 399/4/6
f 398/7/6 375/7/6 399/7/6
f 376/3/6 377/3/6 400/3/6
f 399/4/6 376/4/6 400/4/6
f 377/8/6 378/8/6 401/8/6
f 400/3/6 377/3/6 401/3/6
f 378/3/6 379/3/6 402/3/6
f 401/8/6 378/8/6 402/8/6
f 379/7/6 380/7/6 403/7/6
f 402/3/6 379/3/6 403/3/6
f 403/7/6 380/7/6 404/7/6
f 382/3/6 383/3/6 405/3/6
f 381/3/6 382/3/6 405/3/6
f 383/7/6 384/7/6 406/7/6
f 405/3/6 383/3/6 406/3/6
f 384/8/6 385/8/6 407/8/6
f 406/7/6 384/7/6 407/7/6
f 385/4/6 386/4/6 408/4/6
f 407/8/6 385/8/6 408/8/6
f 386/8/6 387/8/6 409/8/6
f 408/4/6 386/4/6 409/4/6
f 388/3/6 389/3/6 410/3/6
f 409/8/6 387/8/6 410/8/6
f 387/3/6 388/3/6 410/3/6
f 389/4/6 390/4/6 411/4/6
f 410/3/6 389/3/6 411/3/6
f 390/2/6 391/2/6 412/2/6
f 411/4/6 390/4/6 412/4/6
f 392/6/6 393/6/6 413/6/6
f 412/2/6 391/2/6 413/2/6
f 393/6/6 394/6/6 413/6/6
f 391/6/6 392/6/6 413/6/6
f 394/2/6 368/2/6 414/2/6
f 413/6/6 394/6/6 414/6/6
f 368/6/6 369/6/6 415/6/6
f 414/2/6 368/2/6 415/2/6
f 415/6/6 369/6/6 416/6/6
