# MagicaVoxel @ Ephtracy

# group
o 

# material
mtllib Zed_4-2.mtl
usemtl palette

# normals
vn -1 0 0
vn 1 0 0
vn 0 0 1
vn 0 0 -1
vn 0 -1 0
vn 0 1 0

# texcoords
vt 0.248047 0.5
vt 0.357422 0.5
vt 0.361328 0.5
vt 0.365234 0.5
vt 0.857422 0.5
vt 0.955078 0.5
vt 0.958984 0.5
vt 0.962891 0.5
vt 0.994141 0.5

# verts
v -0.3 5.7 -0.1
v -0.3 5.7 -0.2
v -0.3 5.8 -0.1
v -0.3 5.8 -0.2
v -0.3 5.9 -0.1
v -0.3 5.9 -0.2
v -0.2 5.4 0
v -0.2 5.4 -0.1
v -0.2 5.4 -0.2
v -0.2 5.5 -0.1
v -0.2 5.5 -0.2
v -0.2 5.5 -0.3
v -0.2 5.6 0.1
v -0.2 5.6 0
v -0.2 5.6 -0.1
v -0.2 5.7 0.2
v -0.2 5.7 0.1
v -0.2 5.7 0
v -0.2 5.7 -0.1
v -0.2 5.7 -0.2
v -0.2 5.7 -0.3
v -0.2 5.8 0.2
v -0.2 5.8 0.1
v -0.2 5.8 0
v -0.2 5.8 -0.1
v -0.2 5.8 -0.2
v -0.2 5.9 0.2
v -0.2 5.9 0.1
v -0.2 5.9 0
v -0.2 5.9 -0.1
v -0.2 5.9 -0.2
v -0.2 5.9 -0.3
v -0.2 6 0.2
v -0.2 6 0.1
v -0.2 6 0
v -0.2 6 -0.2
v -0.2 6.1 0.2
v -0.2 6.1 0.1
v -0.2 6.3 0.2
v -0.2 6.3 -0.3
v -0.1 5.3 0
v -0.1 5.3 -0.1
v -0.1 5.3 -0.3
v -0.1 5.4 0
v -0.1 5.4 -0.1
v -0.1 5.4 -0.2
v -0.1 5.5 -0.2
v -0.1 5.5 -0.3
v -0.1 5.7 -0.3
v -0.1 5.7 -0.4
v -0.1 5.9 -0.3
v -0.1 5.9 -0.4
v -0.1 6 -0.3
v -0.1 6 -0.4
v -0.1 6.2 -0.3
v -0.1 6.2 -0.4
v -0.1 6.3 0.2
v -0.1 6.3 0.1
v -0.1 6.3 -0.3
v -0.1 6.3 -0.4
v -0.1 6.4 0.2
v -0.1 6.4 0.1
v -0.1 6.4 -0.3
v 0.2 5.4 0.1
v 0.2 5.4 0
v 0.2 5.6 0.1
v 0.2 5.6 0
v 0.2 5.3 0
v 0.2 5.3 -0.2
v 0.2 5.3 -0.3
v 0.2 5.4 0
v 0.2 5.4 -0.1
v 0.2 5.4 -0.2
v 0.2 5.4 -0.3
v 0.2 5.5 -0.2
v 0.2 5.5 -0.3
v 0.2 5.7 -0.3
v 0.2 5.7 -0.4
v 0.2 5.8 -0.3
v 0.2 5.8 -0.4
v 0.2 5.9 -0.3
v 0.2 5.9 -0.4
v 0.2 6 -0.3
v 0.2 6 -0.4
v 0.2 6.2 -0.3
v 0.2 6.3 0.2
v 0.2 6.3 0.1
v 0.2 6.3 0
v 0.2 6.3 -0.1
v 0.2 6.3 -0.2
v 0.2 6.3 -0.3
v 0.2 6.3 -0.4
v 0.2 6.4 0.2
v 0.2 6.4 0
v 0.2 6.4 -0.1
v 0.2 6.4 -0.3
v 0.3 5.4 0.1
v 0.3 5.4 0
v 0.3 5.4 -0.1
v 0.3 5.4 -0.2
v 0.3 5.5 0
v 0.3 5.5 -0.1
v 0.3 5.5 -0.2
v 0.3 5.5 -0.3
v 0.3 5.6 0.1
v 0.3 5.6 0
v 0.3 5.6 -0.1
v 0.3 5.6 -0.2
v 0.3 5.7 0.2
v 0.3 5.7 0.1
v 0.3 5.7 0
v 0.3 5.7 -0.1
v 0.3 5.7 -0.2
v 0.3 5.7 -0.3
v 0.3 5.8 0.2
v 0.3 5.8 0.1
v 0.3 5.8 0
v 0.3 5.8 -0.1
v 0.3 5.8 -0.2
v 0.3 5.9 0.2
v 0.3 5.9 0.1
v 0.3 5.9 -0.1
v 0.3 5.9 -0.2
v 0.3 5.9 -0.3
v 0.3 6 0.2
v 0.3 6 0.1
v 0.3 6 0
v 0.3 6 -0.1
v 0.3 6.1 0.2
v 0.3 6.1 0.1
v 0.3 6.1 0
v 0.3 6.1 -0.1
v 0.3 6.2 0.2
v 0.3 6.2 0.1
v 0.3 6.2 -0.2
v 0.3 6.2 -0.3
v 0.3 6.3 0.2
v 0.3 6.3 0.1
v 0.3 6.3 -0.2
v 0.3 6.3 -0.3
v 0.4 5.7 -0.1
v 0.4 5.7 -0.2
v 0.4 5.8 -0.1
v 0.4 5.8 -0.2
v 0.4 5.9 -0.1
v 0.4 5.9 -0.2
v -0.2 5.7 0.2
v -0.2 5.8 0.2
v -0.2 5.9 0.2
v -0.2 6 0.2
v -0.2 6.1 0.2
v -0.2 6.3 0.2
v -0.1 5.7 0.2
v -0.1 5.8 0.2
v -0.1 5.9 0.2
v -0.1 6 0.2
v -0.1 6.1 0.2
v -0.1 6.2 0.2
v -0.1 6.3 0.2
v -0.1 6.4 0.2
v 0 5.8 0.2
v 0 5.9 0.2
v 0 6 0.2
v 0 6.1 0.2
v 0 6.2 0.2
v 0 6.3 0.2
v 0 6.4 0.2
v 0.1 5.7 0.2
v 0.1 5.8 0.2
v 0.1 5.9 0.2
v 0.1 6 0.2
v 0.2 5.7 0.2
v 0.2 5.8 0.2
v 0.2 5.9 0.2
v 0.2 6 0.2
v 0.2 6.1 0.2
v 0.2 6.2 0.2
v 0.2 6.3 0.2
v 0.2 6.4 0.2
v 0.3 5.7 0.2
v 0.3 5.8 0.2
v 0.3 5.9 0.2
v 0.3 6 0.2
v 0.3 6.1 0.2
v 0.3 6.2 0.2
v 0.3 6.3 0.2
v -0.2 5.6 0.1
v -0.2 5.7 0.1
v -0.1 5.6 0.1
v -0.1 5.7 0.1
v 0.1 5.7 0.1
v 0.2 5.4 0.1
v 0.2 5.6 0.1
v 0.2 5.7 0.1
v 0.3 5.4 0.1
v 0.3 5.6 0.1
v 0.3 5.7 0.1
v -0.2 5.4 0
v -0.2 5.6 0
v -0.1 5.3 0
v -0.1 5.4 0
v -0.1 5.6 0
v 0 5.3 0
v 0 5.4 0
v 0.2 5.3 0
v 0.2 5.4 0
v 0.2 5.6 0
v -0.3 5.7 -0.1
v -0.3 5.8 -0.1
v -0.3 5.9 -0.1
v -0.2 5.7 -0.1
v -0.2 5.8 -0.1
v -0.2 5.9 -0.1
v 0.3 5.7 -0.1
v 0.3 5.8 -0.1
v 0.3 5.9 -0.1
v 0.4 5.7 -0.1
v 0.4 5.8 -0.1
v 0.4 5.9 -0.1
v -0.3 5.7 -0.2
v -0.3 5.8 -0.2
v -0.3 5.9 -0.2
v -0.2 5.4 -0.2
v -0.2 5.5 -0.2
v -0.2 5.7 -0.2
v -0.2 5.8 -0.2
v -0.2 5.9 -0.2
v -0.1 5.4 -0.2
v -0.1 5.5 -0.2
v 0.2 5.4 -0.2
v 0.2 5.5 -0.2
v 0.3 5.4 -0.2
v 0.3 5.5 -0.2
v 0.3 5.7 -0.2
v 0.3 5.8 -0.2
v 0.3 5.9 -0.2
v 0.4 5.7 -0.2
v 0.4 5.8 -0.2
v 0.4 5.9 -0.2
v -0.2 5.5 -0.3
v -0.2 5.7 -0.3
v -0.2 5.9 -0.3
v -0.2 6.3 -0.3
v -0.1 5.3 -0.3
v -0.1 5.5 -0.3
v -0.1 5.6 -0.3
v -0.1 5.7 -0.3
v -0.1 5.9 -0.3
v -0.1 6 -0.3
v -0.1 6.2 -0.3
v -0.1 6.3 -0.3
v -0.1 6.4 -0.3
v 0 5.3 -0.3
v 0 5.6 -0.3
v 0 5.7 -0.3
v 0.1 5.4 -0.3
v 0.1 5.6 -0.3
v 0.1 5.7 -0.3
v 0.2 5.3 -0.3
v 0.2 5.4 -0.3
v 0.2 5.5 -0.3
v 0.2 5.6 -0.3
v 0.2 5.7 -0.3
v 0.2 5.8 -0.3
v 0.2 5.9 -0.3
v 0.2 6 -0.3
v 0.2 6.2 -0.3
v 0.2 6.3 -0.3
v 0.2 6.4 -0.3
v 0.3 5.5 -0.3
v 0.3 5.7 -0.3
v 0.3 5.9 -0.3
v 0.3 6.2 -0.3
v 0.3 6.3 -0.3
v -0.1 5.7 -0.4
v -0.1 5.9 -0.4
v -0.1 6 -0.4
v -0.1 6.2 -0.4
v -0.1 6.3 -0.4
v 0 5.9 -0.4
v 0 6 -0.4
v 0 6.2 -0.4
v 0.1 5.8 -0.4
v 0.1 5.9 -0.4
v 0.1 6 -0.4
v 0.2 5.7 -0.4
v 0.2 5.8 -0.4
v 0.2 5.9 -0.4
v 0.2 6 -0.4
v 0.2 6.3 -0.4
v -0.1 5.3 0
v 0 5.3 0
v 0.2 5.3 0
v -0.1 5.3 -0.1
v 0 5.3 -0.1
v 0.1 5.3 -0.1
v 0.1 5.3 -0.2
v 0.2 5.3 -0.2
v -0.1 5.3 -0.3
v 0 5.3 -0.3
v 0.2 5.3 -0.3
v 0.2 5.4 0.1
v 0.3 5.4 0.1
v -0.2 5.4 0
v -0.1 5.4 0
v 0.2 5.4 0
v 0.3 5.4 0
v -0.2 5.4 -0.1
v -0.1 5.4 -0.1
v 0.2 5.4 -0.1
v 0.3 5.4 -0.1
v -0.2 5.4 -0.2
v -0.1 5.4 -0.2
v 0.2 5.4 -0.2
v 0.3 5.4 -0.2
v -0.2 5.5 -0.2
v -0.1 5.5 -0.2
v 0.2 5.5 -0.2
v 0.3 5.5 -0.2
v -0.2 5.5 -0.3
v -0.1 5.5 -0.3
v 0.2 5.5 -0.3
v 0.3 5.5 -0.3
v -0.2 5.6 0.1
v -0.1 5.6 0.1
v 0.2 5.6 0.1
v -0.2 5.6 0
v -0.1 5.6 0
v 0.2 5.6 0
v -0.2 5.7 0.2
v -0.1 5.7 0.2
v 0.1 5.7 0.2
v 0.2 5.7 0.2
v 0.3 5.7 0.2
v -0.2 5.7 0.1
v -0.1 5.7 0.1
v 0.1 5.7 0.1
v 0.2 5.7 0.1
v 0.3 5.7 0.1
v -0.3 5.7 -0.1
v -0.2 5.7 -0.1
v 0.3 5.7 -0.1
v 0.4 5.7 -0.1
v -0.3 5.7 -0.2
v -0.2 5.7 -0.2
v 0.3 5.7 -0.2
v 0.4 5.7 -0.2
v -0.1 5.7 -0.3
v 0 5.7 -0.3
v 0.1 5.7 -0.3
v 0.2 5.7 -0.3
v -0.1 5.7 -0.4
v 0.2 5.7 -0.4
v -0.3 5.9 -0.1
v -0.2 5.9 -0.1
v 0.3 5.9 -0.1
v 0.4 5.9 -0.1
v -0.3 5.9 -0.2
v -0.2 5.9 -0.2
v 0.3 5.9 -0.2
v 0.4 5.9 -0.2
v -0.2 6.3 0.2
v -0.1 6.3 0.2
v 0.2 6.3 0.2
v 0.3 6.3 0.2
v -0.1 6.3 0.1
v 0.2 6.3 0.1
v 0.3 6.3 0.1
v 0.2 6.3 0
v 0.2 6.3 -0.1
v 0.2 6.3 -0.2
v 0.3 6.3 -0.2
v -0.2 6.3 -0.3
v -0.1 6.3 -0.3
v 0.2 6.3 -0.3
v 0.3 6.3 -0.3
v -0.1 6.3 -0.4
v 0.2 6.3 -0.4
v -0.1 6.4 0.2
v 0 6.4 0.2
v 0.2 6.4 0.2
v -0.1 6.4 0.1
v 0 6.4 0.1
v 0.1 6.4 0
v 0.2 6.4 0
v 0.1 6.4 -0.1
v 0.2 6.4 -0.1
v -0.1 6.4 -0.3
v 0.2 6.4 -0.3

# faces
f 3/3/1 2/3/1 1/3/1
f 4/3/1 2/3/1 3/3/1
f 5/2/1 4/2/1 3/2/1
f 6/2/1 4/2/1 5/2/1
f 10/7/1 8/7/1 7/7/1
f 10/3/1 9/3/1 8/3/1
f 11/3/1 9/3/1 10/3/1
f 14/7/1 10/7/1 7/7/1
f 15/4/1 11/4/1 10/4/1
f 15/7/1 10/7/1 14/7/1
f 17/7/1 14/7/1 13/7/1
f 18/4/1 15/4/1 14/4/1
f 18/7/1 14/7/1 17/7/1
f 19/4/1 11/4/1 15/4/1
f 19/4/1 15/4/1 18/4/1
f 20/2/1 12/2/1 11/2/1
f 20/4/1 11/4/1 19/4/1
f 21/2/1 12/2/1 20/2/1
f 22/6/1 17/6/1 16/6/1
f 23/3/1 18/3/1 17/3/1
f 23/6/1 17/6/1 22/6/1
f 24/2/1 19/2/1 18/2/1
f 24/3/1 18/3/1 23/3/1
f 25/2/1 19/2/1 24/2/1
f 26/3/1 21/3/1 20/3/1
f 27/3/1 23/3/1 22/3/1
f 28/6/1 24/6/1 23/6/1
f 28/3/1 23/3/1 27/3/1
f 29/2/1 25/2/1 24/2/1
f 29/6/1 24/6/1 28/6/1
f 30/2/1 25/2/1 29/2/1
f 31/3/1 21/3/1 26/3/1
f 32/3/1 21/3/1 31/3/1
f 33/1/1 28/1/1 27/1/1
f 34/2/1 29/2/1 28/2/1
f 34/1/1 28/1/1 33/1/1
f 35/3/1 30/3/1 29/3/1
f 35/2/1 29/2/1 34/2/1
f 35/3/1 31/3/1 30/3/1
f 36/2/1 32/2/1 31/2/1
f 36/3/1 31/3/1 35/3/1
f 37/3/1 34/3/1 33/3/1
f 38/2/1 35/2/1 34/2/1
f 38/3/1 34/3/1 37/3/1
f 38/2/1 36/2/1 35/2/1
f 39/2/1 38/2/1 37/2/1
f 40/2/1 32/2/1 36/2/1
f 40/2/1 38/2/1 39/2/1
f 40/2/1 36/2/1 38/2/1
f 44/7/1 42/7/1 41/7/1
f 45/2/1 43/2/1 42/2/1
f 45/7/1 42/7/1 44/7/1
f 46/2/1 43/2/1 45/2/1
f 47/2/1 43/2/1 46/2/1
f 48/2/1 43/2/1 47/2/1
f 51/2/1 50/2/1 49/2/1
f 52/2/1 50/2/1 51/2/1
f 53/4/1 52/4/1 51/4/1
f 54/4/1 52/4/1 53/4/1
f 55/3/1 54/3/1 53/3/1
f 56/3/1 54/3/1 55/3/1
f 59/2/1 56/2/1 55/2/1
f 60/2/1 56/2/1 59/2/1
f 61/4/1 58/4/1 57/4/1
f 62/2/1 59/2/1 58/2/1
f 62/4/1 58/4/1 61/4/1
f 63/2/1 59/2/1 62/2/1
f 66/7/1 65/7/1 64/7/1
f 67/7/1 65/7/1 66/7/1
f 68/6/2 69/6/2 71/6/2
f 71/6/2 69/6/2 72/6/2
f 69/3/2 70/3/2 73/3/2
f 72/6/2 69/6/2 73/6/2
f 73/3/2 70/3/2 74/3/2
f 73/2/2 74/2/2 75/2/2
f 75/2/2 74/2/2 76/2/2
f 77/2/2 78/2/2 79/2/2
f 79/2/2 78/2/2 80/2/2
f 79/4/2 80/4/2 81/4/2
f 81/4/2 80/4/2 82/4/2
f 81/3/2 82/3/2 83/3/2
f 83/3/2 82/3/2 84/3/2
f 83/2/2 84/2/2 85/2/2
f 85/2/2 84/2/2 91/2/2
f 91/2/2 84/2/2 92/2/2
f 86/2/2 87/2/2 93/2/2
f 87/2/2 88/2/2 93/2/2
f 88/4/2 89/4/2 94/4/2
f 93/2/2 88/2/2 94/2/2
f 89/2/2 90/2/2 95/2/2
f 94/4/2 89/4/2 95/4/2
f 90/2/2 91/2/2 95/2/2
f 95/2/2 91/2/2 96/2/2
f 97/7/2 98/7/2 101/7/2
f 98/6/2 99/6/2 101/6/2
f 99/2/2 100/2/2 102/2/2
f 101/6/2 99/6/2 102/6/2
f 102/2/2 100/2/2 103/2/2
f 97/7/2 101/7/2 105/7/2
f 101/4/2 102/4/2 106/4/2
f 105/7/2 101/7/2 106/7/2
f 103/2/2 104/2/2 107/2/2
f 106/4/2 102/4/2 107/4/2
f 102/2/2 103/2/2 107/2/2
f 107/2/2 104/2/2 108/2/2
f 105/6/2 106/6/2 110/6/2
f 106/3/2 107/3/2 111/3/2
f 107/3/2 108/3/2 111/3/2
f 110/6/2 106/6/2 111/6/2
f 111/3/2 108/3/2 112/3/2
f 108/2/2 104/2/2 113/2/2
f 112/3/2 108/3/2 113/3/2
f 113/2/2 104/2/2 114/2/2
f 109/4/2 110/4/2 115/4/2
f 110/3/2 111/3/2 116/3/2
f 115/4/2 110/4/2 116/4/2
f 111/7/2 112/7/2 117/7/2
f 116/3/2 111/3/2 117/3/2
f 117/7/2 112/7/2 118/7/2
f 113/3/2 114/3/2 119/3/2
f 115/3/2 116/3/2 120/3/2
f 117/2/2 118/2/2 121/2/2
f 120/3/2 116/3/2 121/3/2
f 116/2/2 117/2/2 121/2/2
f 121/2/2 118/2/2 122/2/2
f 119/3/2 114/3/2 123/3/2
f 123/3/2 114/3/2 124/3/2
f 120/1/2 121/1/2 125/1/2
f 121/2/2 122/2/2 126/2/2
f 125/1/2 121/1/2 126/1/2
f 122/2/2 123/2/2 126/2/2
f 123/2/2 124/2/2 126/2/2
f 126/2/2 124/2/2 127/2/2
f 127/2/2 124/2/2 128/2/2
f 125/3/2 126/3/2 129/3/2
f 126/2/2 127/2/2 130/2/2
f 129/3/2 126/3/2 130/3/2
f 127/3/2 128/3/2 131/3/2
f 130/2/2 127/2/2 131/2/2
f 128/2/2 124/2/2 132/2/2
f 131/3/2 128/3/2 132/3/2
f 130/2/2 131/2/2 133/2/2
f 129/2/2 130/2/2 133/2/2
f 131/2/2 132/2/2 133/2/2
f 133/2/2 132/2/2 134/2/2
f 132/2/2 124/2/2 135/2/2
f 134/2/2 132/2/2 135/2/2
f 135/2/2 124/2/2 136/2/2
f 133/3/2 134/3/2 137/3/2
f 134/2/2 135/2/2 138/2/2
f 137/3/2 134/3/2 138/3/2
f 135/4/2 136/4/2 139/4/2
f 138/2/2 135/2/2 139/2/2
f 139/4/2 136/4/2 140/4/2
f 141/3/2 142/3/2 143/3/2
f 143/3/2 142/3/2 144/3/2
f 143/2/2 144/2/2 145/2/2
f 145/2/2 144/2/2 146/2/2
f 153/6/3 148/6/3 147/6/3
f 154/3/3 149/3/3 148/3/3
f 154/6/3 148/6/3 153/6/3
f 155/1/3 150/1/3 149/1/3
f 155/3/3 149/3/3 154/3/3
f 156/3/3 151/3/3 150/3/3
f 156/1/3 150/1/3 155/1/3
f 157/2/3 152/2/3 151/2/3
f 157/3/3 151/3/3 156/3/3
f 158/2/3 152/2/3 157/2/3
f 159/2/3 152/2/3 158/2/3
f 161/7/3 154/7/3 153/7/3
f 161/4/3 155/4/3 154/4/3
f 162/6/3 156/6/3 155/6/3
f 162/4/3 155/4/3 161/4/3
f 162/6/3 157/6/3 156/6/3
f 163/6/3 157/6/3 162/6/3
f 164/3/3 158/3/3 157/3/3
f 164/6/3 157/6/3 163/6/3
f 165/2/3 159/2/3 158/2/3
f 165/3/3 158/3/3 164/3/3
f 166/4/3 160/4/3 159/4/3
f 166/2/3 159/2/3 165/2/3
f 167/4/3 160/4/3 166/4/3
f 168/7/3 161/7/3 153/7/3
f 168/7/3 162/7/3 161/7/3
f 169/7/3 162/7/3 168/7/3
f 170/3/3 163/3/3 162/3/3
f 170/7/3 162/7/3 169/7/3
f 171/2/3 165/2/3 164/2/3
f 171/3/3 163/3/3 170/3/3
f 171/2/3 164/2/3 163/2/3
f 171/2/3 167/2/3 166/2/3
f 171/2/3 166/2/3 165/2/3
f 172/6/3 169/6/3 168/6/3
f 173/2/3 170/2/3 169/2/3
f 173/6/3 169/6/3 172/6/3
f 174/4/3 171/4/3 170/4/3
f 174/2/3 170/2/3 173/2/3
f 175/2/3 167/2/3 171/2/3
f 175/4/3 171/4/3 174/4/3
f 176/2/3 167/2/3 175/2/3
f 177/2/3 167/2/3 176/2/3
f 178/2/3 167/2/3 177/2/3
f 179/2/3 167/2/3 178/2/3
f 180/4/3 173/4/3 172/4/3
f 181/3/3 174/3/3 173/3/3
f 181/4/3 173/4/3 180/4/3
f 182/1/3 175/1/3 174/1/3
f 182/3/3 174/3/3 181/3/3
f 183/3/3 176/3/3 175/3/3
f 183/1/3 175/1/3 182/1/3
f 184/2/3 177/2/3 176/2/3
f 184/3/3 176/3/3 183/3/3
f 185/3/3 178/3/3 177/3/3
f 185/2/3 177/2/3 184/2/3
f 186/3/3 178/3/3 185/3/3
f 189/7/3 188/7/3 187/7/3
f 190/7/3 188/7/3 189/7/3
f 191/5/3 190/5/3 189/5/3
f 193/5/3 191/5/3 189/5/3
f 194/5/3 191/5/3 193/5/3
f 195/7/3 193/7/3 192/7/3
f 196/6/3 194/6/3 193/6/3
f 196/7/3 193/7/3 195/7/3
f 197/6/3 194/6/3 196/6/3
f 201/7/3 199/7/3 198/7/3
f 202/7/3 199/7/3 201/7/3
f 203/7/3 201/7/3 200/7/3
f 204/8/3 202/8/3 201/8/3
f 204/7/3 201/7/3 203/7/3
f 205/6/3 204/6/3 203/6/3
f 206/8/3 202/8/3 204/8/3
f 206/6/3 204/6/3 205/6/3
f 207/8/3 202/8/3 206/8/3
f 211/3/3 209/3/3 208/3/3
f 212/2/3 210/2/3 209/2/3
f 212/3/3 209/3/3 211/3/3
f 213/2/3 210/2/3 212/2/3
f 217/3/3 215/3/3 214/3/3
f 218/2/3 216/2/3 215/2/3
f 218/3/3 215/3/3 217/3/3
f 219/2/3 216/2/3 218/2/3
f 220/3/4 221/3/4 225/3/4
f 221/2/4 222/2/4 226/2/4
f 225/3/4 221/3/4 226/3/4
f 226/2/4 222/2/4 227/2/4
f 223/3/4 224/3/4 228/3/4
f 228/3/4 224/3/4 229/3/4
f 230/2/4 231/2/4 232/2/4
f 232/2/4 231/2/4 233/2/4
f 234/3/4 235/3/4 237/3/4
f 235/2/4 236/2/4 238/2/4
f 237/3/4 235/3/4 238/3/4
f 238/2/4 236/2/4 239/2/4
f 240/2/4 241/2/4 245/2/4
f 245/2/4 241/2/4 246/2/4
f 241/3/4 242/3/4 247/3/4
f 246/2/4 241/2/4 247/2/4
f 242/2/4 243/2/4 248/2/4
f 247/3/4 242/3/4 248/3/4
f 248/2/4 243/2/4 249/2/4
f 249/2/4 243/2/4 250/2/4
f 250/2/4 243/2/4 251/2/4
f 245/2/4 246/2/4 253/2/4
f 244/2/4 245/2/4 253/2/4
f 246/3/4 247/3/4 254/3/4
f 253/2/4 246/2/4 254/2/4
f 254/3/4 247/3/4 255/3/4
f 253/3/4 254/3/4 256/3/4
f 254/4/4 255/4/4 257/4/4
f 256/3/4 254/3/4 257/3/4
f 257/4/4 255/4/4 258/4/4
f 253/3/4 256/3/4 259/3/4
f 256/2/4 257/2/4 260/2/4
f 259/3/4 256/3/4 260/3/4
f 260/2/4 257/2/4 261/2/4
f 257/3/4 258/3/4 262/3/4
f 261/2/4 257/2/4 262/2/4
f 262/3/4 258/3/4 263/3/4
f 251/2/4 252/2/4 268/2/4
f 268/2/4 252/2/4 269/2/4
f 262/2/4 263/2/4 270/2/4
f 261/2/4 262/2/4 270/2/4
f 263/3/4 264/3/4 271/3/4
f 270/2/4 263/2/4 271/2/4
f 264/3/4 265/3/4 271/3/4
f 266/2/4 267/2/4 272/2/4
f 271/3/4 265/3/4 272/3/4
f 265/2/4 266/2/4 272/2/4
f 267/4/4 268/4/4 273/4/4
f 272/2/4 267/2/4 273/2/4
f 273/4/4 268/4/4 274/4/4
f 275/2/4 276/2/4 280/2/4
f 276/4/4 277/4/4 280/4/4
f 277/3/4 278/3/4 281/3/4
f 280/4/4 277/4/4 281/4/4
f 278/2/4 279/2/4 282/2/4
f 281/3/4 278/3/4 282/3/4
f 280/2/4 281/2/4 283/2/4
f 275/2/4 280/2/4 283/2/4
f 281/2/4 282/2/4 283/2/4
f 283/2/4 282/2/4 284/2/4
f 284/2/4 282/2/4 285/2/4
f 275/2/4 283/2/4 286/2/4
f 283/4/4 284/4/4 287/4/4
f 286/2/4 283/2/4 287/2/4
f 284/3/4 285/3/4 288/3/4
f 287/4/4 284/4/4 288/4/4
f 285/2/4 282/2/4 289/2/4
f 288/3/4 285/3/4 289/3/4
f 282/2/4 279/2/4 290/2/4
f 289/2/4 282/2/4 290/2/4
f 294/7/5 292/7/5 291/7/5
f 295/6/5 293/6/5 292/6/5
f 295/7/5 292/7/5 294/7/5
f 296/6/5 293/6/5 295/6/5
f 297/3/5 296/3/5 295/3/5
f 297/6/5 293/6/5 296/6/5
f 298/6/5 293/6/5 297/6/5
f 299/2/5 295/2/5 294/2/5
f 300/3/5 297/3/5 295/3/5
f 300/2/5 295/2/5 299/2/5
f 300/3/5 298/3/5 297/3/5
f 301/3/5 298/3/5 300/3/5
f 306/7/5 303/7/5 302/7/5
f 307/7/5 303/7/5 306/7/5
f 308/7/5 305/7/5 304/7/5
f 309/7/5 305/7/5 308/7/5
f 310/6/5 307/6/5 306/6/5
f 311/6/5 307/6/5 310/6/5
f 312/3/5 309/3/5 308/3/5
f 313/3/5 309/3/5 312/3/5
f 314/2/5 311/2/5 310/2/5
f 315/2/5 311/2/5 314/2/5
f 320/2/5 317/2/5 316/2/5
f 321/2/5 317/2/5 320/2/5
f 322/2/5 319/2/5 318/2/5
f 323/2/5 319/2/5 322/2/5
f 327/7/5 325/7/5 324/7/5
f 328/5/5 326/5/5 325/5/5
f 328/7/5 325/7/5 327/7/5
f 329/5/5 326/5/5 328/5/5
f 335/6/5 331/6/5 330/6/5
f 336/7/5 332/7/5 331/7/5
f 336/6/5 331/6/5 335/6/5
f 337/6/5 333/6/5 332/6/5
f 337/7/5 332/7/5 336/7/5
f 338/4/5 334/4/5 333/4/5
f 338/6/5 333/6/5 337/6/5
f 339/4/5 334/4/5 338/4/5
f 344/3/5 341/3/5 340/3/5
f 345/3/5 341/3/5 344/3/5
f 346/3/5 343/3/5 342/3/5
f 347/3/5 343/3/5 346/3/5
f 352/2/5 349/2/5 348/2/5
f 352/2/5 351/2/5 350/2/5
f 352/2/5 350/2/5 349/2/5
f 353/2/5 351/2/5 352/2/5
f 354/2/6 355/2/6 358/2/6
f 358/2/6 355/2/6 359/2/6
f 356/2/6 357/2/6 360/2/6
f 360/2/6 357/2/6 361/2/6
f 362/2/6 363/2/6 366/2/6
f 364/3/6 365/3/6 367/3/6
f 367/3/6 365/3/6 368/3/6
f 367/2/6 368/2/6 369/2/6
f 369/2/6 368/2/6 370/2/6
f 370/2/6 368/2/6 371/2/6
f 371/2/6 368/2/6 372/2/6
f 362/2/6 366/2/6 373/2/6
f 373/2/6 366/2/6 374/2/6
f 371/4/6 372/4/6 375/4/6
f 375/4/6 372/4/6 376/4/6
f 374/2/6 375/2/6 377/2/6
f 377/2/6 375/2/6 378/2/6
f 379/4/6 380/4/6 382/4/6
f 380/2/6 381/2/6 383/2/6
f 382/4/6 380/4/6 383/4/6
f 382/2/6 383/2/6 384/2/6
f 383/2/6 381/2/6 384/2/6
f 384/2/6 381/2/6 385/2/6
f 382/2/6 384/2/6 386/2/6
f 384/4/6 385/4/6 386/4/6
f 386/4/6 385/4/6 387/4/6
f 382/2/6 386/2/6 388/2/6
f 386/2/6 387/2/6 388/2/6
f 388/2/6 387/2/6 389/2/6
