# MagicaVoxel @ Ephtracy

# group
o 

# material
mtllib axe.mtl
usemtl palette

# normals
vn -1 0 0
vn 1 0 0
vn 0 0 1
vn 0 0 -1
vn 0 -1 0
vn 0 1 0

# texcoords
vt 0.00195313 0.5
vt 0.0761719 0.5
vt 0.0839844 0.5
vt 0.107422 0.5
vt 0.134766 0.5
vt 0.150391 0.5
vt 0.169922 0.5
vt 0.201172 0.5

# verts
v -0.3 1 0
v -0.3 1 -0.1
v -0.3 1.5 0
v -0.3 1.5 -0.1
v -0.2 0.9 0
v -0.2 0.9 -0.1
v -0.2 1 0
v -0.2 1 -0.1
v -0.2 1.5 0
v -0.2 1.5 -0.1
v -0.2 1.6 0
v -0.2 1.6 -0.1
v -0.1 0 0
v -0.1 0 -0.1
v -0.1 0.1 0
v -0.1 0.1 -0.1
v -0.1 1.1 0.1
v -0.1 1.1 0
v -0.1 1.1 -0.1
v -0.1 1.1 -0.2
v -0.1 1.2 0
v -0.1 1.2 -0.1
v -0.1 1.3 0
v -0.1 1.3 -0.1
v -0.1 1.4 0.1
v -0.1 1.4 0
v -0.1 1.4 -0.1
v -0.1 1.4 -0.2
v 0 0 0.1
v 0 0 0
v 0 0 -0.1
v 0 0 -0.2
v 0 0.1 0.1
v 0 0.1 0
v 0 0.1 -0.1
v 0 0.1 -0.2
v 0 0.2 0
v 0 0.2 -0.1
v 0 0.3 0
v 0 0.3 -0.1
v 0 0.4 0
v 0 0.4 -0.1
v 0 0.5 0
v 0 0.5 -0.1
v 0 0.6 0
v 0 0.6 -0.1
v 0 0.7 0
v 0 0.7 -0.1
v 0 0.8 0
v 0 0.8 -0.1
v 0 0.9 0
v 0 0.9 -0.1
v 0 1 0
v 0 1 -0.1
v 0 1.1 0
v 0 1.1 -0.1
v 0 1.4 0
v 0 1.4 -0.1
v 0 1.5 0
v 0 1.5 -0.1
v 0.2 0.9 0
v 0.2 0.9 -0.1
v 0.2 1.1 0
v 0.2 1.1 -0.1
v 0.2 1.4 0
v 0.2 1.4 -0.1
v 0.2 1.6 0
v 0.2 1.6 -0.1
v -0.1 0.9 0
v -0.1 0.9 -0.1
v -0.1 1.1 0
v -0.1 1.1 -0.1
v -0.1 1.4 0
v -0.1 1.4 -0.1
v -0.1 1.6 0
v -0.1 1.6 -0.1
v 0.1 0 0.1
v 0.1 0 0
v 0.1 0 -0.1
v 0.1 0 -0.2
v 0.1 0.1 0.1
v 0.1 0.1 0
v 0.1 0.1 -0.1
v 0.1 0.1 -0.2
v 0.1 0.2 0
v 0.1 0.2 -0.1
v 0.1 0.3 0
v 0.1 0.3 -0.1
v 0.1 0.4 0
v 0.1 0.4 -0.1
v 0.1 0.5 0
v 0.1 0.5 -0.1
v 0.1 0.6 0
v 0.1 0.6 -0.1
v 0.1 0.7 0
v 0.1 0.7 -0.1
v 0.1 0.8 0
v 0.1 0.8 -0.1
v 0.1 0.9 0
v 0.1 0.9 -0.1
v 0.1 1 0
v 0.1 1 -0.1
v 0.1 1.1 0
v 0.1 1.1 -0.1
v 0.1 1.4 0
v 0.1 1.4 -0.1
v 0.1 1.5 0
v 0.1 1.5 -0.1
v 0.2 0 0
v 0.2 0 -0.1
v 0.2 0.1 0
v 0.2 0.1 -0.1
v 0.2 1.1 0.1
v 0.2 1.1 0
v 0.2 1.1 -0.1
v 0.2 1.1 -0.2
v 0.2 1.2 0
v 0.2 1.2 -0.1
v 0.2 1.3 0
v 0.2 1.3 -0.1
v 0.2 1.4 0.1
v 0.2 1.4 0
v 0.2 1.4 -0.1
v 0.2 1.4 -0.2
v 0.3 0.9 0
v 0.3 0.9 -0.1
v 0.3 1 0
v 0.3 1 -0.1
v 0.3 1.5 0
v 0.3 1.5 -0.1
v 0.3 1.6 0
v 0.3 1.6 -0.1
v 0.4 1 0
v 0.4 1 -0.1
v 0.4 1.5 0
v 0.4 1.5 -0.1
v -0.1 1.1 0.1
v -0.1 1.4 0.1
v 0 0 0.1
v 0 0.1 0.1
v 0.1 0 0.1
v 0.1 0.1 0.1
v 0.2 1.1 0.1
v 0.2 1.4 0.1
v -0.3 1 0
v -0.3 1.5 0
v -0.2 0.9 0
v -0.2 1 0
v -0.2 1.1 0
v -0.2 1.2 0
v -0.2 1.3 0
v -0.2 1.4 0
v -0.2 1.5 0
v -0.2 1.6 0
v -0.1 0 0
v -0.1 0.1 0
v -0.1 0.9 0
v -0.1 1.1 0
v -0.1 1.2 0
v -0.1 1.3 0
v -0.1 1.4 0
v -0.1 1.6 0
v 0 0 0
v 0 0.1 0
v 0 0.2 0
v 0 0.3 0
v 0 0.4 0
v 0 0.5 0
v 0 0.6 0
v 0 0.7 0
v 0 0.8 0
v 0 0.9 0
v 0 1 0
v 0 1.1 0
v 0 1.4 0
v 0 1.5 0
v 0.1 0 0
v 0.1 0.1 0
v 0.1 0.2 0
v 0.1 0.3 0
v 0.1 0.4 0
v 0.1 0.5 0
v 0.1 0.6 0
v 0.1 0.7 0
v 0.1 0.8 0
v 0.1 0.9 0
v 0.1 1 0
v 0.1 1.1 0
v 0.1 1.4 0
v 0.1 1.5 0
v 0.2 0 0
v 0.2 0.1 0
v 0.2 0.9 0
v 0.2 1.1 0
v 0.2 1.2 0
v 0.2 1.3 0
v 0.2 1.4 0
v 0.2 1.6 0
v 0.3 0.9 0
v 0.3 1 0
v 0.3 1.1 0
v 0.3 1.2 0
v 0.3 1.3 0
v 0.3 1.4 0
v 0.3 1.5 0
v 0.3 1.6 0
v 0.4 1 0
v 0.4 1.5 0
v -0.3 1 -0.1
v -0.3 1.5 -0.1
v -0.2 0.9 -0.1
v -0.2 1 -0.1
v -0.2 1.1 -0.1
v -0.2 1.2 -0.1
v -0.2 1.3 -0.1
v -0.2 1.4 -0.1
v -0.2 1.5 -0.1
v -0.2 1.6 -0.1
v -0.1 0 -0.1
v -0.1 0.1 -0.1
v -0.1 0.9 -0.1
v -0.1 1.1 -0.1
v -0.1 1.2 -0.1
v -0.1 1.3 -0.1
v -0.1 1.4 -0.1
v -0.1 1.6 -0.1
v 0 0 -0.1
v 0 0.1 -0.1
v 0 0.2 -0.1
v 0 0.3 -0.1
v 0 0.4 -0.1
v 0 0.5 -0.1
v 0 0.6 -0.1
v 0 0.7 -0.1
v 0 0.8 -0.1
v 0 0.9 -0.1
v 0 1 -0.1
v 0 1.1 -0.1
v 0 1.4 -0.1
v 0 1.5 -0.1
v 0.1 0 -0.1
v 0.1 0.1 -0.1
v 0.1 0.2 -0.1
v 0.1 0.3 -0.1
v 0.1 0.4 -0.1
v 0.1 0.5 -0.1
v 0.1 0.6 -0.1
v 0.1 0.7 -0.1
v 0.1 0.8 -0.1
v 0.1 0.9 -0.1
v 0.1 1 -0.1
v 0.1 1.1 -0.1
v 0.1 1.4 -0.1
v 0.1 1.5 -0.1
v 0.2 0 -0.1
v 0.2 0.1 -0.1
v 0.2 0.9 -0.1
v 0.2 1.1 -0.1
v 0.2 1.2 -0.1
v 0.2 1.3 -0.1
v 0.2 1.4 -0.1
v 0.2 1.6 -0.1
v 0.3 0.9 -0.1
v 0.3 1 -0.1
v 0.3 1.1 -0.1
v 0.3 1.2 -0.1
v 0.3 1.3 -0.1
v 0.3 1.4 -0.1
v 0.3 1.5 -0.1
v 0.3 1.6 -0.1
v 0.4 1 -0.1
v 0.4 1.5 -0.1
v -0.1 1.1 -0.2
v -0.1 1.4 -0.2
v 0 0 -0.2
v 0 0.1 -0.2
v 0.1 0 -0.2
v 0.1 0.1 -0.2
v 0.2 1.1 -0.2
v 0.2 1.4 -0.2
v 0 0 0.1
v 0.1 0 0.1
v -0.1 0 0
v 0 0 0
v 0.1 0 0
v 0.2 0 0
v -0.1 0 -0.1
v 0 0 -0.1
v 0.1 0 -0.1
v 0.2 0 -0.1
v 0 0 -0.2
v 0.1 0 -0.2
v -0.2 0.9 0
v -0.1 0.9 0
v 0.2 0.9 0
v 0.3 0.9 0
v -0.2 0.9 -0.1
v -0.1 0.9 -0.1
v 0.2 0.9 -0.1
v 0.3 0.9 -0.1
v -0.3 1 0
v -0.2 1 0
v 0.3 1 0
v 0.4 1 0
v -0.3 1 -0.1
v -0.2 1 -0.1
v 0.3 1 -0.1
v 0.4 1 -0.1
v -0.1 1.1 0.1
v 0.2 1.1 0.1
v -0.1 1.1 0
v 0 1.1 0
v 0.1 1.1 0
v 0.2 1.1 0
v -0.1 1.1 -0.1
v 0 1.1 -0.1
v 0.1 1.1 -0.1
v 0.2 1.1 -0.1
v -0.1 1.1 -0.2
v 0.2 1.1 -0.2
v 0 0.1 0.1
v 0.1 0.1 0.1
v -0.1 0.1 0
v 0 0.1 0
v 0.1 0.1 0
v 0.2 0.1 0
v -0.1 0.1 -0.1
v 0 0.1 -0.1
v 0.1 0.1 -0.1
v 0.2 0.1 -0.1
v 0 0.1 -0.2
v 0.1 0.1 -0.2
v -0.1 1.4 0.1
v 0.2 1.4 0.1
v -0.1 1.4 0
v 0 1.4 0
v 0.1 1.4 0
v 0.2 1.4 0
v -0.1 1.4 -0.1
v 0 1.4 -0.1
v 0.1 1.4 -0.1
v 0.2 1.4 -0.1
v -0.1 1.4 -0.2
v 0.2 1.4 -0.2
v -0.3 1.5 0
v -0.2 1.5 0
v 0 1.5 0
v 0.1 1.5 0
v 0.3 1.5 0
v 0.4 1.5 0
v -0.3 1.5 -0.1
v -0.2 1.5 -0.1
v 0 1.5 -0.1
v 0.1 1.5 -0.1
v 0.3 1.5 -0.1
v 0.4 1.5 -0.1
v -0.2 1.6 0
v -0.1 1.6 0
v 0.2 1.6 0
v 0.3 1.6 0
v -0.2 1.6 -0.1
v -0.1 1.6 -0.1
v 0.2 1.6 -0.1
v 0.3 1.6 -0.1

# faces
f 3/4/1 2/4/1 1/4/1
f 4/4/1 2/4/1 3/4/1
f 7/4/1 6/4/1 5/4/1
f 8/4/1 6/4/1 7/4/1
f 11/4/1 10/4/1 9/4/1
f 12/4/1 10/4/1 11/4/1
f 15/7/1 14/7/1 13/7/1
f 16/7/1 14/7/1 15/7/1
f 21/2/1 18/2/1 17/2/1
f 22/2/1 20/2/1 19/2/1
f 23/2/1 21/2/1 17/2/1
f 24/2/1 20/2/1 22/2/1
f 25/2/1 23/2/1 17/2/1
f 26/2/1 23/2/1 25/2/1
f 27/2/1 20/2/1 24/2/1
f 28/2/1 20/2/1 27/2/1
f 33/7/1 30/7/1 29/7/1
f 34/7/1 30/7/1 33/7/1
f 35/7/1 32/7/1 31/7/1
f 36/7/1 32/7/1 35/7/1
f 37/6/1 35/6/1 34/6/1
f 38/6/1 35/6/1 37/6/1
f 39/1/1 38/1/1 37/1/1
f 40/1/1 38/1/1 39/1/1
f 41/6/1 40/6/1 39/6/1
f 42/6/1 40/6/1 41/6/1
f 43/5/1 42/5/1 41/5/1
f 44/5/1 42/5/1 43/5/1
f 45/8/1 44/8/1 43/8/1
f 46/8/1 44/8/1 45/8/1
f 47/5/1 46/5/1 45/5/1
f 48/5/1 46/5/1 47/5/1
f 49/8/1 48/8/1 47/8/1
f 50/8/1 48/8/1 49/8/1
f 51/5/1 50/5/1 49/5/1
f 52/5/1 50/5/1 51/5/1
f 53/8/1 52/8/1 51/8/1
f 54/8/1 52/8/1 53/8/1
f 55/5/1 54/5/1 53/5/1
f 56/5/1 54/5/1 55/5/1
f 59/5/1 58/5/1 57/5/1
f 60/5/1 58/5/1 59/5/1
f 63/4/1 62/4/1 61/4/1
f 64/4/1 62/4/1 63/4/1
f 67/4/1 66/4/1 65/4/1
f 68/4/1 66/4/1 67/4/1
f 69/4/2 70/4/2 71/4/2
f 71/4/2 70/4/2 72/4/2
f 73/4/2 74/4/2 75/4/2
f 75/4/2 74/4/2 76/4/2
f 77/7/2 78/7/2 81/7/2
f 81/7/2 78/7/2 82/7/2
f 79/7/2 80/7/2 83/7/2
f 83/7/2 80/7/2 84/7/2
f 82/6/2 83/6/2 85/6/2
f 85/6/2 83/6/2 86/6/2
f 85/1/2 86/1/2 87/1/2
f 87/1/2 86/1/2 88/1/2
f 87/6/2 88/6/2 89/6/2
f 89/6/2 88/6/2 90/6/2
f 89/5/2 90/5/2 91/5/2
f 91/5/2 90/5/2 92/5/2
f 91/8/2 92/8/2 93/8/2
f 93/8/2 92/8/2 94/8/2
f 93/5/2 94/5/2 95/5/2
f 95/5/2 94/5/2 96/5/2
f 95/8/2 96/8/2 97/8/2
f 97/8/2 96/8/2 98/8/2
f 97/5/2 98/5/2 99/5/2
f 99/5/2 98/5/2 100/5/2
f 99/8/2 100/8/2 101/8/2
f 101/8/2 100/8/2 102/8/2
f 101/5/2 102/5/2 103/5/2
f 103/5/2 102/5/2 104/5/2
f 105/5/2 106/5/2 107/5/2
f 107/5/2 106/5/2 108/5/2
f 109/7/2 110/7/2 111/7/2
f 111/7/2 110/7/2 112/7/2
f 113/2/2 114/2/2 117/2/2
f 115/2/2 116/2/2 118/2/2
f 113/2/2 117/2/2 119/2/2
f 118/2/2 116/2/2 120/2/2
f 113/2/2 119/2/2 121/2/2
f 121/2/2 119/2/2 122/2/2
f 120/2/2 116/2/2 123/2/2
f 123/2/2 116/2/2 124/2/2
f 125/4/2 126/4/2 127/4/2
f 127/4/2 126/4/2 128/4/2
f 129/4/2 130/4/2 131/4/2
f 131/4/2 130/4/2 132/4/2
f 133/4/2 134/4/2 135/4/2
f 135/4/2 134/4/2 136/4/2
f 141/7/3 140/7/3 139/7/3
f 142/7/3 140/7/3 141/7/3
f 143/2/3 138/2/3 137/2/3
f 144/2/3 138/2/3 143/2/3
f 148/4/3 146/4/3 145/4/3
f 149/4/3 146/4/3 148/4/3
f 150/4/3 146/4/3 149/4/3
f 151/4/3 146/4/3 150/4/3
f 152/4/3 146/4/3 151/4/3
f 153/4/3 146/4/3 152/4/3
f 157/4/3 148/4/3 147/4/3
f 157/4/3 149/4/3 148/4/3
f 158/3/3 150/3/3 149/3/3
f 158/4/3 149/4/3 157/4/3
f 159/4/3 151/4/3 150/4/3
f 159/3/3 150/3/3 158/3/3
f 160/3/3 152/3/3 151/3/3
f 160/4/3 151/4/3 159/4/3
f 161/4/3 154/4/3 153/4/3
f 161/3/3 152/3/3 160/3/3
f 161/4/3 153/4/3 152/4/3
f 162/4/3 154/4/3 161/4/3
f 163/7/3 156/7/3 155/7/3
f 164/7/3 156/7/3 163/7/3
f 178/6/3 165/6/3 164/6/3
f 179/1/3 166/1/3 165/1/3
f 179/6/3 165/6/3 178/6/3
f 180/6/3 167/6/3 166/6/3
f 180/1/3 166/1/3 179/1/3
f 181/5/3 168/5/3 167/5/3
f 181/6/3 167/6/3 180/6/3
f 182/8/3 169/8/3 168/8/3
f 182/5/3 168/5/3 181/5/3
f 183/5/3 170/5/3 169/5/3
f 183/8/3 169/8/3 182/8/3
f 184/8/3 171/8/3 170/8/3
f 184/5/3 170/5/3 183/5/3
f 185/5/3 172/5/3 171/5/3
f 185/8/3 171/8/3 184/8/3
f 186/8/3 173/8/3 172/8/3
f 186/5/3 172/5/3 185/5/3
f 187/5/3 174/5/3 173/5/3
f 187/8/3 173/8/3 186/8/3
f 188/5/3 174/5/3 187/5/3
f 189/5/3 176/5/3 175/5/3
f 190/5/3 176/5/3 189/5/3
f 191/7/3 178/7/3 177/7/3
f 192/7/3 178/7/3 191/7/3
f 199/4/3 194/4/3 193/4/3
f 200/4/3 194/4/3 199/4/3
f 201/3/3 195/3/3 194/3/3
f 201/4/3 194/4/3 200/4/3
f 202/4/3 196/4/3 195/4/3
f 202/3/3 195/3/3 201/3/3
f 203/3/3 197/3/3 196/3/3
f 203/4/3 196/4/3 202/4/3
f 204/4/3 198/4/3 197/4/3
f 204/3/3 197/3/3 203/3/3
f 205/4/3 198/4/3 204/4/3
f 206/4/3 198/4/3 205/4/3
f 207/4/3 202/4/3 201/4/3
f 207/4/3 203/4/3 202/4/3
f 207/4/3 205/4/3 204/4/3
f 207/4/3 204/4/3 203/4/3
f 207/4/3 201/4/3 200/4/3
f 208/4/3 205/4/3 207/4/3
f 209/4/4 210/4/4 212/4/4
f 212/4/4 210/4/4 213/4/4
f 213/4/4 210/4/4 214/4/4
f 214/4/4 210/4/4 215/4/4
f 215/4/4 210/4/4 216/4/4
f 216/4/4 210/4/4 217/4/4
f 211/4/4 212/4/4 221/4/4
f 212/4/4 213/4/4 221/4/4
f 213/3/4 214/3/4 222/3/4
f 221/4/4 213/4/4 222/4/4
f 214/4/4 215/4/4 223/4/4
f 222/3/4 214/3/4 223/3/4
f 215/3/4 216/3/4 224/3/4
f 223/4/4 215/4/4 224/4/4
f 217/4/4 218/4/4 225/4/4
f 224/3/4 216/3/4 225/3/4
f 216/4/4 217/4/4 225/4/4
f 225/4/4 218/4/4 226/4/4
f 219/7/4 220/7/4 227/7/4
f 227/7/4 220/7/4 228/7/4
f 228/6/4 229/6/4 242/6/4
f 229/1/4 230/1/4 243/1/4
f 242/6/4 229/6/4 243/6/4
f 230/6/4 231/6/4 244/6/4
f 243/1/4 230/1/4 244/1/4
f 231/5/4 232/5/4 245/5/4
f 244/6/4 231/6/4 245/6/4
f 232/8/4 233/8/4 246/8/4
f 245/5/4 232/5/4 246/5/4
f 233/5/4 234/5/4 247/5/4
f 246/8/4 233/8/4 247/8/4
f 234/8/4 235/8/4 248/8/4
f 247/5/4 234/5/4 248/5/4
f 235/5/4 236/5/4 249/5/4
f 248/8/4 235/8/4 249/8/4
f 236/8/4 237/8/4 250/8/4
f 249/5/4 236/5/4 250/5/4
f 237/5/4 238/5/4 251/5/4
f 250/8/4 237/8/4 251/8/4
f 251/5/4 238/5/4 252/5/4
f 239/5/4 240/5/4 253/5/4
f 253/5/4 240/5/4 254/5/4
f 241/7/4 242/7/4 255/7/4
f 255/7/4 242/7/4 256/7/4
f 257/4/4 258/4/4 263/4/4
f 263/4/4 258/4/4 264/4/4
f 258/3/4 259/3/4 265/3/4
f 264/4/4 258/4/4 265/4/4
f 259/4/4 260/4/4 266/4/4
f 265/3/4 259/3/4 266/3/4
f 260/3/4 261/3/4 267/3/4
f 266/4/4 260/4/4 267/4/4
f 261/4/4 262/4/4 268/4/4
f 267/3/4 261/3/4 268/3/4
f 268/4/4 262/4/4 269/4/4
f 269/4/4 262/4/4 270/4/4
f 265/4/4 266/4/4 271/4/4
f 266/4/4 267/4/4 271/4/4
f 268/4/4 269/4/4 271/4/4
f 267/4/4 268/4/4 271/4/4
f 264/4/4 265/4/4 271/4/4
f 271/4/4 269/4/4 272/4/4
f 275/7/4 276/7/4 277/7/4
f 277/7/4 276/7/4 278/7/4
f 273/2/4 274/2/4 279/2/4
f 279/2/4 274/2/4 280/2/4
f 284/7/5 282/7/5 281/7/5
f 285/7/5 282/7/5 284/7/5
f 287/7/5 284/7/5 283/7/5
f 288/1/5 285/1/5 284/1/5
f 288/7/5 284/7/5 287/7/5
f 289/7/5 286/7/5 285/7/5
f 289/1/5 285/1/5 288/1/5
f 290/7/5 286/7/5 289/7/5
f 291/7/5 289/7/5 288/7/5
f 292/7/5 289/7/5 291/7/5
f 297/4/5 294/4/5 293/4/5
f 298/4/5 294/4/5 297/4/5
f 299/4/5 296/4/5 295/4/5
f 300/4/5 296/4/5 299/4/5
f 305/4/5 302/4/5 301/4/5
f 306/4/5 302/4/5 305/4/5
f 307/4/5 304/4/5 303/4/5
f 308/4/5 304/4/5 307/4/5
f 311/2/5 310/2/5 309/2/5
f 312/2/5 310/2/5 311/2/5
f 313/2/5 310/2/5 312/2/5
f 314/2/5 310/2/5 313/2/5
f 315/2/5 312/2/5 311/2/5
f 316/2/5 312/2/5 315/2/5
f 317/2/5 314/2/5 313/2/5
f 318/2/5 314/2/5 317/2/5
f 319/2/5 316/2/5 315/2/5
f 319/2/5 317/2/5 316/2/5
f 319/2/5 318/2/5 317/2/5
f 320/2/5 318/2/5 319/2/5
f 321/7/6 322/7/6 324/7/6
f 324/7/6 322/7/6 325/7/6
f 323/7/6 324/7/6 327/7/6
f 327/7/6 324/7/6 328/7/6
f 325/7/6 326/7/6 329/7/6
f 329/7/6 326/7/6 330/7/6
f 328/7/6 329/7/6 331/7/6
f 331/7/6 329/7/6 332/7/6
f 333/2/6 334/2/6 335/2/6
f 335/2/6 334/2/6 336/2/6
f 336/2/6 334/2/6 337/2/6
f 337/2/6 334/2/6 338/2/6
f 335/2/6 336/2/6 339/2/6
f 339/2/6 336/2/6 340/2/6
f 337/2/6 338/2/6 341/2/6
f 341/2/6 338/2/6 342/2/6
f 339/2/6 340/2/6 343/2/6
f 340/2/6 341/2/6 343/2/6
f 341/2/6 342/2/6 343/2/6
f 343/2/6 342/2/6 344/2/6
f 345/4/6 346/4/6 351/4/6
f 351/4/6 346/4/6 352/4/6
f 347/5/6 348/5/6 353/5/6
f 353/5/6 348/5/6 354/5/6
f 349/4/6 350/4/6 355/4/6
f 355/4/6 350/4/6 356/4/6
f 357/4/6 358/4/6 361/4/6
f 361/4/6 358/4/6 362/4/6
f 359/4/6 360/4/6 363/4/6
f 363/4/6 360/4/6 364/4/6
