# MagicaVoxel @ Ephtracy

# group
o 

# material
mtllib barstool.mtl
usemtl palette

# normals
vn -1 0 0
vn 1 0 0
vn 0 0 1
vn 0 0 -1
vn 0 -1 0
vn 0 1 0

# texcoords
vt 0.0214844 0.5
vt 0.0253906 0.5
vt 0.0292969 0.5

# verts
v -0.5 1.7 0.5
v -0.5 1.7 -0.5
v -0.5 1.8 0.5
v -0.5 1.8 0.3
v -0.5 1.8 0.2
v -0.5 1.8 -0.2
v -0.5 1.8 -0.3
v -0.5 1.8 -0.5
v -0.5 1.9 0.5
v -0.5 1.9 0.3
v -0.5 1.9 0.2
v -0.5 1.9 -0.2
v -0.5 1.9 -0.3
v -0.5 1.9 -0.5
v -0.4 0 0.4
v -0.4 0 0.3
v -0.4 0 -0.3
v -0.4 0 -0.4
v -0.4 0.1 0.4
v -0.4 0.1 0.3
v -0.4 0.1 -0.3
v -0.4 0.1 -0.4
v -0.4 1.6 0.4
v -0.4 1.6 0.3
v -0.4 1.6 -0.3
v -0.4 1.6 -0.4
v -0.4 1.7 0.4
v -0.4 1.7 0.3
v -0.4 1.7 -0.3
v -0.4 1.7 -0.4
v 0.3 0 0.4
v 0.3 0 0.3
v 0.3 0 -0.3
v 0.3 0 -0.4
v 0.3 0.1 0.4
v 0.3 0.1 0.3
v 0.3 0.1 -0.3
v 0.3 0.1 -0.4
v 0.3 1.6 0.4
v 0.3 1.6 0.3
v 0.3 1.6 -0.3
v 0.3 1.6 -0.4
v 0.3 1.7 0.4
v 0.3 1.7 0.3
v 0.3 1.7 -0.3
v 0.3 1.7 -0.4
v -0.3 0 0.4
v -0.3 0 0.3
v -0.3 0 -0.3
v -0.3 0 -0.4
v -0.3 0.1 0.4
v -0.3 0.1 0.3
v -0.3 0.1 -0.3
v -0.3 0.1 -0.4
v -0.3 1.6 0.4
v -0.3 1.6 0.3
v -0.3 1.6 -0.3
v -0.3 1.6 -0.4
v -0.3 1.7 0.4
v -0.3 1.7 0.3
v -0.3 1.7 -0.3
v -0.3 1.7 -0.4
v 0.4 0 0.4
v 0.4 0 0.3
v 0.4 0 -0.3
v 0.4 0 -0.4
v 0.4 0.1 0.4
v 0.4 0.1 0.3
v 0.4 0.1 -0.3
v 0.4 0.1 -0.4
v 0.4 1.6 0.4
v 0.4 1.6 0.3
v 0.4 1.6 -0.3
v 0.4 1.6 -0.4
v 0.4 1.7 0.4
v 0.4 1.7 0.3
v 0.4 1.7 -0.3
v 0.4 1.7 -0.4
v 0.5 1.7 0.5
v 0.5 1.7 -0.5
v 0.5 1.8 0.5
v 0.5 1.8 0.3
v 0.5 1.8 0.2
v 0.5 1.8 -0.2
v 0.5 1.8 -0.3
v 0.5 1.8 -0.5
v 0.5 1.9 0.5
v 0.5 1.9 0.3
v 0.5 1.9 0.2
v 0.5 1.9 -0.2
v 0.5 1.9 -0.3
v 0.5 1.9 -0.5
v -0.5 1.7 0.5
v -0.5 1.8 0.5
v -0.5 1.9 0.5
v 0.5 1.7 0.5
v 0.5 1.8 0.5
v 0.5 1.9 0.5
v -0.4 0 0.4
v -0.4 0.1 0.4
v -0.4 1.6 0.4
v -0.4 1.7 0.4
v -0.3 0 0.4
v -0.3 0.1 0.4
v -0.3 1.6 0.4
v -0.3 1.7 0.4
v 0.3 0 0.4
v 0.3 0.1 0.4
v 0.3 1.6 0.4
v 0.3 1.7 0.4
v 0.4 0 0.4
v 0.4 0.1 0.4
v 0.4 1.6 0.4
v 0.4 1.7 0.4
v -0.4 0 -0.3
v -0.4 0.1 -0.3
v -0.4 1.6 -0.3
v -0.4 1.7 -0.3
v -0.3 0 -0.3
v -0.3 0.1 -0.3
v -0.3 1.6 -0.3
v -0.3 1.7 -0.3
v 0.3 0 -0.3
v 0.3 0.1 -0.3
v 0.3 1.6 -0.3
v 0.3 1.7 -0.3
v 0.4 0 -0.3
v 0.4 0.1 -0.3
v 0.4 1.6 -0.3
v 0.4 1.7 -0.3
v -0.4 0 0.3
v -0.4 0.1 0.3
v -0.4 1.6 0.3
v -0.4 1.7 0.3
v -0.3 0 0.3
v -0.3 0.1 0.3
v -0.3 1.6 0.3
v -0.3 1.7 0.3
v 0.3 0 0.3
v 0.3 0.1 0.3
v 0.3 1.6 0.3
v 0.3 1.7 0.3
v 0.4 0 0.3
v 0.4 0.1 0.3
v 0.4 1.6 0.3
v 0.4 1.7 0.3
v -0.4 0 -0.4
v -0.4 0.1 -0.4
v -0.4 1.6 -0.4
v -0.4 1.7 -0.4
v -0.3 0 -0.4
v -0.3 0.1 -0.4
v -0.3 1.6 -0.4
v -0.3 1.7 -0.4
v 0.3 0 -0.4
v 0.3 0.1 -0.4
v 0.3 1.6 -0.4
v 0.3 1.7 -0.4
v 0.4 0 -0.4
v 0.4 0.1 -0.4
v 0.4 1.6 -0.4
v 0.4 1.7 -0.4
v -0.5 1.7 -0.5
v -0.5 1.8 -0.5
v -0.5 1.9 -0.5
v 0.5 1.7 -0.5
v 0.5 1.8 -0.5
v 0.5 1.9 -0.5
v -0.4 0 0.4
v -0.3 0 0.4
v 0.3 0 0.4
v 0.4 0 0.4
v -0.4 0 0.3
v -0.3 0 0.3
v 0.3 0 0.3
v 0.4 0 0.3
v -0.4 0 -0.3
v -0.3 0 -0.3
v 0.3 0 -0.3
v 0.4 0 -0.3
v -0.4 0 -0.4
v -0.3 0 -0.4
v 0.3 0 -0.4
v 0.4 0 -0.4
v -0.5 1.7 0.5
v 0.5 1.7 0.5
v -0.4 1.7 0.4
v -0.3 1.7 0.4
v 0.3 1.7 0.4
v 0.4 1.7 0.4
v -0.4 1.7 0.3
v -0.3 1.7 0.3
v 0.3 1.7 0.3
v 0.4 1.7 0.3
v -0.4 1.7 -0.3
v -0.3 1.7 -0.3
v 0.3 1.7 -0.3
v 0.4 1.7 -0.3
v -0.4 1.7 -0.4
v -0.3 1.7 -0.4
v 0.3 1.7 -0.4
v 0.4 1.7 -0.4
v -0.5 1.7 -0.5
v 0.5 1.7 -0.5
v -0.5 1.9 0.5
v 0.5 1.9 0.5
v -0.5 1.9 0.3
v 0.5 1.9 0.3
v -0.5 1.9 0.2
v 0.5 1.9 0.2
v -0.5 1.9 -0.2
v 0.5 1.9 -0.2
v -0.5 1.9 -0.3
v 0.5 1.9 -0.3
v -0.5 1.9 -0.5
v 0.5 1.9 -0.5

# faces
f 3/3/1 2/3/1 1/3/1
f 4/3/1 2/3/1 3/3/1
f 5/3/1 2/3/1 4/3/1
f 6/3/1 2/3/1 5/3/1
f 7/3/1 2/3/1 6/3/1
f 8/3/1 2/3/1 7/3/1
f 9/2/1 4/2/1 3/2/1
f 10/3/1 5/3/1 4/3/1
f 10/2/1 4/2/1 9/2/1
f 11/2/1 6/2/1 5/2/1
f 11/3/1 5/3/1 10/3/1
f 12/3/1 7/3/1 6/3/1
f 12/2/1 6/2/1 11/2/1
f 13/2/1 8/2/1 7/2/1
f 13/3/1 7/3/1 12/3/1
f 14/2/1 8/2/1 13/2/1
f 19/1/1 16/1/1 15/1/1
f 20/1/1 16/1/1 19/1/1
f 21/1/1 18/1/1 17/1/1
f 22/1/1 18/1/1 21/1/1
f 23/3/1 20/3/1 19/3/1
f 24/3/1 20/3/1 23/3/1
f 25/3/1 22/3/1 21/3/1
f 26/3/1 22/3/1 25/3/1
f 27/1/1 24/1/1 23/1/1
f 28/1/1 24/1/1 27/1/1
f 29/1/1 26/1/1 25/1/1
f 30/1/1 26/1/1 29/1/1
f 35/1/1 32/1/1 31/1/1
f 36/1/1 32/1/1 35/1/1
f 37/1/1 34/1/1 33/1/1
f 38/1/1 34/1/1 37/1/1
f 39/3/1 36/3/1 35/3/1
f 40/3/1 36/3/1 39/3/1
f 41/3/1 38/3/1 37/3/1
f 42/3/1 38/3/1 41/3/1
f 43/1/1 40/1/1 39/1/1
f 44/1/1 40/1/1 43/1/1
f 45/1/1 42/1/1 41/1/1
f 46/1/1 42/1/1 45/1/1
f 47/1/2 48/1/2 51/1/2
f 51/1/2 48/1/2 52/1/2
f 49/1/2 50/1/2 53/1/2
f 53/1/2 50/1/2 54/1/2
f 51/3/2 52/3/2 55/3/2
f 55/3/2 52/3/2 56/3/2
f 53/3/2 54/3/2 57/3/2
f 57/3/2 54/3/2 58/3/2
f 55/1/2 56/1/2 59/1/2
f 59/1/2 56/1/2 60/1/2
f 57/1/2 58/1/2 61/1/2
f 61/1/2 58/1/2 62/1/2
f 63/1/2 64/1/2 67/1/2
f 67/1/2 64/1/2 68/1/2
f 65/1/2 66/1/2 69/1/2
f 69/1/2 66/1/2 70/1/2
f 67/3/2 68/3/2 71/3/2
f 71/3/2 68/3/2 72/3/2
f 69/3/2 70/3/2 73/3/2
f 73/3/2 70/3/2 74/3/2
f 71/1/2 72/1/2 75/1/2
f 75/1/2 72/1/2 76/1/2
f 73/1/2 74/1/2 77/1/2
f 77/1/2 74/1/2 78/1/2
f 79/3/2 80/3/2 81/3/2
f 81/3/2 80/3/2 82/3/2
f 82/3/2 80/3/2 83/3/2
f 83/3/2 80/3/2 84/3/2
f 84/3/2 80/3/2 85/3/2
f 85/3/2 80/3/2 86/3/2
f 81/2/2 82/2/2 87/2/2
f 82/3/2 83/3/2 88/3/2
f 87/2/2 82/2/2 88/2/2
f 83/2/2 84/2/2 89/2/2
f 88/3/2 83/3/2 89/3/2
f 84/3/2 85/3/2 90/3/2
f 89/2/2 84/2/2 90/2/2
f 85/2/2 86/2/2 91/2/2
f 90/3/2 85/3/2 91/3/2
f 91/2/2 86/2/2 92/2/2
f 96/3/3 94/3/3 93/3/3
f 97/2/3 95/2/3 94/2/3
f 97/3/3 94/3/3 96/3/3
f 98/2/3 95/2/3 97/2/3
f 103/1/3 100/1/3 99/1/3
f 104/3/3 101/3/3 100/3/3
f 104/1/3 100/1/3 103/1/3
f 105/1/3 102/1/3 101/1/3
f 105/3/3 101/3/3 104/3/3
f 106/1/3 102/1/3 105/1/3
f 111/1/3 108/1/3 107/1/3
f 112/3/3 109/3/3 108/3/3
f 112/1/3 108/1/3 111/1/3
f 113/1/3 110/1/3 109/1/3
f 113/3/3 109/3/3 112/3/3
f 114/1/3 110/1/3 113/1/3
f 119/1/3 116/1/3 115/1/3
f 120/3/3 117/3/3 116/3/3
f 120/1/3 116/1/3 119/1/3
f 121/1/3 118/1/3 117/1/3
f 121/3/3 117/3/3 120/3/3
f 122/1/3 118/1/3 121/1/3
f 127/1/3 124/1/3 123/1/3
f 128/3/3 125/3/3 124/3/3
f 128/1/3 124/1/3 127/1/3
f 129/1/3 126/1/3 125/1/3
f 129/3/3 125/3/3 128/3/3
f 130/1/3 126/1/3 129/1/3
f 131/1/4 132/1/4 135/1/4
f 132/3/4 133/3/4 136/3/4
f 135/1/4 132/1/4 136/1/4
f 133/1/4 134/1/4 137/1/4
f 136/3/4 133/3/4 137/3/4
f 137/1/4 134/1/4 138/1/4
f 139/1/4 140/1/4 143/1/4
f 140/3/4 141/3/4 144/3/4
f 143/1/4 140/1/4 144/1/4
f 141/1/4 142/1/4 145/1/4
f 144/3/4 141/3/4 145/3/4
f 145/1/4 142/1/4 146/1/4
f 147/1/4 148/1/4 151/1/4
f 148/3/4 149/3/4 152/3/4
f 151/1/4 148/1/4 152/1/4
f 149/1/4 150/1/4 153/1/4
f 152/3/4 149/3/4 153/3/4
f 153/1/4 150/1/4 154/1/4
f 155/1/4 156/1/4 159/1/4
f 156/3/4 157/3/4 160/3/4
f 159/1/4 156/1/4 160/1/4
f 157/1/4 158/1/4 161/1/4
f 160/3/4 157/3/4 161/3/4
f 161/1/4 158/1/4 162/1/4
f 163/3/4 164/3/4 166/3/4
f 164/2/4 165/2/4 167/2/4
f 166/3/4 164/3/4 167/3/4
f 167/2/4 165/2/4 168/2/4
f 173/1/5 170/1/5 169/1/5
f 174/1/5 170/1/5 173/1/5
f 175/1/5 172/1/5 171/1/5
f 176/1/5 172/1/5 175/1/5
f 181/1/5 178/1/5 177/1/5
f 182/1/5 178/1/5 181/1/5
f 183/1/5 180/1/5 179/1/5
f 184/1/5 180/1/5 183/1/5
f 187/3/5 186/3/5 185/3/5
f 188/3/5 186/3/5 187/3/5
f 189/3/5 186/3/5 188/3/5
f 190/3/5 186/3/5 189/3/5
f 191/3/5 187/3/5 185/3/5
f 192/3/5 189/3/5 188/3/5
f 193/3/5 189/3/5 192/3/5
f 194/3/5 186/3/5 190/3/5
f 195/3/5 193/3/5 192/3/5
f 195/3/5 194/3/5 193/3/5
f 195/3/5 191/3/5 185/3/5
f 195/3/5 192/3/5 191/3/5
f 196/3/5 194/3/5 195/3/5
f 197/3/5 194/3/5 196/3/5
f 198/3/5 186/3/5 194/3/5
f 198/3/5 194/3/5 197/3/5
f 199/3/5 195/3/5 185/3/5
f 200/3/5 197/3/5 196/3/5
f 201/3/5 197/3/5 200/3/5
f 202/3/5 186/3/5 198/3/5
f 203/3/5 199/3/5 185/3/5
f 203/3/5 202/3/5 201/3/5
f 203/3/5 201/3/5 200/3/5
f 203/3/5 200/3/5 199/3/5
f 204/3/5 186/3/5 202/3/5
f 204/3/5 202/3/5 203/3/5
f 205/2/6 206/2/6 207/2/6
f 207/2/6 206/2/6 208/2/6
f 207/3/6 208/3/6 209/3/6
f 209/3/6 208/3/6 210/3/6
f 209/2/6 210/2/6 211/2/6
f 211/2/6 210/2/6 212/2/6
f 211/3/6 212/3/6 213/3/6
f 213/3/6 212/3/6 214/3/6
f 213/2/6 214/2/6 215/2/6
f 215/2/6 214/2/6 216/2/6
