# MagicaVoxel @ Ephtracy

# group
o 

# material
mtllib book_green.mtl
usemtl palette

# normals
vn -1 0 0
vn 1 0 0
vn 0 0 1
vn 0 0 -1
vn 0 -1 0
vn 0 1 0

# texcoords
vt 0.00195313 0.5
vt 0.00585938 0.5
vt 0.0332031 0.5
vt 0.0371094 0.5

# verts
v -0.2 0 0.2
v -0.2 0 0.1
v -0.2 0 -0.2
v -0.2 0.1 0.2
v -0.2 0.1 0.1
v -0.2 0.2 0.2
v -0.2 0.2 0.1
v -0.2 0.5 0.2
v -0.2 0.5 0.1
v -0.2 0.5 -0.2
v -7.45058e-009 0 -0.1
v -7.45058e-009 0 -0.2
v -7.45058e-009 0.5 -0.1
v -7.45058e-009 0.5 -0.2
v -0.1 0 -0.1
v -0.1 0 -0.2
v -0.1 0.5 -0.1
v -0.1 0.5 -0.2
v 0.1 0 0.2
v 0.1 0 0.1
v 0.1 0 -0.2
v 0.1 0.1 0.2
v 0.1 0.1 0.1
v 0.1 0.2 0.2
v 0.1 0.2 0.1
v 0.1 0.5 0.2
v 0.1 0.5 0.1
v 0.1 0.5 -0.2
v -0.2 0 0.2
v -0.2 0.1 0.2
v -0.2 0.2 0.2
v -0.2 0.5 0.2
v 0.1 0 0.2
v 0.1 0.1 0.2
v 0.1 0.2 0.2
v 0.1 0.5 0.2
v -0.1 0 -0.1
v -0.1 0.5 -0.1
v -7.45058e-009 0 -0.1
v -7.45058e-009 0.5 -0.1
v -0.2 0 -0.2
v -0.2 0.5 -0.2
v -0.1 0 -0.2
v -0.1 0.5 -0.2
v -7.45058e-009 0 -0.2
v -7.45058e-009 0.5 -0.2
v 0.1 0 -0.2
v 0.1 0.5 -0.2
v -0.2 0 0.2
v 0.1 0 0.2
v -0.2 0 0.1
v -0.1 0 0.1
v -7.45058e-009 0 0.1
v 0.1 0 0.1
v -0.1 0 -0.1
v -7.45058e-009 0 -0.1
v -0.2 0 -0.2
v -0.1 0 -0.2
v -7.45058e-009 0 -0.2
v 0.1 0 -0.2
v -0.2 0.5 0.2
v 0.1 0.5 0.2
v -0.2 0.5 0.1
v -0.1 0.5 0.1
v -7.45058e-009 0.5 0.1
v 0.1 0.5 0.1
v -0.1 0.5 -0.1
v -7.45058e-009 0.5 -0.1
v -0.2 0.5 -0.2
v -0.1 0.5 -0.2
v -7.45058e-009 0.5 -0.2
v 0.1 0.5 -0.2

# faces
f 4/1/1 2/1/1 1/1/1
f 5/2/1 3/2/1 2/2/1
f 5/1/1 2/1/1 4/1/1
f 6/3/1 5/3/1 4/3/1
f 7/2/1 3/2/1 5/2/1
f 7/3/1 5/3/1 6/3/1
f 8/1/1 7/1/1 6/1/1
f 9/2/1 3/2/1 7/2/1
f 9/1/1 7/1/1 8/1/1
f 10/2/1 3/2/1 9/2/1
f 13/2/1 12/2/1 11/2/1
f 14/2/1 12/2/1 13/2/1
f 15/2/2 16/2/2 17/2/2
f 17/2/2 16/2/2 18/2/2
f 19/1/2 20/1/2 22/1/2
f 20/2/2 21/2/2 23/2/2
f 22/1/2 20/1/2 23/1/2
f 22/3/2 23/3/2 24/3/2
f 23/2/2 21/2/2 25/2/2
f 24/3/2 23/3/2 25/3/2
f 24/1/2 25/1/2 26/1/2
f 25/2/2 21/2/2 27/2/2
f 26/1/2 25/1/2 27/1/2
f 27/2/2 21/2/2 28/2/2
f 33/1/3 30/1/3 29/1/3
f 34/3/3 31/3/3 30/3/3
f 34/1/3 30/1/3 33/1/3
f 35/1/3 32/1/3 31/1/3
f 35/3/3 31/3/3 34/3/3
f 36/1/3 32/1/3 35/1/3
f 37/4/4 38/4/4 39/4/4
f 39/4/4 38/4/4 40/4/4
f 41/2/4 42/2/4 43/2/4
f 43/2/4 42/2/4 44/2/4
f 45/2/4 46/2/4 47/2/4
f 47/2/4 46/2/4 48/2/4
f 51/1/5 50/1/5 49/1/5
f 52/1/5 50/1/5 51/1/5
f 53/1/5 50/1/5 52/1/5
f 54/1/5 50/1/5 53/1/5
f 55/2/5 52/2/5 51/2/5
f 55/4/5 53/4/5 52/4/5
f 56/2/5 54/2/5 53/2/5
f 56/4/5 53/4/5 55/4/5
f 57/2/5 55/2/5 51/2/5
f 58/2/5 55/2/5 57/2/5
f 59/2/5 54/2/5 56/2/5
f 60/2/5 54/2/5 59/2/5
f 61/1/6 62/1/6 63/1/6
f 63/1/6 62/1/6 64/1/6
f 64/1/6 62/1/6 65/1/6
f 65/1/6 62/1/6 66/1/6
f 63/2/6 64/2/6 67/2/6
f 64/4/6 65/4/6 67/4/6
f 65/2/6 66/2/6 68/2/6
f 67/4/6 65/4/6 68/4/6
f 63/2/6 67/2/6 69/2/6
f 69/2/6 67/2/6 70/2/6
f 68/2/6 66/2/6 71/2/6
f 71/2/6 66/2/6 72/2/6
