# MagicaVoxel @ Ephtracy

# group
o 

# material
mtllib chest.mtl
usemtl palette

# normals
vn -1 0 0
vn 1 0 0
vn 0 0 1
vn 0 0 -1
vn 0 -1 0
vn 0 1 0

# texcoords
vt 0.00195313 0.5
vt 0.00976563 0.5
vt 0.302734 0.5

# verts
v -0.8 0 0.5
v -0.8 0 0.3
v -0.8 0 -0.3
v -0.8 0 -0.5
v -0.8 0.1 0.5
v -0.8 0.1 0.3
v -0.8 0.1 -0.3
v -0.8 0.1 -0.5
v -0.8 0.5 0.5
v -0.8 0.5 0.3
v -0.8 0.5 -0.3
v -0.8 0.5 -0.5
v -0.8 0.6 0.5
v -0.8 0.6 0.3
v -0.8 0.6 -0.3
v -0.8 0.6 -0.5
v -0.7 0 0.3
v -0.7 0 -0.3
v -0.7 0.1 0.4
v -0.7 0.1 0.3
v -0.7 0.1 0.2
v -0.7 0.1 0.1
v -0.7 0.1 1.49012e-008
v -0.7 0.1 -0.1
v -0.7 0.1 -0.2
v -0.7 0.1 -0.3
v -0.7 0.1 -0.4
v -0.7 0.5 0.4
v -0.7 0.5 0.3
v -0.7 0.5 0.2
v -0.7 0.5 0.1
v -0.7 0.5 1.49012e-008
v -0.7 0.5 -0.1
v -0.7 0.5 -0.2
v -0.7 0.5 -0.3
v -0.7 0.5 -0.4
v -0.7 0.6 0.3
v -0.7 0.6 -0.3
v 0.6 0 0.5
v 0.6 0 0.4
v 0.6 0 -0.4
v 0.6 0 -0.5
v 0.6 0.1 0.5
v 0.6 0.1 0.4
v 0.6 0.1 -0.4
v 0.6 0.1 -0.5
v 0.6 0.2 0.3
v 0.6 0.2 0.2
v 0.6 0.2 0.1
v 0.6 0.2 1.49012e-008
v 0.6 0.2 -0.1
v 0.6 0.2 -0.2
v 0.6 0.2 -0.3
v 0.6 0.5 0.5
v 0.6 0.5 0.4
v 0.6 0.5 0.3
v 0.6 0.5 0.2
v 0.6 0.5 0.1
v 0.6 0.5 1.49012e-008
v 0.6 0.5 -0.1
v 0.6 0.5 -0.2
v 0.6 0.5 -0.3
v 0.6 0.5 -0.4
v 0.6 0.5 -0.5
v 0.6 0.6 0.5
v 0.6 0.6 0.4
v 0.6 0.6 0.3
v 0.6 0.6 -0.3
v 0.6 0.6 -0.4
v 0.6 0.6 -0.5
v -0.6 0 0.5
v -0.6 0 0.4
v -0.6 0 -0.4
v -0.6 0 -0.5
v -0.6 0.1 0.5
v -0.6 0.1 0.4
v -0.6 0.1 -0.4
v -0.6 0.1 -0.5
v -0.6 0.2 0.3
v -0.6 0.2 0.2
v -0.6 0.2 0.1
v -0.6 0.2 1.49012e-008
v -0.6 0.2 -0.1
v -0.6 0.2 -0.2
v -0.6 0.2 -0.3
v -0.6 0.5 0.5
v -0.6 0.5 0.4
v -0.6 0.5 0.3
v -0.6 0.5 0.2
v -0.6 0.5 0.1
v -0.6 0.5 1.49012e-008
v -0.6 0.5 -0.1
v -0.6 0.5 -0.2
v -0.6 0.5 -0.3
v -0.6 0.5 -0.4
v -0.6 0.5 -0.5
v -0.6 0.6 0.5
v -0.6 0.6 0.4
v -0.6 0.6 0.3
v -0.6 0.6 -0.3
v -0.6 0.6 -0.4
v -0.6 0.6 -0.5
v 0.7 0 0.3
v 0.7 0 -0.3
v 0.7 0.1 0.4
v 0.7 0.1 0.3
v 0.7 0.1 0.2
v 0.7 0.1 0.1
v 0.7 0.1 1.49012e-008
v 0.7 0.1 -0.1
v 0.7 0.1 -0.2
v 0.7 0.1 -0.3
v 0.7 0.1 -0.4
v 0.7 0.5 0.4
v 0.7 0.5 0.3
v 0.7 0.5 0.2
v 0.7 0.5 0.1
v 0.7 0.5 1.49012e-008
v 0.7 0.5 -0.1
v 0.7 0.5 -0.2
v 0.7 0.5 -0.3
v 0.7 0.5 -0.4
v 0.7 0.6 0.3
v 0.7 0.6 -0.3
v 0.8 0 0.5
v 0.8 0 0.3
v 0.8 0 -0.3
v 0.8 0 -0.5
v 0.8 0.1 0.5
v 0.8 0.1 0.3
v 0.8 0.1 -0.3
v 0.8 0.1 -0.5
v 0.8 0.5 0.5
v 0.8 0.5 0.3
v 0.8 0.5 -0.3
v 0.8 0.5 -0.5
v 0.8 0.6 0.5
v 0.8 0.6 0.3
v 0.8 0.6 -0.3
v 0.8 0.6 -0.5
v -0.8 0 0.5
v -0.8 0.1 0.5
v -0.8 0.5 0.5
v -0.8 0.6 0.5
v -0.6 0 0.5
v -0.6 0.1 0.5
v -0.6 0.5 0.5
v -0.6 0.6 0.5
v 0.6 0 0.5
v 0.6 0.1 0.5
v 0.6 0.5 0.5
v 0.6 0.6 0.5
v 0.8 0 0.5
v 0.8 0.1 0.5
v 0.8 0.5 0.5
v 0.8 0.6 0.5
v -0.7 0.1 0.4
v -0.7 0.5 0.4
v -0.6 0 0.4
v -0.6 0.1 0.4
v -0.6 0.5 0.4
v -0.6 0.6 0.4
v -0.5 0.1 0.4
v -0.5 0.5 0.4
v -0.4 0.1 0.4
v -0.4 0.5 0.4
v -0.3 0.1 0.4
v -0.3 0.5 0.4
v -0.2 0.1 0.4
v -0.2 0.5 0.4
v -0.1 0.1 0.4
v -0.1 0.5 0.4
v -2.23517e-008 0.1 0.4
v -2.23517e-008 0.5 0.4
v 0.1 0.1 0.4
v 0.1 0.5 0.4
v 0.2 0.1 0.4
v 0.2 0.5 0.4
v 0.3 0.1 0.4
v 0.3 0.5 0.4
v 0.4 0.1 0.4
v 0.4 0.5 0.4
v 0.5 0.1 0.4
v 0.5 0.5 0.4
v 0.6 0 0.4
v 0.6 0.1 0.4
v 0.6 0.5 0.4
v 0.6 0.6 0.4
v 0.7 0.1 0.4
v 0.7 0.5 0.4
v -0.8 0 -0.3
v -0.8 0.1 -0.3
v -0.8 0.5 -0.3
v -0.8 0.6 -0.3
v -0.7 0 -0.3
v -0.7 0.1 -0.3
v -0.7 0.5 -0.3
v -0.7 0.6 -0.3
v -0.6 0.2 -0.3
v -0.6 0.5 -0.3
v -0.6 0.6 -0.3
v -0.5 0.2 -0.3
v -0.5 0.5 -0.3
v -0.4 0.2 -0.3
v -0.4 0.5 -0.3
v -0.3 0.2 -0.3
v -0.3 0.5 -0.3
v -0.2 0.2 -0.3
v -0.2 0.5 -0.3
v -0.1 0.2 -0.3
v -0.1 0.5 -0.3
v -2.23517e-008 0.2 -0.3
v -2.23517e-008 0.5 -0.3
v 0.1 0.2 -0.3
v 0.1 0.5 -0.3
v 0.2 0.2 -0.3
v 0.2 0.5 -0.3
v 0.3 0.2 -0.3
v 0.3 0.5 -0.3
v 0.4 0.2 -0.3
v 0.4 0.5 -0.3
v 0.5 0.2 -0.3
v 0.5 0.5 -0.3
v 0.6 0.2 -0.3
v 0.6 0.5 -0.3
v 0.6 0.6 -0.3
v 0.7 0 -0.3
v 0.7 0.1 -0.3
v 0.7 0.5 -0.3
v 0.7 0.6 -0.3
v 0.8 0 -0.3
v 0.8 0.1 -0.3
v 0.8 0.5 -0.3
v 0.8 0.6 -0.3
v -0.8 0 0.3
v -0.8 0.1 0.3
v -0.8 0.5 0.3
v -0.8 0.6 0.3
v -0.7 0 0.3
v -0.7 0.1 0.3
v -0.7 0.5 0.3
v -0.7 0.6 0.3
v -0.6 0.2 0.3
v -0.6 0.5 0.3
v -0.6 0.6 0.3
v -0.5 0.2 0.3
v -0.5 0.5 0.3
v -0.4 0.2 0.3
v -0.4 0.5 0.3
v -0.3 0.2 0.3
v -0.3 0.5 0.3
v -0.2 0.2 0.3
v -0.2 0.5 0.3
v -0.1 0.2 0.3
v -0.1 0.5 0.3
v -2.23517e-008 0.2 0.3
v -2.23517e-008 0.5 0.3
v 0.1 0.2 0.3
v 0.1 0.5 0.3
v 0.2 0.2 0.3
v 0.2 0.5 0.3
v 0.3 0.2 0.3
v 0.3 0.5 0.3
v 0.4 0.2 0.3
v 0.4 0.5 0.3
v 0.5 0.2 0.3
v 0.5 0.5 0.3
v 0.6 0.2 0.3
v 0.6 0.5 0.3
v 0.6 0.6 0.3
v 0.7 0 0.3
v 0.7 0.1 0.3
v 0.7 0.5 0.3
v 0.7 0.6 0.3
v 0.8 0 0.3
v 0.8 0.1 0.3
v 0.8 0.5 0.3
v 0.8 0.6 0.3
v -0.7 0.1 -0.4
v -0.7 0.5 -0.4
v -0.6 0 -0.4
v -0.6 0.1 -0.4
v -0.6 0.5 -0.4
v -0.6 0.6 -0.4
v -0.5 0.1 -0.4
v -0.5 0.5 -0.4
v -0.4 0.1 -0.4
v -0.4 0.5 -0.4
v -0.3 0.1 -0.4
v -0.3 0.5 -0.4
v -0.2 0.1 -0.4
v -0.2 0.5 -0.4
v -0.1 0.1 -0.4
v -0.1 0.5 -0.4
v -2.23517e-008 0.1 -0.4
v -2.23517e-008 0.5 -0.4
v 0.1 0.1 -0.4
v 0.1 0.5 -0.4
v 0.2 0.1 -0.4
v 0.2 0.5 -0.4
v 0.3 0.1 -0.4
v 0.3 0.5 -0.4
v 0.4 0.1 -0.4
v 0.4 0.5 -0.4
v 0.5 0.1 -0.4
v 0.5 0.5 -0.4
v 0.6 0 -0.4
v 0.6 0.1 -0.4
v 0.6 0.5 -0.4
v 0.6 0.6 -0.4
v 0.7 0.1 -0.4
v 0.7 0.5 -0.4
v -0.8 0 -0.5
v -0.8 0.1 -0.5
v -0.8 0.5 -0.5
v -0.8 0.6 -0.5
v -0.6 0 -0.5
v -0.6 0.1 -0.5
v -0.6 0.5 -0.5
v -0.6 0.6 -0.5
v 0.6 0 -0.5
v 0.6 0.1 -0.5
v 0.6 0.5 -0.5
v 0.6 0.6 -0.5
v 0.8 0 -0.5
v 0.8 0.1 -0.5
v 0.8 0.5 -0.5
v 0.8 0.6 -0.5
v -0.8 0 0.5
v -0.6 0 0.5
v 0.6 0 0.5
v 0.8 0 0.5
v -0.6 0 0.4
v 0.6 0 0.4
v -0.8 0 0.3
v -0.7 0 0.3
v -0.6 0 0.3
v 0.6 0 0.3
v 0.7 0 0.3
v 0.8 0 0.3
v -0.8 0 -0.3
v -0.7 0 -0.3
v -0.6 0 -0.3
v 0.6 0 -0.3
v 0.7 0 -0.3
v 0.8 0 -0.3
v -0.6 0 -0.4
v 0.6 0 -0.4
v -0.8 0 -0.5
v -0.6 0 -0.5
v 0.6 0 -0.5
v 0.8 0 -0.5
v -0.8 0.5 0.5
v -0.6 0.5 0.5
v 0.6 0.5 0.5
v 0.8 0.5 0.5
v -0.7 0.5 0.4
v -0.6 0.5 0.4
v 0.6 0.5 0.4
v 0.7 0.5 0.4
v -0.8 0.5 0.3
v -0.7 0.5 0.3
v 0.7 0.5 0.3
v 0.8 0.5 0.3
v -0.8 0.5 -0.3
v -0.7 0.5 -0.3
v 0.7 0.5 -0.3
v 0.8 0.5 -0.3
v -0.7 0.5 -0.4
v -0.6 0.5 -0.4
v 0.6 0.5 -0.4
v 0.7 0.5 -0.4
v -0.8 0.5 -0.5
v -0.6 0.5 -0.5
v 0.6 0.5 -0.5
v 0.8 0.5 -0.5
v -0.8 0.1 0.5
v -0.6 0.1 0.5
v 0.6 0.1 0.5
v 0.8 0.1 0.5
v -0.7 0.1 0.4
v -0.6 0.1 0.4
v 0.6 0.1 0.4
v 0.7 0.1 0.4
v -0.8 0.1 0.3
v -0.7 0.1 0.3
v 0.7 0.1 0.3
v 0.8 0.1 0.3
v -0.8 0.1 -0.3
v -0.7 0.1 -0.3
v 0.7 0.1 -0.3
v 0.8 0.1 -0.3
v -0.7 0.1 -0.4
v -0.6 0.1 -0.4
v 0.6 0.1 -0.4
v 0.7 0.1 -0.4
v -0.8 0.1 -0.5
v -0.6 0.1 -0.5
v 0.6 0.1 -0.5
v 0.8 0.1 -0.5
v -0.6 0.2 0.3
v -0.5 0.2 0.3
v -0.4 0.2 0.3
v -0.3 0.2 0.3
v -0.2 0.2 0.3
v -0.1 0.2 0.3
v -2.23517e-008 0.2 0.3
v 0.1 0.2 0.3
v 0.2 0.2 0.3
v 0.3 0.2 0.3
v 0.4 0.2 0.3
v 0.5 0.2 0.3
v 0.6 0.2 0.3
v -0.6 0.2 0.2
v 0.6 0.2 0.2
v -0.6 0.2 0.1
v 0.6 0.2 0.1
v -0.6 0.2 1.49012e-008
v 0.6 0.2 1.49012e-008
v -0.6 0.2 -0.1
v 0.6 0.2 -0.1
v -0.6 0.2 -0.2
v 0.6 0.2 -0.2
v -0.6 0.2 -0.3
v -0.5 0.2 -0.3
v -0.4 0.2 -0.3
v -0.3 0.2 -0.3
v -0.2 0.2 -0.3
v -0.1 0.2 -0.3
v -2.23517e-008 0.2 -0.3
v 0.1 0.2 -0.3
v 0.2 0.2 -0.3
v 0.3 0.2 -0.3
v 0.4 0.2 -0.3
v 0.5 0.2 -0.3
v 0.6 0.2 -0.3
v -0.8 0.6 0.5
v -0.6 0.6 0.5
v 0.6 0.6 0.5
v 0.8 0.6 0.5
v -0.6 0.6 0.4
v 0.6 0.6 0.4
v -0.8 0.6 0.3
v -0.7 0.6 0.3
v -0.6 0.6 0.3
v 0.6 0.6 0.3
v 0.7 0.6 0.3
v 0.8 0.6 0.3
v -0.8 0.6 -0.3
v -0.7 0.6 -0.3
v -0.6 0.6 -0.3
v 0.6 0.6 -0.3
v 0.7 0.6 -0.3
v 0.8 0.6 -0.3
v -0.6 0.6 -0.4
v 0.6 0.6 -0.4
v -0.8 0.6 -0.5
v -0.6 0.6 -0.5
v 0.6 0.6 -0.5
v 0.8 0.6 -0.5

# faces
f 5/1/1 2/1/1 1/1/1
f 6/1/1 2/1/1 5/1/1
f 7/1/1 4/1/1 3/1/1
f 8/1/1 4/1/1 7/1/1
f 13/1/1 10/1/1 9/1/1
f 14/1/1 10/1/1 13/1/1
f 15/1/1 12/1/1 11/1/1
f 16/1/1 12/1/1 15/1/1
f 20/1/1 18/1/1 17/1/1
f 21/1/1 18/1/1 20/1/1
f 22/1/1 18/1/1 21/1/1
f 23/1/1 18/1/1 22/1/1
f 24/1/1 18/1/1 23/1/1
f 25/1/1 18/1/1 24/1/1
f 26/1/1 18/1/1 25/1/1
f 28/1/1 20/1/1 19/1/1
f 29/3/1 21/3/1 20/3/1
f 29/1/1 20/1/1 28/1/1
f 30/2/1 22/2/1 21/2/1
f 30/3/1 21/3/1 29/3/1
f 31/3/1 23/3/1 22/3/1
f 31/2/1 22/2/1 30/2/1
f 32/2/1 24/2/1 23/2/1
f 32/3/1 23/3/1 31/3/1
f 33/3/1 25/3/1 24/3/1
f 33/2/1 24/2/1 32/2/1
f 34/2/1 26/2/1 25/2/1
f 34/3/1 25/3/1 33/3/1
f 35/1/1 27/1/1 26/1/1
f 35/2/1 26/2/1 34/2/1
f 36/1/1 27/1/1 35/1/1
f 37/1/1 34/1/1 33/1/1
f 37/1/1 35/1/1 34/1/1
f 37/1/1 33/1/1 32/1/1
f 37/1/1 32/1/1 31/1/1
f 37/1/1 31/1/1 30/1/1
f 37/1/1 30/1/1 29/1/1
f 38/1/1 35/1/1 37/1/1
f 43/1/1 40/1/1 39/1/1
f 44/1/1 40/1/1 43/1/1
f 45/1/1 42/1/1 41/1/1
f 46/1/1 42/1/1 45/1/1
f 56/2/1 48/2/1 47/2/1
f 57/3/1 49/3/1 48/3/1
f 57/2/1 48/2/1 56/2/1
f 58/2/1 50/2/1 49/2/1
f 58/3/1 49/3/1 57/3/1
f 59/3/1 51/3/1 50/3/1
f 59/2/1 50/2/1 58/2/1
f 60/2/1 52/2/1 51/2/1
f 60/3/1 51/3/1 59/3/1
f 61/3/1 53/3/1 52/3/1
f 61/2/1 52/2/1 60/2/1
f 62/3/1 53/3/1 61/3/1
f 65/1/1 55/1/1 54/1/1
f 66/1/1 55/1/1 65/1/1
f 67/1/1 57/1/1 56/1/1
f 67/1/1 58/1/1 57/1/1
f 67/1/1 59/1/1 58/1/1
f 67/1/1 62/1/1 61/1/1
f 67/1/1 61/1/1 60/1/1
f 67/1/1 60/1/1 59/1/1
f 68/1/1 62/1/1 67/1/1
f 69/1/1 64/1/1 63/1/1
f 70/1/1 64/1/1 69/1/1
f 71/1/2 72/1/2 75/1/2
f 75/1/2 72/1/2 76/1/2
f 73/1/2 74/1/2 77/1/2
f 77/1/2 74/1/2 78/1/2
f 79/3/2 80/3/2 88/3/2
f 80/2/2 81/2/2 89/2/2
f 88/3/2 80/3/2 89/3/2
f 81/3/2 82/3/2 90/3/2
f 89/2/2 81/2/2 90/2/2
f 82/2/2 83/2/2 91/2/2
f 90/3/2 82/3/2 91/3/2
f 83/3/2 84/3/2 92/3/2
f 91/2/2 83/2/2 92/2/2
f 84/2/2 85/2/2 93/2/2
f 92/3/2 84/3/2 93/3/2
f 93/2/2 85/2/2 94/2/2
f 86/1/2 87/1/2 97/1/2
f 97/1/2 87/1/2 98/1/2
f 88/1/2 89/1/2 99/1/2
f 89/1/2 90/1/2 99/1/2
f 90/1/2 91/1/2 99/1/2
f 93/1/2 94/1/2 99/1/2
f 92/1/2 93/1/2 99/1/2
f 91/1/2 92/1/2 99/1/2
f 99/1/2 94/1/2 100/1/2
f 95/1/2 96/1/2 101/1/2
f 101/1/2 96/1/2 102/1/2
f 103/1/2 104/1/2 106/1/2
f 106/1/2 104/1/2 107/1/2
f 107/1/2 104/1/2 108/1/2
f 108/1/2 104/1/2 109/1/2
f 109/1/2 104/1/2 110/1/2
f 110/1/2 104/1/2 111/1/2
f 111/1/2 104/1/2 112/1/2
f 105/1/2 106/1/2 114/1/2
f 106/2/2 107/2/2 115/2/2
f 114/1/2 106/1/2 115/1/2
f 107/3/2 108/3/2 116/3/2
f 115/2/2 107/2/2 116/2/2
f 108/2/2 109/2/2 117/2/2
f 116/3/2 108/3/2 117/3/2
f 109/3/2 110/3/2 118/3/2
f 117/2/2 109/2/2 118/2/2
f 110/2/2 111/2/2 119/2/2
f 118/3/2 110/3/2 119/3/2
f 111/3/2 112/3/2 120/3/2
f 119/2/2 111/2/2 120/2/2
f 112/1/2 113/1/2 121/1/2
f 120/3/2 112/3/2 121/3/2
f 121/1/2 113/1/2 122/1/2
f 119/1/2 120/1/2 123/1/2
f 120/1/2 121/1/2 123/1/2
f 118/1/2 119/1/2 123/1/2
f 117/1/2 118/1/2 123/1/2
f 116/1/2 117/1/2 123/1/2
f 115/1/2 116/1/2 123/1/2
f 123/1/2 121/1/2 124/1/2
f 125/1/2 126/1/2 129/1/2
f 129/1/2 126/1/2 130/1/2
f 127/1/2 128/1/2 131/1/2
f 131/1/2 128/1/2 132/1/2
f 133/1/2 134/1/2 137/1/2
f 137/1/2 134/1/2 138/1/2
f 135/1/2 136/1/2 139/1/2
f 139/1/2 136/1/2 140/1/2
f 145/1/3 142/1/3 141/1/3
f 146/1/3 142/1/3 145/1/3
f 147/1/3 144/1/3 143/1/3
f 148/1/3 144/1/3 147/1/3
f 153/1/3 150/1/3 149/1/3
f 154/1/3 150/1/3 153/1/3
f 155/1/3 152/1/3 151/1/3
f 156/1/3 152/1/3 155/1/3
f 160/1/3 158/1/3 157/1/3
f 161/1/3 158/1/3 160/1/3
f 163/1/3 160/1/3 159/1/3
f 163/2/3 161/2/3 160/2/3
f 164/1/3 162/1/3 161/1/3
f 164/2/3 161/2/3 163/2/3
f 165/1/3 163/1/3 159/1/3
f 165/3/3 164/3/3 163/3/3
f 166/1/3 162/1/3 164/1/3
f 166/3/3 164/3/3 165/3/3
f 167/1/3 165/1/3 159/1/3
f 167/2/3 166/2/3 165/2/3
f 168/1/3 162/1/3 166/1/3
f 168/2/3 166/2/3 167/2/3
f 169/1/3 167/1/3 159/1/3
f 169/3/3 168/3/3 167/3/3
f 170/1/3 162/1/3 168/1/3
f 170/3/3 168/3/3 169/3/3
f 171/1/3 169/1/3 159/1/3
f 171/2/3 170/2/3 169/2/3
f 172/1/3 162/1/3 170/1/3
f 172/2/3 170/2/3 171/2/3
f 173/1/3 171/1/3 159/1/3
f 173/3/3 172/3/3 171/3/3
f 174/1/3 162/1/3 172/1/3
f 174/3/3 172/3/3 173/3/3
f 175/1/3 173/1/3 159/1/3
f 175/2/3 174/2/3 173/2/3
f 176/1/3 162/1/3 174/1/3
f 176/2/3 174/2/3 175/2/3
f 177/1/3 175/1/3 159/1/3
f 177/3/3 176/3/3 175/3/3
f 178/1/3 162/1/3 176/1/3
f 178/3/3 176/3/3 177/3/3
f 179/1/3 177/1/3 159/1/3
f 179/2/3 178/2/3 177/2/3
f 180/1/3 162/1/3 178/1/3
f 180/2/3 178/2/3 179/2/3
f 181/1/3 179/1/3 159/1/3
f 181/3/3 180/3/3 179/3/3
f 182/1/3 162/1/3 180/1/3
f 182/3/3 180/3/3 181/3/3
f 183/1/3 181/1/3 159/1/3
f 183/2/3 182/2/3 181/2/3
f 184/1/3 162/1/3 182/1/3
f 184/2/3 182/2/3 183/2/3
f 185/1/3 183/1/3 159/1/3
f 186/3/3 184/3/3 183/3/3
f 186/1/3 183/1/3 185/1/3
f 187/1/3 162/1/3 184/1/3
f 187/3/3 184/3/3 186/3/3
f 188/1/3 162/1/3 187/1/3
f 189/1/3 187/1/3 186/1/3
f 190/1/3 187/1/3 189/1/3
f 195/1/3 192/1/3 191/1/3
f 196/1/3 192/1/3 195/1/3
f 197/1/3 194/1/3 193/1/3
f 198/1/3 194/1/3 197/1/3
f 202/3/3 200/3/3 199/3/3
f 203/1/3 201/1/3 200/1/3
f 203/3/3 200/3/3 202/3/3
f 204/2/3 203/2/3 202/2/3
f 205/1/3 201/1/3 203/1/3
f 205/2/3 203/2/3 204/2/3
f 206/3/3 205/3/3 204/3/3
f 207/1/3 201/1/3 205/1/3
f 207/3/3 205/3/3 206/3/3
f 208/2/3 207/2/3 206/2/3
f 209/1/3 201/1/3 207/1/3
f 209/2/3 207/2/3 208/2/3
f 210/3/3 209/3/3 208/3/3
f 211/1/3 201/1/3 209/1/3
f 211/3/3 209/3/3 210/3/3
f 212/2/3 211/2/3 210/2/3
f 213/1/3 201/1/3 211/1/3
f 213/2/3 211/2/3 212/2/3
f 214/3/3 213/3/3 212/3/3
f 215/1/3 201/1/3 213/1/3
f 215/3/3 213/3/3 214/3/3
f 216/2/3 215/2/3 214/2/3
f 217/1/3 201/1/3 215/1/3
f 217/2/3 215/2/3 216/2/3
f 218/3/3 217/3/3 216/3/3
f 219/1/3 201/1/3 217/1/3
f 219/3/3 217/3/3 218/3/3
f 220/2/3 219/2/3 218/2/3
f 221/1/3 201/1/3 219/1/3
f 221/2/3 219/2/3 220/2/3
f 222/3/3 221/3/3 220/3/3
f 223/1/3 201/1/3 221/1/3
f 223/3/3 221/3/3 222/3/3
f 224/2/3 223/2/3 222/2/3
f 225/1/3 201/1/3 223/1/3
f 225/2/3 223/2/3 224/2/3
f 226/1/3 201/1/3 225/1/3
f 231/1/3 228/1/3 227/1/3
f 232/1/3 228/1/3 231/1/3
f 233/1/3 230/1/3 229/1/3
f 234/1/3 230/1/3 233/1/3
f 235/1/4 236/1/4 239/1/4
f 239/1/4 236/1/4 240/1/4
f 237/1/4 238/1/4 241/1/4
f 241/1/4 238/1/4 242/1/4
f 243/2/4 244/2/4 246/2/4
f 244/1/4 245/1/4 247/1/4
f 246/2/4 244/2/4 247/2/4
f 246/3/4 247/3/4 248/3/4
f 247/1/4 245/1/4 249/1/4
f 248/3/4 247/3/4 249/3/4
f 248/2/4 249/2/4 250/2/4
f 249/1/4 245/1/4 251/1/4
f 250/2/4 249/2/4 251/2/4
f 250/3/4 251/3/4 252/3/4
f 251/1/4 245/1/4 253/1/4
f 252/3/4 251/3/4 253/3/4
f 252/2/4 253/2/4 254/2/4
f 253/1/4 245/1/4 255/1/4
f 254/2/4 253/2/4 255/2/4
f 254/3/4 255/3/4 256/3/4
f 255/1/4 245/1/4 257/1/4
f 256/3/4 255/3/4 257/3/4
f 256/2/4 257/2/4 258/2/4
f 257/1/4 245/1/4 259/1/4
f 258/2/4 257/2/4 259/2/4
f 258/3/4 259/3/4 260/3/4
f 259/1/4 245/1/4 261/1/4
f 260/3/4 259/3/4 261/3/4
f 260/2/4 261/2/4 262/2/4
f 261/1/4 245/1/4 263/1/4
f 262/2/4 261/2/4 263/2/4
f 262/3/4 263/3/4 264/3/4
f 263/1/4 245/1/4 265/1/4
f 264/3/4 263/3/4 265/3/4
f 264/2/4 265/2/4 266/2/4
f 265/1/4 245/1/4 267/1/4
f 266/2/4 265/2/4 267/2/4
f 266/3/4 267/3/4 268/3/4
f 267/1/4 245/1/4 269/1/4
f 268/3/4 267/3/4 269/3/4
f 269/1/4 245/1/4 270/1/4
f 271/1/4 272/1/4 275/1/4
f 275/1/4 272/1/4 276/1/4
f 273/1/4 274/1/4 277/1/4
f 277/1/4 274/1/4 278/1/4
f 279/1/4 280/1/4 282/1/4
f 282/1/4 280/1/4 283/1/4
f 281/1/4 282/1/4 285/1/4
f 282/3/4 283/3/4 285/3/4
f 283/1/4 284/1/4 286/1/4
f 285/3/4 283/3/4 286/3/4
f 281/1/4 285/1/4 287/1/4
f 285/2/4 286/2/4 287/2/4
f 286/1/4 284/1/4 288/1/4
f 287/2/4 286/2/4 288/2/4
f 281/1/4 287/1/4 289/1/4
f 287/3/4 288/3/4 289/3/4
f 288/1/4 284/1/4 290/1/4
f 289/3/4 288/3/4 290/3/4
f 281/1/4 289/1/4 291/1/4
f 289/2/4 290/2/4 291/2/4
f 290/1/4 284/1/4 292/1/4
f 291/2/4 290/2/4 292/2/4
f 281/1/4 291/1/4 293/1/4
f 291/3/4 292/3/4 293/3/4
f 292/1/4 284/1/4 294/1/4
f 293/3/4 292/3/4 294/3/4
f 281/1/4 293/1/4 295/1/4
f 293/2/4 294/2/4 295/2/4
f 294/1/4 284/1/4 296/1/4
f 295/2/4 294/2/4 296/2/4
f 281/1/4 295/1/4 297/1/4
f 295/3/4 296/3/4 297/3/4
f 296/1/4 284/1/4 298/1/4
f 297/3/4 296/3/4 298/3/4
f 281/1/4 297/1/4 299/1/4
f 297/2/4 298/2/4 299/2/4
f 298/1/4 284/1/4 300/1/4
f 299/2/4 298/2/4 300/2/4
f 281/1/4 299/1/4 301/1/4
f 299/3/4 300/3/4 301/3/4
f 300/1/4 284/1/4 302/1/4
f 301/3/4 300/3/4 302/3/4
f 281/1/4 301/1/4 303/1/4
f 301/2/4 302/2/4 303/2/4
f 302/1/4 284/1/4 304/1/4
f 303/2/4 302/2/4 304/2/4
f 281/1/4 303/1/4 305/1/4
f 303/3/4 304/3/4 305/3/4
f 304/1/4 284/1/4 306/1/4
f 305/3/4 304/3/4 306/3/4
f 281/1/4 305/1/4 307/1/4
f 305/2/4 306/2/4 308/2/4
f 307/1/4 305/1/4 308/1/4
f 306/1/4 284/1/4 309/1/4
f 308/2/4 306/2/4 309/2/4
f 309/1/4 284/1/4 310/1/4
f 308/1/4 309/1/4 311/1/4
f 311/1/4 309/1/4 312/1/4
f 313/1/4 314/1/4 317/1/4
f 317/1/4 314/1/4 318/1/4
f 315/1/4 316/1/4 319/1/4
f 319/1/4 316/1/4 320/1/4
f 321/1/4 322/1/4 325/1/4
f 325/1/4 322/1/4 326/1/4
f 323/1/4 324/1/4 327/1/4
f 327/1/4 324/1/4 328/1/4
f 333/1/5 330/1/5 329/1/5
f 334/1/5 332/1/5 331/1/5
f 335/1/5 333/1/5 329/1/5
f 335/1/5 334/1/5 333/1/5
f 336/1/5 334/1/5 335/1/5
f 337/1/5 334/1/5 336/1/5
f 338/1/5 332/1/5 334/1/5
f 338/1/5 334/1/5 337/1/5
f 339/1/5 332/1/5 338/1/5
f 340/1/5 332/1/5 339/1/5
f 342/1/5 337/1/5 336/1/5
f 343/2/5 338/2/5 337/2/5
f 343/1/5 337/1/5 342/1/5
f 344/1/5 339/1/5 338/1/5
f 344/2/5 338/2/5 343/2/5
f 345/1/5 339/1/5 344/1/5
f 347/1/5 343/1/5 342/1/5
f 347/1/5 346/1/5 345/1/5
f 347/1/5 345/1/5 344/1/5
f 347/1/5 344/1/5 343/1/5
f 347/1/5 342/1/5 341/1/5
f 348/1/5 346/1/5 347/1/5
f 349/1/5 347/1/5 341/1/5
f 350/1/5 347/1/5 349/1/5
f 351/1/5 346/1/5 348/1/5
f 352/1/5 346/1/5 351/1/5
f 357/1/5 354/1/5 353/1/5
f 358/1/5 354/1/5 357/1/5
f 359/1/5 356/1/5 355/1/5
f 360/1/5 356/1/5 359/1/5
f 361/1/5 357/1/5 353/1/5
f 362/1/5 357/1/5 361/1/5
f 363/1/5 356/1/5 360/1/5
f 364/1/5 356/1/5 363/1/5
f 369/1/5 366/1/5 365/1/5
f 372/1/5 368/1/5 367/1/5
f 373/1/5 370/1/5 369/1/5
f 373/1/5 369/1/5 365/1/5
f 374/1/5 370/1/5 373/1/5
f 375/1/5 372/1/5 371/1/5
f 376/1/5 368/1/5 372/1/5
f 376/1/5 372/1/5 375/1/5
f 377/1/6 378/1/6 381/1/6
f 381/1/6 378/1/6 382/1/6
f 379/1/6 380/1/6 383/1/6
f 383/1/6 380/1/6 384/1/6
f 377/1/6 381/1/6 385/1/6
f 385/1/6 381/1/6 386/1/6
f 384/1/6 380/1/6 387/1/6
f 387/1/6 380/1/6 388/1/6
f 389/1/6 390/1/6 393/1/6
f 391/1/6 392/1/6 396/1/6
f 393/1/6 394/1/6 397/1/6
f 389/1/6 393/1/6 397/1/6
f 397/1/6 394/1/6 398/1/6
f 395/1/6 396/1/6 399/1/6
f 396/1/6 392/1/6 400/1/6
f 399/1/6 396/1/6 400/1/6
f 401/2/6 402/2/6 414/2/6
f 412/2/6 413/2/6 414/2/6
f 411/2/6 412/2/6 414/2/6
f 410/2/6 411/2/6 414/2/6
f 409/2/6 410/2/6 414/2/6
f 408/2/6 409/2/6 414/2/6
f 407/2/6 408/2/6 414/2/6
f 406/2/6 407/2/6 414/2/6
f 405/2/6 406/2/6 414/2/6
f 404/2/6 405/2/6 414/2/6
f 403/2/6 404/2/6 414/2/6
f 402/2/6 403/2/6 414/2/6
f 414/2/6 413/2/6 415/2/6
f 414/2/6 415/2/6 416/2/6
f 416/2/6 415/2/6 417/2/6
f 416/2/6 417/2/6 418/2/6
f 418/2/6 417/2/6 419/2/6
f 418/2/6 419/2/6 420/2/6
f 420/2/6 419/2/6 421/2/6
f 420/2/6 421/2/6 422/2/6
f 422/2/6 421/2/6 423/2/6
f 422/2/6 423/2/6 424/2/6
f 424/2/6 423/2/6 425/2/6
f 425/2/6 423/2/6 426/2/6
f 426/2/6 423/2/6 427/2/6
f 427/2/6 423/2/6 428/2/6
f 428/2/6 423/2/6 429/2/6
f 429/2/6 423/2/6 430/2/6
f 430/2/6 423/2/6 431/2/6
f 431/2/6 423/2/6 432/2/6
f 432/2/6 423/2/6 433/2/6
f 433/2/6 423/2/6 434/2/6
f 434/2/6 423/2/6 435/2/6
f 435/2/6 423/2/6 436/2/6
f 437/1/6 438/1/6 441/1/6
f 439/1/6 440/1/6 442/1/6
f 437/1/6 441/1/6 443/1/6
f 441/1/6 442/1/6 443/1/6
f 443/1/6 442/1/6 444/1/6
f 444/1/6 442/1/6 445/1/6
f 442/1/6 440/1/6 446/1/6
f 445/1/6 442/1/6 446/1/6
f 446/1/6 440/1/6 447/1/6
f 447/1/6 440/1/6 448/1/6
f 444/1/6 445/1/6 450/1/6
f 450/1/6 445/1/6 451/1/6
f 446/1/6 447/1/6 452/1/6
f 452/1/6 447/1/6 453/1/6
f 450/1/6 451/1/6 455/1/6
f 453/1/6 454/1/6 455/1/6
f 452/1/6 453/1/6 455/1/6
f 451/1/6 452/1/6 455/1/6
f 449/1/6 450/1/6 455/1/6
f 455/1/6 454/1/6 456/1/6
f 449/1/6 455/1/6 457/1/6
f 457/1/6 455/1/6 458/1/6
f 456/1/6 454/1/6 459/1/6
f 459/1/6 454/1/6 460/1/6
