# MagicaVoxel @ Ephtracy

# group
o 

# material
mtllib key.mtl
usemtl palette

# normals
vn -1 0 0
vn 1 0 0
vn 0 0 1
vn 0 0 -1
vn 0 -1 0
vn 0 1 0

# texcoords
vt 0.00195313 0.5
vt 0.0214844 0.5

# verts
v -0.4 0 0
v -0.4 0 -0.1
v -0.4 0.1 0
v -0.4 0.1 -0.1
v -0.3 0 0.1
v -0.3 0 0
v -0.3 0.1 0.1
v -0.3 0.1 0
v -0.1 0 0.1
v -0.1 0 0
v -0.1 0.1 0.1
v -0.1 0.1 0
v 0.1 0 0.1
v 0.1 0 0
v 0.1 0 -0.1
v 0.1 0 -0.2
v 0.1 0.1 0.1
v 0.1 0.1 0
v 0.1 0.1 -0.1
v 0.1 0.1 -0.2
v 0.3 0 0
v 0.3 0 -0.1
v 0.3 0.1 0
v 0.3 0.1 -0.1
v -0.2 0 0.1
v -0.2 0 0
v -0.2 0.1 0.1
v -0.2 0.1 0
v 7.45058e-009 0 0.1
v 7.45058e-009 0 0
v 7.45058e-009 0.1 0.1
v 7.45058e-009 0.1 0
v 0.2 0 0
v 0.2 0 -0.1
v 0.2 0.1 0
v 0.2 0.1 -0.1
v 0.4 0 0.1
v 0.4 0 0
v 0.4 0 -0.1
v 0.4 0 -0.2
v 0.4 0.1 0.1
v 0.4 0.1 0
v 0.4 0.1 -0.1
v 0.4 0.1 -0.2
v 0.5 0 0
v 0.5 0 -0.1
v 0.5 0.1 0
v 0.5 0.1 -0.1
v -0.3 0 0.1
v -0.3 0.1 0.1
v -0.2 0 0.1
v -0.2 0.1 0.1
v -0.1 0 0.1
v -0.1 0.1 0.1
v 7.45058e-009 0 0.1
v 7.45058e-009 0.1 0.1
v 0.1 0 0.1
v 0.1 0.1 0.1
v 0.4 0 0.1
v 0.4 0.1 0.1
v -0.4 0 0
v -0.4 0.1 0
v -0.3 0 0
v -0.3 0.1 0
v -0.2 0 0
v -0.2 0.1 0
v -0.1 0 0
v -0.1 0.1 0
v 7.45058e-009 0 0
v 7.45058e-009 0.1 0
v 0.1 0 0
v 0.1 0.1 0
v 0.4 0 0
v 0.4 0.1 0
v 0.5 0 0
v 0.5 0.1 0
v 0.2 0 -0.1
v 0.2 0.1 -0.1
v 0.3 0 -0.1
v 0.3 0.1 -0.1
v 0.2 0 0
v 0.2 0.1 0
v 0.3 0 0
v 0.3 0.1 0
v -0.4 0 -0.1
v -0.4 0.1 -0.1
v 0.1 0 -0.1
v 0.1 0.1 -0.1
v 0.4 0 -0.1
v 0.4 0.1 -0.1
v 0.5 0 -0.1
v 0.5 0.1 -0.1
v 0.1 0 -0.2
v 0.1 0.1 -0.2
v 0.4 0 -0.2
v 0.4 0.1 -0.2
v -0.3 0 0.1
v -0.2 0 0.1
v -0.1 0 0.1
v 7.45058e-009 0 0.1
v 0.1 0 0.1
v 0.4 0 0.1
v -0.4 0 0
v -0.3 0 0
v -0.2 0 0
v -0.1 0 0
v 7.45058e-009 0 0
v 0.1 0 0
v 0.2 0 0
v 0.3 0 0
v 0.4 0 0
v 0.5 0 0
v -0.4 0 -0.1
v 0.1 0 -0.1
v 0.2 0 -0.1
v 0.3 0 -0.1
v 0.4 0 -0.1
v 0.5 0 -0.1
v 0.1 0 -0.2
v 0.4 0 -0.2
v -0.3 0.1 0.1
v -0.2 0.1 0.1
v -0.1 0.1 0.1
v 7.45058e-009 0.1 0.1
v 0.1 0.1 0.1
v 0.4 0.1 0.1
v -0.4 0.1 0
v -0.3 0.1 0
v -0.2 0.1 0
v -0.1 0.1 0
v 7.45058e-009 0.1 0
v 0.1 0.1 0
v 0.2 0.1 0
v 0.3 0.1 0
v 0.4 0.1 0
v 0.5 0.1 0
v -0.4 0.1 -0.1
v 0.1 0.1 -0.1
v 0.2 0.1 -0.1
v 0.3 0.1 -0.1
v 0.4 0.1 -0.1
v 0.5 0.1 -0.1
v 0.1 0.1 -0.2
v 0.4 0.1 -0.2

# faces
f 3/2/1 2/2/1 1/2/1
f 4/2/1 2/2/1 3/2/1
f 7/2/1 6/2/1 5/2/1
f 8/2/1 6/2/1 7/2/1
f 11/1/1 10/1/1 9/1/1
f 12/1/1 10/1/1 11/1/1
f 17/1/1 14/1/1 13/1/1
f 18/1/1 14/1/1 17/1/1
f 19/2/1 16/2/1 15/2/1
f 20/2/1 16/2/1 19/2/1
f 23/1/1 22/1/1 21/1/1
f 24/1/1 22/1/1 23/1/1
f 25/2/2 26/2/2 27/2/2
f 27/2/2 26/2/2 28/2/2
f 29/1/2 30/1/2 31/1/2
f 31/1/2 30/1/2 32/1/2
f 33/2/2 34/2/2 35/2/2
f 35/2/2 34/2/2 36/2/2
f 37/1/2 38/1/2 41/1/2
f 41/1/2 38/1/2 42/1/2
f 39/2/2 40/2/2 43/2/2
f 43/2/2 40/2/2 44/2/2
f 45/2/2 46/2/2 47/2/2
f 47/2/2 46/2/2 48/2/2
f 51/2/3 50/2/3 49/2/3
f 52/2/3 50/2/3 51/2/3
f 55/1/3 54/1/3 53/1/3
f 56/1/3 54/1/3 55/1/3
f 59/1/3 58/1/3 57/1/3
f 60/1/3 58/1/3 59/1/3
f 63/2/3 62/2/3 61/2/3
f 64/2/3 62/2/3 63/2/3
f 67/2/3 66/2/3 65/2/3
f 68/2/3 66/2/3 67/2/3
f 71/2/3 70/2/3 69/2/3
f 72/2/3 70/2/3 71/2/3
f 75/2/3 74/2/3 73/2/3
f 76/2/3 74/2/3 75/2/3
f 79/2/3 78/2/3 77/2/3
f 80/2/3 78/2/3 79/2/3
f 81/1/4 82/1/4 83/1/4
f 83/1/4 82/1/4 84/1/4
f 85/2/4 86/2/4 87/2/4
f 87/2/4 86/2/4 88/2/4
f 89/2/4 90/2/4 91/2/4
f 91/2/4 90/2/4 92/2/4
f 93/2/4 94/2/4 95/2/4
f 95/2/4 94/2/4 96/2/4
f 104/2/5 98/2/5 97/2/5
f 105/2/5 98/2/5 104/2/5
f 106/1/5 100/1/5 99/1/5
f 107/1/5 100/1/5 106/1/5
f 108/1/5 102/1/5 101/1/5
f 109/1/5 102/1/5 108/1/5
f 110/1/5 102/1/5 109/1/5
f 111/1/5 102/1/5 110/1/5
f 113/2/5 107/2/5 106/2/5
f 113/2/5 105/2/5 104/2/5
f 113/2/5 104/2/5 103/2/5
f 113/2/5 109/2/5 108/2/5
f 113/2/5 108/2/5 107/2/5
f 113/2/5 106/2/5 105/2/5
f 114/2/5 109/2/5 113/2/5
f 115/2/5 109/2/5 114/2/5
f 116/1/5 111/1/5 110/1/5
f 117/2/5 112/2/5 111/2/5
f 117/1/5 111/1/5 116/1/5
f 118/2/5 112/2/5 117/2/5
f 119/2/5 116/2/5 115/2/5
f 119/2/5 115/2/5 114/2/5
f 119/2/5 117/2/5 116/2/5
f 120/2/5 117/2/5 119/2/5
f 121/2/6 122/2/6 128/2/6
f 128/2/6 122/2/6 129/2/6
f 123/1/6 124/1/6 130/1/6
f 130/1/6 124/1/6 131/1/6
f 125/1/6 126/1/6 132/1/6
f 132/1/6 126/1/6 133/1/6
f 133/1/6 126/1/6 134/1/6
f 134/1/6 126/1/6 135/1/6
f 130/2/6 131/2/6 137/2/6
f 128/2/6 129/2/6 137/2/6
f 127/2/6 128/2/6 137/2/6
f 132/2/6 133/2/6 137/2/6
f 131/2/6 132/2/6 137/2/6
f 129/2/6 130/2/6 137/2/6
f 137/2/6 133/2/6 138/2/6
f 138/2/6 133/2/6 139/2/6
f 134/1/6 135/1/6 140/1/6
f 135/2/6 136/2/6 141/2/6
f 140/1/6 135/1/6 141/1/6
f 141/2/6 136/2/6 142/2/6
f 139/2/6 140/2/6 143/2/6
f 138/2/6 139/2/6 143/2/6
f 140/2/6 141/2/6 143/2/6
f 143/2/6 141/2/6 144/2/6
