# MagicaVoxel @ Ephtracy

# group
o 

# material
mtllib mug.mtl
usemtl palette

# normals
vn -1 0 0
vn 1 0 0
vn 0 0 1
vn 0 0 -1
vn 0 -1 0
vn 0 1 0

# texcoords
vt 0.0253906 0.5
vt 0.0292969 0.5
vt 0.0332031 0.5
vt 0.0371094 0.5

# verts
v -0.2 0 0.3
v -0.2 0 0.1
v -0.2 0.1 0.3
v -0.2 0.1 0.2
v -0.2 0.1 0.1
v -0.2 0.3 0.3
v -0.2 0.3 0.2
v -0.2 0.3 0.1
v -0.2 0.4 0.3
v -0.2 0.4 0.1
v -0.1 0 0.4
v -0.1 0 0.3
v -0.1 0 0.1
v -0.1 0 -7.45058e-009
v -0.1 0 -0.1
v -0.1 0.1 0.4
v -0.1 0.1 0.3
v -0.1 0.1 0.1
v -0.1 0.1 -7.45058e-009
v -0.1 0.1 -0.1
v -0.1 0.1 -0.2
v -0.1 0.2 -0.1
v -0.1 0.2 -0.2
v -0.1 0.3 0.4
v -0.1 0.3 0.3
v -0.1 0.3 0.1
v -0.1 0.3 -7.45058e-009
v -0.1 0.3 -0.1
v -0.1 0.3 -0.2
v -0.1 0.4 0.4
v -0.1 0.4 0.3
v -0.1 0.4 0.1
v -0.1 0.4 -7.45058e-009
v -0.1 0.4 -0.1
v 0.1 0.1 0.3
v 0.1 0.1 0.2
v 0.1 0.1 0.1
v 0.1 0.3 0.3
v 0.1 0.3 0.2
v 0.1 0.3 0.1
v 0.1 0.4 0.3
v 0.1 0.4 0.1
v -0.1 0.1 0.3
v -0.1 0.1 0.2
v -0.1 0.1 0.1
v -0.1 0.3 0.3
v -0.1 0.3 0.2
v -0.1 0.3 0.1
v -0.1 0.4 0.3
v -0.1 0.4 0.1
v 0.1 0 0.4
v 0.1 0 0.3
v 0.1 0 0.1
v 0.1 0 -7.45058e-009
v 0.1 0 -0.1
v 0.1 0.1 0.4
v 0.1 0.1 0.3
v 0.1 0.1 0.1
v 0.1 0.1 -7.45058e-009
v 0.1 0.1 -0.1
v 0.1 0.1 -0.2
v 0.1 0.2 -0.1
v 0.1 0.2 -0.2
v 0.1 0.3 0.4
v 0.1 0.3 0.3
v 0.1 0.3 0.1
v 0.1 0.3 -7.45058e-009
v 0.1 0.3 -0.1
v 0.1 0.3 -0.2
v 0.1 0.4 0.4
v 0.1 0.4 0.3
v 0.1 0.4 0.1
v 0.1 0.4 -7.45058e-009
v 0.1 0.4 -0.1
v 0.2 0 0.3
v 0.2 0 0.1
v 0.2 0.1 0.3
v 0.2 0.1 0.2
v 0.2 0.1 0.1
v 0.2 0.3 0.3
v 0.2 0.3 0.2
v 0.2 0.3 0.1
v 0.2 0.4 0.3
v 0.2 0.4 0.1
v -0.1 0 0.4
v -0.1 0.1 0.4
v -0.1 0.3 0.4
v -0.1 0.4 0.4
v -7.45058e-009 0.1 0.4
v -7.45058e-009 0.3 0.4
v 0.1 0 0.4
v 0.1 0.1 0.4
v 0.1 0.3 0.4
v 0.1 0.4 0.4
v -0.2 0 0.3
v -0.2 0.1 0.3
v -0.2 0.3 0.3
v -0.2 0.4 0.3
v -0.1 0 0.3
v -0.1 0.1 0.3
v -0.1 0.3 0.3
v -0.1 0.4 0.3
v 0.1 0 0.3
v 0.1 0.1 0.3
v 0.1 0.3 0.3
v 0.1 0.4 0.3
v 0.2 0 0.3
v 0.2 0.1 0.3
v 0.2 0.3 0.3
v 0.2 0.4 0.3
v -0.1 0.1 0.1
v -0.1 0.3 0.1
v -0.1 0.4 0.1
v -7.45058e-009 0.1 0.1
v -7.45058e-009 0.3 0.1
v 0.1 0.1 0.1
v 0.1 0.3 0.1
v 0.1 0.4 0.1
v -0.1 0.1 -0.1
v -0.1 0.2 -0.1
v -0.1 0.3 -0.1
v 0.1 0.1 -0.1
v 0.1 0.2 -0.1
v 0.1 0.3 -0.1
v -0.1 0.1 0.3
v -0.1 0.3 0.3
v -0.1 0.4 0.3
v -7.45058e-009 0.1 0.3
v -7.45058e-009 0.3 0.3
v 0.1 0.1 0.3
v 0.1 0.3 0.3
v 0.1 0.4 0.3
v -0.2 0 0.1
v -0.2 0.1 0.1
v -0.2 0.3 0.1
v -0.2 0.4 0.1
v -0.1 0 0.1
v -0.1 0.1 0.1
v -0.1 0.3 0.1
v -0.1 0.4 0.1
v 0.1 0 0.1
v 0.1 0.1 0.1
v 0.1 0.3 0.1
v 0.1 0.4 0.1
v 0.2 0 0.1
v 0.2 0.1 0.1
v 0.2 0.3 0.1
v 0.2 0.4 0.1
v -0.1 0.1 -7.45058e-009
v -0.1 0.3 -7.45058e-009
v -7.45058e-009 0.1 -7.45058e-009
v -7.45058e-009 0.3 -7.45058e-009
v 0.1 0.1 -7.45058e-009
v 0.1 0.3 -7.45058e-009
v -0.1 0 -0.1
v -0.1 0.1 -0.1
v -0.1 0.3 -0.1
v -0.1 0.4 -0.1
v 0.1 0 -0.1
v 0.1 0.1 -0.1
v 0.1 0.3 -0.1
v 0.1 0.4 -0.1
v -0.1 0.1 -0.2
v -0.1 0.2 -0.2
v -0.1 0.3 -0.2
v 0.1 0.1 -0.2
v 0.1 0.2 -0.2
v 0.1 0.3 -0.2
v -0.1 0 0.4
v 0.1 0 0.4
v -0.2 0 0.3
v -0.1 0 0.3
v 0.1 0 0.3
v 0.2 0 0.3
v -0.2 0 0.1
v -0.1 0 0.1
v 0.1 0 0.1
v 0.2 0 0.1
v -0.1 0 -7.45058e-009
v 0.1 0 -7.45058e-009
v -0.1 0 -0.1
v 0.1 0 -0.1
v -0.1 0.1 -0.1
v 0.1 0.1 -0.1
v -0.1 0.1 -0.2
v 0.1 0.1 -0.2
v -0.1 0.3 -7.45058e-009
v -7.45058e-009 0.3 -7.45058e-009
v 0.1 0.3 -7.45058e-009
v -0.1 0.3 -0.1
v 0.1 0.3 -0.1
v -0.1 0.1 0.3
v -7.45058e-009 0.1 0.3
v 0.1 0.1 0.3
v -0.1 0.1 0.2
v 0.1 0.1 0.2
v -0.1 0.1 0.1
v -7.45058e-009 0.1 0.1
v 0.1 0.1 0.1
v -0.1 0.1 -7.45058e-009
v -7.45058e-009 0.1 -7.45058e-009
v 0.1 0.1 -7.45058e-009
v -0.1 0.1 -0.1
v 0.1 0.1 -0.1
v -0.1 0.3 -0.1
v 0.1 0.3 -0.1
v -0.1 0.3 -0.2
v 0.1 0.3 -0.2
v -0.1 0.4 0.4
v 0.1 0.4 0.4
v -0.2 0.4 0.3
v -0.1 0.4 0.3
v 0.1 0.4 0.3
v 0.2 0.4 0.3
v -0.2 0.4 0.1
v -0.1 0.4 0.1
v 0.1 0.4 0.1
v 0.2 0.4 0.1
v -0.1 0.4 -7.45058e-009
v 0.1 0.4 -7.45058e-009
v -0.1 0.4 -0.1
v 0.1 0.4 -0.1

# faces
f 3/3/1 2/3/1 1/3/1
f 4/3/1 2/3/1 3/3/1
f 5/3/1 2/3/1 4/3/1
f 6/2/1 4/2/1 3/2/1
f 7/1/1 5/1/1 4/1/1
f 7/2/1 4/2/1 6/2/1
f 8/1/1 5/1/1 7/1/1
f 9/3/1 7/3/1 6/3/1
f 9/3/1 8/3/1 7/3/1
f 10/3/1 8/3/1 9/3/1
f 16/3/1 12/3/1 11/3/1
f 17/3/1 12/3/1 16/3/1
f 18/3/1 14/3/1 13/3/1
f 19/4/1 15/4/1 14/4/1
f 19/3/1 14/3/1 18/3/1
f 20/4/1 15/4/1 19/4/1
f 22/2/1 21/2/1 20/2/1
f 23/2/1 21/2/1 22/2/1
f 24/1/1 17/1/1 16/1/1
f 25/1/1 17/1/1 24/1/1
f 26/2/1 19/2/1 18/2/1
f 27/2/1 19/2/1 26/2/1
f 28/1/1 23/1/1 22/1/1
f 29/1/1 23/1/1 28/1/1
f 30/3/1 25/3/1 24/3/1
f 31/3/1 25/3/1 30/3/1
f 32/3/1 27/3/1 26/3/1
f 33/4/1 28/4/1 27/4/1
f 33/3/1 27/3/1 32/3/1
f 34/4/1 28/4/1 33/4/1
f 38/1/1 36/1/1 35/1/1
f 39/2/1 37/2/1 36/2/1
f 39/1/1 36/1/1 38/1/1
f 40/2/1 37/2/1 39/2/1
f 41/3/1 39/3/1 38/3/1
f 41/3/1 40/3/1 39/3/1
f 42/3/1 40/3/1 41/3/1
f 43/2/2 44/2/2 46/2/2
f 44/1/2 45/1/2 47/1/2
f 46/2/2 44/2/2 47/2/2
f 47/1/2 45/1/2 48/1/2
f 46/3/2 47/3/2 49/3/2
f 47/3/2 48/3/2 49/3/2
f 49/3/2 48/3/2 50/3/2
f 51/3/2 52/3/2 56/3/2
f 56/3/2 52/3/2 57/3/2
f 53/3/2 54/3/2 58/3/2
f 54/4/2 55/4/2 59/4/2
f 58/3/2 54/3/2 59/3/2
f 59/4/2 55/4/2 60/4/2
f 60/2/2 61/2/2 62/2/2
f 62/2/2 61/2/2 63/2/2
f 56/2/2 57/2/2 64/2/2
f 64/2/2 57/2/2 65/2/2
f 58/1/2 59/1/2 66/1/2
f 66/1/2 59/1/2 67/1/2
f 62/1/2 63/1/2 68/1/2
f 68/1/2 63/1/2 69/1/2
f 64/3/2 65/3/2 70/3/2
f 70/3/2 65/3/2 71/3/2
f 66/3/2 67/3/2 72/3/2
f 67/4/2 68/4/2 73/4/2
f 72/3/2 67/3/2 73/3/2
f 73/4/2 68/4/2 74/4/2
f 75/3/2 76/3/2 77/3/2
f 77/3/2 76/3/2 78/3/2
f 78/3/2 76/3/2 79/3/2
f 77/1/2 78/1/2 80/1/2
f 78/2/2 79/2/2 81/2/2
f 80/1/2 78/1/2 81/1/2
f 81/2/2 79/2/2 82/2/2
f 80/3/2 81/3/2 83/3/2
f 81/3/2 82/3/2 83/3/2
f 83/3/2 82/3/2 84/3/2
f 89/3/3 86/3/3 85/3/3
f 89/1/3 87/1/3 86/1/3
f 90/3/3 88/3/3 87/3/3
f 90/1/3 87/1/3 89/1/3
f 91/3/3 89/3/3 85/3/3
f 92/2/3 90/2/3 89/2/3
f 92/3/3 89/3/3 91/3/3
f 93/3/3 88/3/3 90/3/3
f 93/2/3 90/2/3 92/2/3
f 94/3/3 88/3/3 93/3/3
f 99/3/3 96/3/3 95/3/3
f 100/2/3 97/2/3 96/2/3
f 100/3/3 96/3/3 99/3/3
f 101/3/3 98/3/3 97/3/3
f 101/2/3 97/2/3 100/2/3
f 102/3/3 98/3/3 101/3/3
f 107/3/3 104/3/3 103/3/3
f 108/1/3 105/1/3 104/1/3
f 108/3/3 104/3/3 107/3/3
f 109/3/3 106/3/3 105/3/3
f 109/1/3 105/1/3 108/1/3
f 110/3/3 106/3/3 109/3/3
f 114/2/3 112/2/3 111/2/3
f 115/3/3 113/3/3 112/3/3
f 115/2/3 112/2/3 114/2/3
f 116/1/3 115/1/3 114/1/3
f 117/3/3 113/3/3 115/3/3
f 117/1/3 115/1/3 116/1/3
f 118/3/3 113/3/3 117/3/3
f 122/2/3 120/2/3 119/2/3
f 123/1/3 121/1/3 120/1/3
f 123/2/3 120/2/3 122/2/3
f 124/1/3 121/1/3 123/1/3
f 125/1/4 126/1/4 128/1/4
f 126/3/4 127/3/4 129/3/4
f 128/1/4 126/1/4 129/1/4
f 128/2/4 129/2/4 130/2/4
f 129/3/4 127/3/4 131/3/4
f 130/2/4 129/2/4 131/2/4
f 131/3/4 127/3/4 132/3/4
f 133/3/4 134/3/4 137/3/4
f 134/1/4 135/1/4 138/1/4
f 137/3/4 134/3/4 138/3/4
f 135/3/4 136/3/4 139/3/4
f 138/1/4 135/1/4 139/1/4
f 139/3/4 136/3/4 140/3/4
f 141/3/4 142/3/4 145/3/4
f 142/2/4 143/2/4 146/2/4
f 145/3/4 142/3/4 146/3/4
f 143/3/4 144/3/4 147/3/4
f 146/2/4 143/2/4 147/2/4
f 147/3/4 144/3/4 148/3/4
f 149/2/4 150/2/4 151/2/4
f 151/2/4 150/2/4 152/2/4
f 151/1/4 152/1/4 153/1/4
f 153/1/4 152/1/4 154/1/4
f 155/4/4 156/4/4 159/4/4
f 159/4/4 156/4/4 160/4/4
f 157/4/4 158/4/4 161/4/4
f 161/4/4 158/4/4 162/4/4
f 163/2/4 164/2/4 166/2/4
f 164/1/4 165/1/4 167/1/4
f 166/2/4 164/2/4 167/2/4
f 167/1/4 165/1/4 168/1/4
f 172/3/5 170/3/5 169/3/5
f 173/3/5 170/3/5 172/3/5
f 175/3/5 172/3/5 171/3/5
f 176/2/5 173/2/5 172/2/5
f 176/3/5 172/3/5 175/3/5
f 177/3/5 174/3/5 173/3/5
f 177/2/5 173/2/5 176/2/5
f 178/3/5 174/3/5 177/3/5
f 179/3/5 177/3/5 176/3/5
f 180/3/5 177/3/5 179/3/5
f 181/4/5 180/4/5 179/4/5
f 182/4/5 180/4/5 181/4/5
f 185/2/5 184/2/5 183/2/5
f 186/2/5 184/2/5 185/2/5
f 190/4/5 188/4/5 187/4/5
f 190/4/5 189/4/5 188/4/5
f 191/4/5 189/4/5 190/4/5
f 192/2/6 193/2/6 195/2/6
f 193/2/6 194/2/6 195/2/6
f 195/2/6 194/2/6 196/2/6
f 195/2/6 196/2/6 197/2/6
f 197/2/6 196/2/6 198/2/6
f 198/2/6 196/2/6 199/2/6
f 200/4/6 201/4/6 203/4/6
f 201/4/6 202/4/6 203/4/6
f 203/4/6 202/4/6 204/4/6
f 205/1/6 206/1/6 207/1/6
f 207/1/6 206/1/6 208/1/6
f 209/3/6 210/3/6 212/3/6
f 212/3/6 210/3/6 213/3/6
f 211/3/6 212/3/6 215/3/6
f 215/3/6 212/3/6 216/3/6
f 213/3/6 214/3/6 217/3/6
f 217/3/6 214/3/6 218/3/6
f 216/3/6 217/3/6 219/3/6
f 219/3/6 217/3/6 220/3/6
f 219/4/6 220/4/6 221/4/6
f 221/4/6 220/4/6 222/4/6
