# MagicaVoxel @ Ephtracy

# group
o 

# material
mtllib poison.mtl
usemtl palette

# normals
vn -1 0 0
vn 1 0 0
vn 0 0 1
vn 0 0 -1
vn 0 -1 0
vn 0 1 0

# texcoords
vt 0.0800781 0.5
vt 0.142578 0.5
vt 0.146484 0.5
vt 0.173828 0.5

# verts
v -0.3 0 0.2
v -0.3 0 -0.1
v -0.3 0.1 0.3
v -0.3 0.1 0.2
v -0.3 0.1 -0.1
v -0.3 0.1 -0.2
v -0.3 0.2 0.3
v -0.3 0.2 0.2
v -0.3 0.2 -0.1
v -0.3 0.2 -0.2
v -0.3 0.4 0.3
v -0.3 0.4 0.2
v -0.3 0.4 -0.1
v -0.3 0.4 -0.2
v -0.3 0.5 0.3
v -0.3 0.5 0.2
v -0.3 0.5 -0.1
v -0.3 0.5 -0.2
v -0.3 0.6 0.2
v -0.3 0.6 -0.1
v -0.2 0 0.3
v -0.2 0 0.2
v -0.2 0 -0.1
v -0.2 0 -0.2
v -0.2 0.1 0.3
v -0.2 0.1 0.2
v -0.2 0.1 -0.1
v -0.2 0.1 -0.2
v -0.2 0.5 0.3
v -0.2 0.5 0.2
v -0.2 0.5 -0.1
v -0.2 0.5 -0.2
v -0.2 0.6 0.3
v -0.2 0.6 0.2
v -0.2 0.6 -0.1
v -0.2 0.6 -0.2
v -0.2 0.7 0.2
v -0.2 0.7 -0.1
v -0.1 0.7 0.1
v -0.1 0.7 0
v -0.1 0.8 0.1
v -0.1 0.8 0
v 0.2 0.1 0.2
v 0.2 0.1 -0.1
v 0.2 0.3 0.2
v 0.2 0.3 -0.1
v 0.2 0.4 0.2
v 0.2 0.4 -0.1
v 0.2 0.5 0.2
v 0.2 0.5 -0.1
v -0.2 0.1 0.2
v -0.2 0.1 -0.1
v -0.2 0.3 0.2
v -0.2 0.3 -0.1
v -0.2 0.4 0.2
v -0.2 0.4 -0.1
v -0.2 0.5 0.2
v -0.2 0.5 -0.1
v 0.1 0.7 0.1
v 0.1 0.7 0
v 0.1 0.8 0.1
v 0.1 0.8 0
v 0.2 0 0.3
v 0.2 0 0.2
v 0.2 0 -0.1
v 0.2 0 -0.2
v 0.2 0.1 0.3
v 0.2 0.1 0.2
v 0.2 0.1 -0.1
v 0.2 0.1 -0.2
v 0.2 0.5 0.3
v 0.2 0.5 0.2
v 0.2 0.5 -0.1
v 0.2 0.5 -0.2
v 0.2 0.6 0.3
v 0.2 0.6 0.2
v 0.2 0.6 -0.1
v 0.2 0.6 -0.2
v 0.2 0.7 0.2
v 0.2 0.7 -0.1
v 0.3 0 0.2
v 0.3 0 -0.1
v 0.3 0.1 0.3
v 0.3 0.1 0.2
v 0.3 0.1 -0.1
v 0.3 0.1 -0.2
v 0.3 0.2 0.3
v 0.3 0.2 0.2
v 0.3 0.2 -0.1
v 0.3 0.2 -0.2
v 0.3 0.4 0.3
v 0.3 0.4 0.2
v 0.3 0.4 -0.1
v 0.3 0.4 -0.2
v 0.3 0.5 0.3
v 0.3 0.5 0.2
v 0.3 0.5 -0.1
v 0.3 0.5 -0.2
v 0.3 0.6 0.2
v 0.3 0.6 -0.1
v -0.3 0.1 0.3
v -0.3 0.2 0.3
v -0.3 0.4 0.3
v -0.3 0.5 0.3
v -0.2 0 0.3
v -0.2 0.1 0.3
v -0.2 0.2 0.3
v -0.2 0.3 0.3
v -0.2 0.4 0.3
v -0.2 0.5 0.3
v -0.2 0.6 0.3
v -0.1 0.1 0.3
v -0.1 0.2 0.3
v -0.1 0.3 0.3
v -0.1 0.4 0.3
v 0.1 0.1 0.3
v 0.1 0.2 0.3
v 0.1 0.3 0.3
v 0.1 0.4 0.3
v 0.2 0 0.3
v 0.2 0.1 0.3
v 0.2 0.2 0.3
v 0.2 0.3 0.3
v 0.2 0.4 0.3
v 0.2 0.5 0.3
v 0.2 0.6 0.3
v 0.3 0.1 0.3
v 0.3 0.2 0.3
v 0.3 0.4 0.3
v 0.3 0.5 0.3
v -0.3 0 0.2
v -0.3 0.1 0.2
v -0.3 0.5 0.2
v -0.3 0.6 0.2
v -0.2 0 0.2
v -0.2 0.1 0.2
v -0.2 0.5 0.2
v -0.2 0.6 0.2
v -0.2 0.7 0.2
v 0.2 0 0.2
v 0.2 0.1 0.2
v 0.2 0.5 0.2
v 0.2 0.6 0.2
v 0.2 0.7 0.2
v 0.3 0 0.2
v 0.3 0.1 0.2
v 0.3 0.5 0.2
v 0.3 0.6 0.2
v -0.1 0.7 0.1
v -0.1 0.8 0.1
v 0.1 0.7 0.1
v 0.1 0.8 0.1
v -0.2 0.1 -0.1
v -0.2 0.3 -0.1
v -0.2 0.4 -0.1
v -0.2 0.5 -0.1
v -0.1 0.1 -0.1
v -0.1 0.2 -0.1
v -0.1 0.3 -0.1
v -0.1 0.4 -0.1
v 0.1 0.1 -0.1
v 0.1 0.2 -0.1
v 0.1 0.3 -0.1
v 0.1 0.4 -0.1
v 0.2 0.1 -0.1
v 0.2 0.3 -0.1
v 0.2 0.4 -0.1
v 0.2 0.5 -0.1
v -0.2 0.1 0.2
v -0.2 0.3 0.2
v -0.2 0.4 0.2
v -0.2 0.5 0.2
v -0.1 0.1 0.2
v -0.1 0.2 0.2
v -0.1 0.3 0.2
v -0.1 0.4 0.2
v 0.1 0.1 0.2
v 0.1 0.2 0.2
v 0.1 0.3 0.2
v 0.1 0.4 0.2
v 0.2 0.1 0.2
v 0.2 0.3 0.2
v 0.2 0.4 0.2
v 0.2 0.5 0.2
v -0.1 0.7 0
v -0.1 0.8 0
v 0.1 0.7 0
v 0.1 0.8 0
v -0.3 0 -0.1
v -0.3 0.1 -0.1
v -0.3 0.5 -0.1
v -0.3 0.6 -0.1
v -0.2 0 -0.1
v -0.2 0.1 -0.1
v -0.2 0.5 -0.1
v -0.2 0.6 -0.1
v -0.2 0.7 -0.1
v 0.2 0 -0.1
v 0.2 0.1 -0.1
v 0.2 0.5 -0.1
v 0.2 0.6 -0.1
v 0.2 0.7 -0.1
v 0.3 0 -0.1
v 0.3 0.1 -0.1
v 0.3 0.5 -0.1
v 0.3 0.6 -0.1
v -0.3 0.1 -0.2
v -0.3 0.2 -0.2
v -0.3 0.4 -0.2
v -0.3 0.5 -0.2
v -0.2 0 -0.2
v -0.2 0.1 -0.2
v -0.2 0.2 -0.2
v -0.2 0.3 -0.2
v -0.2 0.4 -0.2
v -0.2 0.5 -0.2
v -0.2 0.6 -0.2
v -0.1 0.1 -0.2
v -0.1 0.2 -0.2
v -0.1 0.3 -0.2
v -0.1 0.4 -0.2
v 0.1 0.1 -0.2
v 0.1 0.2 -0.2
v 0.1 0.3 -0.2
v 0.1 0.4 -0.2
v 0.2 0 -0.2
v 0.2 0.1 -0.2
v 0.2 0.2 -0.2
v 0.2 0.3 -0.2
v 0.2 0.4 -0.2
v 0.2 0.5 -0.2
v 0.2 0.6 -0.2
v 0.3 0.1 -0.2
v 0.3 0.2 -0.2
v 0.3 0.4 -0.2
v 0.3 0.5 -0.2
v -0.2 0 0.3
v 0.2 0 0.3
v -0.3 0 0.2
v -0.2 0 0.2
v 0.2 0 0.2
v 0.3 0 0.2
v -0.3 0 -0.1
v -0.2 0 -0.1
v 0.2 0 -0.1
v 0.3 0 -0.1
v -0.2 0 -0.2
v 0.2 0 -0.2
v -0.3 0.1 0.3
v -0.2 0.1 0.3
v 0.2 0.1 0.3
v 0.3 0.1 0.3
v -0.3 0.1 0.2
v -0.2 0.1 0.2
v 0.2 0.1 0.2
v 0.3 0.1 0.2
v -0.3 0.1 -0.1
v -0.2 0.1 -0.1
v 0.2 0.1 -0.1
v 0.3 0.1 -0.1
v -0.3 0.1 -0.2
v -0.2 0.1 -0.2
v 0.2 0.1 -0.2
v 0.3 0.1 -0.2
v -0.2 0.5 0.2
v 0.2 0.5 0.2
v -0.2 0.5 -0.1
v 0.2 0.5 -0.1
v -0.2 0.1 0.2
v -0.1 0.1 0.2
v 0.1 0.1 0.2
v 0.2 0.1 0.2
v -0.2 0.1 -0.1
v -0.1 0.1 -0.1
v 0.1 0.1 -0.1
v 0.2 0.1 -0.1
v -0.3 0.5 0.3
v -0.2 0.5 0.3
v 0.2 0.5 0.3
v 0.3 0.5 0.3
v -0.3 0.5 0.2
v -0.2 0.5 0.2
v 0.2 0.5 0.2
v 0.3 0.5 0.2
v -0.3 0.5 -0.1
v -0.2 0.5 -0.1
v 0.2 0.5 -0.1
v 0.3 0.5 -0.1
v -0.3 0.5 -0.2
v -0.2 0.5 -0.2
v 0.2 0.5 -0.2
v 0.3 0.5 -0.2
v -0.2 0.6 0.3
v 0.2 0.6 0.3
v -0.3 0.6 0.2
v -0.2 0.6 0.2
v 0.2 0.6 0.2
v 0.3 0.6 0.2
v -0.3 0.6 -0.1
v -0.2 0.6 -0.1
v 0.2 0.6 -0.1
v 0.3 0.6 -0.1
v -0.2 0.6 -0.2
v 0.2 0.6 -0.2
v -0.2 0.7 0.2
v 0.2 0.7 0.2
v -0.1 0.7 0.1
v 0.1 0.7 0.1
v -0.1 0.7 0
v 0.1 0.7 0
v -0.2 0.7 -0.1
v 0.2 0.7 -0.1
v -0.1 0.8 0.1
v 0.1 0.8 0.1
v -0.1 0.8 0
v 0.1 0.8 0

# faces
f 4/2/1 2/2/1 1/2/1
f 5/2/1 2/2/1 4/2/1
f 7/2/1 4/2/1 3/2/1
f 8/1/1 5/1/1 4/1/1
f 8/2/1 4/2/1 7/2/1
f 9/2/1 6/2/1 5/2/1
f 9/1/1 5/1/1 8/1/1
f 10/2/1 6/2/1 9/2/1
f 11/1/1 8/1/1 7/1/1
f 11/1/1 9/1/1 8/1/1
f 11/1/1 10/1/1 9/1/1
f 12/1/1 10/1/1 11/1/1
f 13/1/1 10/1/1 12/1/1
f 14/1/1 10/1/1 13/1/1
f 15/2/1 12/2/1 11/2/1
f 16/1/1 13/1/1 12/1/1
f 16/2/1 12/2/1 15/2/1
f 17/2/1 14/2/1 13/2/1
f 17/1/1 13/1/1 16/1/1
f 18/2/1 14/2/1 17/2/1
f 19/2/1 17/2/1 16/2/1
f 20/2/1 17/2/1 19/2/1
f 25/2/1 22/2/1 21/2/1
f 26/2/1 22/2/1 25/2/1
f 27/2/1 24/2/1 23/2/1
f 28/2/1 24/2/1 27/2/1
f 33/2/1 30/2/1 29/2/1
f 34/2/1 30/2/1 33/2/1
f 35/2/1 32/2/1 31/2/1
f 36/2/1 32/2/1 35/2/1
f 37/3/1 35/3/1 34/3/1
f 38/3/1 35/3/1 37/3/1
f 41/4/1 40/4/1 39/4/1
f 42/4/1 40/4/1 41/4/1
f 45/1/1 44/1/1 43/1/1
f 46/1/1 44/1/1 45/1/1
f 47/1/1 46/1/1 45/1/1
f 48/1/1 46/1/1 47/1/1
f 49/1/1 48/1/1 47/1/1
f 50/1/1 48/1/1 49/1/1
f 51/1/2 52/1/2 53/1/2
f 53/1/2 52/1/2 54/1/2
f 53/1/2 54/1/2 55/1/2
f 55/1/2 54/1/2 56/1/2
f 55/1/2 56/1/2 57/1/2
f 57/1/2 56/1/2 58/1/2
f 59/4/2 60/4/2 61/4/2
f 61/4/2 60/4/2 62/4/2
f 63/2/2 64/2/2 67/2/2
f 67/2/2 64/2/2 68/2/2
f 65/2/2 66/2/2 69/2/2
f 69/2/2 66/2/2 70/2/2
f 71/2/2 72/2/2 75/2/2
f 75/2/2 72/2/2 76/2/2
f 73/2/2 74/2/2 77/2/2
f 77/2/2 74/2/2 78/2/2
f 76/3/2 77/3/2 79/3/2
f 79/3/2 77/3/2 80/3/2
f 81/2/2 82/2/2 84/2/2
f 84/2/2 82/2/2 85/2/2
f 83/2/2 84/2/2 87/2/2
f 84/1/2 85/1/2 88/1/2
f 87/2/2 84/2/2 88/2/2
f 85/2/2 86/2/2 89/2/2
f 88/1/2 85/1/2 89/1/2
f 89/2/2 86/2/2 90/2/2
f 87/1/2 88/1/2 91/1/2
f 88/1/2 89/1/2 91/1/2
f 89/1/2 90/1/2 91/1/2
f 91/1/2 90/1/2 92/1/2
f 92/1/2 90/1/2 93/1/2
f 93/1/2 90/1/2 94/1/2
f 91/2/2 92/2/2 95/2/2
f 92/1/2 93/1/2 96/1/2
f 95/2/2 92/2/2 96/2/2
f 93/2/2 94/2/2 97/2/2
f 96/1/2 93/1/2 97/1/2
f 97/2/2 94/2/2 98/2/2
f 96/2/2 97/2/2 99/2/2
f 99/2/2 97/2/2 100/2/2
f 106/2/3 102/2/3 101/2/3
f 107/1/3 103/1/3 102/1/3
f 107/2/3 102/2/3 106/2/3
f 108/1/3 103/1/3 107/1/3
f 109/2/3 104/2/3 103/2/3
f 109/1/3 103/1/3 108/1/3
f 110/2/3 104/2/3 109/2/3
f 112/1/3 108/1/3 107/1/3
f 112/2/3 106/2/3 105/2/3
f 112/1/3 107/1/3 106/1/3
f 113/1/3 108/1/3 112/1/3
f 114/3/3 109/3/3 108/3/3
f 114/1/3 108/1/3 113/1/3
f 115/1/3 110/1/3 109/1/3
f 115/3/3 109/3/3 114/3/3
f 116/3/3 113/3/3 112/3/3
f 116/2/3 112/2/3 105/2/3
f 117/1/3 114/1/3 113/1/3
f 117/3/3 113/3/3 116/3/3
f 117/1/3 115/1/3 114/1/3
f 118/1/3 115/1/3 117/1/3
f 119/1/3 110/1/3 115/1/3
f 119/1/3 115/1/3 118/1/3
f 120/2/3 116/2/3 105/2/3
f 121/1/3 118/1/3 117/1/3
f 121/2/3 116/2/3 120/2/3
f 121/1/3 117/1/3 116/1/3
f 122/1/3 118/1/3 121/1/3
f 123/3/3 119/3/3 118/3/3
f 123/1/3 118/1/3 122/1/3
f 124/1/3 110/1/3 119/1/3
f 124/3/3 119/3/3 123/3/3
f 125/2/3 111/2/3 110/2/3
f 125/1/3 110/1/3 124/1/3
f 126/2/3 111/2/3 125/2/3
f 127/2/3 122/2/3 121/2/3
f 128/1/3 124/1/3 123/1/3
f 128/2/3 122/2/3 127/2/3
f 128/1/3 123/1/3 122/1/3
f 129/2/3 125/2/3 124/2/3
f 129/1/3 124/1/3 128/1/3
f 130/2/3 125/2/3 129/2/3
f 135/2/3 132/2/3 131/2/3
f 136/2/3 132/2/3 135/2/3
f 137/2/3 134/2/3 133/2/3
f 138/2/3 134/2/3 137/2/3
f 143/3/3 139/3/3 138/3/3
f 144/3/3 139/3/3 143/3/3
f 145/2/3 141/2/3 140/2/3
f 146/2/3 141/2/3 145/2/3
f 147/2/3 143/2/3 142/2/3
f 148/2/3 143/2/3 147/2/3
f 151/4/3 150/4/3 149/4/3
f 152/4/3 150/4/3 151/4/3
f 157/1/3 154/1/3 153/1/3
f 158/1/3 154/1/3 157/1/3
f 159/3/3 155/3/3 154/3/3
f 159/1/3 154/1/3 158/1/3
f 160/1/3 156/1/3 155/1/3
f 160/3/3 155/3/3 159/3/3
f 161/3/3 158/3/3 157/3/3
f 162/1/3 159/1/3 158/1/3
f 162/3/3 158/3/3 161/3/3
f 162/1/3 160/1/3 159/1/3
f 163/1/3 160/1/3 162/1/3
f 164/1/3 156/1/3 160/1/3
f 164/1/3 160/1/3 163/1/3
f 165/1/3 163/1/3 162/1/3
f 165/1/3 162/1/3 161/1/3
f 166/3/3 164/3/3 163/3/3
f 166/1/3 163/1/3 165/1/3
f 167/1/3 156/1/3 164/1/3
f 167/3/3 164/3/3 166/3/3
f 168/1/3 156/1/3 167/1/3
f 169/1/4 170/1/4 173/1/4
f 173/1/4 170/1/4 174/1/4
f 170/3/4 171/3/4 175/3/4
f 174/1/4 170/1/4 175/1/4
f 171/1/4 172/1/4 176/1/4
f 175/3/4 171/3/4 176/3/4
f 173/3/4 174/3/4 177/3/4
f 174/1/4 175/1/4 178/1/4
f 177/3/4 174/3/4 178/3/4
f 175/1/4 176/1/4 178/1/4
f 178/1/4 176/1/4 179/1/4
f 176/1/4 172/1/4 180/1/4
f 179/1/4 176/1/4 180/1/4
f 178/1/4 179/1/4 181/1/4
f 177/1/4 178/1/4 181/1/4
f 179/3/4 180/3/4 182/3/4
f 181/1/4 179/1/4 182/1/4
f 180/1/4 172/1/4 183/1/4
f 182/3/4 180/3/4 183/3/4
f 183/1/4 172/1/4 184/1/4
f 185/4/4 186/4/4 187/4/4
f 187/4/4 186/4/4 188/4/4
f 189/2/4 190/2/4 193/2/4
f 193/2/4 190/2/4 194/2/4
f 191/2/4 192/2/4 195/2/4
f 195/2/4 192/2/4 196/2/4
f 196/3/4 197/3/4 201/3/4
f 201/3/4 197/3/4 202/3/4
f 198/2/4 199/2/4 203/2/4
f 203/2/4 199/2/4 204/2/4
f 200/2/4 201/2/4 205/2/4
f 205/2/4 201/2/4 206/2/4
f 207/2/4 208/2/4 212/2/4
f 208/1/4 209/1/4 213/1/4
f 212/2/4 208/2/4 213/2/4
f 213/1/4 209/1/4 214/1/4
f 209/2/4 210/2/4 215/2/4
f 214/1/4 209/1/4 215/1/4
f 215/2/4 210/2/4 216/2/4
f 213/1/4 214/1/4 218/1/4
f 211/2/4 212/2/4 218/2/4
f 212/1/4 213/1/4 218/1/4
f 218/1/4 214/1/4 219/1/4
f 214/3/4 215/3/4 220/3/4
f 219/1/4 214/1/4 220/1/4
f 215/1/4 216/1/4 221/1/4
f 220/3/4 215/3/4 221/3/4
f 218/3/4 219/3/4 222/3/4
f 211/2/4 218/2/4 222/2/4
f 219/1/4 220/1/4 223/1/4
f 222/3/4 219/3/4 223/3/4
f 220/1/4 221/1/4 223/1/4
f 223/1/4 221/1/4 224/1/4
f 221/1/4 216/1/4 225/1/4
f 224/1/4 221/1/4 225/1/4
f 211/2/4 222/2/4 226/2/4
f 223/1/4 224/1/4 227/1/4
f 226/2/4 222/2/4 227/2/4
f 222/1/4 223/1/4 227/1/4
f 227/1/4 224/1/4 228/1/4
f 224/3/4 225/3/4 229/3/4
f 228/1/4 224/1/4 229/1/4
f 225/1/4 216/1/4 230/1/4
f 229/3/4 225/3/4 230/3/4
f 216/2/4 217/2/4 231/2/4
f 230/1/4 216/1/4 231/1/4
f 231/2/4 217/2/4 232/2/4
f 227/2/4 228/2/4 233/2/4
f 229/1/4 230/1/4 234/1/4
f 233/2/4 228/2/4 234/2/4
f 228/1/4 229/1/4 234/1/4
f 230/2/4 231/2/4 235/2/4
f 234/1/4 230/1/4 235/1/4
f 235/2/4 231/2/4 236/2/4
f 240/2/5 238/2/5 237/2/5
f 241/2/5 238/2/5 240/2/5
f 243/2/5 240/2/5 239/2/5
f 244/1/5 241/1/5 240/1/5
f 244/2/5 240/2/5 243/2/5
f 245/2/5 242/2/5 241/2/5
f 245/1/5 241/1/5 244/1/5
f 246/2/5 242/2/5 245/2/5
f 247/2/5 245/2/5 244/2/5
f 248/2/5 245/2/5 247/2/5
f 253/2/5 250/2/5 249/2/5
f 254/2/5 250/2/5 253/2/5
f 255/2/5 252/2/5 251/2/5
f 256/2/5 252/2/5 255/2/5
f 261/2/5 258/2/5 257/2/5
f 262/2/5 258/2/5 261/2/5
f 263/2/5 260/2/5 259/2/5
f 264/2/5 260/2/5 263/2/5
f 267/2/5 266/2/5 265/2/5
f 268/2/5 266/2/5 267/2/5
f 269/1/6 270/1/6 273/1/6
f 271/1/6 272/1/6 273/1/6
f 270/1/6 271/1/6 273/1/6
f 273/1/6 272/1/6 274/1/6
f 274/1/6 272/1/6 275/1/6
f 275/1/6 272/1/6 276/1/6
f 277/2/6 278/2/6 281/2/6
f 281/2/6 278/2/6 282/2/6
f 279/2/6 280/2/6 283/2/6
f 283/2/6 280/2/6 284/2/6
f 285/2/6 286/2/6 289/2/6
f 289/2/6 286/2/6 290/2/6
f 287/2/6 288/2/6 291/2/6
f 291/2/6 288/2/6 292/2/6
f 293/2/6 294/2/6 296/2/6
f 296/2/6 294/2/6 297/2/6
f 295/2/6 296/2/6 299/2/6
f 299/2/6 296/2/6 300/2/6
f 297/2/6 298/2/6 301/2/6
f 301/2/6 298/2/6 302/2/6
f 300/2/6 301/2/6 303/2/6
f 303/2/6 301/2/6 304/2/6
f 305/3/6 306/3/6 307/3/6
f 307/3/6 306/3/6 308/3/6
f 305/3/6 307/3/6 309/3/6
f 308/3/6 306/3/6 310/3/6
f 305/3/6 309/3/6 311/3/6
f 309/3/6 310/3/6 311/3/6
f 310/3/6 306/3/6 312/3/6
f 311/3/6 310/3/6 312/3/6
f 313/4/6 314/4/6 315/4/6
f 315/4/6 314/4/6 316/4/6
