# MagicaVoxel @ Ephtracy

# group
o 

# material
mtllib wizard_staff.mtl
usemtl palette

# normals
vn -1 0 0
vn 1 0 0
vn 0 0 1
vn 0 0 -1
vn 0 -1 0
vn 0 1 0

# texcoords
vt 0.0214844 0.5
vt 0.0253906 0.5
vt 0.0371094 0.5
vt 0.0410156 0.5
vt 0.0449219 0.5
vt 0.0488281 0.5
vt 0.0644531 0.5
vt 0.0683594 0.5
vt 0.0722656 0.5
vt 0.0957031 0.5
vt 0.0996094 0.5
vt 0.126953 0.5
vt 0.130859 0.5
vt 0.134766 0.5
vt 0.138672 0.5

# verts
v -0.3 2.7 0.1
v -0.3 2.7 0
v -0.3 2.9 0.1
v -0.3 2.9 0
v -0.3 3 0.1
v -0.3 3 0
v -0.2 2.6 0.1
v -0.2 2.6 0
v -0.2 2.7 0.1
v -0.2 2.7 0
v -0.2 2.8 0.2
v -0.2 2.8 0.1
v -0.2 2.8 0
v -0.2 2.8 -0.1
v -0.2 2.9 0.2
v -0.2 2.9 0.1
v -0.2 2.9 0
v -0.2 2.9 -0.1
v -0.2 3 0.2
v -0.2 3 0.1
v -0.2 3 0
v -0.2 3 -0.1
v -0.2 3.1 0.1
v -0.2 3.1 0
v -0.1 0 0.1
v -0.1 0 0
v -0.1 0.1 0.1
v -0.1 0.1 0
v -0.1 2.5 0.1
v -0.1 2.5 0
v -0.1 2.6 0.2
v -0.1 2.6 0.1
v -0.1 2.6 0
v -0.1 2.6 -0.1
v -0.1 2.7 0.3
v -0.1 2.7 0.2
v -0.1 2.7 0.1
v -0.1 2.7 0
v -0.1 2.7 -0.1
v -0.1 2.7 -0.2
v -0.1 2.8 0.2
v -0.1 2.8 0.1
v -0.1 2.8 0
v -0.1 2.8 -0.1
v -0.1 2.9 0.3
v -0.1 2.9 0.2
v -0.1 2.9 -0.1
v -0.1 2.9 -0.2
v -0.1 3 0.3
v -0.1 3 0.2
v -0.1 3 0.1
v -0.1 3 0
v -0.1 3 -0.1
v -0.1 3 -0.2
v -0.1 3.1 0.2
v -0.1 3.1 0.1
v -0.1 3.1 0
v -0.1 3.1 -0.1
v -0.1 3.2 0.1
v -0.1 3.2 0
v 0 2.9 0.2
v 0 2.9 0.1
v 0 2.9 0
v 0 2.9 -0.1
v 0 3 0.2
v 0 3 0.1
v 0 3 0
v 0 3 -0.1
v -0.1 2.9 0.2
v -0.1 2.9 0.1
v -0.1 2.9 0
v -0.1 2.9 -0.1
v -0.1 3 0.2
v -0.1 3 0.1
v -0.1 3 0
v -0.1 3 -0.1
v 0 0 0.1
v 0 0 0
v 0 0.1 0.1
v 0 0.1 0
v 0 2.5 0.1
v 0 2.5 0
v 0 2.6 0.2
v 0 2.6 0.1
v 0 2.6 0
v 0 2.6 -0.1
v 0 2.7 0.3
v 0 2.7 0.2
v 0 2.7 0.1
v 0 2.7 0
v 0 2.7 -0.1
v 0 2.7 -0.2
v 0 2.8 0.2
v 0 2.8 0.1
v 0 2.8 0
v 0 2.8 -0.1
v 0 2.9 0.3
v 0 2.9 0.2
v 0 2.9 -0.1
v 0 2.9 -0.2
v 0 3 0.3
v 0 3 0.2
v 0 3 0.1
v 0 3 0
v 0 3 -0.1
v 0 3 -0.2
v 0 3.1 0.2
v 0 3.1 0.1
v 0 3.1 0
v 0 3.1 -0.1
v 0 3.2 0.1
v 0 3.2 0
v 0.1 2.6 0.1
v 0.1 2.6 0
v 0.1 2.7 0.1
v 0.1 2.7 0
v 0.1 2.8 0.2
v 0.1 2.8 0.1
v 0.1 2.8 0
v 0.1 2.8 -0.1
v 0.1 2.9 0.2
v 0.1 2.9 0.1
v 0.1 2.9 0
v 0.1 2.9 -0.1
v 0.1 3 0.2
v 0.1 3 0.1
v 0.1 3 0
v 0.1 3 -0.1
v 0.1 3.1 0.1
v 0.1 3.1 0
v 0.2 2.7 0.1
v 0.2 2.7 0
v 0.2 2.9 0.1
v 0.2 2.9 0
v 0.2 3 0.1
v 0.2 3 0
v -0.1 2.7 0.3
v -0.1 2.9 0.3
v -0.1 3 0.3
v 0 2.7 0.3
v 0 2.9 0.3
v 0 3 0.3
v -0.2 2.8 0.2
v -0.2 2.9 0.2
v -0.2 3 0.2
v -0.1 2.6 0.2
v -0.1 2.7 0.2
v -0.1 2.8 0.2
v -0.1 2.9 0.2
v -0.1 3 0.2
v -0.1 3.1 0.2
v 0 2.6 0.2
v 0 2.7 0.2
v 0 2.8 0.2
v 0 2.9 0.2
v 0 3 0.2
v 0 3.1 0.2
v 0.1 2.8 0.2
v 0.1 2.9 0.2
v 0.1 3 0.2
v -0.3 2.7 0.1
v -0.3 2.9 0.1
v -0.3 3 0.1
v -0.2 2.6 0.1
v -0.2 2.7 0.1
v -0.2 2.8 0.1
v -0.2 2.9 0.1
v -0.2 3 0.1
v -0.2 3.1 0.1
v -0.1 0 0.1
v -0.1 0.1 0.1
v -0.1 2.5 0.1
v -0.1 2.6 0.1
v -0.1 2.7 0.1
v -0.1 2.8 0.1
v -0.1 3 0.1
v -0.1 3.1 0.1
v -0.1 3.2 0.1
v 0 0 0.1
v 0 0.1 0.1
v 0 2.5 0.1
v 0 2.6 0.1
v 0 2.7 0.1
v 0 2.8 0.1
v 0 3 0.1
v 0 3.1 0.1
v 0 3.2 0.1
v 0.1 2.6 0.1
v 0.1 2.7 0.1
v 0.1 2.8 0.1
v 0.1 2.9 0.1
v 0.1 3 0.1
v 0.1 3.1 0.1
v 0.2 2.7 0.1
v 0.2 2.9 0.1
v 0.2 3 0.1
v -0.1 2.9 -0.1
v -0.1 3 -0.1
v 0 2.9 -0.1
v 0 3 -0.1
v -0.1 2.9 0.2
v -0.1 3 0.2
v 0 2.9 0.2
v 0 3 0.2
v -0.3 2.7 0
v -0.3 2.9 0
v -0.3 3 0
v -0.2 2.6 0
v -0.2 2.7 0
v -0.2 2.8 0
v -0.2 2.9 0
v -0.2 3 0
v -0.2 3.1 0
v -0.1 0 0
v -0.1 0.1 0
v -0.1 2.5 0
v -0.1 2.6 0
v -0.1 2.7 0
v -0.1 2.8 0
v -0.1 3 0
v -0.1 3.1 0
v -0.1 3.2 0
v 0 0 0
v 0 0.1 0
v 0 2.5 0
v 0 2.6 0
v 0 2.7 0
v 0 2.8 0
v 0 3 0
v 0 3.1 0
v 0 3.2 0
v 0.1 2.6 0
v 0.1 2.7 0
v 0.1 2.8 0
v 0.1 2.9 0
v 0.1 3 0
v 0.1 3.1 0
v 0.2 2.7 0
v 0.2 2.9 0
v 0.2 3 0
v -0.2 2.8 -0.1
v -0.2 2.9 -0.1
v -0.2 3 -0.1
v -0.1 2.6 -0.1
v -0.1 2.7 -0.1
v -0.1 2.8 -0.1
v -0.1 2.9 -0.1
v -0.1 3 -0.1
v -0.1 3.1 -0.1
v 0 2.6 -0.1
v 0 2.7 -0.1
v 0 2.8 -0.1
v 0 2.9 -0.1
v 0 3 -0.1
v 0 3.1 -0.1
v 0.1 2.8 -0.1
v 0.1 2.9 -0.1
v 0.1 3 -0.1
v -0.1 2.7 -0.2
v -0.1 2.9 -0.2
v -0.1 3 -0.2
v 0 2.7 -0.2
v 0 2.9 -0.2
v 0 3 -0.2
v -0.1 0 0.1
v 0 0 0.1
v -0.1 0 0
v 0 0 0
v -0.1 2.6 0.2
v 0 2.6 0.2
v -0.2 2.6 0.1
v -0.1 2.6 0.1
v 0 2.6 0.1
v 0.1 2.6 0.1
v -0.2 2.6 0
v -0.1 2.6 0
v 0 2.6 0
v 0.1 2.6 0
v -0.1 2.6 -0.1
v 0 2.6 -0.1
v -0.1 2.7 0.3
v 0 2.7 0.3
v -0.1 2.7 0.2
v 0 2.7 0.2
v -0.3 2.7 0.1
v -0.2 2.7 0.1
v 0.1 2.7 0.1
v 0.2 2.7 0.1
v -0.3 2.7 0
v -0.2 2.7 0
v 0.1 2.7 0
v 0.2 2.7 0
v -0.1 2.7 -0.1
v 0 2.7 -0.1
v -0.1 2.7 -0.2
v 0 2.7 -0.2
v -0.2 2.8 0.2
v -0.1 2.8 0.2
v 0 2.8 0.2
v 0.1 2.8 0.2
v -0.2 2.8 0.1
v -0.1 2.8 0.1
v 0 2.8 0.1
v 0.1 2.8 0.1
v -0.2 2.8 0
v -0.1 2.8 0
v 0 2.8 0
v 0.1 2.8 0
v -0.2 2.8 -0.1
v -0.1 2.8 -0.1
v 0 2.8 -0.1
v 0.1 2.8 -0.1
v -0.1 3 0.2
v 0 3 0.2
v -0.1 3 0.1
v 0 3 0.1
v -0.1 3 0
v 0 3 0
v -0.1 3 -0.1
v 0 3 -0.1
v -0.1 2.9 0.2
v 0 2.9 0.2
v -0.1 2.9 0.1
v 0 2.9 0.1
v -0.1 2.9 0
v 0 2.9 0
v -0.1 2.9 -0.1
v 0 2.9 -0.1
v -0.1 3 0.3
v 0 3 0.3
v -0.2 3 0.2
v -0.1 3 0.2
v 0 3 0.2
v 0.1 3 0.2
v -0.3 3 0.1
v -0.2 3 0.1
v -0.1 3 0.1
v 0 3 0.1
v 0.1 3 0.1
v 0.2 3 0.1
v -0.3 3 0
v -0.2 3 0
v -0.1 3 0
v 0 3 0
v 0.1 3 0
v 0.2 3 0
v -0.2 3 -0.1
v -0.1 3 -0.1
v 0 3 -0.1
v 0.1 3 -0.1
v -0.1 3 -0.2
v 0 3 -0.2
v -0.1 3.1 0.2
v 0 3.1 0.2
v -0.2 3.1 0.1
v -0.1 3.1 0.1
v 0 3.1 0.1
v 0.1 3.1 0.1
v -0.2 3.1 0
v -0.1 3.1 0
v 0 3.1 0
v 0.1 3.1 0
v -0.1 3.1 -0.1
v 0 3.1 -0.1
v -0.1 3.2 0.1
v 0 3.2 0.1
v -0.1 3.2 0
v 0 3.2 0

# faces
f 3/2/1 2/2/1 1/2/1
f 4/2/1 2/2/1 3/2/1
f 5/3/1 4/3/1 3/3/1
f 6/3/1 4/3/1 5/3/1
f 9/1/1 8/1/1 7/1/1
f 10/1/1 8/1/1 9/1/1
f 15/14/1 12/14/1 11/14/1
f 16/14/1 12/14/1 15/14/1
f 17/8/1 14/8/1 13/8/1
f 18/8/1 14/8/1 17/8/1
f 19/15/1 16/15/1 15/15/1
f 20/15/1 16/15/1 19/15/1
f 21/9/1 18/9/1 17/9/1
f 22/9/1 18/9/1 21/9/1
f 23/15/1 21/15/1 20/15/1
f 24/15/1 21/15/1 23/15/1
f 27/1/1 26/1/1 25/1/1
f 28/1/1 26/1/1 27/1/1
f 29/2/1 28/2/1 27/2/1
f 30/2/1 28/2/1 29/2/1
f 32/1/1 30/1/1 29/1/1
f 33/1/1 30/1/1 32/1/1
f 36/1/1 32/1/1 31/1/1
f 37/1/1 32/1/1 36/1/1
f 38/1/1 34/1/1 33/1/1
f 39/1/1 34/1/1 38/1/1
f 41/13/1 37/13/1 36/13/1
f 41/2/1 36/2/1 35/2/1
f 42/13/1 37/13/1 41/13/1
f 43/6/1 39/6/1 38/6/1
f 44/2/1 40/2/1 39/2/1
f 44/6/1 39/6/1 43/6/1
f 45/2/1 41/2/1 35/2/1
f 46/2/1 41/2/1 45/2/1
f 47/2/1 40/2/1 44/2/1
f 48/2/1 40/2/1 47/2/1
f 49/3/1 46/3/1 45/3/1
f 50/3/1 46/3/1 49/3/1
f 53/3/1 48/3/1 47/3/1
f 54/3/1 48/3/1 53/3/1
f 55/12/1 51/12/1 50/12/1
f 56/12/1 51/12/1 55/12/1
f 57/9/1 53/9/1 52/9/1
f 58/9/1 53/9/1 57/9/1
f 59/3/1 57/3/1 56/3/1
f 60/3/1 57/3/1 59/3/1
f 65/12/1 62/12/1 61/12/1
f 66/3/1 63/3/1 62/3/1
f 66/12/1 62/12/1 65/12/1
f 67/4/1 64/4/1 63/4/1
f 67/3/1 63/3/1 66/3/1
f 68/4/1 64/4/1 67/4/1
f 69/15/2 70/15/2 73/15/2
f 70/3/2 71/3/2 74/3/2
f 73/15/2 70/15/2 74/15/2
f 71/9/2 72/9/2 75/9/2
f 74/3/2 71/3/2 75/3/2
f 75/9/2 72/9/2 76/9/2
f 77/1/2 78/1/2 79/1/2
f 79/1/2 78/1/2 80/1/2
f 79/2/2 80/2/2 81/2/2
f 81/2/2 80/2/2 82/2/2
f 81/1/2 82/1/2 84/1/2
f 84/1/2 82/1/2 85/1/2
f 83/1/2 84/1/2 88/1/2
f 88/1/2 84/1/2 89/1/2
f 85/1/2 86/1/2 90/1/2
f 90/1/2 86/1/2 91/1/2
f 88/13/2 89/13/2 93/13/2
f 87/2/2 88/2/2 93/2/2
f 93/13/2 89/13/2 94/13/2
f 90/6/2 91/6/2 95/6/2
f 91/2/2 92/2/2 96/2/2
f 95/6/2 91/6/2 96/6/2
f 87/2/2 93/2/2 97/2/2
f 97/2/2 93/2/2 98/2/2
f 96/2/2 92/2/2 99/2/2
f 99/2/2 92/2/2 100/2/2
f 97/3/2 98/3/2 101/3/2
f 101/3/2 98/3/2 102/3/2
f 99/3/2 100/3/2 105/3/2
f 105/3/2 100/3/2 106/3/2
f 102/12/2 103/12/2 107/12/2
f 107/12/2 103/12/2 108/12/2
f 104/9/2 105/9/2 109/9/2
f 109/9/2 105/9/2 110/9/2
f 108/3/2 109/3/2 111/3/2
f 111/3/2 109/3/2 112/3/2
f 113/1/2 114/1/2 115/1/2
f 115/1/2 114/1/2 116/1/2
f 117/10/2 118/10/2 121/10/2
f 121/10/2 118/10/2 122/10/2
f 119/5/2 120/5/2 123/5/2
f 123/5/2 120/5/2 124/5/2
f 121/12/2 122/12/2 125/12/2
f 125/12/2 122/12/2 126/12/2
f 123/4/2 124/4/2 127/4/2
f 127/4/2 124/4/2 128/4/2
f 126/4/2 127/4/2 129/4/2
f 129/4/2 127/4/2 130/4/2
f 131/2/2 132/2/2 133/2/2
f 133/2/2 132/2/2 134/2/2
f 133/3/2 134/3/2 135/3/2
f 135/3/2 134/3/2 136/3/2
f 140/2/3 138/2/3 137/2/3
f 141/3/3 139/3/3 138/3/3
f 141/2/3 138/2/3 140/2/3
f 142/3/3 139/3/3 141/3/3
f 148/14/3 144/14/3 143/14/3
f 149/15/3 145/15/3 144/15/3
f 149/14/3 144/14/3 148/14/3
f 150/15/3 145/15/3 149/15/3
f 152/1/3 147/1/3 146/1/3
f 153/1/3 147/1/3 152/1/3
f 156/12/3 151/12/3 150/12/3
f 157/12/3 151/12/3 156/12/3
f 158/10/3 155/10/3 154/10/3
f 159/12/3 156/12/3 155/12/3
f 159/10/3 155/10/3 158/10/3
f 160/12/3 156/12/3 159/12/3
f 165/2/3 162/2/3 161/2/3
f 166/2/3 162/2/3 165/2/3
f 167/3/3 163/3/3 162/3/3
f 167/2/3 162/2/3 166/2/3
f 168/3/3 163/3/3 167/3/3
f 173/1/3 165/1/3 164/1/3
f 174/11/3 166/11/3 165/11/3
f 174/1/3 165/1/3 173/1/3
f 175/11/3 166/11/3 174/11/3
f 176/15/3 169/15/3 168/15/3
f 177/15/3 169/15/3 176/15/3
f 179/1/3 171/1/3 170/1/3
f 180/2/3 172/2/3 171/2/3
f 180/1/3 171/1/3 179/1/3
f 181/1/3 173/1/3 172/1/3
f 181/2/3 172/2/3 180/2/3
f 182/1/3 173/1/3 181/1/3
f 186/3/3 178/3/3 177/3/3
f 187/3/3 178/3/3 186/3/3
f 188/1/3 183/1/3 182/1/3
f 189/7/3 184/7/3 183/7/3
f 189/1/3 183/1/3 188/1/3
f 190/7/3 184/7/3 189/7/3
f 192/4/3 186/4/3 185/4/3
f 193/4/3 186/4/3 192/4/3
f 194/2/3 191/2/3 190/2/3
f 194/2/3 190/2/3 189/2/3
f 195/3/3 192/3/3 191/3/3
f 195/2/3 191/2/3 194/2/3
f 196/3/3 192/3/3 195/3/3
f 199/3/3 198/3/3 197/3/3
f 200/3/3 198/3/3 199/3/3
f 201/3/4 202/3/4 203/3/4
f 203/3/4 202/3/4 204/3/4
f 205/2/4 206/2/4 209/2/4
f 209/2/4 206/2/4 210/2/4
f 206/3/4 207/3/4 211/3/4
f 210/2/4 206/2/4 211/2/4
f 211/3/4 207/3/4 212/3/4
f 208/1/4 209/1/4 217/1/4
f 209/11/4 210/11/4 218/11/4
f 217/1/4 209/1/4 218/1/4
f 218/11/4 210/11/4 219/11/4
f 212/15/4 213/15/4 220/15/4
f 220/15/4 213/15/4 221/15/4
f 214/1/4 215/1/4 223/1/4
f 215/2/4 216/2/4 224/2/4
f 223/1/4 215/1/4 224/1/4
f 216/1/4 217/1/4 225/1/4
f 224/2/4 216/2/4 225/2/4
f 225/1/4 217/1/4 226/1/4
f 221/3/4 222/3/4 230/3/4
f 230/3/4 222/3/4 231/3/4
f 226/1/4 227/1/4 232/1/4
f 227/7/4 228/7/4 233/7/4
f 232/1/4 227/1/4 233/1/4
f 233/7/4 228/7/4 234/7/4
f 229/4/4 230/4/4 236/4/4
f 236/4/4 230/4/4 237/4/4
f 234/2/4 235/2/4 238/2/4
f 233/2/4 234/2/4 238/2/4
f 235/3/4 236/3/4 239/3/4
f 238/2/4 235/2/4 239/2/4
f 239/3/4 236/3/4 240/3/4
f 241/8/4 242/8/4 246/8/4
f 242/9/4 243/9/4 247/9/4
f 246/8/4 242/8/4 247/8/4
f 247/9/4 243/9/4 248/9/4
f 244/1/4 245/1/4 250/1/4
f 250/1/4 245/1/4 251/1/4
f 248/9/4 249/9/4 254/9/4
f 254/9/4 249/9/4 255/9/4
f 252/5/4 253/5/4 256/5/4
f 253/4/4 254/4/4 257/4/4
f 256/5/4 253/5/4 257/5/4
f 257/4/4 254/4/4 258/4/4
f 259/2/4 260/2/4 262/2/4
f 260/3/4 261/3/4 263/3/4
f 262/2/4 260/2/4 263/2/4
f 263/3/4 261/3/4 264/3/4
f 267/1/5 266/1/5 265/1/5
f 268/1/5 266/1/5 267/1/5
f 272/1/5 270/1/5 269/1/5
f 273/1/5 270/1/5 272/1/5
f 275/1/5 272/1/5 271/1/5
f 276/1/5 272/1/5 275/1/5
f 277/1/5 274/1/5 273/1/5
f 278/1/5 274/1/5 277/1/5
f 279/1/5 277/1/5 276/1/5
f 280/1/5 277/1/5 279/1/5
f 283/2/5 282/2/5 281/2/5
f 284/2/5 282/2/5 283/2/5
f 289/2/5 286/2/5 285/2/5
f 290/2/5 286/2/5 289/2/5
f 291/2/5 288/2/5 287/2/5
f 292/2/5 288/2/5 291/2/5
f 295/2/5 294/2/5 293/2/5
f 296/2/5 294/2/5 295/2/5
f 301/14/5 298/14/5 297/14/5
f 302/14/5 298/14/5 301/14/5
f 303/10/5 300/10/5 299/10/5
f 304/10/5 300/10/5 303/10/5
f 309/8/5 306/8/5 305/8/5
f 310/8/5 306/8/5 309/8/5
f 311/5/5 308/5/5 307/5/5
f 312/5/5 308/5/5 311/5/5
f 315/12/5 314/12/5 313/12/5
f 316/12/5 314/12/5 315/12/5
f 317/3/5 316/3/5 315/3/5
f 318/3/5 316/3/5 317/3/5
f 319/9/5 318/9/5 317/9/5
f 320/9/5 318/9/5 319/9/5
f 321/3/6 322/3/6 323/3/6
f 323/3/6 322/3/6 324/3/6
f 323/3/6 324/3/6 325/3/6
f 325/3/6 324/3/6 326/3/6
f 325/3/6 326/3/6 327/3/6
f 327/3/6 326/3/6 328/3/6
f 329/3/6 330/3/6 332/3/6
f 332/3/6 330/3/6 333/3/6
f 331/15/6 332/15/6 336/15/6
f 336/15/6 332/15/6 337/15/6
f 333/12/6 334/12/6 338/12/6
f 338/12/6 334/12/6 339/12/6
f 335/3/6 336/3/6 341/3/6
f 341/3/6 336/3/6 342/3/6
f 339/3/6 340/3/6 345/3/6
f 345/3/6 340/3/6 346/3/6
f 342/9/6 343/9/6 347/9/6
f 347/9/6 343/9/6 348/9/6
f 344/4/6 345/4/6 349/4/6
f 349/4/6 345/4/6 350/4/6
f 348/3/6 349/3/6 351/3/6
f 351/3/6 349/3/6 352/3/6
f 353/12/6 354/12/6 356/12/6
f 356/12/6 354/12/6 357/12/6
f 355/15/6 356/15/6 359/15/6
f 359/15/6 356/15/6 360/15/6
f 357/4/6 358/4/6 361/4/6
f 361/4/6 358/4/6 362/4/6
f 360/9/6 361/9/6 363/9/6
f 363/9/6 361/9/6 364/9/6
f 365/3/6 366/3/6 367/3/6
f 367/3/6 366/3/6 368/3/6
