# MagicaVoxel @ Ephtracy

# group
o 

# material
mtllib Zed_6-1.mtl
usemtl palette

# normals
vn -1 0 0
vn 1 0 0
vn 0 0 1
vn 0 0 -1
vn 0 -1 0
vn 0 1 0

# texcoords
vt 0.248047 0.5
vt 0.357422 0.5
vt 0.361328 0.5
vt 0.857422 0.5
vt 0.931641 0.5
vt 0.955078 0.5
vt 0.958984 0.5
vt 0.962891 0.5
vt 0.994141 0.5

# verts
v -0.3 5.7 -0.1
v -0.3 5.7 -0.2
v -0.3 5.8 -0.1
v -0.3 5.8 -0.2
v -0.3 5.9 -0.1
v -0.3 5.9 -0.2
v -0.2 5.4 0
v -0.2 5.4 -0.1
v -0.2 5.4 -0.2
v -0.2 5.5 -0.2
v -0.2 5.5 -0.3
v -0.2 5.6 0.1
v -0.2 5.6 0
v -0.2 5.7 0.2
v -0.2 5.7 0.1
v -0.2 5.7 -0.1
v -0.2 5.7 -0.2
v -0.2 5.8 0.2
v -0.2 5.8 0.1
v -0.2 5.8 -0.1
v -0.2 5.8 -0.2
v -0.2 5.9 0.2
v -0.2 5.9 0.1
v -0.2 5.9 -0.1
v -0.2 5.9 -0.2
v -0.2 6 0.2
v -0.2 6 0.1
v -0.2 6 -0.1
v -0.2 6 -0.2
v -0.2 6.1 0.2
v -0.2 6.1 0.1
v -0.2 6.1 -0.1
v -0.2 6.1 -0.3
v -0.2 6.2 0.2
v -0.2 6.2 0.1
v -0.2 6.3 0.2
v -0.2 6.3 -0.1
v -0.1 5.3 0
v -0.1 5.3 -0.3
v -0.1 5.4 0
v -0.1 5.4 -0.1
v -0.1 5.4 -0.2
v -0.1 5.5 -0.2
v -0.1 5.5 -0.3
v -0.1 5.7 -0.3
v -0.1 5.7 -0.4
v -0.1 5.8 -0.3
v -0.1 5.8 -0.4
v -0.1 6.1 -0.1
v -0.1 6.1 -0.2
v -0.1 6.1 -0.3
v -0.1 6.1 -0.4
v -0.1 6.2 -0.1
v -0.1 6.2 -0.2
v -0.1 6.3 0.2
v -0.1 6.3 0
v -0.1 6.4 0.2
v -0.1 6.4 0
v 0 6.1 -0.2
v 0 6.1 -0.3
v 0 6.2 0
v 0 6.2 -0.2
v 0 6.2 -0.3
v 0 6.3 0
v 0 6.3 -0.1
v 0 6.3 -0.2
v 0 6.4 0
v 0 6.4 -0.1
v 0.1 6.1 -0.3
v 0.1 6.1 -0.4
v 0.1 6.2 -0.2
v 0.1 6.2 -0.3
v 0.1 6.3 -0.1
v 0.1 6.3 -0.2
v 0.1 6.3 -0.3
v 0.1 6.3 -0.4
v 0.1 6.4 -0.1
v 0.1 6.4 -0.2
v 0.1 6.4 -0.3
v 0.2 5.4 0.1
v 0.2 5.4 0
v 0.2 5.6 0.1
v 0.2 5.6 0
v -0.1 6.2 0
v -0.1 6.2 -0.1
v -0.1 6.3 0
v -0.1 6.3 -0.1
v 0.1 6.1 0.2
v 0.1 6.1 0.1
v 0.1 6.2 0.2
v 0.1 6.2 0.1
v 0.1 6.2 0
v 0.1 6.3 0.2
v 0.1 6.3 0.1
v 0.1 6.3 0
v 0.1 6.4 0.2
v 0.1 6.4 0.1
v 0.2 5.3 0
v 0.2 5.3 -0.1
v 0.2 5.3 -0.3
v 0.2 5.4 0
v 0.2 5.4 -0.1
v 0.2 5.4 -0.2
v 0.2 5.5 -0.2
v 0.2 5.5 -0.3
v 0.2 5.7 -0.3
v 0.2 5.7 -0.4
v 0.2 5.8 -0.3
v 0.2 6.1 0.1
v 0.2 6.1 0
v 0.2 6.2 0.1
v 0.2 6.2 0
v 0.2 6.3 0.1
v 0.2 6.3 0
v 0.2 6.3 -0.1
v 0.2 6.3 -0.2
v 0.2 6.3 -0.3
v 0.2 6.3 -0.4
v 0.2 6.4 0.1
v 0.2 6.4 -0.2
v 0.2 6.4 -0.3
v 0.3 5.4 0.1
v 0.3 5.4 0
v 0.3 5.4 -0.1
v 0.3 5.4 -0.2
v 0.3 5.5 0
v 0.3 5.5 -0.1
v 0.3 5.5 -0.2
v 0.3 5.5 -0.3
v 0.3 5.6 0.1
v 0.3 5.6 0
v 0.3 5.6 -0.1
v 0.3 5.6 -0.2
v 0.3 5.7 0.2
v 0.3 5.7 0.1
v 0.3 5.7 0
v 0.3 5.7 -0.1
v 0.3 5.7 -0.2
v 0.3 5.7 -0.3
v 0.3 5.8 0.2
v 0.3 5.8 0.1
v 0.3 5.8 -0.1
v 0.3 5.8 -0.2
v 0.3 5.8 -0.3
v 0.3 5.9 0.2
v 0.3 5.9 0.1
v 0.3 5.9 0
v 0.3 5.9 -0.1
v 0.3 5.9 -0.2
v 0.3 6 0.2
v 0.3 6 0.1
v 0.3 6 0
v 0.3 6 -0.1
v 0.3 6.1 0.2
v 0.3 6.1 0.1
v 0.3 6.1 0
v 0.3 6.2 0
v 0.3 6.2 -0.1
v 0.3 6.3 0
v 0.3 6.3 -0.1
v 0.3 6.3 -0.2
v 0.3 6.3 -0.3
v 0.4 5.7 -0.1
v 0.4 5.7 -0.2
v 0.4 5.8 -0.1
v 0.4 5.8 -0.2
v 0.4 5.9 -0.1
v 0.4 5.9 -0.2
v -0.2 5.7 0.2
v -0.2 5.8 0.2
v -0.2 5.9 0.2
v -0.2 6 0.2
v -0.2 6.1 0.2
v -0.2 6.2 0.2
v -0.2 6.3 0.2
v -0.1 5.7 0.2
v -0.1 5.8 0.2
v -0.1 5.9 0.2
v -0.1 6 0.2
v -0.1 6.1 0.2
v -0.1 6.3 0.2
v -0.1 6.4 0.2
v 0 5.9 0.2
v 0 6 0.2
v 0 6.1 0.2
v 0 6.2 0.2
v 0 6.3 0.2
v 0.1 5.7 0.2
v 0.1 5.8 0.2
v 0.1 5.9 0.2
v 0.1 6.1 0.2
v 0.1 6.2 0.2
v 0.1 6.3 0.2
v 0.1 6.4 0.2
v 0.2 5.7 0.2
v 0.2 5.8 0.2
v 0.2 5.9 0.2
v 0.2 6 0.2
v 0.3 5.7 0.2
v 0.3 5.8 0.2
v 0.3 5.9 0.2
v 0.3 6 0.2
v 0.3 6.1 0.2
v -0.2 5.6 0.1
v -0.2 5.7 0.1
v -0.1 5.6 0.1
v -0.1 5.7 0.1
v 0.1 5.7 0.1
v 0.1 6.1 0.1
v 0.1 6.2 0.1
v 0.1 6.3 0.1
v 0.1 6.4 0.1
v 0.2 5.4 0.1
v 0.2 5.6 0.1
v 0.2 5.7 0.1
v 0.2 6.1 0.1
v 0.2 6.2 0.1
v 0.2 6.3 0.1
v 0.2 6.4 0.1
v 0.3 5.4 0.1
v 0.3 5.6 0.1
v 0.3 5.7 0.1
v -0.2 5.4 0
v -0.2 5.6 0
v -0.1 5.3 0
v -0.1 5.4 0
v -0.1 5.6 0
v 0 5.3 0
v 0 5.4 0
v 0.1 6.2 0
v 0.1 6.3 0
v 0.2 5.3 0
v 0.2 5.4 0
v 0.2 5.6 0
v 0.2 6.1 0
v 0.2 6.2 0
v 0.2 6.3 0
v 0.3 6.1 0
v 0.3 6.2 0
v 0.3 6.3 0
v -0.3 5.7 -0.1
v -0.3 5.8 -0.1
v -0.3 5.9 -0.1
v -0.2 5.7 -0.1
v -0.2 5.8 -0.1
v -0.2 5.9 -0.1
v 0.3 5.7 -0.1
v 0.3 5.8 -0.1
v 0.3 5.9 -0.1
v 0.4 5.7 -0.1
v 0.4 5.8 -0.1
v 0.4 5.9 -0.1
v -0.1 6.2 0
v -0.1 6.3 0
v -0.1 6.4 0
v 0 6.2 0
v 0 6.3 0
v 0 6.4 0
v -0.2 6.1 -0.1
v -0.2 6.3 -0.1
v -0.1 6.1 -0.1
v -0.1 6.2 -0.1
v -0.1 6.3 -0.1
v 0 6.3 -0.1
v 0 6.4 -0.1
v 0.1 6.3 -0.1
v 0.1 6.4 -0.1
v -0.3 5.7 -0.2
v -0.3 5.8 -0.2
v -0.3 5.9 -0.2
v -0.2 5.4 -0.2
v -0.2 5.5 -0.2
v -0.2 5.7 -0.2
v -0.2 5.8 -0.2
v -0.2 5.9 -0.2
v -0.1 5.4 -0.2
v -0.1 5.5 -0.2
v -0.1 6.1 -0.2
v -0.1 6.2 -0.2
v 0 6.1 -0.2
v 0 6.2 -0.2
v 0 6.3 -0.2
v 0.1 6.2 -0.2
v 0.1 6.3 -0.2
v 0.2 5.4 -0.2
v 0.2 5.5 -0.2
v 0.3 5.4 -0.2
v 0.3 5.5 -0.2
v 0.3 5.7 -0.2
v 0.3 5.8 -0.2
v 0.3 5.9 -0.2
v 0.4 5.7 -0.2
v 0.4 5.8 -0.2
v 0.4 5.9 -0.2
v -0.2 5.5 -0.3
v -0.2 6.1 -0.3
v -0.1 5.3 -0.3
v -0.1 5.5 -0.3
v -0.1 5.6 -0.3
v -0.1 5.7 -0.3
v -0.1 5.8 -0.3
v -0.1 6.1 -0.3
v 0 5.5 -0.3
v 0 5.6 -0.3
v 0 6.1 -0.3
v 0 6.2 -0.3
v 0.1 6.1 -0.3
v 0.1 6.2 -0.3
v 0.1 6.3 -0.3
v 0.1 6.4 -0.3
v 0.2 5.3 -0.3
v 0.2 5.5 -0.3
v 0.2 5.7 -0.3
v 0.2 5.8 -0.3
v 0.2 6.3 -0.3
v 0.2 6.4 -0.3
v 0.3 5.5 -0.3
v 0.3 5.7 -0.3
v 0.3 5.8 -0.3
v 0.3 6.3 -0.3
v -0.1 5.7 -0.4
v -0.1 5.8 -0.4
v -0.1 6.1 -0.4
v 0 5.8 -0.4
v 0 6.1 -0.4
v 0.1 6.1 -0.4
v 0.1 6.3 -0.4
v 0.2 5.7 -0.4
v 0.2 6.3 -0.4
v -0.1 5.3 0
v 0 5.3 0
v 0.2 5.3 0
v 0 5.3 -0.1
v 0.1 5.3 -0.1
v 0.2 5.3 -0.1
v 0 5.3 -0.2
v 0.1 5.3 -0.2
v -0.1 5.3 -0.3
v 0.2 5.3 -0.3
v 0.2 5.4 0.1
v 0.3 5.4 0.1
v -0.2 5.4 0
v -0.1 5.4 0
v 0.2 5.4 0
v 0.3 5.4 0
v -0.2 5.4 -0.1
v -0.1 5.4 -0.1
v 0.2 5.4 -0.1
v 0.3 5.4 -0.1
v -0.2 5.4 -0.2
v -0.1 5.4 -0.2
v 0.2 5.4 -0.2
v 0.3 5.4 -0.2
v -0.2 5.5 -0.2
v -0.1 5.5 -0.2
v 0.2 5.5 -0.2
v 0.3 5.5 -0.2
v -0.2 5.5 -0.3
v -0.1 5.5 -0.3
v 0.2 5.5 -0.3
v 0.3 5.5 -0.3
v -0.2 5.6 0.1
v -0.1 5.6 0.1
v 0.2 5.6 0.1
v -0.2 5.6 0
v -0.1 5.6 0
v 0.2 5.6 0
v -0.2 5.7 0.2
v -0.1 5.7 0.2
v 0.1 5.7 0.2
v 0.2 5.7 0.2
v 0.3 5.7 0.2
v -0.2 5.7 0.1
v -0.1 5.7 0.1
v 0.1 5.7 0.1
v 0.2 5.7 0.1
v 0.3 5.7 0.1
v -0.3 5.7 -0.1
v -0.2 5.7 -0.1
v 0.3 5.7 -0.1
v 0.4 5.7 -0.1
v -0.3 5.7 -0.2
v -0.2 5.7 -0.2
v 0.3 5.7 -0.2
v 0.4 5.7 -0.2
v -0.1 5.7 -0.3
v 0.2 5.7 -0.3
v -0.1 5.7 -0.4
v 0.2 5.7 -0.4
v 0.1 6.3 0.1
v 0.2 6.3 0.1
v 0.1 6.3 0
v 0.2 6.3 0
v -0.3 5.9 -0.1
v -0.2 5.9 -0.1
v 0.3 5.9 -0.1
v 0.4 5.9 -0.1
v -0.3 5.9 -0.2
v -0.2 5.9 -0.2
v 0.3 5.9 -0.2
v 0.4 5.9 -0.2
v 0.1 6.1 0.2
v 0.3 6.1 0.2
v 0.1 6.1 0.1
v 0.2 6.1 0.1
v 0.3 6.1 0.1
v 0.2 6.1 0
v 0.3 6.1 0
v -0.2 6.1 -0.1
v -0.1 6.1 -0.1
v -0.1 6.1 -0.2
v 0 6.1 -0.2
v -0.2 6.1 -0.3
v -0.1 6.1 -0.3
v 0 6.1 -0.3
v 0.1 6.1 -0.3
v -0.1 6.1 -0.4
v 0 6.1 -0.4
v 0.1 6.1 -0.4
v 0.1 6.2 0.1
v 0.2 6.2 0.1
v -0.1 6.2 0
v 0 6.2 0
v 0.1 6.2 0
v 0.2 6.2 0
v -0.1 6.2 -0.1
v -0.1 6.2 -0.2
v 0 6.2 -0.2
v 0.1 6.2 -0.2
v 0 6.2 -0.3
v 0.1 6.2 -0.3
v -0.2 6.3 0.2
v -0.1 6.3 0.2
v -0.1 6.3 0
v 0.2 6.3 0
v 0.3 6.3 0
v -0.2 6.3 -0.1
v -0.1 6.3 -0.1
v 0 6.3 -0.1
v 0.1 6.3 -0.1
v 0.2 6.3 -0.1
v 0.3 6.3 -0.1
v 0 6.3 -0.2
v 0.1 6.3 -0.2
v 0.2 6.3 -0.2
v 0.3 6.3 -0.2
v 0.1 6.3 -0.3
v 0.2 6.3 -0.3
v 0.3 6.3 -0.3
v 0.1 6.3 -0.4
v 0.2 6.3 -0.4
v -0.1 6.4 0.2
v 0.1 6.4 0.2
v 0 6.4 0.1
v 0.1 6.4 0.1
v 0.2 6.4 0.1
v -0.1 6.4 0
v 0 6.4 0
v 0.1 6.4 0
v 0 6.4 -0.1
v 0.1 6.4 -0.1
v 0.1 6.4 -0.2
v 0.2 6.4 -0.2
v 0.1 6.4 -0.3
v 0.2 6.4 -0.3

# faces
f 3/6/1 2/6/1 1/6/1
f 4/6/1 2/6/1 3/6/1
f 5/7/1 4/7/1 3/7/1
f 6/7/1 4/7/1 5/7/1
f 10/6/1 9/6/1 8/6/1
f 13/7/1 8/7/1 7/7/1
f 15/7/1 13/7/1 12/7/1
f 16/6/1 10/6/1 8/6/1
f 16/7/1 8/7/1 13/7/1
f 16/7/1 13/7/1 15/7/1
f 17/7/1 11/7/1 10/7/1
f 17/6/1 10/6/1 16/6/1
f 18/6/1 15/6/1 14/6/1
f 19/7/1 16/7/1 15/7/1
f 19/6/1 15/6/1 18/6/1
f 20/7/1 16/7/1 19/7/1
f 21/7/1 11/7/1 17/7/1
f 22/5/1 19/5/1 18/5/1
f 23/7/1 20/7/1 19/7/1
f 23/5/1 19/5/1 22/5/1
f 24/7/1 20/7/1 23/7/1
f 25/7/1 11/7/1 21/7/1
f 26/1/1 23/1/1 22/1/1
f 27/7/1 24/7/1 23/7/1
f 27/1/1 23/1/1 26/1/1
f 28/5/1 25/5/1 24/5/1
f 28/7/1 24/7/1 27/7/1
f 29/7/1 11/7/1 25/7/1
f 29/5/1 25/5/1 28/5/1
f 30/7/1 27/7/1 26/7/1
f 30/7/1 28/7/1 27/7/1
f 30/7/1 29/7/1 28/7/1
f 31/7/1 29/7/1 30/7/1
f 32/7/1 29/7/1 31/7/1
f 33/7/1 11/7/1 29/7/1
f 33/7/1 29/7/1 32/7/1
f 34/6/1 31/6/1 30/6/1
f 35/7/1 32/7/1 31/7/1
f 35/6/1 31/6/1 34/6/1
f 36/7/1 35/7/1 34/7/1
f 37/7/1 32/7/1 35/7/1
f 37/7/1 35/7/1 36/7/1
f 40/7/1 39/7/1 38/7/1
f 41/7/1 39/7/1 40/7/1
f 42/7/1 39/7/1 41/7/1
f 43/7/1 39/7/1 42/7/1
f 44/7/1 39/7/1 43/7/1
f 47/7/1 46/7/1 45/7/1
f 48/7/1 46/7/1 47/7/1
f 51/6/1 48/6/1 47/6/1
f 52/6/1 48/6/1 51/6/1
f 53/5/1 50/5/1 49/5/1
f 54/5/1 50/5/1 53/5/1
f 57/7/1 56/7/1 55/7/1
f 58/7/1 56/7/1 57/7/1
f 62/5/1 60/5/1 59/5/1
f 63/5/1 60/5/1 62/5/1
f 64/5/1 62/5/1 61/5/1
f 65/5/1 62/5/1 64/5/1
f 66/5/1 62/5/1 65/5/1
f 67/7/1 65/7/1 64/7/1
f 68/7/1 65/7/1 67/7/1
f 72/7/1 70/7/1 69/7/1
f 74/7/1 72/7/1 71/7/1
f 75/7/1 70/7/1 72/7/1
f 75/7/1 72/7/1 74/7/1
f 76/7/1 70/7/1 75/7/1
f 77/7/1 74/7/1 73/7/1
f 78/6/1 75/6/1 74/6/1
f 78/7/1 74/7/1 77/7/1
f 79/6/1 75/6/1 78/6/1
f 82/7/1 81/7/1 80/7/1
f 83/7/1 81/7/1 82/7/1
f 84/7/2 85/7/2 86/7/2
f 86/7/2 85/7/2 87/7/2
f 88/5/2 89/5/2 90/5/2
f 90/5/2 89/5/2 91/5/2
f 90/6/2 91/6/2 93/6/2
f 91/5/2 92/5/2 94/5/2
f 93/6/2 91/6/2 94/6/2
f 94/5/2 92/5/2 95/5/2
f 93/7/2 94/7/2 96/7/2
f 96/7/2 94/7/2 97/7/2
f 98/6/2 99/6/2 101/6/2
f 99/7/2 100/7/2 102/7/2
f 101/6/2 99/6/2 102/6/2
f 102/7/2 100/7/2 103/7/2
f 103/7/2 100/7/2 104/7/2
f 104/7/2 100/7/2 105/7/2
f 106/7/2 107/7/2 108/7/2
f 109/5/2 110/5/2 111/5/2
f 111/5/2 110/5/2 112/5/2
f 108/7/2 107/7/2 117/7/2
f 117/7/2 107/7/2 118/7/2
f 115/7/2 116/7/2 119/7/2
f 113/7/2 114/7/2 119/7/2
f 114/7/2 115/7/2 119/7/2
f 116/6/2 117/6/2 120/6/2
f 119/7/2 116/7/2 120/7/2
f 120/6/2 117/6/2 121/6/2
f 122/7/2 123/7/2 126/7/2
f 123/6/2 124/6/2 126/6/2
f 124/7/2 125/7/2 127/7/2
f 126/6/2 124/6/2 127/6/2
f 127/7/2 125/7/2 128/7/2
f 122/7/2 126/7/2 130/7/2
f 128/7/2 129/7/2 130/7/2
f 127/7/2 128/7/2 130/7/2
f 126/7/2 127/7/2 130/7/2
f 130/7/2 129/7/2 131/7/2
f 131/7/2 129/7/2 132/7/2
f 132/7/2 129/7/2 133/7/2
f 130/6/2 131/6/2 135/6/2
f 131/7/2 132/7/2 136/7/2
f 135/6/2 131/6/2 136/6/2
f 132/5/2 133/5/2 137/5/2
f 136/7/2 132/7/2 137/7/2
f 133/7/2 129/7/2 138/7/2
f 137/5/2 133/5/2 138/5/2
f 138/7/2 129/7/2 139/7/2
f 136/7/2 137/7/2 140/7/2
f 134/7/2 135/7/2 140/7/2
f 135/7/2 136/7/2 140/7/2
f 140/7/2 137/7/2 141/7/2
f 141/7/2 137/7/2 142/7/2
f 138/5/2 139/5/2 143/5/2
f 143/5/2 139/5/2 144/5/2
f 140/5/2 141/5/2 145/5/2
f 141/7/2 142/7/2 146/7/2
f 145/5/2 141/5/2 146/5/2
f 146/7/2 142/7/2 147/7/2
f 147/7/2 142/7/2 148/7/2
f 143/6/2 144/6/2 149/6/2
f 145/1/2 146/1/2 150/1/2
f 146/7/2 147/7/2 151/7/2
f 150/1/2 146/1/2 151/1/2
f 147/6/2 148/6/2 152/6/2
f 151/7/2 147/7/2 152/7/2
f 148/7/2 149/7/2 153/7/2
f 152/6/2 148/6/2 153/6/2
f 150/5/2 151/5/2 154/5/2
f 151/7/2 152/7/2 155/7/2
f 154/5/2 151/5/2 155/5/2
f 152/7/2 153/7/2 155/7/2
f 155/7/2 153/7/2 156/7/2
f 156/7/2 153/7/2 157/7/2
f 153/7/2 149/7/2 158/7/2
f 157/7/2 153/7/2 158/7/2
f 157/6/2 158/6/2 159/6/2
f 158/7/2 149/7/2 160/7/2
f 159/6/2 158/6/2 160/6/2
f 149/6/2 144/6/2 161/6/2
f 160/7/2 149/7/2 161/7/2
f 161/6/2 144/6/2 162/6/2
f 163/7/2 164/7/2 165/7/2
f 165/7/2 164/7/2 166/7/2
f 165/6/2 166/6/2 167/6/2
f 167/6/2 166/6/2 168/6/2
f 176/6/3 170/6/3 169/6/3
f 177/5/3 171/5/3 170/5/3
f 177/6/3 170/6/3 176/6/3
f 178/1/3 172/1/3 171/1/3
f 178/5/3 171/5/3 177/5/3
f 179/7/3 173/7/3 172/7/3
f 179/1/3 172/1/3 178/1/3
f 180/6/3 174/6/3 173/6/3
f 180/7/3 173/7/3 179/7/3
f 181/7/3 175/7/3 174/7/3
f 183/7/3 177/7/3 176/7/3
f 183/7/3 178/7/3 177/7/3
f 183/5/3 179/5/3 178/5/3
f 184/6/3 180/6/3 179/6/3
f 184/5/3 179/5/3 183/5/3
f 185/6/3 174/6/3 180/6/3
f 185/6/3 180/6/3 184/6/3
f 186/7/3 182/7/3 181/7/3
f 186/6/3 174/6/3 185/6/3
f 186/7/3 181/7/3 174/7/3
f 187/7/3 182/7/3 186/7/3
f 188/7/3 184/7/3 183/7/3
f 188/7/3 185/7/3 184/7/3
f 188/7/3 183/7/3 176/7/3
f 189/7/3 185/7/3 188/7/3
f 190/7/3 185/7/3 189/7/3
f 191/5/3 186/5/3 185/5/3
f 191/7/3 185/7/3 190/7/3
f 192/6/3 187/6/3 186/6/3
f 192/5/3 186/5/3 191/5/3
f 193/7/3 182/7/3 187/7/3
f 193/6/3 187/6/3 192/6/3
f 194/7/3 182/7/3 193/7/3
f 195/6/3 189/6/3 188/6/3
f 196/7/3 190/7/3 189/7/3
f 196/6/3 189/6/3 195/6/3
f 197/5/3 191/5/3 190/5/3
f 197/7/3 190/7/3 196/7/3
f 198/5/3 191/5/3 197/5/3
f 199/7/3 196/7/3 195/7/3
f 200/5/3 197/5/3 196/5/3
f 200/7/3 196/7/3 199/7/3
f 201/1/3 198/1/3 197/1/3
f 201/5/3 197/5/3 200/5/3
f 202/5/3 191/5/3 198/5/3
f 202/1/3 198/1/3 201/1/3
f 203/5/3 191/5/3 202/5/3
f 206/7/3 205/7/3 204/7/3
f 207/7/3 205/7/3 206/7/3
f 208/4/3 207/4/3 206/4/3
f 214/4/3 208/4/3 206/4/3
f 215/4/3 208/4/3 214/4/3
f 216/5/3 210/5/3 209/5/3
f 217/5/3 210/5/3 216/5/3
f 218/7/3 212/7/3 211/7/3
f 219/7/3 212/7/3 218/7/3
f 220/7/3 214/7/3 213/7/3
f 221/6/3 215/6/3 214/6/3
f 221/7/3 214/7/3 220/7/3
f 222/6/3 215/6/3 221/6/3
f 226/7/3 224/7/3 223/7/3
f 227/7/3 224/7/3 226/7/3
f 228/7/3 226/7/3 225/7/3
f 229/8/3 227/8/3 226/8/3
f 229/7/3 226/7/3 228/7/3
f 232/6/3 229/6/3 228/6/3
f 233/8/3 227/8/3 229/8/3
f 233/6/3 229/6/3 232/6/3
f 234/8/3 227/8/3 233/8/3
f 236/5/3 231/5/3 230/5/3
f 237/5/3 231/5/3 236/5/3
f 238/7/3 236/7/3 235/7/3
f 239/6/3 237/6/3 236/6/3
f 239/7/3 236/7/3 238/7/3
f 240/6/3 237/6/3 239/6/3
f 244/6/3 242/6/3 241/6/3
f 245/7/3 243/7/3 242/7/3
f 245/6/3 242/6/3 244/6/3
f 246/7/3 243/7/3 245/7/3
f 250/7/3 248/7/3 247/7/3
f 251/6/3 249/6/3 248/6/3
f 251/7/3 248/7/3 250/7/3
f 252/6/3 249/6/3 251/6/3
f 253/7/4 254/7/4 256/7/4
f 254/7/4 255/7/4 256/7/4
f 256/7/4 255/7/4 257/7/4
f 257/7/4 255/7/4 258/7/4
f 259/7/4 260/7/4 261/7/4
f 261/7/4 260/7/4 262/7/4
f 262/7/4 260/7/4 263/7/4
f 264/7/4 265/7/4 266/7/4
f 266/7/4 265/7/4 267/7/4
f 268/6/4 269/6/4 273/6/4
f 269/7/4 270/7/4 274/7/4
f 273/6/4 269/6/4 274/6/4
f 274/7/4 270/7/4 275/7/4
f 271/6/4 272/6/4 276/6/4
f 276/6/4 272/6/4 277/6/4
f 278/5/4 279/5/4 280/5/4
f 280/5/4 279/5/4 281/5/4
f 281/5/4 282/5/4 283/5/4
f 283/5/4 282/5/4 284/5/4
f 285/7/4 286/7/4 287/7/4
f 287/7/4 286/7/4 288/7/4
f 289/7/4 290/7/4 292/7/4
f 290/6/4 291/6/4 293/6/4
f 292/7/4 290/7/4 293/7/4
f 293/6/4 291/6/4 294/6/4
f 295/7/4 296/7/4 298/7/4
f 298/7/4 296/7/4 299/7/4
f 299/7/4 296/7/4 300/7/4
f 300/7/4 296/7/4 301/7/4
f 301/7/4 296/7/4 302/7/4
f 297/7/4 298/7/4 303/7/4
f 298/6/4 299/6/4 303/6/4
f 299/7/4 300/7/4 304/7/4
f 303/6/4 299/6/4 304/6/4
f 305/5/4 306/5/4 307/5/4
f 307/5/4 306/5/4 308/5/4
f 297/7/4 303/7/4 311/7/4
f 303/7/4 304/7/4 311/7/4
f 311/7/4 304/7/4 312/7/4
f 304/7/4 300/7/4 313/7/4
f 312/7/4 304/7/4 313/7/4
f 309/6/4 310/6/4 315/6/4
f 315/6/4 310/6/4 316/6/4
f 312/7/4 313/7/4 317/7/4
f 313/5/4 314/5/4 318/5/4
f 317/7/4 313/7/4 318/7/4
f 314/6/4 315/6/4 319/6/4
f 318/5/4 314/5/4 319/5/4
f 319/6/4 315/6/4 320/6/4
f 321/7/4 322/7/4 324/7/4
f 322/6/4 323/6/4 324/6/4
f 324/6/4 323/6/4 325/6/4
f 324/7/4 325/7/4 326/7/4
f 321/7/4 324/7/4 328/7/4
f 326/7/4 327/7/4 328/7/4
f 324/7/4 326/7/4 328/7/4
f 328/7/4 327/7/4 329/7/4
f 333/7/5 331/7/5 330/7/5
f 333/6/5 332/6/5 331/6/5
f 334/6/5 332/6/5 333/6/5
f 335/6/5 332/6/5 334/6/5
f 336/7/5 333/7/5 330/7/5
f 336/3/5 334/3/5 333/3/5
f 337/7/5 335/7/5 334/7/5
f 337/3/5 334/3/5 336/3/5
f 338/7/5 336/7/5 330/7/5
f 338/7/5 337/7/5 336/7/5
f 339/7/5 335/7/5 337/7/5
f 339/7/5 337/7/5 338/7/5
f 344/7/5 341/7/5 340/7/5
f 345/7/5 341/7/5 344/7/5
f 346/7/5 343/7/5 342/7/5
f 347/7/5 343/7/5 346/7/5
f 348/6/5 345/6/5 344/6/5
f 349/6/5 345/6/5 348/6/5
f 350/6/5 347/6/5 346/6/5
f 351/6/5 347/6/5 350/6/5
f 352/7/5 349/7/5 348/7/5
f 353/7/5 349/7/5 352/7/5
f 358/7/5 355/7/5 354/7/5
f 359/7/5 355/7/5 358/7/5
f 360/7/5 357/7/5 356/7/5
f 361/7/5 357/7/5 360/7/5
f 365/7/5 363/7/5 362/7/5
f 366/4/5 364/4/5 363/4/5
f 366/7/5 363/7/5 365/7/5
f 367/4/5 364/4/5 366/4/5
f 373/6/5 369/6/5 368/6/5
f 374/7/5 370/7/5 369/7/5
f 374/6/5 369/6/5 373/6/5
f 375/6/5 371/6/5 370/6/5
f 375/7/5 370/7/5 374/7/5
f 376/7/5 372/7/5 371/7/5
f 376/6/5 371/6/5 375/6/5
f 377/7/5 372/7/5 376/7/5
f 382/6/5 379/6/5 378/6/5
f 383/6/5 379/6/5 382/6/5
f 384/7/5 381/7/5 380/7/5
f 385/7/5 381/7/5 384/7/5
f 388/7/5 387/7/5 386/7/5
f 389/7/5 387/7/5 388/7/5
f 392/7/5 391/7/5 390/7/5
f 393/7/5 391/7/5 392/7/5
f 394/7/6 395/7/6 398/7/6
f 398/7/6 395/7/6 399/7/6
f 396/6/6 397/6/6 400/6/6
f 400/6/6 397/6/6 401/6/6
f 402/5/6 403/5/6 404/5/6
f 404/5/6 403/5/6 405/5/6
f 405/5/6 403/5/6 406/5/6
f 405/7/6 406/7/6 407/7/6
f 407/7/6 406/7/6 408/7/6
f 409/7/6 410/7/6 411/7/6
f 409/7/6 411/7/6 413/7/6
f 411/7/6 412/7/6 413/7/6
f 413/7/6 412/7/6 414/7/6
f 414/7/6 412/7/6 415/7/6
f 414/6/6 415/6/6 417/6/6
f 415/7/6 416/7/6 418/7/6
f 417/6/6 415/6/6 418/6/6
f 418/7/6 416/7/6 419/7/6
f 420/5/6 421/5/6 424/5/6
f 424/5/6 421/5/6 425/5/6
f 422/5/6 423/5/6 426/5/6
f 426/5/6 423/5/6 427/5/6
f 427/5/6 423/5/6 428/5/6
f 428/5/6 429/5/6 430/5/6
f 430/5/6 429/5/6 431/5/6
f 432/7/6 433/7/6 434/7/6
f 432/7/6 434/7/6 437/7/6
f 437/7/6 434/7/6 438/7/6
f 435/6/6 436/6/6 441/6/6
f 441/6/6 436/6/6 442/6/6
f 439/5/6 440/5/6 443/5/6
f 443/5/6 440/5/6 444/5/6
f 441/7/6 442/7/6 445/7/6
f 445/7/6 442/7/6 446/7/6
f 445/6/6 446/6/6 448/6/6
f 448/6/6 446/6/6 449/6/6
f 447/7/6 448/7/6 450/7/6
f 450/7/6 448/7/6 451/7/6
f 452/7/6 453/7/6 454/7/6
f 454/7/6 453/7/6 455/7/6
f 452/7/6 454/7/6 457/7/6
f 454/6/6 455/6/6 458/6/6
f 457/7/6 454/7/6 458/7/6
f 455/7/6 456/7/6 459/7/6
f 458/6/6 455/6/6 459/6/6
f 458/7/6 459/7/6 460/7/6
f 459/7/6 456/7/6 461/7/6
f 460/7/6 459/7/6 461/7/6
f 461/7/6 456/7/6 462/7/6
f 462/7/6 456/7/6 463/7/6
f 462/6/6 463/6/6 464/6/6
f 464/6/6 463/6/6 465/6/6
