# MagicaVoxel @ Ephtracy

# group
o 

# material
mtllib lantern.mtl
usemtl palette

# normals
vn -1 0 0
vn 1 0 0
vn 0 0 1
vn 0 0 -1
vn 0 -1 0
vn 0 1 0

# texcoords
vt 0.134766 0.5
vt 0.251953 0.5
vt 0.943359 0.5
vt 0.978516 0.5

# verts
v 0 2 -0.1
v 0 2 -1.2
v 0 2.1 -0.2
v 0 2.1 -1.1
v 0 3 -0.2
v 0 3 -1.1
v 0 3.1 -0.1
v 0 3.1 -1.2
v 0.1 2 0
v 0.1 2 -0.1
v 0.1 2 -1.2
v 0.1 2 -1.3
v 0.1 2.1 -0.6
v 0.1 2.1 -0.7
v 0.1 2.6 -0.2
v 0.1 2.6 -0.6
v 0.1 2.6 -0.7
v 0.1 2.6 -1.1
v 0.1 2.7 -0.2
v 0.1 2.7 -0.6
v 0.1 2.7 -0.7
v 0.1 2.7 -1.1
v 0.1 3 -0.6
v 0.1 3 -0.7
v 0.1 3.1 0
v 0.1 3.1 -0.1
v 0.1 3.1 -1.2
v 0.1 3.1 -1.3
v 0.1 3.3 -0.1
v 0.1 3.3 -1.2
v 0.3 3.3 -0.2
v 0.3 3.3 -1.1
v 0.3 3.4 -0.2
v 0.3 3.4 -1.1
v 0.5 3.3 -0.1
v 0.5 3.3 -0.2
v 0.5 3.3 -1.1
v 0.5 3.3 -1.2
v 0.5 3.4 -0.2
v 0.5 3.4 -0.4
v 0.5 3.4 -0.9
v 0.5 3.4 -1.1
v 0.5 3.6 -0.1
v 0.5 3.6 -0.4
v 0.5 3.6 -0.9
v 0.5 3.6 -1.2
v 0.6 2.1 -0.1
v 0.6 2.1 -0.2
v 0.6 2.1 -1.1
v 0.6 2.1 -1.2
v 0.6 2.6 -0.1
v 0.6 2.6 -0.2
v 0.6 2.6 -1.1
v 0.6 2.6 -1.2
v 0.6 2.7 -0.1
v 0.6 2.7 -0.2
v 0.6 2.7 -1.1
v 0.6 2.7 -1.2
v 0.6 3 -0.1
v 0.6 3 -0.2
v 0.6 3 -1.1
v 0.6 3 -1.2
v 0.6 3.6 -0.2
v 0.6 3.6 -0.3
v 0.6 3.6 -1
v 0.6 3.6 -1.1
v 0.6 3.8 -0.3
v 0.6 3.8 -0.4
v 0.6 3.8 -0.9
v 0.6 3.8 -1
v 0.6 3.9 -0.2
v 0.6 3.9 -0.3
v 0.6 3.9 -0.4
v 0.6 3.9 -0.9
v 0.6 3.9 -1
v 0.6 3.9 -1.1
v 0.6 4 -0.3
v 0.6 4 -1
v 1.1 2.1 0
v 1.1 2.1 -0.2
v 1.1 2.1 -0.6
v 1.1 2.1 -0.7
v 1.1 2.1 -1.1
v 1.1 2.1 -1.3
v 1.1 2.6 -0.1
v 1.1 2.6 -0.2
v 1.1 2.6 -0.6
v 1.1 2.6 -0.7
v 1.1 2.6 -1.1
v 1.1 2.6 -1.2
v 1.1 2.7 -0.1
v 1.1 2.7 -0.2
v 1.1 2.7 -0.6
v 1.1 2.7 -0.7
v 1.1 2.7 -1.1
v 1.1 2.7 -1.2
v 1.1 3 0
v 1.1 3 -0.2
v 1.1 3 -0.6
v 1.1 3 -0.7
v 1.1 3 -1.1
v 1.1 3 -1.3
v 0.2 2.1 0
v 0.2 2.1 -0.2
v 0.2 2.1 -0.6
v 0.2 2.1 -0.7
v 0.2 2.1 -1.1
v 0.2 2.1 -1.3
v 0.2 2.6 -0.1
v 0.2 2.6 -0.2
v 0.2 2.6 -0.6
v 0.2 2.6 -0.7
v 0.2 2.6 -1.1
v 0.2 2.6 -1.2
v 0.2 2.7 -0.1
v 0.2 2.7 -0.2
v 0.2 2.7 -0.6
v 0.2 2.7 -0.7
v 0.2 2.7 -1.1
v 0.2 2.7 -1.2
v 0.2 3 0
v 0.2 3 -0.2
v 0.2 3 -0.6
v 0.2 3 -0.7
v 0.2 3 -1.1
v 0.2 3 -1.3
v 0.7 2.1 -0.1
v 0.7 2.1 -0.2
v 0.7 2.1 -1.1
v 0.7 2.1 -1.2
v 0.7 2.6 -0.1
v 0.7 2.6 -0.2
v 0.7 2.6 -1.1
v 0.7 2.6 -1.2
v 0.7 2.7 -0.1
v 0.7 2.7 -0.2
v 0.7 2.7 -1.1
v 0.7 2.7 -1.2
v 0.7 3 -0.1
v 0.7 3 -0.2
v 0.7 3 -1.1
v 0.7 3 -1.2
v 0.8 3.6 -0.2
v 0.8 3.6 -0.3
v 0.8 3.6 -1
v 0.8 3.6 -1.1
v 0.8 3.8 -0.3
v 0.8 3.8 -0.4
v 0.8 3.8 -0.9
v 0.8 3.8 -1
v 0.8 3.9 -0.2
v 0.8 3.9 -0.3
v 0.8 3.9 -0.4
v 0.8 3.9 -0.9
v 0.8 3.9 -1
v 0.8 3.9 -1.1
v 0.8 4 -0.3
v 0.8 4 -1
v 0.9 3.3 -0.1
v 0.9 3.3 -0.2
v 0.9 3.4 -0.1
v 0.9 3.4 -0.2
v 0.9 3.4 -0.4
v 0.9 3.4 -0.9
v 0.9 3.4 -1.2
v 0.9 3.6 -0.1
v 0.9 3.6 -0.4
v 0.9 3.6 -0.9
v 0.9 3.6 -1.2
v 1.1 3.3 -0.2
v 1.1 3.3 -1.2
v 1.1 3.4 -0.2
v 1.1 3.4 -1.2
v 1.2 2 0
v 1.2 2 -0.1
v 1.2 2 -1.2
v 1.2 2 -1.3
v 1.2 2.1 -0.6
v 1.2 2.1 -0.7
v 1.2 2.6 -0.2
v 1.2 2.6 -0.6
v 1.2 2.6 -0.7
v 1.2 2.6 -1.1
v 1.2 2.7 -0.2
v 1.2 2.7 -0.6
v 1.2 2.7 -0.7
v 1.2 2.7 -1.1
v 1.2 3 -0.6
v 1.2 3 -0.7
v 1.2 3.1 0
v 1.2 3.1 -0.1
v 1.2 3.1 -1.2
v 1.2 3.1 -1.3
v 1.2 3.3 -0.1
v 1.2 3.3 -1.2
v 1.3 2 -0.1
v 1.3 2 -1.2
v 1.3 2.1 -0.2
v 1.3 2.1 -1.1
v 1.3 3 -0.2
v 1.3 3 -1.1
v 1.3 3.1 -0.1
v 1.3 3.1 -1.2
v 0.1 2 0
v 0.1 3.1 0
v 0.2 2.1 0
v 0.2 3 0
v 1.1 2.1 0
v 1.1 3 0
v 1.2 2 0
v 1.2 3.1 0
v 0 2 -0.1
v 0 3.1 -0.1
v 0.1 2 -0.1
v 0.1 3.1 -0.1
v 0.1 3.3 -0.1
v 0.2 2.6 -0.1
v 0.2 2.7 -0.1
v 0.5 3.3 -0.1
v 0.5 3.6 -0.1
v 0.6 2.1 -0.1
v 0.6 2.6 -0.1
v 0.6 2.7 -0.1
v 0.6 3 -0.1
v 0.6 3.3 -0.1
v 0.6 3.4 -0.1
v 0.7 2.1 -0.1
v 0.7 2.6 -0.1
v 0.7 2.7 -0.1
v 0.7 3 -0.1
v 0.7 3.3 -0.1
v 0.7 3.4 -0.1
v 0.8 3.3 -0.1
v 0.8 3.4 -0.1
v 0.9 3.3 -0.1
v 0.9 3.4 -0.1
v 0.9 3.6 -0.1
v 1.1 2.6 -0.1
v 1.1 2.7 -0.1
v 1.2 2 -0.1
v 1.2 3.1 -0.1
v 1.2 3.3 -0.1
v 1.3 2 -0.1
v 1.3 3.1 -0.1
v 0.3 3.3 -0.2
v 0.3 3.4 -0.2
v 0.5 3.3 -0.2
v 0.5 3.4 -0.2
v 0.6 3.6 -0.2
v 0.6 3.9 -0.2
v 0.8 3.6 -0.2
v 0.8 3.9 -0.2
v 0.9 3.3 -0.2
v 0.9 3.4 -0.2
v 1.1 3.3 -0.2
v 1.1 3.4 -0.2
v 0.6 3.9 -0.3
v 0.6 4 -0.3
v 0.8 3.9 -0.3
v 0.8 4 -0.3
v 0.1 2.1 -0.6
v 0.1 2.6 -0.6
v 0.1 2.7 -0.6
v 0.1 3 -0.6
v 0.2 2.1 -0.6
v 0.2 2.6 -0.6
v 0.2 2.7 -0.6
v 0.2 3 -0.6
v 1.1 2.1 -0.6
v 1.1 2.6 -0.6
v 1.1 2.7 -0.6
v 1.1 3 -0.6
v 1.2 2.1 -0.6
v 1.2 2.6 -0.6
v 1.2 2.7 -0.6
v 1.2 3 -0.6
v 0.5 3.4 -0.9
v 0.5 3.6 -0.9
v 0.6 3.8 -0.9
v 0.6 3.9 -0.9
v 0.8 3.8 -0.9
v 0.8 3.9 -0.9
v 0.9 3.4 -0.9
v 0.9 3.6 -0.9
v 0.6 3.6 -1
v 0.6 3.8 -1
v 0.8 3.6 -1
v 0.8 3.8 -1
v 0 2.1 -1.1
v 0 3 -1.1
v 0.1 2.6 -1.1
v 0.1 2.7 -1.1
v 0.2 2.1 -1.1
v 0.2 2.6 -1.1
v 0.2 2.7 -1.1
v 0.2 3 -1.1
v 0.6 2.1 -1.1
v 0.6 2.6 -1.1
v 0.6 2.7 -1.1
v 0.6 3 -1.1
v 0.7 2.1 -1.1
v 0.7 2.6 -1.1
v 0.7 2.7 -1.1
v 0.7 3 -1.1
v 1.1 2.1 -1.1
v 1.1 2.6 -1.1
v 1.1 2.7 -1.1
v 1.1 3 -1.1
v 1.2 2.6 -1.1
v 1.2 2.7 -1.1
v 1.3 2.1 -1.1
v 1.3 3 -1.1
v 0 2.1 -0.2
v 0 3 -0.2
v 0.1 2.6 -0.2
v 0.1 2.7 -0.2
v 0.2 2.1 -0.2
v 0.2 2.6 -0.2
v 0.2 2.7 -0.2
v 0.2 3 -0.2
v 0.6 2.1 -0.2
v 0.6 2.6 -0.2
v 0.6 2.7 -0.2
v 0.6 3 -0.2
v 0.7 2.1 -0.2
v 0.7 2.6 -0.2
v 0.7 2.7 -0.2
v 0.7 3 -0.2
v 1.1 2.1 -0.2
v 1.1 2.6 -0.2
v 1.1 2.7 -0.2
v 1.1 3 -0.2
v 1.2 2.6 -0.2
v 1.2 2.7 -0.2
v 1.3 2.1 -0.2
v 1.3 3 -0.2
v 0.6 3.6 -0.3
v 0.6 3.8 -0.3
v 0.8 3.6 -0.3
v 0.8 3.8 -0.3
v 0.5 3.4 -0.4
v 0.5 3.6 -0.4
v 0.6 3.8 -0.4
v 0.6 3.9 -0.4
v 0.8 3.8 -0.4
v 0.8 3.9 -0.4
v 0.9 3.4 -0.4
v 0.9 3.6 -0.4
v 0.1 2.1 -0.7
v 0.1 2.6 -0.7
v 0.1 2.7 -0.7
v 0.1 3 -0.7
v 0.2 2.1 -0.7
v 0.2 2.6 -0.7
v 0.2 2.7 -0.7
v 0.2 3 -0.7
v 1.1 2.1 -0.7
v 1.1 2.6 -0.7
v 1.1 2.7 -0.7
v 1.1 3 -0.7
v 1.2 2.1 -0.7
v 1.2 2.6 -0.7
v 1.2 2.7 -0.7
v 1.2 3 -0.7
v 0.6 3.9 -1
v 0.6 4 -1
v 0.8 3.9 -1
v 0.8 4 -1
v 0.3 3.3 -1.1
v 0.3 3.4 -1.1
v 0.5 3.3 -1.1
v 0.5 3.4 -1.1
v 0.6 3.6 -1.1
v 0.6 3.9 -1.1
v 0.8 3.6 -1.1
v 0.8 3.9 -1.1
v 0 2 -1.2
v 0 3.1 -1.2
v 0.1 2 -1.2
v 0.1 3.1 -1.2
v 0.1 3.3 -1.2
v 0.2 2.6 -1.2
v 0.2 2.7 -1.2
v 0.5 3.3 -1.2
v 0.5 3.6 -1.2
v 0.6 2.1 -1.2
v 0.6 2.6 -1.2
v 0.6 2.7 -1.2
v 0.6 3 -1.2
v 0.6 3.3 -1.2
v 0.6 3.4 -1.2
v 0.7 2.1 -1.2
v 0.7 2.6 -1.2
v 0.7 2.7 -1.2
v 0.7 3 -1.2
v 0.7 3.3 -1.2
v 0.7 3.4 -1.2
v 0.8 3.3 -1.2
v 0.8 3.4 -1.2
v 0.9 3.4 -1.2
v 0.9 3.6 -1.2
v 1.1 2.6 -1.2
v 1.1 2.7 -1.2
v 1.1 3.3 -1.2
v 1.1 3.4 -1.2
v 1.2 2 -1.2
v 1.2 3.1 -1.2
v 1.2 3.3 -1.2
v 1.3 2 -1.2
v 1.3 3.1 -1.2
v 0.1 2 -1.3
v 0.1 3.1 -1.3
v 0.2 2.1 -1.3
v 0.2 3 -1.3
v 1.1 2.1 -1.3
v 1.1 3 -1.3
v 1.2 2 -1.3
v 1.2 3.1 -1.3
v 0.1 2 0
v 1.2 2 0
v 0 2 -0.1
v 0.1 2 -0.1
v 1.2 2 -0.1
v 1.3 2 -0.1
v 0 2 -1.2
v 0.1 2 -1.2
v 1.2 2 -1.2
v 1.3 2 -1.2
v 0.1 2 -1.3
v 1.2 2 -1.3
v 0.2 2.6 -0.1
v 0.6 2.6 -0.1
v 0.7 2.6 -0.1
v 1.1 2.6 -0.1
v 0.1 2.6 -0.2
v 0.2 2.6 -0.2
v 0.6 2.6 -0.2
v 0.7 2.6 -0.2
v 1.1 2.6 -0.2
v 1.2 2.6 -0.2
v 0.1 2.6 -0.6
v 0.2 2.6 -0.6
v 1.1 2.6 -0.6
v 1.2 2.6 -0.6
v 0.1 2.6 -0.7
v 0.2 2.6 -0.7
v 1.1 2.6 -0.7
v 1.2 2.6 -0.7
v 0.1 2.6 -1.1
v 0.2 2.6 -1.1
v 0.6 2.6 -1.1
v 0.7 2.6 -1.1
v 1.1 2.6 -1.1
v 1.2 2.6 -1.1
v 0.2 2.6 -1.2
v 0.6 2.6 -1.2
v 0.7 2.6 -1.2
v 1.1 2.6 -1.2
v 0.2 3 0
v 1.1 3 0
v 0.6 3 -0.1
v 0.7 3 -0.1
v 0 3 -0.2
v 0.2 3 -0.2
v 0.6 3 -0.2
v 0.7 3 -0.2
v 1.1 3 -0.2
v 1.3 3 -0.2
v 0.1 3 -0.6
v 0.2 3 -0.6
v 1.1 3 -0.6
v 1.2 3 -0.6
v 0.1 3 -0.7
v 0.2 3 -0.7
v 1.1 3 -0.7
v 1.2 3 -0.7
v 0 3 -1.1
v 0.2 3 -1.1
v 0.6 3 -1.1
v 0.7 3 -1.1
v 1.1 3 -1.1
v 1.3 3 -1.1
v 0.6 3 -1.2
v 0.7 3 -1.2
v 0.2 3 -1.3
v 1.1 3 -1.3
v 0.6 3.8 -0.3
v 0.8 3.8 -0.3
v 0.6 3.8 -0.4
v 0.8 3.8 -0.4
v 0.6 3.8 -0.9
v 0.8 3.8 -0.9
v 0.6 3.8 -1
v 0.8 3.8 -1
v 0.6 3.9 -0.4
v 0.8 3.9 -0.4
v 0.6 3.9 -0.9
v 0.8 3.9 -0.9
v 0.2 2.1 0
v 1.1 2.1 0
v 0.6 2.1 -0.1
v 0.7 2.1 -0.1
v 0 2.1 -0.2
v 0.2 2.1 -0.2
v 0.6 2.1 -0.2
v 0.7 2.1 -0.2
v 1.1 2.1 -0.2
v 1.3 2.1 -0.2
v 0.1 2.1 -0.6
v 0.2 2.1 -0.6
v 1.1 2.1 -0.6
v 1.2 2.1 -0.6
v 0.1 2.1 -0.7
v 0.2 2.1 -0.7
v 1.1 2.1 -0.7
v 1.2 2.1 -0.7
v 0 2.1 -1.1
v 0.2 2.1 -1.1
v 0.6 2.1 -1.1
v 0.7 2.1 -1.1
v 1.1 2.1 -1.1
v 1.3 2.1 -1.1
v 0.6 2.1 -1.2
v 0.7 2.1 -1.2
v 0.2 2.1 -1.3
v 1.1 2.1 -1.3
v 0.2 2.7 -0.1
v 0.6 2.7 -0.1
v 0.7 2.7 -0.1
v 1.1 2.7 -0.1
v 0.1 2.7 -0.2
v 0.2 2.7 -0.2
v 0.6 2.7 -0.2
v 0.7 2.7 -0.2
v 1.1 2.7 -0.2
v 1.2 2.7 -0.2
v 0.1 2.7 -0.6
v 0.2 2.7 -0.6
v 1.1 2.7 -0.6
v 1.2 2.7 -0.6
v 0.1 2.7 -0.7
v 0.2 2.7 -0.7
v 1.1 2.7 -0.7
v 1.2 2.7 -0.7
v 0.1 2.7 -1.1
v 0.2 2.7 -1.1
v 0.6 2.7 -1.1
v 0.7 2.7 -1.1
v 1.1 2.7 -1.1
v 1.2 2.7 -1.1
v 0.2 2.7 -1.2
v 0.6 2.7 -1.2
v 0.7 2.7 -1.2
v 1.1 2.7 -1.2
v 0.1 3.1 0
v 1.2 3.1 0
v 0 3.1 -0.1
v 0.1 3.1 -0.1
v 1.2 3.1 -0.1
v 1.3 3.1 -0.1
v 0 3.1 -1.2
v 0.1 3.1 -1.2
v 1.2 3.1 -1.2
v 1.3 3.1 -1.2
v 0.1 3.1 -1.3
v 1.2 3.1 -1.3
v 0.1 3.3 -0.1
v 0.5 3.3 -0.1
v 0.9 3.3 -0.1
v 1.2 3.3 -0.1
v 0.3 3.3 -0.2
v 0.5 3.3 -0.2
v 0.9 3.3 -0.2
v 1.1 3.3 -0.2
v 0.3 3.3 -1.1
v 0.5 3.3 -1.1
v 0.1 3.3 -1.2
v 0.5 3.3 -1.2
v 1.1 3.3 -1.2
v 1.2 3.3 -1.2
v 0.3 3.4 -0.2
v 0.5 3.4 -0.2
v 0.9 3.4 -0.2
v 1.1 3.4 -0.2
v 0.5 3.4 -0.4
v 0.9 3.4 -0.4
v 0.5 3.4 -0.9
v 0.9 3.4 -0.9
v 0.3 3.4 -1.1
v 0.5 3.4 -1.1
v 0.9 3.4 -1.2
v 1.1 3.4 -1.2
v 0.5 3.6 -0.1
v 0.9 3.6 -0.1
v 0.6 3.6 -0.2
v 0.8 3.6 -0.2
v 0.6 3.6 -0.3
v 0.8 3.6 -0.3
v 0.5 3.6 -0.4
v 0.9 3.6 -0.4
v 0.5 3.6 -0.9
v 0.9 3.6 -0.9
v 0.6 3.6 -1
v 0.8 3.6 -1
v 0.6 3.6 -1.1
v 0.8 3.6 -1.1
v 0.5 3.6 -1.2
v 0.9 3.6 -1.2
v 0.6 3.9 -0.2
v 0.8 3.9 -0.2
v 0.6 3.9 -0.3
v 0.8 3.9 -0.3
v 0.6 3.9 -1
v 0.8 3.9 -1
v 0.6 3.9 -1.1
v 0.8 3.9 -1.1
v 0.6 4 -0.3
v 0.8 4 -0.3
v 0.6 4 -1
v 0.8 4 -1

# faces
f 3/2/1 2/2/1 1/2/1
f 4/2/1 2/2/1 3/2/1
f 5/2/1 3/2/1 1/2/1
f 6/2/1 2/2/1 4/2/1
f 7/2/1 5/2/1 1/2/1
f 7/2/1 6/2/1 5/2/1
f 8/2/1 2/2/1 6/2/1
f 8/2/1 6/2/1 7/2/1
f 16/1/1 14/1/1 13/1/1
f 17/1/1 14/1/1 16/1/1
f 19/1/1 16/1/1 15/1/1
f 19/1/1 18/1/1 17/1/1
f 19/1/1 17/1/1 16/1/1
f 20/1/1 18/1/1 19/1/1
f 21/1/1 18/1/1 20/1/1
f 22/1/1 18/1/1 21/1/1
f 23/1/1 21/1/1 20/1/1
f 24/1/1 21/1/1 23/1/1
f 25/2/1 10/2/1 9/2/1
f 26/2/1 10/2/1 25/2/1
f 27/2/1 12/2/1 11/2/1
f 28/2/1 12/2/1 27/2/1
f 29/2/1 27/2/1 26/2/1
f 30/2/1 27/2/1 29/2/1
f 33/2/1 32/2/1 31/2/1
f 34/2/1 32/2/1 33/2/1
f 39/4/1 36/4/1 35/4/1
f 42/4/1 38/4/1 37/4/1
f 43/4/1 40/4/1 39/4/1
f 43/4/1 39/4/1 35/4/1
f 44/4/1 40/4/1 43/4/1
f 45/4/1 42/4/1 41/4/1
f 46/4/1 38/4/1 42/4/1
f 46/4/1 42/4/1 45/4/1
f 51/1/1 48/1/1 47/1/1
f 52/1/1 48/1/1 51/1/1
f 53/1/1 50/1/1 49/1/1
f 54/1/1 50/1/1 53/1/1
f 59/1/1 56/1/1 55/1/1
f 60/1/1 56/1/1 59/1/1
f 61/1/1 58/1/1 57/1/1
f 62/1/1 58/1/1 61/1/1
f 67/3/1 64/3/1 63/3/1
f 70/3/1 66/3/1 65/3/1
f 71/3/1 68/3/1 67/3/1
f 71/3/1 67/3/1 63/3/1
f 72/3/1 68/3/1 71/3/1
f 73/3/1 68/3/1 72/3/1
f 74/3/1 70/3/1 69/3/1
f 75/3/1 66/3/1 70/3/1
f 75/3/1 70/3/1 74/3/1
f 76/3/1 66/3/1 75/3/1
f 77/3/1 73/3/1 72/3/1
f 77/3/1 74/3/1 73/3/1
f 77/3/1 75/3/1 74/3/1
f 78/3/1 75/3/1 77/3/1
f 85/2/1 80/2/1 79/2/1
f 86/2/1 80/2/1 85/2/1
f 87/1/1 82/1/1 81/1/1
f 88/1/1 82/1/1 87/1/1
f 89/2/1 84/2/1 83/2/1
f 90/2/1 84/2/1 89/2/1
f 91/2/1 85/2/1 79/2/1
f 92/1/1 88/1/1 87/1/1
f 92/1/1 89/1/1 88/1/1
f 92/1/1 87/1/1 86/1/1
f 93/1/1 89/1/1 92/1/1
f 94/1/1 89/1/1 93/1/1
f 95/1/1 89/1/1 94/1/1
f 96/2/1 84/2/1 90/2/1
f 97/2/1 91/2/1 79/2/1
f 97/2/1 92/2/1 91/2/1
f 98/2/1 92/2/1 97/2/1
f 99/1/1 94/1/1 93/1/1
f 100/1/1 94/1/1 99/1/1
f 101/2/1 96/2/1 95/2/1
f 102/2/1 84/2/1 96/2/1
f 102/2/1 96/2/1 101/2/1
f 103/2/2 104/2/2 109/2/2
f 109/2/2 104/2/2 110/2/2
f 105/1/2 106/1/2 111/1/2
f 111/1/2 106/1/2 112/1/2
f 107/2/2 108/2/2 113/2/2
f 113/2/2 108/2/2 114/2/2
f 103/2/2 109/2/2 115/2/2
f 111/1/2 112/1/2 116/1/2
f 112/1/2 113/1/2 116/1/2
f 110/1/2 111/1/2 116/1/2
f 116/1/2 113/1/2 117/1/2
f 117/1/2 113/1/2 118/1/2
f 118/1/2 113/1/2 119/1/2
f 114/2/2 108/2/2 120/2/2
f 103/2/2 115/2/2 121/2/2
f 115/2/2 116/2/2 121/2/2
f 121/2/2 116/2/2 122/2/2
f 117/1/2 118/1/2 123/1/2
f 123/1/2 118/1/2 124/1/2
f 119/2/2 120/2/2 125/2/2
f 120/2/2 108/2/2 126/2/2
f 125/2/2 120/2/2 126/2/2
f 127/1/2 128/1/2 131/1/2
f 131/1/2 128/1/2 132/1/2
f 129/1/2 130/1/2 133/1/2
f 133/1/2 130/1/2 134/1/2
f 135/1/2 136/1/2 139/1/2
f 139/1/2 136/1/2 140/1/2
f 137/1/2 138/1/2 141/1/2
f 141/1/2 138/1/2 142/1/2
f 143/3/2 144/3/2 147/3/2
f 145/3/2 146/3/2 150/3/2
f 147/3/2 148/3/2 151/3/2
f 143/3/2 147/3/2 151/3/2
f 151/3/2 148/3/2 152/3/2
f 152/3/2 148/3/2 153/3/2
f 149/3/2 150/3/2 154/3/2
f 150/3/2 146/3/2 155/3/2
f 154/3/2 150/3/2 155/3/2
f 155/3/2 146/3/2 156/3/2
f 152/3/2 153/3/2 157/3/2
f 153/3/2 154/3/2 157/3/2
f 154/3/2 155/3/2 157/3/2
f 157/3/2 155/3/2 158/3/2
f 159/2/2 160/2/2 161/2/2
f 161/2/2 160/2/2 162/2/2
f 161/4/2 162/4/2 166/4/2
f 162/4/2 163/4/2 166/4/2
f 166/4/2 163/4/2 167/4/2
f 164/4/2 165/4/2 168/4/2
f 168/4/2 165/4/2 169/4/2
f 170/2/2 171/2/2 172/2/2
f 172/2/2 171/2/2 173/2/2
f 178/1/2 179/1/2 181/1/2
f 181/1/2 179/1/2 182/1/2
f 180/1/2 181/1/2 184/1/2
f 182/1/2 183/1/2 184/1/2
f 181/1/2 182/1/2 184/1/2
f 184/1/2 183/1/2 185/1/2
f 185/1/2 183/1/2 186/1/2
f 186/1/2 183/1/2 187/1/2
f 185/1/2 186/1/2 188/1/2
f 188/1/2 186/1/2 189/1/2
f 174/2/2 175/2/2 190/2/2
f 190/2/2 175/2/2 191/2/2
f 176/2/2 177/2/2 192/2/2
f 192/2/2 177/2/2 193/2/2
f 191/2/2 192/2/2 194/2/2
f 194/2/2 192/2/2 195/2/2
f 196/2/2 197/2/2 198/2/2
f 198/2/2 197/2/2 199/2/2
f 196/2/2 198/2/2 200/2/2
f 199/2/2 197/2/2 201/2/2
f 196/2/2 200/2/2 202/2/2
f 200/2/2 201/2/2 202/2/2
f 201/2/2 197/2/2 203/2/2
f 202/2/2 201/2/2 203/2/2
f 206/2/3 205/2/3 204/2/3
f 207/2/3 205/2/3 206/2/3
f 208/2/3 206/2/3 204/2/3
f 209/2/3 205/2/3 207/2/3
f 210/2/3 208/2/3 204/2/3
f 210/2/3 209/2/3 208/2/3
f 211/2/3 205/2/3 209/2/3
f 211/2/3 209/2/3 210/2/3
f 214/2/3 213/2/3 212/2/3
f 215/2/3 213/2/3 214/2/3
f 219/2/3 216/2/3 215/2/3
f 222/1/3 218/1/3 217/1/3
f 223/1/3 218/1/3 222/1/3
f 225/4/3 220/4/3 219/4/3
f 225/2/3 219/2/3 215/2/3
f 226/4/3 220/4/3 225/4/3
f 227/1/3 224/1/3 223/1/3
f 227/1/3 223/1/3 222/1/3
f 227/1/3 222/1/3 221/1/3
f 228/1/3 224/1/3 227/1/3
f 229/1/3 224/1/3 228/1/3
f 230/1/3 224/1/3 229/1/3
f 231/2/3 226/2/3 225/2/3
f 231/2/3 225/2/3 215/2/3
f 232/4/3 220/4/3 226/4/3
f 232/2/3 226/2/3 231/2/3
f 233/2/3 231/2/3 215/2/3
f 233/4/3 232/4/3 231/4/3
f 234/4/3 220/4/3 232/4/3
f 234/4/3 232/4/3 233/4/3
f 235/2/3 233/2/3 215/2/3
f 235/2/3 234/2/3 233/2/3
f 236/4/3 220/4/3 234/4/3
f 236/2/3 234/2/3 235/2/3
f 237/4/3 220/4/3 236/4/3
f 238/1/3 229/1/3 228/1/3
f 239/1/3 229/1/3 238/1/3
f 241/2/3 235/2/3 215/2/3
f 242/2/3 235/2/3 241/2/3
f 243/2/3 241/2/3 240/2/3
f 244/2/3 241/2/3 243/2/3
f 247/2/3 246/2/3 245/2/3
f 248/2/3 246/2/3 247/2/3
f 251/3/3 250/3/3 249/3/3
f 252/3/3 250/3/3 251/3/3
f 255/2/3 254/2/3 253/2/3
f 256/2/3 254/2/3 255/2/3
f 259/3/3 258/3/3 257/3/3
f 260/3/3 258/3/3 259/3/3
f 265/1/3 262/1/3 261/1/3
f 266/1/3 262/1/3 265/1/3
f 267/1/3 264/1/3 263/1/3
f 268/1/3 264/1/3 267/1/3
f 273/1/3 270/1/3 269/1/3
f 274/1/3 270/1/3 273/1/3
f 275/1/3 272/1/3 271/1/3
f 276/1/3 272/1/3 275/1/3
f 281/3/3 280/3/3 279/3/3
f 282/3/3 280/3/3 281/3/3
f 283/4/3 278/4/3 277/4/3
f 284/4/3 278/4/3 283/4/3
f 287/3/3 286/3/3 285/3/3
f 288/3/3 286/3/3 287/3/3
f 291/2/3 290/2/3 289/2/3
f 292/2/3 290/2/3 291/2/3
f 293/2/3 291/2/3 289/2/3
f 294/2/3 291/2/3 293/2/3
f 295/2/3 290/2/3 292/2/3
f 296/2/3 290/2/3 295/2/3
f 298/1/3 295/1/3 294/1/3
f 299/1/3 295/1/3 298/1/3
f 301/1/3 298/1/3 297/1/3
f 301/1/3 300/1/3 299/1/3
f 301/1/3 299/1/3 298/1/3
f 302/1/3 300/1/3 301/1/3
f 303/1/3 300/1/3 302/1/3
f 304/1/3 300/1/3 303/1/3
f 306/1/3 303/1/3 302/1/3
f 307/1/3 303/1/3 306/1/3
f 309/2/3 306/2/3 305/2/3
f 310/2/3 308/2/3 307/2/3
f 311/2/3 309/2/3 305/2/3
f 311/2/3 310/2/3 309/2/3
f 312/2/3 308/2/3 310/2/3
f 312/2/3 310/2/3 311/2/3
f 313/2/4 314/2/4 315/2/4
f 315/2/4 314/2/4 316/2/4
f 313/2/4 315/2/4 317/2/4
f 317/2/4 315/2/4 318/2/4
f 316/2/4 314/2/4 319/2/4
f 319/2/4 314/2/4 320/2/4
f 318/1/4 319/1/4 322/1/4
f 322/1/4 319/1/4 323/1/4
f 321/1/4 322/1/4 325/1/4
f 323/1/4 324/1/4 325/1/4
f 322/1/4 323/1/4 325/1/4
f 325/1/4 324/1/4 326/1/4
f 326/1/4 324/1/4 327/1/4
f 327/1/4 324/1/4 328/1/4
f 326/1/4 327/1/4 330/1/4
f 330/1/4 327/1/4 331/1/4
f 329/2/4 330/2/4 333/2/4
f 331/2/4 332/2/4 334/2/4
f 329/2/4 333/2/4 335/2/4
f 333/2/4 334/2/4 335/2/4
f 334/2/4 332/2/4 336/2/4
f 335/2/4 334/2/4 336/2/4
f 337/3/4 338/3/4 339/3/4
f 339/3/4 338/3/4 340/3/4
f 343/3/4 344/3/4 345/3/4
f 345/3/4 344/3/4 346/3/4
f 341/4/4 342/4/4 347/4/4
f 347/4/4 342/4/4 348/4/4
f 349/1/4 350/1/4 353/1/4
f 353/1/4 350/1/4 354/1/4
f 351/1/4 352/1/4 355/1/4
f 355/1/4 352/1/4 356/1/4
f 357/1/4 358/1/4 361/1/4
f 361/1/4 358/1/4 362/1/4
f 359/1/4 360/1/4 363/1/4
f 363/1/4 360/1/4 364/1/4
f 365/3/4 366/3/4 367/3/4
f 367/3/4 366/3/4 368/3/4
f 369/2/4 370/2/4 371/2/4
f 371/2/4 370/2/4 372/2/4
f 373/3/4 374/3/4 375/3/4
f 375/3/4 374/3/4 376/3/4
f 377/2/4 378/2/4 379/2/4
f 379/2/4 378/2/4 380/2/4
f 380/2/4 381/2/4 384/2/4
f 382/1/4 383/1/4 387/1/4
f 387/1/4 383/1/4 388/1/4
f 384/4/4 385/4/4 390/4/4
f 380/2/4 384/2/4 390/2/4
f 390/4/4 385/4/4 391/4/4
f 388/1/4 389/1/4 392/1/4
f 387/1/4 388/1/4 392/1/4
f 386/1/4 387/1/4 392/1/4
f 392/1/4 389/1/4 393/1/4
f 393/1/4 389/1/4 394/1/4
f 394/1/4 389/1/4 395/1/4
f 390/2/4 391/2/4 396/2/4
f 380/2/4 390/2/4 396/2/4
f 391/4/4 385/4/4 397/4/4
f 396/2/4 391/2/4 397/2/4
f 380/2/4 396/2/4 398/2/4
f 396/4/4 397/4/4 398/4/4
f 397/4/4 385/4/4 399/4/4
f 398/4/4 397/4/4 399/4/4
f 398/2/4 399/2/4 400/2/4
f 399/4/4 385/4/4 400/4/4
f 400/4/4 385/4/4 401/4/4
f 393/1/4 394/1/4 402/1/4
f 402/1/4 394/1/4 403/1/4
f 380/2/4 398/2/4 404/2/4
f 398/2/4 400/2/4 404/2/4
f 404/2/4 400/2/4 405/2/4
f 380/2/4 404/2/4 407/2/4
f 407/2/4 404/2/4 408/2/4
f 406/2/4 407/2/4 409/2/4
f 409/2/4 407/2/4 410/2/4
f 411/2/4 412/2/4 413/2/4
f 413/2/4 412/2/4 414/2/4
f 411/2/4 413/2/4 415/2/4
f 414/2/4 412/2/4 416/2/4
f 411/2/4 415/2/4 417/2/4
f 415/2/4 416/2/4 417/2/4
f 416/2/4 412/2/4 418/2/4
f 417/2/4 416/2/4 418/2/4
f 422/2/5 420/2/5 419/2/5
f 423/2/5 420/2/5 422/2/5
f 425/2/5 422/2/5 421/2/5
f 425/2/5 424/2/5 423/2/5
f 425/2/5 423/2/5 422/2/5
f 426/2/5 424/2/5 425/2/5
f 427/2/5 424/2/5 426/2/5
f 428/2/5 424/2/5 427/2/5
f 429/2/5 427/2/5 426/2/5
f 430/2/5 427/2/5 429/2/5
f 436/1/5 432/1/5 431/1/5
f 437/1/5 432/1/5 436/1/5
f 438/1/5 434/1/5 433/1/5
f 439/1/5 434/1/5 438/1/5
f 441/1/5 436/1/5 435/1/5
f 442/1/5 436/1/5 441/1/5
f 443/1/5 440/1/5 439/1/5
f 444/1/5 440/1/5 443/1/5
f 449/1/5 446/1/5 445/1/5
f 450/1/5 446/1/5 449/1/5
f 453/1/5 448/1/5 447/1/5
f 454/1/5 448/1/5 453/1/5
f 455/1/5 451/1/5 450/1/5
f 456/1/5 451/1/5 455/1/5
f 457/1/5 453/1/5 452/1/5
f 458/1/5 453/1/5 457/1/5
f 461/2/5 460/2/5 459/2/5
f 462/2/5 460/2/5 461/2/5
f 464/2/5 461/2/5 459/2/5
f 465/2/5 461/2/5 464/2/5
f 466/2/5 460/2/5 462/2/5
f 467/2/5 460/2/5 466/2/5
f 469/2/5 465/2/5 464/2/5
f 469/2/5 468/2/5 467/2/5
f 469/2/5 467/2/5 466/2/5
f 469/2/5 466/2/5 465/2/5
f 469/2/5 464/2/5 463/2/5
f 470/2/5 468/2/5 469/2/5
f 471/2/5 468/2/5 470/2/5
f 472/2/5 468/2/5 471/2/5
f 473/2/5 469/2/5 463/2/5
f 474/2/5 471/2/5 470/2/5
f 475/2/5 471/2/5 474/2/5
f 476/2/5 468/2/5 472/2/5
f 477/2/5 475/2/5 474/2/5
f 477/2/5 476/2/5 475/2/5
f 477/2/5 473/2/5 463/2/5
f 477/2/5 474/2/5 473/2/5
f 478/2/5 476/2/5 477/2/5
f 479/2/5 476/2/5 478/2/5
f 480/2/5 476/2/5 479/2/5
f 481/2/5 476/2/5 480/2/5
f 482/2/5 468/2/5 476/2/5
f 482/2/5 476/2/5 481/2/5
f 483/2/5 479/2/5 478/2/5
f 484/2/5 481/2/5 480/2/5
f 485/2/5 483/2/5 478/2/5
f 485/2/5 484/2/5 483/2/5
f 486/2/5 481/2/5 484/2/5
f 486/2/5 484/2/5 485/2/5
f 489/3/5 488/3/5 487/3/5
f 490/3/5 488/3/5 489/3/5
f 493/3/5 492/3/5 491/3/5
f 494/3/5 492/3/5 493/3/5
f 497/3/5 496/3/5 495/3/5
f 498/3/5 496/3/5 497/3/5
f 499/2/6 500/2/6 501/2/6
f 501/2/6 500/2/6 502/2/6
f 499/2/6 501/2/6 504/2/6
f 504/2/6 501/2/6 505/2/6
f 502/2/6 500/2/6 506/2/6
f 506/2/6 500/2/6 507/2/6
f 504/2/6 505/2/6 509/2/6
f 507/2/6 508/2/6 509/2/6
f 506/2/6 507/2/6 509/2/6
f 505/2/6 506/2/6 509/2/6
f 503/2/6 504/2/6 509/2/6
f 509/2/6 508/2/6 510/2/6
f 510/2/6 508/2/6 511/2/6
f 511/2/6 508/2/6 512/2/6
f 503/2/6 509/2/6 513/2/6
f 510/2/6 511/2/6 514/2/6
f 514/2/6 511/2/6 515/2/6
f 512/2/6 508/2/6 516/2/6
f 514/2/6 515/2/6 517/2/6
f 515/2/6 516/2/6 517/2/6
f 503/2/6 513/2/6 517/2/6
f 513/2/6 514/2/6 517/2/6
f 517/2/6 516/2/6 518/2/6
f 518/2/6 516/2/6 519/2/6
f 519/2/6 516/2/6 520/2/6
f 520/2/6 516/2/6 521/2/6
f 516/2/6 508/2/6 522/2/6
f 521/2/6 516/2/6 522/2/6
f 518/2/6 519/2/6 523/2/6
f 520/2/6 521/2/6 524/2/6
f 518/2/6 523/2/6 525/2/6
f 523/2/6 524/2/6 525/2/6
f 524/2/6 521/2/6 526/2/6
f 525/2/6 524/2/6 526/2/6
f 527/1/6 528/1/6 532/1/6
f 532/1/6 528/1/6 533/1/6
f 529/1/6 530/1/6 534/1/6
f 534/1/6 530/1/6 535/1/6
f 531/1/6 532/1/6 537/1/6
f 537/1/6 532/1/6 538/1/6
f 535/1/6 536/1/6 539/1/6
f 539/1/6 536/1/6 540/1/6
f 541/1/6 542/1/6 545/1/6
f 545/1/6 542/1/6 546/1/6
f 543/1/6 544/1/6 549/1/6
f 549/1/6 544/1/6 550/1/6
f 546/1/6 547/1/6 551/1/6
f 551/1/6 547/1/6 552/1/6
f 548/1/6 549/1/6 553/1/6
f 553/1/6 549/1/6 554/1/6
f 555/2/6 556/2/6 558/2/6
f 558/2/6 556/2/6 559/2/6
f 557/2/6 558/2/6 561/2/6
f 561/2/6 558/2/6 562/2/6
f 559/2/6 560/2/6 563/2/6
f 563/2/6 560/2/6 564/2/6
f 562/2/6 563/2/6 565/2/6
f 565/2/6 563/2/6 566/2/6
f 567/2/6 568/2/6 571/2/6
f 571/2/6 568/2/6 572/2/6
f 569/2/6 570/2/6 573/2/6
f 573/2/6 570/2/6 574/2/6
f 567/2/6 571/2/6 575/2/6
f 567/2/6 575/2/6 577/2/6
f 575/2/6 576/2/6 577/2/6
f 577/2/6 576/2/6 578/2/6
f 574/2/6 570/2/6 579/2/6
f 579/2/6 570/2/6 580/2/6
f 581/2/6 582/2/6 585/2/6
f 583/2/6 584/2/6 586/2/6
f 581/2/6 585/2/6 587/2/6
f 585/2/6 586/2/6 587/2/6
f 586/2/6 584/2/6 588/2/6
f 587/2/6 586/2/6 588/2/6
f 581/2/6 587/2/6 589/2/6
f 589/2/6 587/2/6 590/2/6
f 588/2/6 584/2/6 591/2/6
f 591/2/6 584/2/6 592/2/6
f 593/4/6 594/4/6 595/4/6
f 595/4/6 594/4/6 596/4/6
f 593/4/6 595/4/6 597/4/6
f 596/4/6 594/4/6 598/4/6
f 593/4/6 597/4/6 599/4/6
f 597/4/6 598/4/6 599/4/6
f 598/4/6 594/4/6 600/4/6
f 599/4/6 598/4/6 600/4/6
f 601/4/6 602/4/6 603/4/6
f 603/4/6 602/4/6 604/4/6
f 601/4/6 603/4/6 605/4/6
f 604/4/6 602/4/6 606/4/6
f 601/4/6 605/4/6 607/4/6
f 605/4/6 606/4/6 607/4/6
f 606/4/6 602/4/6 608/4/6
f 607/4/6 606/4/6 608/4/6
f 609/3/6 610/3/6 611/3/6
f 611/3/6 610/3/6 612/3/6
f 613/3/6 614/3/6 615/3/6
f 615/3/6 614/3/6 616/3/6
f 617/3/6 618/3/6 619/3/6
f 619/3/6 618/3/6 620/3/6
