# MagicaVoxel @ Ephtracy

# group
o Door_Wooden_Lock

# material
mtllib ExtraContent-64-Door_Wooden_Lock.mtl
usemtl palette

# normals
vn -1 0 0
vn 1 0 0
vn 0 0 1
vn 0 0 -1
vn 0 -1 0
vn 0 1 0

# texcoords
vt 0.689453 0.5
vt 0.693359 0.5
vt 0.697266 0.5
vt 0.876953 0.5
vt 0.880859 0.5
vt 0.884766 0.5
vt 0.888672 0.5

# verts
v -0.5 -1.1 -0.05
v -0.5 -1.1 -0.15
v -0.5 -1 -0.05
v -0.5 -1 -0.15
v -0.5 -0.9 -0.05
v -0.5 -0.9 -0.15
v -0.5 -0.7 -0.05
v -0.5 -0.7 -0.15
v -0.5 -0.5 -0.05
v -0.5 -0.5 -0.15
v -0.5 0.1 -0.05
v -0.5 0.1 -0.15
v -0.5 0.4 -0.05
v -0.5 0.4 -0.15
v -0.5 0.9 -0.05
v -0.5 0.9 -0.15
v -0.4 -0.3 0.05
v -0.4 -0.3 -0.05
v -0.4 -0.1 0.05
v -0.4 -0.1 -0.05
v -0.4 0 0.05
v -0.4 0 -0.05
v -0.3 -0.4 0.05
v -0.3 -0.4 -0.05
v -0.3 -0.3 0.05
v -0.3 -0.3 -0.05
v -0.3 0.9 -0.05
v -0.3 0.9 -0.15
v -0.3 1 -0.05
v -0.3 1 -0.15
v -0.2 -0.2 0.05
v -0.2 -0.2 -0.05
v -0.2 -0.1 0.05
v -0.2 -0.1 -0.05
v -0.1 1 -0.05
v -0.1 1 -0.15
v -0.1 1.1 -0.05
v -0.1 1.1 -0.15
v -0.3 -0.2 0.05
v -0.3 -0.2 -0.05
v -0.3 -0.1 0.05
v -0.3 -0.1 -0.05
v -0.2 -0.4 0.05
v -0.2 -0.4 -0.05
v -0.2 -0.3 0.05
v -0.2 -0.3 -0.05
v -0.1 -0.3 0.05
v -0.1 -0.3 -0.05
v -0.1 -0.2 0.05
v -0.1 -0.2 -0.05
v -0.1 -0.1 -0.05
v -0.1 0 0.05
v -0.1 0 -0.05
v 0.1 1 -0.05
v 0.1 1 -0.15
v 0.1 1.1 -0.05
v 0.1 1.1 -0.15
v 0.3 0.9 -0.05
v 0.3 0.9 -0.15
v 0.3 1 -0.05
v 0.3 1 -0.15
v 0.5 -1.1 -0.05
v 0.5 -1.1 -0.15
v 0.5 -1 -0.05
v 0.5 -1 -0.15
v 0.5 -0.9 -0.05
v 0.5 -0.9 -0.15
v 0.5 -0.8 -0.05
v 0.5 -0.8 -0.15
v 0.5 -0.7 -0.05
v 0.5 -0.7 -0.15
v 0.5 -0.6 -0.05
v 0.5 -0.6 -0.15
v 0.5 0.2 -0.05
v 0.5 0.2 -0.15
v 0.5 0.4 -0.05
v 0.5 0.4 -0.15
v 0.5 0.5 -0.05
v 0.5 0.5 -0.15
v 0.5 0.6 -0.05
v 0.5 0.6 -0.15
v 0.5 0.7 -0.05
v 0.5 0.7 -0.15
v 0.5 0.9 -0.05
v 0.5 0.9 -0.15
v -0.4 -0.3 0.05
v -0.4 -0.1 0.05
v -0.4 0 0.05
v -0.3 -0.4 0.05
v -0.3 -0.3 0.05
v -0.3 -0.2 0.05
v -0.3 -0.1 0.05
v -0.2 -0.4 0.05
v -0.2 -0.3 0.05
v -0.2 -0.2 0.05
v -0.2 -0.1 0.05
v -0.2 0 0.05
v -0.1 -0.3 0.05
v -0.1 -0.2 0.05
v -0.1 0 0.05
v -0.5 -1.1 -0.05
v -0.5 -1 -0.05
v -0.5 -0.9 -0.05
v -0.5 -0.7 -0.05
v -0.5 -0.5 -0.05
v -0.5 0.1 -0.05
v -0.5 0.4 -0.05
v -0.5 0.9 -0.05
v -0.4 -1 -0.05
v -0.4 -0.9 -0.05
v -0.4 -0.7 -0.05
v -0.4 -0.5 -0.05
v -0.4 -0.4 -0.05
v -0.4 -0.3 -0.05
v -0.4 -0.1 -0.05
v -0.4 0 -0.05
v -0.4 0.1 -0.05
v -0.4 0.4 -0.05
v -0.4 0.5 -0.05
v -0.4 0.7 -0.05
v -0.4 0.8 -0.05
v -0.3 -1 -0.05
v -0.3 -0.8 -0.05
v -0.3 -0.5 -0.05
v -0.3 -0.4 -0.05
v -0.3 -0.3 -0.05
v -0.3 -0.2 -0.05
v -0.3 -0.1 -0.05
v -0.3 0 -0.05
v -0.3 0.1 -0.05
v -0.3 0.2 -0.05
v -0.3 0.5 -0.05
v -0.3 0.7 -0.05
v -0.3 0.8 -0.05
v -0.3 0.9 -0.05
v -0.3 1 -0.05
v -0.2 -1 -0.05
v -0.2 -0.8 -0.05
v -0.2 -0.5 -0.05
v -0.2 -0.4 -0.05
v -0.2 -0.3 -0.05
v -0.2 -0.2 -0.05
v -0.2 -0.1 -0.05
v -0.2 0 -0.05
v -0.2 0.1 -0.05
v -0.2 0.2 -0.05
v -0.2 0.4 -0.05
v -0.2 0.7 -0.05
v -0.1 -1.1 -0.05
v -0.1 -1 -0.05
v -0.1 -0.8 -0.05
v -0.1 -0.4 -0.05
v -0.1 -0.3 -0.05
v -0.1 -0.2 -0.05
v -0.1 -0.1 -0.05
v -0.1 0 -0.05
v -0.1 0.1 -0.05
v -0.1 0.4 -0.05
v -0.1 0.7 -0.05
v -0.1 0.8 -0.05
v -0.1 0.9 -0.05
v -0.1 1 -0.05
v -0.1 1.1 -0.05
v 0 -1.1 -0.05
v 0 -1 -0.05
v 0 -0.8 -0.05
v 0 -0.6 -0.05
v 0 -0.3 -0.05
v 0 -0.2 -0.05
v 0 -0.1 -0.05
v 0 0 -0.05
v 0 0.1 -0.05
v 0 0.2 -0.05
v 0 0.8 -0.05
v 0 1 -0.05
v 0.1 -1 -0.05
v 0.1 -0.8 -0.05
v 0.1 -0.6 -0.05
v 0.1 -0.3 -0.05
v 0.1 -0.2 -0.05
v 0.1 0 -0.05
v 0.1 0.2 -0.05
v 0.1 0.6 -0.05
v 0.1 0.8 -0.05
v 0.1 0.9 -0.05
v 0.1 1 -0.05
v 0.1 1.1 -0.05
v 0.2 -1 -0.05
v 0.2 -0.8 -0.05
v 0.2 -0.4 -0.05
v 0.2 -0.3 -0.05
v 0.2 -0.2 -0.05
v 0.2 0 -0.05
v 0.2 0.6 -0.05
v 0.2 0.8 -0.05
v 0.3 -1.1 -0.05
v 0.3 -1 -0.05
v 0.3 -0.8 -0.05
v 0.3 -0.6 -0.05
v 0.3 -0.4 -0.05
v 0.3 -0.3 -0.05
v 0.3 -0.2 -0.05
v 0.3 0 -0.05
v 0.3 0.1 -0.05
v 0.3 0.4 -0.05
v 0.3 0.6 -0.05
v 0.3 0.8 -0.05
v 0.3 0.9 -0.05
v 0.3 1 -0.05
v 0.4 -1.1 -0.05
v 0.4 -1 -0.05
v 0.4 -0.9 -0.05
v 0.4 -0.8 -0.05
v 0.4 -0.7 -0.05
v 0.4 -0.6 -0.05
v 0.4 0 -0.05
v 0.4 0.1 -0.05
v 0.4 0.2 -0.05
v 0.4 0.4 -0.05
v 0.4 0.5 -0.05
v 0.4 0.6 -0.05
v 0.4 0.7 -0.05
v 0.4 0.8 -0.05
v 0.5 -1.1 -0.05
v 0.5 -1 -0.05
v 0.5 -0.9 -0.05
v 0.5 -0.8 -0.05
v 0.5 -0.7 -0.05
v 0.5 -0.6 -0.05
v 0.5 0.2 -0.05
v 0.5 0.4 -0.05
v 0.5 0.5 -0.05
v 0.5 0.6 -0.05
v 0.5 0.7 -0.05
v 0.5 0.9 -0.05
v -0.5 -1.1 -0.15
v -0.5 -1 -0.15
v -0.5 -0.9 -0.15
v -0.5 -0.7 -0.15
v -0.5 -0.5 -0.15
v -0.5 0.1 -0.15
v -0.5 0.4 -0.15
v -0.5 0.9 -0.15
v -0.4 -1 -0.15
v -0.4 -0.9 -0.15
v -0.4 -0.7 -0.15
v -0.4 -0.5 -0.15
v -0.4 -0.4 -0.15
v -0.4 -0.3 -0.15
v -0.4 -0.2 -0.15
v -0.4 0.1 -0.15
v -0.4 0.4 -0.15
v -0.4 0.5 -0.15
v -0.4 0.7 -0.15
v -0.4 0.8 -0.15
v -0.3 -1 -0.15
v -0.3 -0.8 -0.15
v -0.3 -0.5 -0.15
v -0.3 -0.4 -0.15
v -0.3 -0.3 -0.15
v -0.3 -0.2 -0.15
v -0.3 -0.1 -0.15
v -0.3 0.1 -0.15
v -0.3 0.2 -0.15
v -0.3 0.5 -0.15
v -0.3 0.7 -0.15
v -0.3 0.8 -0.15
v -0.3 0.9 -0.15
v -0.3 1 -0.15
v -0.2 -1 -0.15
v -0.2 -0.8 -0.15
v -0.2 -0.5 -0.15
v -0.2 -0.4 -0.15
v -0.2 -0.3 -0.15
v -0.2 -0.1 -0.15
v -0.2 0 -0.15
v -0.2 0.1 -0.15
v -0.2 0.2 -0.15
v -0.2 0.4 -0.15
v -0.2 0.7 -0.15
v -0.1 -1.1 -0.15
v -0.1 -1 -0.15
v -0.1 -0.8 -0.15
v -0.1 -0.4 -0.15
v -0.1 -0.3 -0.15
v -0.1 -0.1 -0.15
v -0.1 0 -0.15
v -0.1 0.1 -0.15
v -0.1 0.4 -0.15
v -0.1 0.7 -0.15
v -0.1 0.8 -0.15
v -0.1 0.9 -0.15
v -0.1 1 -0.15
v -0.1 1.1 -0.15
v 0 -1.1 -0.15
v 0 -1 -0.15
v 0 -0.8 -0.15
v 0 -0.6 -0.15
v 0 -0.3 -0.15
v 0 -0.2 -0.15
v 0 -0.1 -0.15
v 0 0 -0.15
v 0 0.1 -0.15
v 0 0.2 -0.15
v 0 0.8 -0.15
v 0 1 -0.15
v 0.1 -1 -0.15
v 0.1 -0.8 -0.15
v 0.1 -0.6 -0.15
v 0.1 -0.3 -0.15
v 0.1 -0.2 -0.15
v 0.1 0 -0.15
v 0.1 0.2 -0.15
v 0.1 0.6 -0.15
v 0.1 0.8 -0.15
v 0.1 0.9 -0.15
v 0.1 1 -0.15
v 0.1 1.1 -0.15
v 0.2 -1 -0.15
v 0.2 -0.8 -0.15
v 0.2 -0.4 -0.15
v 0.2 -0.3 -0.15
v 0.2 -0.2 -0.15
v 0.2 0 -0.15
v 0.2 0.6 -0.15
v 0.2 0.8 -0.15
v 0.3 -1.1 -0.15
v 0.3 -1 -0.15
v 0.3 -0.8 -0.15
v 0.3 -0.6 -0.15
v 0.3 -0.4 -0.15
v 0.3 -0.3 -0.15
v 0.3 -0.2 -0.15
v 0.3 0 -0.15
v 0.3 0.1 -0.15
v 0.3 0.4 -0.15
v 0.3 0.6 -0.15
v 0.3 0.8 -0.15
v 0.3 0.9 -0.15
v 0.3 1 -0.15
v 0.4 -1.1 -0.15
v 0.4 -1 -0.15
v 0.4 -0.9 -0.15
v 0.4 -0.8 -0.15
v 0.4 -0.7 -0.15
v 0.4 -0.6 -0.15
v 0.4 0 -0.15
v 0.4 0.1 -0.15
v 0.4 0.2 -0.15
v 0.4 0.4 -0.15
v 0.4 0.5 -0.15
v 0.4 0.6 -0.15
v 0.4 0.7 -0.15
v 0.4 0.8 -0.15
v 0.5 -1.1 -0.15
v 0.5 -1 -0.15
v 0.5 -0.9 -0.15
v 0.5 -0.8 -0.15
v 0.5 -0.7 -0.15
v 0.5 -0.6 -0.15
v 0.5 0.2 -0.15
v 0.5 0.4 -0.15
v 0.5 0.5 -0.15
v 0.5 0.6 -0.15
v 0.5 0.7 -0.15
v 0.5 0.9 -0.15
v -0.5 -1.1 -0.05
v -0.1 -1.1 -0.05
v 0 -1.1 -0.05
v 0.3 -1.1 -0.05
v 0.4 -1.1 -0.05
v 0.5 -1.1 -0.05
v -0.5 -1.1 -0.15
v -0.1 -1.1 -0.15
v 0 -1.1 -0.15
v 0.3 -1.1 -0.15
v 0.4 -1.1 -0.15
v 0.5 -1.1 -0.15
v -0.3 -0.4 0.05
v -0.2 -0.4 0.05
v -0.3 -0.4 -0.05
v -0.2 -0.4 -0.05
v -0.4 -0.3 0.05
v -0.3 -0.3 0.05
v -0.2 -0.3 0.05
v -0.1 -0.3 0.05
v -0.4 -0.3 -0.05
v -0.3 -0.3 -0.05
v -0.2 -0.3 -0.05
v -0.1 -0.3 -0.05
v -0.3 -0.1 0.05
v -0.2 -0.1 0.05
v -0.3 -0.1 -0.05
v -0.2 -0.1 -0.05
v -0.3 -0.2 0.05
v -0.2 -0.2 0.05
v -0.3 -0.2 -0.05
v -0.2 -0.2 -0.05
v -0.4 0 0.05
v -0.2 0 0.05
v -0.1 0 0.05
v -0.4 0 -0.05
v -0.3 0 -0.05
v -0.2 0 -0.05
v -0.1 0 -0.05
v -0.5 0.9 -0.05
v -0.3 0.9 -0.05
v 0.3 0.9 -0.05
v 0.5 0.9 -0.05
v -0.5 0.9 -0.15
v -0.3 0.9 -0.15
v 0.3 0.9 -0.15
v 0.5 0.9 -0.15
v -0.3 1 -0.05
v -0.1 1 -0.05
v 0.1 1 -0.05
v 0.3 1 -0.05
v -0.3 1 -0.15
v -0.1 1 -0.15
v 0.1 1 -0.15
v 0.3 1 -0.15
v -0.1 1.1 -0.05
v 0.1 1.1 -0.05
v -0.1 1.1 -0.15
v 0.1 1.1 -0.15

# faces
f 3/4/1 2/4/1 1/4/1
f 4/4/1 2/4/1 3/4/1
f 5/6/1 4/6/1 3/6/1
f 6/6/1 4/6/1 5/6/1
f 7/4/1 6/4/1 5/4/1
f 8/4/1 6/4/1 7/4/1
f 9/5/1 8/5/1 7/5/1
f 10/5/1 8/5/1 9/5/1
f 11/4/1 10/4/1 9/4/1
f 12/4/1 10/4/1 11/4/1
f 13/5/1 12/5/1 11/5/1
f 14/5/1 12/5/1 13/5/1
f 15/4/1 14/4/1 13/4/1
f 16/4/1 14/4/1 15/4/1
f 19/2/1 18/2/1 17/2/1
f 20/2/1 18/2/1 19/2/1
f 21/3/1 20/3/1 19/3/1
f 22/3/1 20/3/1 21/3/1
f 25/1/1 24/1/1 23/1/1
f 26/1/1 24/1/1 25/1/1
f 29/4/1 28/4/1 27/4/1
f 30/4/1 28/4/1 29/4/1
f 33/2/1 32/2/1 31/2/1
f 34/2/1 32/2/1 33/2/1
f 37/4/1 36/4/1 35/4/1
f 38/4/1 36/4/1 37/4/1
f 39/2/2 40/2/2 41/2/2
f 41/2/2 40/2/2 42/2/2
f 43/1/2 44/1/2 45/1/2
f 45/1/2 44/1/2 46/1/2
f 47/1/2 48/1/2 49/1/2
f 49/1/2 48/1/2 50/1/2
f 49/2/2 50/2/2 51/2/2
f 49/2/2 51/2/2 52/2/2
f 52/2/2 51/2/2 53/2/2
f 54/4/2 55/4/2 56/4/2
f 56/4/2 55/4/2 57/4/2
f 58/4/2 59/4/2 60/4/2
f 60/4/2 59/4/2 61/4/2
f 62/4/2 63/4/2 64/4/2
f 64/4/2 63/4/2 65/4/2
f 64/6/2 65/6/2 66/6/2
f 66/6/2 65/6/2 67/6/2
f 66/4/2 67/4/2 68/4/2
f 68/4/2 67/4/2 69/4/2
f 68/1/2 69/1/2 70/1/2
f 70/1/2 69/1/2 71/1/2
f 70/3/2 71/3/2 72/3/2
f 72/3/2 71/3/2 73/3/2
f 72/4/2 73/4/2 74/4/2
f 74/4/2 73/4/2 75/4/2
f 74/5/2 75/5/2 76/5/2
f 76/5/2 75/5/2 77/5/2
f 76/1/2 77/1/2 78/1/2
f 78/1/2 77/1/2 79/1/2
f 78/3/2 79/3/2 80/3/2
f 80/3/2 79/3/2 81/3/2
f 80/5/2 81/5/2 82/5/2
f 82/5/2 81/5/2 83/5/2
f 82/4/2 83/4/2 84/4/2
f 84/4/2 83/4/2 85/4/2
f 90/2/3 87/2/3 86/2/3
f 91/2/3 87/2/3 90/2/3
f 92/3/3 88/3/3 87/3/3
f 92/2/3 87/2/3 91/2/3
f 93/1/3 91/1/3 90/1/3
f 93/1/3 90/1/3 89/1/3
f 94/1/3 91/1/3 93/1/3
f 95/1/3 91/1/3 94/1/3
f 96/3/3 88/3/3 92/3/3
f 97/3/3 88/3/3 96/3/3
f 98/1/3 95/1/3 94/1/3
f 99/2/3 97/2/3 96/2/3
f 99/1/3 95/1/3 98/1/3
f 99/2/3 96/2/3 95/2/3
f 100/2/3 97/2/3 99/2/3
f 109/4/3 102/4/3 101/4/3
f 109/6/3 103/6/3 102/6/3
f 110/4/3 104/4/3 103/4/3
f 110/6/3 103/6/3 109/6/3
f 111/5/3 105/5/3 104/5/3
f 111/4/3 104/4/3 110/4/3
f 112/4/3 106/4/3 105/4/3
f 112/5/3 105/5/3 111/5/3
f 113/4/3 106/4/3 112/4/3
f 114/4/3 106/4/3 113/4/3
f 115/4/3 106/4/3 114/4/3
f 116/4/3 106/4/3 115/4/3
f 117/5/3 107/5/3 106/5/3
f 117/4/3 106/4/3 116/4/3
f 118/4/3 108/4/3 107/4/3
f 118/5/3 107/5/3 117/5/3
f 119/4/3 108/4/3 118/4/3
f 120/4/3 108/4/3 119/4/3
f 121/4/3 108/4/3 120/4/3
f 122/4/3 109/4/3 101/4/3
f 122/5/3 110/5/3 109/5/3
f 122/5/3 111/5/3 110/5/3
f 122/5/3 112/5/3 111/5/3
f 122/5/3 113/5/3 112/5/3
f 123/5/3 113/5/3 122/5/3
f 124/5/3 113/5/3 123/5/3
f 125/4/3 114/4/3 113/4/3
f 125/5/3 113/5/3 124/5/3
f 126/4/3 114/4/3 125/4/3
f 129/4/3 117/4/3 116/4/3
f 130/6/3 119/6/3 118/6/3
f 130/4/3 117/4/3 129/4/3
f 130/6/3 118/6/3 117/6/3
f 131/6/3 119/6/3 130/6/3
f 132/7/3 120/7/3 119/7/3
f 132/6/3 119/6/3 131/6/3
f 133/6/3 121/6/3 120/6/3
f 133/7/3 120/7/3 132/7/3
f 134/4/3 108/4/3 121/4/3
f 134/6/3 121/6/3 133/6/3
f 135/4/3 108/4/3 134/4/3
f 137/4/3 122/4/3 101/4/3
f 137/4/3 123/4/3 122/4/3
f 138/6/3 124/6/3 123/6/3
f 138/4/3 123/4/3 137/4/3
f 139/4/3 125/4/3 124/4/3
f 139/6/3 124/6/3 138/6/3
f 140/4/3 125/4/3 139/4/3
f 142/4/3 128/4/3 127/4/3
f 143/4/3 128/4/3 142/4/3
f 144/6/3 130/6/3 129/6/3
f 145/7/3 131/7/3 130/7/3
f 145/6/3 130/6/3 144/6/3
f 146/5/3 133/5/3 132/5/3
f 146/7/3 131/7/3 145/7/3
f 146/5/3 132/5/3 131/5/3
f 146/5/3 135/5/3 134/5/3
f 146/5/3 134/5/3 133/5/3
f 147/5/3 135/5/3 146/5/3
f 148/5/3 135/5/3 147/5/3
f 149/4/3 137/4/3 101/4/3
f 150/6/3 138/6/3 137/6/3
f 150/4/3 137/4/3 149/4/3
f 151/5/3 140/5/3 139/5/3
f 151/6/3 138/6/3 150/6/3
f 151/5/3 139/5/3 138/5/3
f 152/4/3 141/4/3 140/4/3
f 152/5/3 140/5/3 151/5/3
f 153/4/3 141/4/3 152/4/3
f 156/4/3 145/4/3 144/4/3
f 157/5/3 147/5/3 146/5/3
f 157/5/3 146/5/3 145/5/3
f 157/4/3 145/4/3 156/4/3
f 158/4/3 148/4/3 147/4/3
f 158/5/3 147/5/3 157/5/3
f 159/5/3 135/5/3 148/5/3
f 159/4/3 148/4/3 158/4/3
f 160/5/3 135/5/3 159/5/3
f 161/4/3 136/4/3 135/4/3
f 161/5/3 135/5/3 160/5/3
f 162/4/3 136/4/3 161/4/3
f 164/5/3 151/5/3 150/5/3
f 164/5/3 150/5/3 149/5/3
f 164/5/3 152/5/3 151/5/3
f 164/5/3 153/5/3 152/5/3
f 165/5/3 153/5/3 164/5/3
f 166/5/3 153/5/3 165/5/3
f 167/5/3 153/5/3 166/5/3
f 168/4/3 155/4/3 154/4/3
f 168/5/3 153/5/3 167/5/3
f 168/4/3 154/4/3 153/4/3
f 169/4/3 155/4/3 168/4/3
f 170/6/3 156/6/3 155/6/3
f 170/4/3 155/4/3 169/4/3
f 171/7/3 157/7/3 156/7/3
f 171/6/3 156/6/3 170/6/3
f 172/6/3 160/6/3 159/6/3
f 172/7/3 157/7/3 171/7/3
f 172/6/3 158/6/3 157/6/3
f 172/6/3 159/6/3 158/6/3
f 173/6/3 160/6/3 172/6/3
f 174/7/3 162/7/3 161/7/3
f 174/6/3 160/6/3 173/6/3
f 174/7/3 161/7/3 160/7/3
f 175/4/3 163/4/3 162/4/3
f 175/7/3 162/7/3 174/7/3
f 176/4/3 165/4/3 164/4/3
f 176/6/3 166/6/3 165/6/3
f 177/7/3 167/7/3 166/7/3
f 177/6/3 166/6/3 176/6/3
f 178/6/3 168/6/3 167/6/3
f 178/7/3 167/7/3 177/7/3
f 179/5/3 169/5/3 168/5/3
f 179/6/3 168/6/3 178/6/3
f 180/4/3 171/4/3 170/4/3
f 180/5/3 169/5/3 179/5/3
f 180/4/3 173/4/3 172/4/3
f 180/4/3 170/4/3 169/4/3
f 180/4/3 172/4/3 171/4/3
f 181/4/3 173/4/3 180/4/3
f 182/5/3 174/5/3 173/5/3
f 182/4/3 173/4/3 181/4/3
f 182/5/3 175/5/3 174/5/3
f 183/5/3 175/5/3 182/5/3
f 184/5/3 175/5/3 183/5/3
f 185/5/3 175/5/3 184/5/3
f 186/4/3 163/4/3 175/4/3
f 186/5/3 175/5/3 185/5/3
f 187/4/3 163/4/3 186/4/3
f 188/5/3 181/5/3 180/5/3
f 188/4/3 176/4/3 164/4/3
f 188/5/3 179/5/3 178/5/3
f 188/5/3 177/5/3 176/5/3
f 188/5/3 178/5/3 177/5/3
f 188/5/3 180/5/3 179/5/3
f 189/5/3 181/5/3 188/5/3
f 190/5/3 181/5/3 189/5/3
f 191/5/3 181/5/3 190/5/3
f 192/5/3 181/5/3 191/5/3
f 193/6/3 183/6/3 182/6/3
f 193/5/3 181/5/3 192/5/3
f 193/6/3 182/6/3 181/6/3
f 194/7/3 184/7/3 183/7/3
f 194/6/3 183/6/3 193/6/3
f 195/5/3 185/5/3 184/5/3
f 195/7/3 184/7/3 194/7/3
f 196/4/3 188/4/3 164/4/3
f 197/7/3 189/7/3 188/7/3
f 197/4/3 188/4/3 196/4/3
f 198/6/3 190/6/3 189/6/3
f 198/7/3 189/7/3 197/7/3
f 199/6/3 190/6/3 198/6/3
f 200/7/3 191/7/3 190/7/3
f 200/6/3 190/6/3 199/6/3
f 201/6/3 192/6/3 191/6/3
f 201/7/3 191/7/3 200/7/3
f 202/4/3 193/4/3 192/4/3
f 202/6/3 192/6/3 201/6/3
f 203/5/3 194/5/3 193/5/3
f 203/4/3 193/4/3 202/4/3
f 203/5/3 195/5/3 194/5/3
f 204/5/3 195/5/3 203/5/3
f 205/5/3 195/5/3 204/5/3
f 206/5/3 195/5/3 205/5/3
f 207/5/3 185/5/3 195/5/3
f 207/5/3 195/5/3 206/5/3
f 208/4/3 186/4/3 185/4/3
f 208/5/3 185/5/3 207/5/3
f 209/4/3 186/4/3 208/4/3
f 210/5/3 197/5/3 196/5/3
f 210/5/3 198/5/3 197/5/3
f 211/5/3 198/5/3 210/5/3
f 212/5/3 198/5/3 211/5/3
f 213/4/3 199/4/3 198/4/3
f 213/5/3 198/5/3 212/5/3
f 214/4/3 199/4/3 213/4/3
f 215/5/3 201/5/3 200/5/3
f 215/4/3 199/4/3 214/4/3
f 215/5/3 200/5/3 199/5/3
f 215/5/3 202/5/3 201/5/3
f 215/5/3 203/5/3 202/5/3
f 216/7/3 204/7/3 203/7/3
f 216/5/3 203/5/3 215/5/3
f 217/6/3 205/6/3 204/6/3
f 217/7/3 204/7/3 216/7/3
f 218/6/3 205/6/3 217/6/3
f 219/5/3 206/5/3 205/5/3
f 219/6/3 205/6/3 218/6/3
f 220/5/3 206/5/3 219/5/3
f 221/6/3 207/6/3 206/6/3
f 221/5/3 206/5/3 220/5/3
f 222/6/3 207/6/3 221/6/3
f 223/4/3 208/4/3 207/4/3
f 223/6/3 207/6/3 222/6/3
f 224/4/3 211/4/3 210/4/3
f 225/6/3 212/6/3 211/6/3
f 225/4/3 211/4/3 224/4/3
f 226/4/3 213/4/3 212/4/3
f 226/6/3 212/6/3 225/6/3
f 227/1/3 214/1/3 213/1/3
f 227/4/3 213/4/3 226/4/3
f 228/3/3 215/3/3 214/3/3
f 228/1/3 214/1/3 227/1/3
f 229/4/3 218/4/3 217/4/3
f 229/3/3 215/3/3 228/3/3
f 229/4/3 216/4/3 215/4/3
f 229/4/3 217/4/3 216/4/3
f 230/5/3 219/5/3 218/5/3
f 230/4/3 218/4/3 229/4/3
f 231/1/3 220/1/3 219/1/3
f 231/5/3 219/5/3 230/5/3
f 232/3/3 221/3/3 220/3/3
f 232/1/3 220/1/3 231/1/3
f 233/5/3 222/5/3 221/5/3
f 233/3/3 221/3/3 232/3/3
f 234/4/3 223/4/3 222/4/3
f 234/5/3 222/5/3 233/5/3
f 235/4/3 208/4/3 223/4/3
f 235/4/3 223/4/3 234/4/3
f 236/4/4 237/4/4 244/4/4
f 237/6/4 238/6/4 244/6/4
f 238/4/4 239/4/4 245/4/4
f 244/6/4 238/6/4 245/6/4
f 239/5/4 240/5/4 246/5/4
f 245/4/4 239/4/4 246/4/4
f 240/4/4 241/4/4 247/4/4
f 246/5/4 240/5/4 247/5/4
f 247/4/4 241/4/4 248/4/4
f 248/4/4 241/4/4 249/4/4
f 249/4/4 241/4/4 250/4/4
f 241/5/4 242/5/4 251/5/4
f 250/4/4 241/4/4 251/4/4
f 242/4/4 243/4/4 252/4/4
f 251/5/4 242/5/4 252/5/4
f 252/4/4 243/4/4 253/4/4
f 253/4/4 243/4/4 254/4/4
f 254/4/4 243/4/4 255/4/4
f 236/4/4 244/4/4 256/4/4
f 244/5/4 245/5/4 256/5/4
f 245/5/4 246/5/4 256/5/4
f 246/5/4 247/5/4 256/5/4
f 247/5/4 248/5/4 256/5/4
f 256/5/4 248/5/4 257/5/4
f 257/5/4 248/5/4 258/5/4
f 248/4/4 249/4/4 259/4/4
f 258/5/4 248/5/4 259/5/4
f 249/5/4 250/5/4 260/5/4
f 259/4/4 249/4/4 260/4/4
f 250/4/4 251/4/4 261/4/4
f 260/5/4 250/5/4 261/5/4
f 261/4/4 251/4/4 262/4/4
f 252/6/4 253/6/4 263/6/4
f 262/4/4 251/4/4 263/4/4
f 251/6/4 252/6/4 263/6/4
f 263/6/4 253/6/4 264/6/4
f 253/7/4 254/7/4 265/7/4
f 264/6/4 253/6/4 265/6/4
f 254/6/4 255/6/4 266/6/4
f 265/7/4 254/7/4 266/7/4
f 255/4/4 243/4/4 267/4/4
f 266/6/4 255/6/4 267/6/4
f 267/4/4 243/4/4 268/4/4
f 236/4/4 256/4/4 270/4/4
f 256/4/4 257/4/4 270/4/4
f 257/6/4 258/6/4 271/6/4
f 270/4/4 257/4/4 271/4/4
f 258/4/4 259/4/4 272/4/4
f 271/6/4 258/6/4 272/6/4
f 259/6/4 260/6/4 273/6/4
f 272/4/4 259/4/4 273/4/4
f 261/4/4 262/4/4 274/4/4
f 273/6/4 260/6/4 274/6/4
f 260/4/4 261/4/4 274/4/4
f 262/6/4 263/6/4 275/6/4
f 274/4/4 262/4/4 275/4/4
f 275/6/4 263/6/4 276/6/4
f 263/7/4 264/7/4 277/7/4
f 276/6/4 263/6/4 277/6/4
f 265/5/4 266/5/4 278/5/4
f 277/7/4 264/7/4 278/7/4
f 264/5/4 265/5/4 278/5/4
f 266/5/4 267/5/4 278/5/4
f 267/5/4 268/5/4 278/5/4
f 278/5/4 268/5/4 279/5/4
f 279/5/4 268/5/4 280/5/4
f 236/4/4 270/4/4 281/4/4
f 270/6/4 271/6/4 282/6/4
f 281/4/4 270/4/4 282/4/4
f 271/5/4 272/5/4 283/5/4
f 282/6/4 271/6/4 283/6/4
f 272/5/4 273/5/4 283/5/4
f 273/4/4 274/4/4 284/4/4
f 283/5/4 273/5/4 284/5/4
f 274/5/4 275/5/4 285/5/4
f 284/4/4 274/4/4 285/4/4
f 275/5/4 276/5/4 285/5/4
f 285/5/4 276/5/4 286/5/4
f 276/4/4 277/4/4 287/4/4
f 286/5/4 276/5/4 287/5/4
f 278/5/4 279/5/4 288/5/4
f 287/4/4 277/4/4 288/4/4
f 277/5/4 278/5/4 288/5/4
f 279/4/4 280/4/4 289/4/4
f 288/5/4 279/5/4 289/5/4
f 280/5/4 268/5/4 290/5/4
f 289/4/4 280/4/4 290/4/4
f 290/5/4 268/5/4 291/5/4
f 268/4/4 269/4/4 292/4/4
f 291/5/4 268/5/4 292/5/4
f 292/4/4 269/4/4 293/4/4
f 281/5/4 282/5/4 295/5/4
f 283/5/4 284/5/4 295/5/4
f 282/5/4 283/5/4 295/5/4
f 284/5/4 285/5/4 295/5/4
f 295/5/4 285/5/4 296/5/4
f 296/5/4 285/5/4 297/5/4
f 297/5/4 285/5/4 298/5/4
f 285/4/4 286/4/4 299/4/4
f 298/5/4 285/5/4 299/5/4
f 299/4/4 286/4/4 300/4/4
f 286/6/4 287/6/4 301/6/4
f 300/4/4 286/4/4 301/4/4
f 287/7/4 288/7/4 302/7/4
f 301/6/4 287/6/4 302/6/4
f 288/6/4 289/6/4 303/6/4
f 302/7/4 288/7/4 303/7/4
f 290/6/4 291/6/4 303/6/4
f 289/6/4 290/6/4 303/6/4
f 303/6/4 291/6/4 304/6/4
f 292/7/4 293/7/4 305/7/4
f 304/6/4 291/6/4 305/6/4
f 291/7/4 292/7/4 305/7/4
f 293/4/4 294/4/4 306/4/4
f 305/7/4 293/7/4 306/7/4
f 296/6/4 297/6/4 307/6/4
f 295/4/4 296/4/4 307/4/4
f 297/7/4 298/7/4 308/7/4
f 307/6/4 297/6/4 308/6/4
f 298/6/4 299/6/4 309/6/4
f 308/7/4 298/7/4 309/7/4
f 299/5/4 300/5/4 310/5/4
f 309/6/4 299/6/4 310/6/4
f 303/4/4 304/4/4 311/4/4
f 310/5/4 300/5/4 311/5/4
f 300/4/4 301/4/4 311/4/4
f 302/4/4 303/4/4 311/4/4
f 301/4/4 302/4/4 311/4/4
f 311/4/4 304/4/4 312/4/4
f 304/5/4 305/5/4 313/5/4
f 312/4/4 304/4/4 313/4/4
f 305/5/4 306/5/4 313/5/4
f 313/5/4 306/5/4 314/5/4
f 314/5/4 306/5/4 315/5/4
f 315/5/4 306/5/4 316/5/4
f 306/4/4 294/4/4 317/4/4
f 316/5/4 306/5/4 317/5/4
f 317/4/4 294/4/4 318/4/4
f 311/5/4 312/5/4 319/5/4
f 295/4/4 307/4/4 319/4/4
f 309/5/4 310/5/4 319/5/4
f 308/5/4 309/5/4 319/5/4
f 310/5/4 311/5/4 319/5/4
f 307/5/4 308/5/4 319/5/4
f 319/5/4 312/5/4 320/5/4
f 320/5/4 312/5/4 321/5/4
f 321/5/4 312/5/4 322/5/4
f 322/5/4 312/5/4 323/5/4
f 313/6/4 314/6/4 324/6/4
f 323/5/4 312/5/4 324/5/4
f 312/6/4 313/6/4 324/6/4
f 314/7/4 315/7/4 325/7/4
f 324/6/4 314/6/4 325/6/4
f 315/5/4 316/5/4 326/5/4
f 325/7/4 315/7/4 326/7/4
f 295/4/4 319/4/4 327/4/4
f 319/7/4 320/7/4 328/7/4
f 327/4/4 319/4/4 328/4/4
f 320/6/4 321/6/4 329/6/4
f 328/7/4 320/7/4 329/7/4
f 329/6/4 321/6/4 330/6/4
f 321/7/4 322/7/4 331/7/4
f 330/6/4 321/6/4 331/6/4
f 322/6/4 323/6/4 332/6/4
f 331/7/4 322/7/4 332/7/4
f 323/4/4 324/4/4 333/4/4
f 332/6/4 323/6/4 333/6/4
f 324/5/4 325/5/4 334/5/4
f 333/4/4 324/4/4 334/4/4
f 325/5/4 326/5/4 334/5/4
f 334/5/4 326/5/4 335/5/4
f 335/5/4 326/5/4 336/5/4
f 336/5/4 326/5/4 337/5/4
f 326/5/4 316/5/4 338/5/4
f 337/5/4 326/5/4 338/5/4
f 316/4/4 317/4/4 339/4/4
f 338/5/4 316/5/4 339/5/4
f 339/4/4 317/4/4 340/4/4
f 327/5/4 328/5/4 341/5/4
f 328/5/4 329/5/4 341/5/4
f 341/5/4 329/5/4 342/5/4
f 342/5/4 329/5/4 343/5/4
f 329/4/4 330/4/4 344/4/4
f 343/5/4 329/5/4 344/5/4
f 344/4/4 330/4/4 345/4/4
f 331/5/4 332/5/4 346/5/4
f 345/4/4 330/4/4 346/4/4
f 330/5/4 331/5/4 346/5/4
f 332/5/4 333/5/4 346/5/4
f 333/5/4 334/5/4 346/5/4
f 334/7/4 335/7/4 347/7/4
f 346/5/4 334/5/4 347/5/4
f 335/6/4 336/6/4 348/6/4
f 347/7/4 335/7/4 348/7/4
f 348/6/4 336/6/4 349/6/4
f 336/5/4 337/5/4 350/5/4
f 349/6/4 336/6/4 350/6/4
f 350/5/4 337/5/4 351/5/4
f 337/6/4 338/6/4 352/6/4
f 351/5/4 337/5/4 352/5/4
f 352/6/4 338/6/4 353/6/4
f 338/4/4 339/4/4 354/4/4
f 353/6/4 338/6/4 354/6/4
f 341/4/4 342/4/4 355/4/4
f 342/6/4 343/6/4 356/6/4
f 355/4/4 342/4/4 356/4/4
f 343/4/4 344/4/4 357/4/4
f 356/6/4 343/6/4 357/6/4
f 344/1/4 345/1/4 358/1/4
f 357/4/4 344/4/4 358/4/4
f 345/3/4 346/3/4 359/3/4
f 358/1/4 345/1/4 359/1/4
f 348/4/4 349/4/4 360/4/4
f 359/3/4 346/3/4 360/3/4
f 346/4/4 347/4/4 360/4/4
f 347/4/4 348/4/4 360/4/4
f 349/5/4 350/5/4 361/5/4
f 360/4/4 349/4/4 361/4/4
f 350/1/4 351/1/4 362/1/4
f 361/5/4 350/5/4 362/5/4
f 351/3/4 352/3/4 363/3/4
f 362/1/4 351/1/4 363/1/4
f 352/5/4 353/5/4 364/5/4
f 363/3/4 352/3/4 364/3/4
f 353/4/4 354/4/4 365/4/4
f 364/5/4 353/5/4 365/5/4
f 354/4/4 339/4/4 366/4/4
f 365/4/4 354/4/4 366/4/4
f 373/4/5 368/4/5 367/4/5
f 374/5/5 369/5/5 368/5/5
f 374/4/5 368/4/5 373/4/5
f 375/4/5 370/4/5 369/4/5
f 375/5/5 369/5/5 374/5/5
f 376/5/5 371/5/5 370/5/5
f 376/4/5 370/4/5 375/4/5
f 377/4/5 372/4/5 371/4/5
f 377/5/5 371/5/5 376/5/5
f 378/4/5 372/4/5 377/4/5
f 381/1/5 380/1/5 379/1/5
f 382/1/5 380/1/5 381/1/5
f 387/2/5 384/2/5 383/2/5
f 388/2/5 384/2/5 387/2/5
f 389/1/5 386/1/5 385/1/5
f 390/1/5 386/1/5 389/1/5
f 393/3/5 392/3/5 391/3/5
f 394/3/5 392/3/5 393/3/5
f 395/1/6 396/1/6 397/1/6
f 397/1/6 396/1/6 398/1/6
f 399/3/6 400/3/6 402/3/6
f 402/3/6 400/3/6 403/3/6
f 400/2/6 401/2/6 404/2/6
f 403/3/6 400/3/6 404/3/6
f 404/2/6 401/2/6 405/2/6
f 406/4/6 407/4/6 410/4/6
f 410/4/6 407/4/6 411/4/6
f 408/4/6 409/4/6 412/4/6
f 412/4/6 409/4/6 413/4/6
f 414/4/6 415/4/6 418/4/6
f 418/4/6 415/4/6 419/4/6
f 416/4/6 417/4/6 420/4/6
f 420/4/6 417/4/6 421/4/6
f 422/4/6 423/4/6 424/4/6
f 424/4/6 423/4/6 425/4/6
