# MagicaVoxel @ Ephtracy

# group
o Fountain_Water

# material
mtllib ExtraContent-56-Fountain_Water.mtl
usemtl palette

# normals
vn -1 0 0
vn 1 0 0
vn 0 0 1
vn 0 0 -1
vn 0 -1 0
vn 0 1 0

# texcoords
vt 0.849609 0.5
vt 0.853516 0.5
vt 0.857422 0.5
vt 0.861328 0.5

# verts
v -0.55 -0.05 0.35
v -0.55 -0.05 0.15
v -0.55 -0.05 0.05
v -0.55 -0.05 -0.05
v -0.55 -0.05 -0.15
v -0.55 -0.05 -0.35
v -0.55 0.05 0.35
v -0.55 0.05 0.15
v -0.55 0.05 0.05
v -0.55 0.05 -0.05
v -0.55 0.05 -0.15
v -0.55 0.05 -0.35
v -0.45 -0.05 0.45
v -0.45 -0.05 0.35
v -0.45 -0.05 -0.35
v -0.45 -0.05 -0.45
v -0.45 0.05 0.45
v -0.45 0.05 0.35
v -0.45 0.05 -0.35
v -0.45 0.05 -0.45
v -0.35 -0.05 0.55
v -0.35 -0.05 0.45
v -0.35 -0.05 -0.45
v -0.35 -0.05 -0.55
v -0.35 0.05 0.55
v -0.35 0.05 0.45
v -0.35 0.05 -0.45
v -0.35 0.05 -0.55
v 0.15 -0.05 0.15
v 0.15 -0.05 -0.15
v 0.15 0.05 0.15
v 0.15 0.05 -0.15
v -0.15 -0.05 0.15
v -0.15 -0.05 -0.15
v -0.15 0.05 0.15
v -0.15 0.05 -0.15
v 0.35 -0.05 0.55
v 0.35 -0.05 0.45
v 0.35 -0.05 -0.45
v 0.35 -0.05 -0.55
v 0.35 0.05 0.55
v 0.35 0.05 0.45
v 0.35 0.05 -0.45
v 0.35 0.05 -0.55
v 0.45 -0.05 0.45
v 0.45 -0.05 0.35
v 0.45 -0.05 -0.35
v 0.45 -0.05 -0.45
v 0.45 0.05 0.45
v 0.45 0.05 0.35
v 0.45 0.05 -0.35
v 0.45 0.05 -0.45
v 0.55 -0.05 0.35
v 0.55 -0.05 0.15
v 0.55 -0.05 0.05
v 0.55 -0.05 -0.05
v 0.55 -0.05 -0.15
v 0.55 -0.05 -0.35
v 0.55 0.05 0.35
v 0.55 0.05 0.15
v 0.55 0.05 0.05
v 0.55 0.05 -0.05
v 0.55 0.05 -0.15
v 0.55 0.05 -0.35
v -0.35 -0.05 0.55
v -0.35 0.05 0.55
v -0.15 -0.05 0.55
v -0.15 0.05 0.55
v -0.05 -0.05 0.55
v -0.05 0.05 0.55
v 0.05 -0.05 0.55
v 0.05 0.05 0.55
v 0.15 -0.05 0.55
v 0.15 0.05 0.55
v 0.35 -0.05 0.55
v 0.35 0.05 0.55
v -0.45 -0.05 0.45
v -0.45 0.05 0.45
v -0.35 -0.05 0.45
v -0.35 0.05 0.45
v 0.35 -0.05 0.45
v 0.35 0.05 0.45
v 0.45 -0.05 0.45
v 0.45 0.05 0.45
v -0.55 -0.05 0.35
v -0.55 0.05 0.35
v -0.45 -0.05 0.35
v -0.45 0.05 0.35
v 0.45 -0.05 0.35
v 0.45 0.05 0.35
v 0.55 -0.05 0.35
v 0.55 0.05 0.35
v -0.15 -0.05 -0.15
v -0.15 0.05 -0.15
v 0.15 -0.05 -0.15
v 0.15 0.05 -0.15
v -0.15 -0.05 0.15
v -0.15 0.05 0.15
v 0.15 -0.05 0.15
v 0.15 0.05 0.15
v -0.55 -0.05 -0.35
v -0.55 0.05 -0.35
v -0.45 -0.05 -0.35
v -0.45 0.05 -0.35
v 0.45 -0.05 -0.35
v 0.45 0.05 -0.35
v 0.55 -0.05 -0.35
v 0.55 0.05 -0.35
v -0.45 -0.05 -0.45
v -0.45 0.05 -0.45
v -0.35 -0.05 -0.45
v -0.35 0.05 -0.45
v 0.35 -0.05 -0.45
v 0.35 0.05 -0.45
v 0.45 -0.05 -0.45
v 0.45 0.05 -0.45
v -0.35 -0.05 -0.55
v -0.35 0.05 -0.55
v -0.15 -0.05 -0.55
v -0.15 0.05 -0.55
v -0.05 -0.05 -0.55
v -0.05 0.05 -0.55
v 0.05 -0.05 -0.55
v 0.05 0.05 -0.55
v 0.15 -0.05 -0.55
v 0.15 0.05 -0.55
v 0.35 -0.05 -0.55
v 0.35 0.05 -0.55
v -0.35 -0.05 0.55
v -0.15 -0.05 0.55
v -0.05 -0.05 0.55
v 0.05 -0.05 0.55
v 0.15 -0.05 0.55
v 0.35 -0.05 0.55
v -0.45 -0.05 0.45
v -0.35 -0.05 0.45
v -0.25 -0.05 0.45
v -0.15 -0.05 0.45
v -0.05 -0.05 0.45
v 0.05 -0.05 0.45
v 0.15 -0.05 0.45
v 0.25 -0.05 0.45
v 0.35 -0.05 0.45
v 0.45 -0.05 0.45
v -0.55 -0.05 0.35
v -0.45 -0.05 0.35
v -0.35 -0.05 0.35
v -0.25 -0.05 0.35
v -0.15 -0.05 0.35
v -0.05 -0.05 0.35
v 0.05 -0.05 0.35
v 0.15 -0.05 0.35
v 0.25 -0.05 0.35
v 0.35 -0.05 0.35
v 0.45 -0.05 0.35
v 0.55 -0.05 0.35
v -0.45 -0.05 0.25
v -0.35 -0.05 0.25
v -0.25 -0.05 0.25
v -0.15 -0.05 0.25
v 0.15 -0.05 0.25
v 0.25 -0.05 0.25
v 0.35 -0.05 0.25
v 0.45 -0.05 0.25
v -0.55 -0.05 0.15
v -0.45 -0.05 0.15
v -0.35 -0.05 0.15
v -0.25 -0.05 0.15
v -0.15 -0.05 0.15
v 0.15 -0.05 0.15
v 0.25 -0.05 0.15
v 0.35 -0.05 0.15
v 0.45 -0.05 0.15
v 0.55 -0.05 0.15
v -0.55 -0.05 0.05
v -0.45 -0.05 0.05
v -0.35 -0.05 0.05
v -0.25 -0.05 0.05
v 0.25 -0.05 0.05
v 0.35 -0.05 0.05
v 0.45 -0.05 0.05
v 0.55 -0.05 0.05
v -0.55 -0.05 -0.05
v -0.45 -0.05 -0.05
v -0.35 -0.05 -0.05
v -0.25 -0.05 -0.05
v 0.25 -0.05 -0.05
v 0.35 -0.05 -0.05
v 0.45 -0.05 -0.05
v 0.55 -0.05 -0.05
v -0.55 -0.05 -0.15
v -0.45 -0.05 -0.15
v -0.35 -0.05 -0.15
v -0.25 -0.05 -0.15
v -0.15 -0.05 -0.15
v 0.15 -0.05 -0.15
v 0.25 -0.05 -0.15
v 0.35 -0.05 -0.15
v 0.45 -0.05 -0.15
v 0.55 -0.05 -0.15
v -0.45 -0.05 -0.25
v -0.35 -0.05 -0.25
v -0.25 -0.05 -0.25
v -0.15 -0.05 -0.25
v 0.15 -0.05 -0.25
v 0.25 -0.05 -0.25
v 0.35 -0.05 -0.25
v 0.45 -0.05 -0.25
v -0.55 -0.05 -0.35
v -0.45 -0.05 -0.35
v -0.35 -0.05 -0.35
v -0.25 -0.05 -0.35
v -0.15 -0.05 -0.35
v -0.05 -0.05 -0.35
v 0.05 -0.05 -0.35
v 0.15 -0.05 -0.35
v 0.25 -0.05 -0.35
v 0.35 -0.05 -0.35
v 0.45 -0.05 -0.35
v 0.55 -0.05 -0.35
v -0.45 -0.05 -0.45
v -0.35 -0.05 -0.45
v -0.25 -0.05 -0.45
v -0.15 -0.05 -0.45
v -0.05 -0.05 -0.45
v 0.05 -0.05 -0.45
v 0.15 -0.05 -0.45
v 0.25 -0.05 -0.45
v 0.35 -0.05 -0.45
v 0.45 -0.05 -0.45
v -0.35 -0.05 -0.55
v -0.15 -0.05 -0.55
v -0.05 -0.05 -0.55
v 0.05 -0.05 -0.55
v 0.15 -0.05 -0.55
v 0.35 -0.05 -0.55
v -0.35 0.05 0.55
v -0.15 0.05 0.55
v -0.05 0.05 0.55
v 0.05 0.05 0.55
v 0.15 0.05 0.55
v 0.35 0.05 0.55
v -0.45 0.05 0.45
v -0.35 0.05 0.45
v -0.25 0.05 0.45
v -0.15 0.05 0.45
v -0.05 0.05 0.45
v 0.05 0.05 0.45
v 0.15 0.05 0.45
v 0.25 0.05 0.45
v 0.35 0.05 0.45
v 0.45 0.05 0.45
v -0.55 0.05 0.35
v -0.45 0.05 0.35
v -0.35 0.05 0.35
v -0.25 0.05 0.35
v -0.15 0.05 0.35
v -0.05 0.05 0.35
v 0.05 0.05 0.35
v 0.15 0.05 0.35
v 0.25 0.05 0.35
v 0.35 0.05 0.35
v 0.45 0.05 0.35
v 0.55 0.05 0.35
v -0.45 0.05 0.25
v -0.35 0.05 0.25
v -0.25 0.05 0.25
v -0.15 0.05 0.25
v 0.15 0.05 0.25
v 0.25 0.05 0.25
v 0.35 0.05 0.25
v 0.45 0.05 0.25
v -0.55 0.05 0.15
v -0.45 0.05 0.15
v -0.35 0.05 0.15
v -0.25 0.05 0.15
v -0.15 0.05 0.15
v 0.15 0.05 0.15
v 0.25 0.05 0.15
v 0.35 0.05 0.15
v 0.45 0.05 0.15
v 0.55 0.05 0.15
v -0.55 0.05 0.05
v -0.45 0.05 0.05
v -0.35 0.05 0.05
v -0.25 0.05 0.05
v 0.25 0.05 0.05
v 0.35 0.05 0.05
v 0.45 0.05 0.05
v 0.55 0.05 0.05
v -0.55 0.05 -0.05
v -0.45 0.05 -0.05
v -0.35 0.05 -0.05
v -0.25 0.05 -0.05
v 0.25 0.05 -0.05
v 0.35 0.05 -0.05
v 0.45 0.05 -0.05
v 0.55 0.05 -0.05
v -0.55 0.05 -0.15
v -0.45 0.05 -0.15
v -0.35 0.05 -0.15
v -0.25 0.05 -0.15
v -0.15 0.05 -0.15
v 0.15 0.05 -0.15
v 0.25 0.05 -0.15
v 0.35 0.05 -0.15
v 0.45 0.05 -0.15
v 0.55 0.05 -0.15
v -0.45 0.05 -0.25
v -0.35 0.05 -0.25
v -0.25 0.05 -0.25
v -0.15 0.05 -0.25
v 0.15 0.05 -0.25
v 0.25 0.05 -0.25
v 0.35 0.05 -0.25
v 0.45 0.05 -0.25
v -0.55 0.05 -0.35
v -0.45 0.05 -0.35
v -0.35 0.05 -0.35
v -0.25 0.05 -0.35
v -0.15 0.05 -0.35
v -0.05 0.05 -0.35
v 0.05 0.05 -0.35
v 0.15 0.05 -0.35
v 0.25 0.05 -0.35
v 0.35 0.05 -0.35
v 0.45 0.05 -0.35
v 0.55 0.05 -0.35
v -0.45 0.05 -0.45
v -0.35 0.05 -0.45
v -0.25 0.05 -0.45
v -0.15 0.05 -0.45
v -0.05 0.05 -0.45
v 0.05 0.05 -0.45
v 0.15 0.05 -0.45
v 0.25 0.05 -0.45
v 0.35 0.05 -0.45
v 0.45 0.05 -0.45
v -0.35 0.05 -0.55
v -0.15 0.05 -0.55
v -0.05 0.05 -0.55
v 0.05 0.05 -0.55
v 0.15 0.05 -0.55
v 0.35 0.05 -0.55

# faces
f 7/2/1 2/2/1 1/2/1
f 8/4/1 3/4/1 2/4/1
f 8/2/1 2/2/1 7/2/1
f 9/1/1 4/1/1 3/1/1
f 9/4/1 3/4/1 8/4/1
f 10/4/1 5/4/1 4/4/1
f 10/1/1 4/1/1 9/1/1
f 11/2/1 6/2/1 5/2/1
f 11/4/1 5/4/1 10/4/1
f 12/2/1 6/2/1 11/2/1
f 17/2/1 14/2/1 13/2/1
f 18/2/1 14/2/1 17/2/1
f 19/2/1 16/2/1 15/2/1
f 20/2/1 16/2/1 19/2/1
f 25/2/1 22/2/1 21/2/1
f 26/2/1 22/2/1 25/2/1
f 27/2/1 24/2/1 23/2/1
f 28/2/1 24/2/1 27/2/1
f 31/2/1 30/2/1 29/2/1
f 32/2/1 30/2/1 31/2/1
f 33/2/2 34/2/2 35/2/2
f 35/2/2 34/2/2 36/2/2
f 37/2/2 38/2/2 41/2/2
f 41/2/2 38/2/2 42/2/2
f 39/2/2 40/2/2 43/2/2
f 43/2/2 40/2/2 44/2/2
f 45/2/2 46/2/2 49/2/2
f 49/2/2 46/2/2 50/2/2
f 47/2/2 48/2/2 51/2/2
f 51/2/2 48/2/2 52/2/2
f 53/2/2 54/2/2 59/2/2
f 54/4/2 55/4/2 60/4/2
f 59/2/2 54/2/2 60/2/2
f 55/1/2 56/1/2 61/1/2
f 60/4/2 55/4/2 61/4/2
f 56/4/2 57/4/2 62/4/2
f 61/1/2 56/1/2 62/1/2
f 57/2/2 58/2/2 63/2/2
f 62/4/2 57/4/2 63/4/2
f 63/2/2 58/2/2 64/2/2
f 67/2/3 66/2/3 65/2/3
f 68/2/3 66/2/3 67/2/3
f 69/4/3 68/4/3 67/4/3
f 70/4/3 68/4/3 69/4/3
f 71/1/3 70/1/3 69/1/3
f 72/1/3 70/1/3 71/1/3
f 73/4/3 72/4/3 71/4/3
f 74/4/3 72/4/3 73/4/3
f 75/2/3 74/2/3 73/2/3
f 76/2/3 74/2/3 75/2/3
f 79/2/3 78/2/3 77/2/3
f 80/2/3 78/2/3 79/2/3
f 83/2/3 82/2/3 81/2/3
f 84/2/3 82/2/3 83/2/3
f 87/2/3 86/2/3 85/2/3
f 88/2/3 86/2/3 87/2/3
f 91/2/3 90/2/3 89/2/3
f 92/2/3 90/2/3 91/2/3
f 95/2/3 94/2/3 93/2/3
f 96/2/3 94/2/3 95/2/3
f 97/2/4 98/2/4 99/2/4
f 99/2/4 98/2/4 100/2/4
f 101/2/4 102/2/4 103/2/4
f 103/2/4 102/2/4 104/2/4
f 105/2/4 106/2/4 107/2/4
f 107/2/4 106/2/4 108/2/4
f 109/2/4 110/2/4 111/2/4
f 111/2/4 110/2/4 112/2/4
f 113/2/4 114/2/4 115/2/4
f 115/2/4 114/2/4 116/2/4
f 117/2/4 118/2/4 119/2/4
f 119/2/4 118/2/4 120/2/4
f 119/4/4 120/4/4 121/4/4
f 121/4/4 120/4/4 122/4/4
f 121/1/4 122/1/4 123/1/4
f 123/1/4 122/1/4 124/1/4
f 123/4/4 124/4/4 125/4/4
f 125/4/4 124/4/4 126/4/4
f 125/2/4 126/2/4 127/2/4
f 127/2/4 126/2/4 128/2/4
f 136/2/5 130/2/5 129/2/5
f 137/2/5 130/2/5 136/2/5
f 138/4/5 131/4/5 130/4/5
f 138/2/5 130/2/5 137/2/5
f 139/1/5 132/1/5 131/1/5
f 139/4/5 131/4/5 138/4/5
f 140/4/5 133/4/5 132/4/5
f 140/1/5 132/1/5 139/1/5
f 141/2/5 134/2/5 133/2/5
f 141/4/5 133/4/5 140/4/5
f 142/2/5 134/2/5 141/2/5
f 143/2/5 134/2/5 142/2/5
f 146/2/5 136/2/5 135/2/5
f 147/1/5 137/1/5 136/1/5
f 147/2/5 136/2/5 146/2/5
f 148/4/5 138/4/5 137/4/5
f 148/1/5 137/1/5 147/1/5
f 149/3/5 139/3/5 138/3/5
f 149/4/5 138/4/5 148/4/5
f 150/4/5 140/4/5 139/4/5
f 150/3/5 139/3/5 149/3/5
f 151/3/5 141/3/5 140/3/5
f 151/4/5 140/4/5 150/4/5
f 152/4/5 142/4/5 141/4/5
f 152/3/5 141/3/5 151/3/5
f 153/1/5 143/1/5 142/1/5
f 153/4/5 142/4/5 152/4/5
f 154/2/5 144/2/5 143/2/5
f 154/1/5 143/1/5 153/1/5
f 155/2/5 144/2/5 154/2/5
f 157/1/5 149/1/5 148/1/5
f 157/2/5 146/2/5 145/2/5
f 157/1/5 155/1/5 154/1/5
f 157/1/5 154/1/5 153/1/5
f 157/1/5 147/1/5 146/1/5
f 157/1/5 152/1/5 151/1/5
f 157/1/5 151/1/5 150/1/5
f 157/1/5 150/1/5 149/1/5
f 157/1/5 153/1/5 152/1/5
f 157/1/5 148/1/5 147/1/5
f 158/1/5 155/1/5 157/1/5
f 159/1/5 155/1/5 158/1/5
f 160/1/5 155/1/5 159/1/5
f 161/1/5 155/1/5 160/1/5
f 162/1/5 155/1/5 161/1/5
f 163/1/5 155/1/5 162/1/5
f 164/2/5 156/2/5 155/2/5
f 164/1/5 155/1/5 163/1/5
f 165/2/5 157/2/5 145/2/5
f 166/3/5 158/3/5 157/3/5
f 166/2/5 157/2/5 165/2/5
f 167/1/5 159/1/5 158/1/5
f 167/3/5 158/3/5 166/3/5
f 168/3/5 160/3/5 159/3/5
f 168/1/5 159/1/5 167/1/5
f 169/2/5 161/2/5 160/2/5
f 169/3/5 160/3/5 168/3/5
f 170/3/5 162/3/5 161/3/5
f 170/2/5 161/2/5 169/2/5
f 171/1/5 163/1/5 162/1/5
f 171/3/5 162/3/5 170/3/5
f 172/3/5 164/3/5 163/3/5
f 172/1/5 163/1/5 171/1/5
f 173/2/5 156/2/5 164/2/5
f 173/3/5 164/3/5 172/3/5
f 174/2/5 156/2/5 173/2/5
f 175/4/5 166/4/5 165/4/5
f 176/1/5 167/1/5 166/1/5
f 176/4/5 166/4/5 175/4/5
f 176/1/5 168/1/5 167/1/5
f 177/1/5 168/1/5 176/1/5
f 178/2/5 169/2/5 168/2/5
f 178/1/5 168/1/5 177/1/5
f 179/1/5 172/1/5 171/1/5
f 179/1/5 173/1/5 172/1/5
f 179/2/5 171/2/5 170/2/5
f 180/1/5 173/1/5 179/1/5
f 181/4/5 174/4/5 173/4/5
f 181/1/5 173/1/5 180/1/5
f 182/4/5 174/4/5 181/4/5
f 183/1/5 176/1/5 175/1/5
f 184/4/5 177/4/5 176/4/5
f 184/1/5 176/1/5 183/1/5
f 185/3/5 178/3/5 177/3/5
f 185/4/5 177/4/5 184/4/5
f 186/2/5 169/2/5 178/2/5
f 186/3/5 178/3/5 185/3/5
f 187/3/5 180/3/5 179/3/5
f 187/2/5 179/2/5 170/2/5
f 188/4/5 181/4/5 180/4/5
f 188/3/5 180/3/5 187/3/5
f 189/1/5 182/1/5 181/1/5
f 189/4/5 181/4/5 188/4/5
f 190/1/5 182/1/5 189/1/5
f 191/4/5 184/4/5 183/4/5
f 192/1/5 185/1/5 184/1/5
f 192/4/5 184/4/5 191/4/5
f 192/1/5 186/1/5 185/1/5
f 193/1/5 186/1/5 192/1/5
f 194/2/5 169/2/5 186/2/5
f 194/1/5 186/1/5 193/1/5
f 195/2/5 169/2/5 194/2/5
f 196/2/5 187/2/5 170/2/5
f 197/1/5 188/1/5 187/1/5
f 197/1/5 189/1/5 188/1/5
f 197/2/5 187/2/5 196/2/5
f 198/1/5 189/1/5 197/1/5
f 199/4/5 190/4/5 189/4/5
f 199/1/5 189/1/5 198/1/5
f 200/4/5 190/4/5 199/4/5
f 201/3/5 193/3/5 192/3/5
f 201/2/5 192/2/5 191/2/5
f 202/1/5 194/1/5 193/1/5
f 202/3/5 193/3/5 201/3/5
f 203/3/5 195/3/5 194/3/5
f 203/1/5 194/1/5 202/1/5
f 204/2/5 196/2/5 195/2/5
f 204/3/5 195/3/5 203/3/5
f 205/3/5 197/3/5 196/3/5
f 205/2/5 196/2/5 204/2/5
f 206/1/5 198/1/5 197/1/5
f 206/3/5 197/3/5 205/3/5
f 207/3/5 199/3/5 198/3/5
f 207/1/5 198/1/5 206/1/5
f 208/2/5 200/2/5 199/2/5
f 208/3/5 199/3/5 207/3/5
f 209/2/5 201/2/5 191/2/5
f 210/1/5 205/1/5 204/1/5
f 210/2/5 201/2/5 209/2/5
f 210/1/5 202/1/5 201/1/5
f 210/1/5 208/1/5 207/1/5
f 210/1/5 206/1/5 205/1/5
f 210/1/5 204/1/5 203/1/5
f 210/1/5 203/1/5 202/1/5
f 210/1/5 207/1/5 206/1/5
f 211/1/5 208/1/5 210/1/5
f 212/1/5 208/1/5 211/1/5
f 213/1/5 208/1/5 212/1/5
f 214/1/5 208/1/5 213/1/5
f 215/1/5 208/1/5 214/1/5
f 216/1/5 208/1/5 215/1/5
f 217/1/5 208/1/5 216/1/5
f 218/1/5 208/1/5 217/1/5
f 219/2/5 200/2/5 208/2/5
f 219/1/5 208/1/5 218/1/5
f 220/2/5 200/2/5 219/2/5
f 221/2/5 211/2/5 210/2/5
f 222/1/5 212/1/5 211/1/5
f 222/2/5 211/2/5 221/2/5
f 223/4/5 213/4/5 212/4/5
f 223/1/5 212/1/5 222/1/5
f 224/3/5 214/3/5 213/3/5
f 224/4/5 213/4/5 223/4/5
f 225/4/5 215/4/5 214/4/5
f 225/3/5 214/3/5 224/3/5
f 226/3/5 216/3/5 215/3/5
f 226/4/5 215/4/5 225/4/5
f 227/4/5 217/4/5 216/4/5
f 227/3/5 216/3/5 226/3/5
f 228/1/5 218/1/5 217/1/5
f 228/4/5 217/4/5 227/4/5
f 229/2/5 219/2/5 218/2/5
f 229/1/5 218/1/5 228/1/5
f 230/2/5 219/2/5 229/2/5
f 231/2/5 223/2/5 222/2/5
f 231/2/5 224/2/5 223/2/5
f 232/4/5 225/4/5 224/4/5
f 232/2/5 224/2/5 231/2/5
f 233/1/5 226/1/5 225/1/5
f 233/4/5 225/4/5 232/4/5
f 234/4/5 227/4/5 226/4/5
f 234/1/5 226/1/5 233/1/5
f 235/2/5 228/2/5 227/2/5
f 235/4/5 227/4/5 234/4/5
f 235/2/5 229/2/5 228/2/5
f 236/2/5 229/2/5 235/2/5
f 237/2/6 238/2/6 244/2/6
f 244/2/6 238/2/6 245/2/6
f 238/4/6 239/4/6 246/4/6
f 245/2/6 238/2/6 246/2/6
f 239/1/6 240/1/6 247/1/6
f 246/4/6 239/4/6 247/4/6
f 240/4/6 241/4/6 248/4/6
f 247/1/6 240/1/6 248/1/6
f 241/2/6 242/2/6 249/2/6
f 248/4/6 241/4/6 249/4/6
f 249/2/6 242/2/6 250/2/6
f 250/2/6 242/2/6 251/2/6
f 243/2/6 244/2/6 254/2/6
f 244/1/6 245/1/6 255/1/6
f 254/2/6 244/2/6 255/2/6
f 245/4/6 246/4/6 256/4/6
f 255/1/6 245/1/6 256/1/6
f 246/3/6 247/3/6 257/3/6
f 256/4/6 246/4/6 257/4/6
f 247/4/6 248/4/6 258/4/6
f 257/3/6 247/3/6 258/3/6
f 248/3/6 249/3/6 259/3/6
f 258/4/6 248/4/6 259/4/6
f 249/4/6 250/4/6 260/4/6
f 259/3/6 249/3/6 260/3/6
f 250/1/6 251/1/6 261/1/6
f 260/4/6 250/4/6 261/4/6
f 251/2/6 252/2/6 262/2/6
f 261/1/6 251/1/6 262/1/6
f 262/2/6 252/2/6 263/2/6
f 256/1/6 257/1/6 265/1/6
f 253/2/6 254/2/6 265/2/6
f 262/1/6 263/1/6 265/1/6
f 261/1/6 262/1/6 265/1/6
f 254/1/6 255/1/6 265/1/6
f 259/1/6 260/1/6 265/1/6
f 258/1/6 259/1/6 265/1/6
f 257/1/6 258/1/6 265/1/6
f 260/1/6 261/1/6 265/1/6
f 255/1/6 256/1/6 265/1/6
f 265/1/6 263/1/6 266/1/6
f 266/1/6 263/1/6 267/1/6
f 267/1/6 263/1/6 268/1/6
f 268/1/6 263/1/6 269/1/6
f 269/1/6 263/1/6 270/1/6
f 270/1/6 263/1/6 271/1/6
f 263/2/6 264/2/6 272/2/6
f 271/1/6 263/1/6 272/1/6
f 253/2/6 265/2/6 273/2/6
f 265/3/6 266/3/6 274/3/6
f 273/2/6 265/2/6 274/2/6
f 266/1/6 267/1/6 275/1/6
f 274/3/6 266/3/6 275/3/6
f 267/3/6 268/3/6 276/3/6
f 275/1/6 267/1/6 276/1/6
f 268/2/6 269/2/6 277/2/6
f 276/3/6 268/3/6 277/3/6
f 269/3/6 270/3/6 278/3/6
f 277/2/6 269/2/6 278/2/6
f 270/1/6 271/1/6 279/1/6
f 278/3/6 270/3/6 279/3/6
f 271/3/6 272/3/6 280/3/6
f 279/1/6 271/1/6 280/1/6
f 272/2/6 264/2/6 281/2/6
f 280/3/6 272/3/6 281/3/6
f 281/2/6 264/2/6 282/2/6
f 273/4/6 274/4/6 283/4/6
f 274/1/6 275/1/6 284/1/6
f 283/4/6 274/4/6 284/4/6
f 275/1/6 276/1/6 284/1/6
f 284/1/6 276/1/6 285/1/6
f 276/2/6 277/2/6 286/2/6
f 285/1/6 276/1/6 286/1/6
f 279/1/6 280/1/6 287/1/6
f 280/1/6 281/1/6 287/1/6
f 278/2/6 279/2/6 287/2/6
f 287/1/6 281/1/6 288/1/6
f 281/4/6 282/4/6 289/4/6
f 288/1/6 281/1/6 289/1/6
f 289/4/6 282/4/6 290/4/6
f 283/1/6 284/1/6 291/1/6
f 284/4/6 285/4/6 292/4/6
f 291/1/6 284/1/6 292/1/6
f 285/3/6 286/3/6 293/3/6
f 292/4/6 285/4/6 293/4/6
f 286/2/6 277/2/6 294/2/6
f 293/3/6 286/3/6 294/3/6
f 287/3/6 288/3/6 295/3/6
f 278/2/6 287/2/6 295/2/6
f 288/4/6 289/4/6 296/4/6
f 295/3/6 288/3/6 296/3/6
f 289/1/6 290/1/6 297/1/6
f 296/4/6 289/4/6 297/4/6
f 297/1/6 290/1/6 298/1/6
f 291/4/6 292/4/6 299/4/6
f 292/1/6 293/1/6 300/1/6
f 299/4/6 292/4/6 300/4/6
f 293/1/6 294/1/6 300/1/6
f 300/1/6 294/1/6 301/1/6
f 294/2/6 277/2/6 302/2/6
f 301/1/6 294/1/6 302/1/6
f 302/2/6 277/2/6 303/2/6
f 278/2/6 295/2/6 304/2/6
f 295/1/6 296/1/6 305/1/6
f 296/1/6 297/1/6 305/1/6
f 304/2/6 295/2/6 305/2/6
f 305/1/6 297/1/6 306/1/6
f 297/4/6 298/4/6 307/4/6
f 306/1/6 297/1/6 307/1/6
f 307/4/6 298/4/6 308/4/6
f 300/3/6 301/3/6 309/3/6
f 299/2/6 300/2/6 309/2/6
f 301/1/6 302/1/6 310/1/6
f 309/3/6 301/3/6 310/3/6
f 302/3/6 303/3/6 311/3/6
f 310/1/6 302/1/6 311/1/6
f 303/2/6 304/2/6 312/2/6
f 311/3/6 303/3/6 312/3/6
f 304/3/6 305/3/6 313/3/6
f 312/2/6 304/2/6 313/2/6
f 305/1/6 306/1/6 314/1/6
f 313/3/6 305/3/6 314/3/6
f 306/3/6 307/3/6 315/3/6
f 314/1/6 306/1/6 315/1/6
f 307/2/6 308/2/6 316/2/6
f 315/3/6 307/3/6 316/3/6
f 299/2/6 309/2/6 317/2/6
f 312/1/6 313/1/6 318/1/6
f 317/2/6 309/2/6 318/2/6
f 309/1/6 310/1/6 318/1/6
f 315/1/6 316/1/6 318/1/6
f 313/1/6 314/1/6 318/1/6
f 311/1/6 312/1/6 318/1/6
f 310/1/6 311/1/6 318/1/6
f 314/1/6 315/1/6 318/1/6
f 318/1/6 316/1/6 319/1/6
f 319/1/6 316/1/6 320/1/6
f 320/1/6 316/1/6 321/1/6
f 321/1/6 316/1/6 322/1/6
f 322/1/6 316/1/6 323/1/6
f 323/1/6 316/1/6 324/1/6
f 324/1/6 316/1/6 325/1/6
f 325/1/6 316/1/6 326/1/6
f 316/2/6 308/2/6 327/2/6
f 326/1/6 316/1/6 327/1/6
f 327/2/6 308/2/6 328/2/6
f 318/2/6 319/2/6 329/2/6
f 319/1/6 320/1/6 330/1/6
f 329/2/6 319/2/6 330/2/6
f 320/4/6 321/4/6 331/4/6
f 330/1/6 320/1/6 331/1/6
f 321/3/6 322/3/6 332/3/6
f 331/4/6 321/4/6 332/4/6
f 322/4/6 323/4/6 333/4/6
f 332/3/6 322/3/6 333/3/6
f 323/3/6 324/3/6 334/3/6
f 333/4/6 323/4/6 334/4/6
f 324/4/6 325/4/6 335/4/6
f 334/3/6 324/3/6 335/3/6
f 325/1/6 326/1/6 336/1/6
f 335/4/6 325/4/6 336/4/6
f 326/2/6 327/2/6 337/2/6
f 336/1/6 326/1/6 337/1/6
f 337/2/6 327/2/6 338/2/6
f 330/2/6 331/2/6 339/2/6
f 331/2/6 332/2/6 339/2/6
f 332/4/6 333/4/6 340/4/6
f 339/2/6 332/2/6 340/2/6
f 333/1/6 334/1/6 341/1/6
f 340/4/6 333/4/6 341/4/6
f 334/4/6 335/4/6 342/4/6
f 341/1/6 334/1/6 342/1/6
f 335/2/6 336/2/6 343/2/6
f 342/4/6 335/4/6 343/4/6
f 336/2/6 337/2/6 343/2/6
f 343/2/6 337/2/6 344/2/6
