# MagicaVoxel @ Ephtracy

# group
o SmallWaterFountain_Water

# material
mtllib ExtraContent-20-SmallWaterFountain_Water.mtl
usemtl palette

# normals
vn -1 0 0
vn 1 0 0
vn 0 0 1
vn 0 0 -1
vn 0 -1 0
vn 0 1 0

# texcoords
vt 0.849609 0.5
vt 0.853516 0.5
vt 0.857422 0.5
vt 0.861328 0.5

# verts
v -0.3 -0.4 0.25
v -0.3 -0.4 0.15
v -0.3 -0.4 -0.05
v -0.3 -0.4 -0.25
v -0.3 -0.3 0.25
v -0.3 -0.3 0.15
v -0.3 -0.3 -0.05
v -0.3 -0.3 -0.25
v -0.2 -0.3 0.15
v -0.2 -0.3 0.05
v -0.2 -0.2 0.15
v -0.2 -0.2 0.05
v -0.1 -0.3 0.25
v -0.1 -0.3 0.15
v -0.1 -0.2 0.25
v -0.1 -0.2 0.15
v -0.1 -0.2 0.05
v -0.1 -0.1 0.15
v -0.1 -0.1 0.05
v -0.1 0.3 0.15
v -0.1 0.3 0.05
v -0.1 0.4 0.15
v -0.1 0.4 0.05
v 0 -0.3 -0.05
v 0 -0.3 -0.15
v 0 -0.2 -0.05
v 0 -0.2 -0.15
v 0.1 -0.3 0.05
v 0.1 -0.3 -0.05
v 0.1 -0.2 0.05
v 0.1 -0.2 -0.05
v 0 -0.3 0.25
v 0 -0.3 0.15
v 0 -0.2 0.25
v 0 -0.2 0.15
v 0.1 -0.3 0.15
v 0.1 -0.3 0.05
v 0.1 -0.3 -0.05
v 0.1 -0.3 -0.15
v 0.1 -0.2 0.15
v 0.1 -0.2 0.05
v 0.1 -0.2 -0.05
v 0.1 -0.2 -0.15
v 0.1 -0.1 0.15
v 0.1 -0.1 0.05
v 0.1 0 0.15
v 0.1 0 0.05
v 0.1 0.1 0.15
v 0.1 0.1 0.05
v 0.1 0.4 0.15
v 0.1 0.4 0.05
v 0.2 -0.3 0.05
v 0.2 -0.3 -0.05
v 0.2 -0.2 0.05
v 0.2 -0.2 -0.05
v 0.3 -0.4 0.25
v 0.3 -0.4 0.15
v 0.3 -0.4 -0.05
v 0.3 -0.4 -0.25
v 0.3 -0.3 0.25
v 0.3 -0.3 0.15
v 0.3 -0.3 -0.05
v 0.3 -0.3 -0.25
v -0.3 -0.4 0.25
v -0.3 -0.3 0.25
v -0.2 -0.4 0.25
v -0.2 -0.3 0.25
v -0.1 -0.4 0.25
v -0.1 -0.3 0.25
v -0.1 -0.2 0.25
v 0 -0.4 0.25
v 0 -0.3 0.25
v 0 -0.2 0.25
v 0.1 -0.4 0.25
v 0.1 -0.3 0.25
v 0.2 -0.4 0.25
v 0.2 -0.3 0.25
v 0.3 -0.4 0.25
v 0.3 -0.3 0.25
v -0.2 -0.3 0.15
v -0.2 -0.2 0.15
v -0.1 -0.3 0.15
v -0.1 -0.2 0.15
v -0.1 -0.1 0.15
v -0.1 0.3 0.15
v -0.1 0.4 0.15
v 0 -0.3 0.15
v 0 -0.2 0.15
v 0 -0.1 0.15
v 0 0 0.15
v 0 0.1 0.15
v 0 0.3 0.15
v 0.1 -0.3 0.15
v 0.1 -0.2 0.15
v 0.1 -0.1 0.15
v 0.1 0 0.15
v 0.1 0.1 0.15
v 0.1 0.4 0.15
v 0.1 -0.3 0.05
v 0.1 -0.2 0.05
v 0.2 -0.3 0.05
v 0.2 -0.2 0.05
v 0 -0.3 -0.05
v 0 -0.2 -0.05
v 0.1 -0.3 -0.05
v 0.1 -0.2 -0.05
v -0.2 -0.3 0.05
v -0.2 -0.2 0.05
v -0.1 -0.3 0.05
v -0.1 -0.2 0.05
v -0.1 -0.1 0.05
v -0.1 0.3 0.05
v -0.1 0.4 0.05
v 0 -0.3 0.05
v 0 -0.2 0.05
v 0 -0.1 0.05
v 0 0 0.05
v 0 0.1 0.05
v 0 0.3 0.05
v 0.1 -0.3 0.05
v 0.1 -0.2 0.05
v 0.1 -0.1 0.05
v 0.1 0 0.05
v 0.1 0.1 0.05
v 0.1 0.4 0.05
v 0.1 -0.3 -0.05
v 0.1 -0.2 -0.05
v 0.2 -0.3 -0.05
v 0.2 -0.2 -0.05
v 0 -0.3 -0.15
v 0 -0.2 -0.15
v 0.1 -0.3 -0.15
v 0.1 -0.2 -0.15
v -0.3 -0.4 -0.25
v -0.3 -0.3 -0.25
v 0.3 -0.4 -0.25
v 0.3 -0.3 -0.25
v -0.3 -0.4 0.25
v -0.2 -0.4 0.25
v -0.1 -0.4 0.25
v 0 -0.4 0.25
v 0.1 -0.4 0.25
v 0.2 -0.4 0.25
v 0.3 -0.4 0.25
v -0.3 -0.4 0.15
v -0.2 -0.4 0.15
v -0.1 -0.4 0.15
v 0 -0.4 0.15
v 0.1 -0.4 0.15
v 0.2 -0.4 0.15
v 0.3 -0.4 0.15
v -0.2 -0.4 0.05
v -0.1 -0.4 0.05
v 0 -0.4 0.05
v 0.1 -0.4 0.05
v 0.2 -0.4 0.05
v -0.3 -0.4 -0.05
v -0.2 -0.4 -0.05
v -0.1 -0.4 -0.05
v 0 -0.4 -0.05
v 0.1 -0.4 -0.05
v 0.2 -0.4 -0.05
v 0.3 -0.4 -0.05
v -0.2 -0.4 -0.15
v 0.2 -0.4 -0.15
v -0.3 -0.4 -0.25
v 0.3 -0.4 -0.25
v -0.3 -0.3 0.25
v -0.2 -0.3 0.25
v -0.1 -0.3 0.25
v 0 -0.3 0.25
v 0.1 -0.3 0.25
v 0.2 -0.3 0.25
v 0.3 -0.3 0.25
v -0.3 -0.3 0.15
v -0.2 -0.3 0.15
v -0.1 -0.3 0.15
v 0 -0.3 0.15
v 0.1 -0.3 0.15
v 0.2 -0.3 0.15
v 0.3 -0.3 0.15
v -0.2 -0.3 0.05
v -0.1 -0.3 0.05
v 0 -0.3 0.05
v 0.1 -0.3 0.05
v 0.2 -0.3 0.05
v -0.3 -0.3 -0.05
v -0.2 -0.3 -0.05
v -0.1 -0.3 -0.05
v 0 -0.3 -0.05
v 0.1 -0.3 -0.05
v 0.2 -0.3 -0.05
v 0.3 -0.3 -0.05
v -0.2 -0.3 -0.15
v 0 -0.3 -0.15
v 0.1 -0.3 -0.15
v 0.2 -0.3 -0.15
v -0.3 -0.3 -0.25
v 0.3 -0.3 -0.25
v -0.1 -0.2 0.25
v 0 -0.2 0.25
v -0.2 -0.2 0.15
v -0.1 -0.2 0.15
v 0 -0.2 0.15
v -0.2 -0.2 0.05
v -0.1 -0.2 0.05
v 0.1 -0.2 0.05
v 0.2 -0.2 0.05
v 0 -0.2 -0.05
v 0.1 -0.2 -0.05
v 0.2 -0.2 -0.05
v 0 -0.2 -0.15
v 0.1 -0.2 -0.15
v -0.1 0.4 0.15
v 0.1 0.4 0.15
v -0.1 0.4 0.05
v 0.1 0.4 0.05

# faces
f 5/1/1 2/1/1 1/1/1
f 6/2/1 3/2/1 2/2/1
f 6/1/1 2/1/1 5/1/1
f 7/1/1 4/1/1 3/1/1
f 7/2/1 3/2/1 6/2/1
f 8/1/1 4/1/1 7/1/1
f 11/4/1 10/4/1 9/4/1
f 12/4/1 10/4/1 11/4/1
f 15/4/1 14/4/1 13/4/1
f 16/4/1 14/4/1 15/4/1
f 18/4/1 17/4/1 16/4/1
f 19/4/1 17/4/1 18/4/1
f 20/2/1 19/2/1 18/2/1
f 21/2/1 19/2/1 20/2/1
f 22/1/1 21/1/1 20/1/1
f 23/1/1 21/1/1 22/1/1
f 26/4/1 25/4/1 24/4/1
f 27/4/1 25/4/1 26/4/1
f 30/4/1 29/4/1 28/4/1
f 31/4/1 29/4/1 30/4/1
f 32/4/2 33/4/2 34/4/2
f 34/4/2 33/4/2 35/4/2
f 36/4/2 37/4/2 40/4/2
f 40/4/2 37/4/2 41/4/2
f 38/4/2 39/4/2 42/4/2
f 42/4/2 39/4/2 43/4/2
f 40/2/2 41/2/2 44/2/2
f 44/2/2 41/2/2 45/2/2
f 44/4/2 45/4/2 46/4/2
f 46/4/2 45/4/2 47/4/2
f 46/2/2 47/2/2 48/2/2
f 48/2/2 47/2/2 49/2/2
f 48/1/2 49/1/2 50/1/2
f 50/1/2 49/1/2 51/1/2
f 52/4/2 53/4/2 54/4/2
f 54/4/2 53/4/2 55/4/2
f 56/1/2 57/1/2 60/1/2
f 57/2/2 58/2/2 61/2/2
f 60/1/2 57/1/2 61/1/2
f 58/1/2 59/1/2 62/1/2
f 61/2/2 58/2/2 62/2/2
f 62/1/2 59/1/2 63/1/2
f 66/1/3 65/1/3 64/1/3
f 67/1/3 65/1/3 66/1/3
f 68/3/3 67/3/3 66/3/3
f 69/3/3 67/3/3 68/3/3
f 71/2/3 69/2/3 68/2/3
f 72/4/3 70/4/3 69/4/3
f 72/2/3 69/2/3 71/2/3
f 73/4/3 70/4/3 72/4/3
f 74/3/3 72/3/3 71/3/3
f 75/3/3 72/3/3 74/3/3
f 76/2/3 75/2/3 74/2/3
f 77/2/3 75/2/3 76/2/3
f 78/1/3 77/1/3 76/1/3
f 79/1/3 77/1/3 78/1/3
f 82/4/3 81/4/3 80/4/3
f 83/4/3 81/4/3 82/4/3
f 88/4/3 84/4/3 83/4/3
f 89/2/3 85/2/3 84/2/3
f 89/4/3 84/4/3 88/4/3
f 90/2/3 85/2/3 89/2/3
f 91/2/3 85/2/3 90/2/3
f 92/1/3 86/1/3 85/1/3
f 92/2/3 85/2/3 91/2/3
f 93/4/3 88/4/3 87/4/3
f 94/2/3 89/2/3 88/2/3
f 94/4/3 88/4/3 93/4/3
f 95/4/3 90/4/3 89/4/3
f 95/2/3 89/2/3 94/2/3
f 96/2/3 91/2/3 90/2/3
f 96/4/3 90/4/3 95/4/3
f 97/1/3 92/1/3 91/1/3
f 97/2/3 91/2/3 96/2/3
f 98/1/3 86/1/3 92/1/3
f 98/1/3 92/1/3 97/1/3
f 101/4/3 100/4/3 99/4/3
f 102/4/3 100/4/3 101/4/3
f 105/4/3 104/4/3 103/4/3
f 106/4/3 104/4/3 105/4/3
f 107/4/4 108/4/4 109/4/4
f 109/4/4 108/4/4 110/4/4
f 109/4/4 110/4/4 114/4/4
f 110/4/4 111/4/4 114/4/4
f 114/4/4 111/4/4 115/4/4
f 111/2/4 112/2/4 116/2/4
f 115/4/4 111/4/4 116/4/4
f 116/2/4 112/2/4 117/2/4
f 117/2/4 112/2/4 118/2/4
f 112/1/4 113/1/4 119/1/4
f 118/2/4 112/2/4 119/2/4
f 114/4/4 115/4/4 120/4/4
f 115/2/4 116/2/4 121/2/4
f 120/4/4 115/4/4 121/4/4
f 116/4/4 117/4/4 122/4/4
f 121/2/4 116/2/4 122/2/4
f 117/2/4 118/2/4 123/2/4
f 122/4/4 117/4/4 123/4/4
f 118/1/4 119/1/4 124/1/4
f 123/2/4 118/2/4 124/2/4
f 119/1/4 113/1/4 125/1/4
f 124/1/4 119/1/4 125/1/4
f 126/4/4 127/4/4 128/4/4
f 128/4/4 127/4/4 129/4/4
f 130/4/4 131/4/4 132/4/4
f 132/4/4 131/4/4 133/4/4
f 134/1/4 135/1/4 136/1/4
f 136/1/4 135/1/4 137/1/4
f 145/1/5 139/1/5 138/1/5
f 146/3/5 140/3/5 139/3/5
f 146/1/5 139/1/5 145/1/5
f 147/2/5 141/2/5 140/2/5
f 147/3/5 140/3/5 146/3/5
f 148/3/5 142/3/5 141/3/5
f 148/2/5 141/2/5 147/2/5
f 149/2/5 143/2/5 142/2/5
f 149/3/5 142/3/5 148/3/5
f 150/1/5 144/1/5 143/1/5
f 150/2/5 143/2/5 149/2/5
f 151/1/5 144/1/5 150/1/5
f 152/2/5 149/2/5 148/2/5
f 152/2/5 146/2/5 145/2/5
f 152/2/5 147/2/5 146/2/5
f 152/2/5 148/2/5 147/2/5
f 153/2/5 149/2/5 152/2/5
f 154/2/5 149/2/5 153/2/5
f 155/3/5 150/3/5 149/3/5
f 155/2/5 149/2/5 154/2/5
f 156/2/5 151/2/5 150/2/5
f 156/3/5 150/3/5 155/3/5
f 157/2/5 152/2/5 145/2/5
f 158/3/5 153/3/5 152/3/5
f 158/2/5 152/2/5 157/2/5
f 159/2/5 154/2/5 153/2/5
f 159/3/5 153/3/5 158/3/5
f 160/3/5 155/3/5 154/3/5
f 160/2/5 154/2/5 159/2/5
f 161/2/5 156/2/5 155/2/5
f 161/3/5 155/3/5 160/3/5
f 162/2/5 151/2/5 156/2/5
f 162/2/5 156/2/5 161/2/5
f 163/2/5 151/2/5 162/2/5
f 164/2/5 159/2/5 158/2/5
f 164/1/5 158/1/5 157/1/5
f 164/2/5 161/2/5 160/2/5
f 164/2/5 162/2/5 161/2/5
f 164/2/5 160/2/5 159/2/5
f 165/1/5 163/1/5 162/1/5
f 165/2/5 162/2/5 164/2/5
f 166/1/5 164/1/5 157/1/5
f 166/1/5 165/1/5 164/1/5
f 167/1/5 163/1/5 165/1/5
f 167/1/5 165/1/5 166/1/5
f 168/1/6 169/1/6 175/1/6
f 169/3/6 170/3/6 176/3/6
f 175/1/6 169/1/6 176/1/6
f 176/3/6 170/3/6 177/3/6
f 171/3/6 172/3/6 178/3/6
f 172/2/6 173/2/6 179/2/6
f 178/3/6 172/3/6 179/3/6
f 173/1/6 174/1/6 180/1/6
f 179/2/6 173/2/6 180/2/6
f 180/1/6 174/1/6 181/1/6
f 175/2/6 176/2/6 182/2/6
f 179/3/6 180/3/6 185/3/6
f 180/2/6 181/2/6 186/2/6
f 185/3/6 180/3/6 186/3/6
f 175/2/6 182/2/6 187/2/6
f 182/3/6 183/3/6 188/3/6
f 187/2/6 182/2/6 188/2/6
f 183/2/6 184/2/6 189/2/6
f 188/3/6 183/3/6 189/3/6
f 184/3/6 185/3/6 190/3/6
f 189/2/6 184/2/6 190/2/6
f 190/3/6 185/3/6 191/3/6
f 186/2/6 181/2/6 192/2/6
f 192/2/6 181/2/6 193/2/6
f 188/2/6 189/2/6 194/2/6
f 187/1/6 188/1/6 194/1/6
f 189/2/6 190/2/6 194/2/6
f 194/2/6 190/2/6 195/2/6
f 191/2/6 192/2/6 196/2/6
f 192/1/6 193/1/6 197/1/6
f 196/2/6 192/2/6 197/2/6
f 195/1/6 196/1/6 198/1/6
f 194/1/6 195/1/6 198/1/6
f 196/1/6 197/1/6 198/1/6
f 187/1/6 194/1/6 198/1/6
f 197/1/6 193/1/6 199/1/6
f 198/1/6 197/1/6 199/1/6
f 200/4/6 201/4/6 203/4/6
f 203/4/6 201/4/6 204/4/6
f 202/4/6 203/4/6 205/4/6
f 205/4/6 203/4/6 206/4/6
f 207/4/6 208/4/6 210/4/6
f 210/4/6 208/4/6 211/4/6
f 209/4/6 210/4/6 212/4/6
f 212/4/6 210/4/6 213/4/6
f 214/1/6 215/1/6 216/1/6
f 216/1/6 215/1/6 217/1/6
