# MagicaVoxel @ Ephtracy

# group
o Trap_Arrow

# material
mtllib ExtraContent-33-Trap_Arrow.mtl
usemtl palette

# normals
vn -1 0 0
vn 1 0 0
vn 0 0 1
vn 0 0 -1
vn 0 -1 0
vn 0 1 0

# texcoords
vt 0.689453 0.5
vt 0.693359 0.5
vt 0.697266 0.5

# verts
v -0.35 -0.05 0.05
v -0.35 -0.05 -0.05
v -0.35 0.05 0.05
v -0.35 0.05 -0.05
v -0.25 -0.15 0.05
v -0.25 -0.15 -0.05
v -0.25 -0.05 0.05
v -0.25 -0.05 -0.05
v -0.25 0.05 0.05
v -0.25 0.05 -0.05
v -0.25 0.15 0.05
v -0.25 0.15 -0.05
v -0.15 -0.15 0.05
v -0.15 -0.15 -0.05
v -0.15 -0.05 0.05
v -0.15 -0.05 -0.05
v -0.15 0.05 0.05
v -0.15 0.05 -0.05
v -0.15 0.15 0.05
v -0.15 0.15 -0.05
v 0.35 -0.05 0.05
v 0.35 -0.05 -0.05
v 0.35 0.05 0.05
v 0.35 0.05 -0.05
v -0.35 -0.05 0.05
v -0.35 0.05 0.05
v -0.25 -0.15 0.05
v -0.25 -0.05 0.05
v -0.25 0.05 0.05
v -0.25 0.15 0.05
v -0.15 -0.15 0.05
v -0.15 -0.05 0.05
v -0.15 0.05 0.05
v -0.15 0.15 0.05
v 0.35 -0.05 0.05
v 0.35 0.05 0.05
v -0.35 -0.05 -0.05
v -0.35 0.05 -0.05
v -0.25 -0.15 -0.05
v -0.25 -0.05 -0.05
v -0.25 0.05 -0.05
v -0.25 0.15 -0.05
v -0.15 -0.15 -0.05
v -0.15 -0.05 -0.05
v -0.15 0.05 -0.05
v -0.15 0.15 -0.05
v 0.35 -0.05 -0.05
v 0.35 0.05 -0.05
v -0.25 -0.15 0.05
v -0.15 -0.15 0.05
v -0.25 -0.15 -0.05
v -0.15 -0.15 -0.05
v -0.35 -0.05 0.05
v -0.25 -0.05 0.05
v -0.15 -0.05 0.05
v 0.35 -0.05 0.05
v -0.35 -0.05 -0.05
v -0.25 -0.05 -0.05
v -0.15 -0.05 -0.05
v 0.35 -0.05 -0.05
v -0.35 0.05 0.05
v -0.25 0.05 0.05
v -0.15 0.05 0.05
v 0.35 0.05 0.05
v -0.35 0.05 -0.05
v -0.25 0.05 -0.05
v -0.15 0.05 -0.05
v 0.35 0.05 -0.05
v -0.25 0.15 0.05
v -0.15 0.15 0.05
v -0.25 0.15 -0.05
v -0.15 0.15 -0.05

# faces
f 3/2/1 2/2/1 1/2/1
f 4/2/1 2/2/1 3/2/1
f 7/2/1 6/2/1 5/2/1
f 8/2/1 6/2/1 7/2/1
f 11/3/1 10/3/1 9/3/1
f 12/3/1 10/3/1 11/3/1
f 13/2/2 14/2/2 15/2/2
f 15/2/2 14/2/2 16/2/2
f 17/3/2 18/3/2 19/3/2
f 19/3/2 18/3/2 20/3/2
f 21/1/2 22/1/2 23/1/2
f 23/1/2 22/1/2 24/1/2
f 28/2/3 26/2/3 25/2/3
f 29/2/3 26/2/3 28/2/3
f 31/2/3 28/2/3 27/2/3
f 32/1/3 29/1/3 28/1/3
f 32/2/3 28/2/3 31/2/3
f 33/3/3 30/3/3 29/3/3
f 33/1/3 29/1/3 32/1/3
f 34/3/3 30/3/3 33/3/3
f 35/1/3 33/1/3 32/1/3
f 36/1/3 33/1/3 35/1/3
f 37/2/4 38/2/4 40/2/4
f 40/2/4 38/2/4 41/2/4
f 39/2/4 40/2/4 43/2/4
f 40/1/4 41/1/4 44/1/4
f 43/2/4 40/2/4 44/2/4
f 41/3/4 42/3/4 45/3/4
f 44/1/4 41/1/4 45/1/4
f 45/3/4 42/3/4 46/3/4
f 44/1/4 45/1/4 47/1/4
f 47/1/4 45/1/4 48/1/4
f 51/2/5 50/2/5 49/2/5
f 52/2/5 50/2/5 51/2/5
f 57/2/5 54/2/5 53/2/5
f 58/2/5 54/2/5 57/2/5
f 59/1/5 56/1/5 55/1/5
f 60/1/5 56/1/5 59/1/5
f 61/2/6 62/2/6 65/2/6
f 65/2/6 62/2/6 66/2/6
f 63/1/6 64/1/6 67/1/6
f 67/1/6 64/1/6 68/1/6
f 69/3/6 70/3/6 71/3/6
f 71/3/6 70/3/6 72/3/6
